%TF.GenerationSoftware,KiCad,Pcbnew,9.0.4*%
%TF.CreationDate,2025-10-13T17:03:12+02:00*%
%TF.ProjectId,ProjetX,50726f6a-6574-4582-9e6b-696361645f70,rev?*%
%TF.SameCoordinates,Original*%
%TF.FileFunction,Soldermask,Top*%
%TF.FilePolarity,Negative*%
%FSLAX46Y46*%
G04 Gerber Fmt 4.6, Leading zero omitted, Abs format (unit mm)*
G04 Created by KiCad (PCBNEW 9.0.4) date 2025-10-13 17:03:12*
%MOMM*%
%LPD*%
G01*
G04 APERTURE LIST*
G04 Aperture macros list*
%AMRoundRect*
0 Rectangle with rounded corners*
0 $1 Rounding radius*
0 $2 $3 $4 $5 $6 $7 $8 $9 X,Y pos of 4 corners*
0 Add a 4 corners polygon primitive as box body*
4,1,4,$2,$3,$4,$5,$6,$7,$8,$9,$2,$3,0*
0 Add four circle primitives for the rounded corners*
1,1,$1+$1,$2,$3*
1,1,$1+$1,$4,$5*
1,1,$1+$1,$6,$7*
1,1,$1+$1,$8,$9*
0 Add four rect primitives between the rounded corners*
20,1,$1+$1,$2,$3,$4,$5,0*
20,1,$1+$1,$4,$5,$6,$7,0*
20,1,$1+$1,$6,$7,$8,$9,0*
20,1,$1+$1,$8,$9,$2,$3,0*%
G04 Aperture macros list end*
%ADD10RoundRect,0.135000X-0.135000X-0.185000X0.135000X-0.185000X0.135000X0.185000X-0.135000X0.185000X0*%
%ADD11RoundRect,0.140000X-0.170000X0.140000X-0.170000X-0.140000X0.170000X-0.140000X0.170000X0.140000X0*%
%ADD12RoundRect,0.140000X0.170000X-0.140000X0.170000X0.140000X-0.170000X0.140000X-0.170000X-0.140000X0*%
%ADD13RoundRect,0.250000X-0.600000X-0.750000X0.600000X-0.750000X0.600000X0.750000X-0.600000X0.750000X0*%
%ADD14O,1.700000X2.000000*%
%ADD15RoundRect,0.135000X0.135000X0.185000X-0.135000X0.185000X-0.135000X-0.185000X0.135000X-0.185000X0*%
%ADD16C,1.000000*%
%ADD17RoundRect,0.150000X-0.150000X0.512500X-0.150000X-0.512500X0.150000X-0.512500X0.150000X0.512500X0*%
%ADD18RoundRect,0.140000X-0.140000X-0.170000X0.140000X-0.170000X0.140000X0.170000X-0.140000X0.170000X0*%
%ADD19RoundRect,0.140000X0.140000X0.170000X-0.140000X0.170000X-0.140000X-0.170000X0.140000X-0.170000X0*%
%ADD20R,2.750000X2.750000*%
%ADD21C,2.750000*%
%ADD22C,0.800000*%
%ADD23C,6.400000*%
%ADD24RoundRect,0.218750X0.256250X-0.218750X0.256250X0.218750X-0.256250X0.218750X-0.256250X-0.218750X0*%
%ADD25R,0.802000X1.505000*%
%ADD26R,3.502000X2.613000*%
%ADD27RoundRect,0.125000X0.537500X0.125000X-0.537500X0.125000X-0.537500X-0.125000X0.537500X-0.125000X0*%
%ADD28RoundRect,0.218750X-0.218750X-0.256250X0.218750X-0.256250X0.218750X0.256250X-0.218750X0.256250X0*%
%ADD29RoundRect,0.135000X0.185000X-0.135000X0.185000X0.135000X-0.185000X0.135000X-0.185000X-0.135000X0*%
%ADD30RoundRect,0.250000X0.250000X0.475000X-0.250000X0.475000X-0.250000X-0.475000X0.250000X-0.475000X0*%
%ADD31RoundRect,0.225000X0.225000X0.250000X-0.225000X0.250000X-0.225000X-0.250000X0.225000X-0.250000X0*%
%ADD32RoundRect,0.062500X0.062500X-0.375000X0.062500X0.375000X-0.062500X0.375000X-0.062500X-0.375000X0*%
%ADD33RoundRect,0.062500X0.375000X-0.062500X0.375000X0.062500X-0.375000X0.062500X-0.375000X-0.062500X0*%
%ADD34R,5.600000X5.600000*%
%ADD35RoundRect,0.135000X-0.185000X0.135000X-0.185000X-0.135000X0.185000X-0.135000X0.185000X0.135000X0*%
%ADD36RoundRect,0.225000X0.250000X-0.225000X0.250000X0.225000X-0.250000X0.225000X-0.250000X-0.225000X0*%
%ADD37RoundRect,0.250000X0.725000X-0.600000X0.725000X0.600000X-0.725000X0.600000X-0.725000X-0.600000X0*%
%ADD38O,1.950000X1.700000*%
%ADD39RoundRect,0.250000X0.600000X0.725000X-0.600000X0.725000X-0.600000X-0.725000X0.600000X-0.725000X0*%
%ADD40O,1.700000X1.950000*%
%ADD41RoundRect,0.250000X-0.750000X0.600000X-0.750000X-0.600000X0.750000X-0.600000X0.750000X0.600000X0*%
%ADD42O,2.000000X1.700000*%
%ADD43RoundRect,0.250000X-0.550000X0.700000X-0.550000X-0.700000X0.550000X-0.700000X0.550000X0.700000X0*%
%ADD44R,2.400000X0.740000*%
%ADD45RoundRect,0.150000X0.325000X0.150000X-0.325000X0.150000X-0.325000X-0.150000X0.325000X-0.150000X0*%
%ADD46RoundRect,0.150000X0.150000X0.325000X-0.150000X0.325000X-0.150000X-0.325000X0.150000X-0.325000X0*%
%ADD47RoundRect,0.250000X0.250000X-0.400000X0.250000X0.400000X-0.250000X0.400000X-0.250000X-0.400000X0*%
%ADD48RoundRect,0.250000X0.450000X-0.800000X0.450000X0.800000X-0.450000X0.800000X-0.450000X-0.800000X0*%
%ADD49RoundRect,0.250000X0.475000X-0.250000X0.475000X0.250000X-0.475000X0.250000X-0.475000X-0.250000X0*%
G04 APERTURE END LIST*
D10*
%TO.C,R11*%
X173873749Y-93975000D03*
X174893749Y-93975000D03*
%TD*%
%TO.C,R21*%
X149040000Y-114940000D03*
X150060000Y-114940000D03*
%TD*%
D11*
%TO.C,C9*%
X157250000Y-99040000D03*
X157250000Y-100000000D03*
%TD*%
D12*
%TO.C,C32*%
X146000000Y-95470000D03*
X146000000Y-94510000D03*
%TD*%
D13*
%TO.C,J7*%
X154130000Y-119050000D03*
D14*
X156630000Y-119050000D03*
%TD*%
D15*
%TO.C,R12*%
X170520000Y-89990000D03*
X169500000Y-89990000D03*
%TD*%
D16*
%TO.C,TP4*%
X179492500Y-112000000D03*
%TD*%
D17*
%TO.C,PS1*%
X170860000Y-97052500D03*
X169910000Y-97052500D03*
X168960000Y-97052500D03*
X168960000Y-99327500D03*
X170860000Y-99327500D03*
%TD*%
D18*
%TO.C,C31*%
X157150000Y-114940000D03*
X158110000Y-114940000D03*
%TD*%
D16*
%TO.C,3V3*%
X169210000Y-101452500D03*
%TD*%
D19*
%TO.C,C11*%
X158420000Y-101342500D03*
X157460000Y-101342500D03*
%TD*%
D16*
%TO.C,TP1*%
X179550000Y-90300000D03*
%TD*%
D20*
%TO.C,S1*%
X180400000Y-117275000D03*
D21*
X180400000Y-121975000D03*
X180400000Y-126675000D03*
%TD*%
D18*
%TO.C,C27*%
X169520000Y-88960000D03*
X170480000Y-88960000D03*
%TD*%
D22*
%TO.C,H1*%
X136600000Y-79000000D03*
X137302944Y-77302944D03*
X137302944Y-80697056D03*
X139000000Y-76600000D03*
D23*
X139000000Y-79000000D03*
D22*
X139000000Y-81400000D03*
X140697056Y-77302944D03*
X140697056Y-80697056D03*
X141400000Y-79000000D03*
%TD*%
D16*
%TO.C,TP3*%
X179492500Y-107000000D03*
%TD*%
D19*
%TO.C,C13*%
X183240000Y-98740000D03*
X182280000Y-98740000D03*
%TD*%
D24*
%TO.C,D3_PWR_3V1*%
X173270000Y-101710000D03*
X173270000Y-100135000D03*
%TD*%
D25*
%TO.C,U3*%
X185147500Y-107002500D03*
X183877500Y-107002500D03*
X182607500Y-107002500D03*
X181337500Y-107002500D03*
X181337500Y-111997500D03*
X182607500Y-111997500D03*
X183877500Y-111997500D03*
X185147500Y-111997500D03*
D26*
X183242500Y-109500000D03*
%TD*%
D12*
%TO.C,C6*%
X148050000Y-107150000D03*
X148050000Y-106190000D03*
%TD*%
D27*
%TO.C,IC1*%
X174501249Y-92700000D03*
X174501249Y-92050000D03*
X174501249Y-91400000D03*
X174501249Y-90750000D03*
X172226249Y-90750000D03*
X172226249Y-91400000D03*
X172226249Y-92050000D03*
X172226249Y-92700000D03*
%TD*%
D28*
%TO.C,D3*%
X138737500Y-120350000D03*
X140312500Y-120350000D03*
%TD*%
D12*
%TO.C,C21*%
X165850000Y-100980000D03*
X165850000Y-100020000D03*
%TD*%
D10*
%TO.C,R20*%
X147045000Y-114940000D03*
X148065000Y-114940000D03*
%TD*%
D29*
%TO.C,R1*%
X156800000Y-109760000D03*
X156800000Y-108740000D03*
%TD*%
D10*
%TO.C,R17*%
X155050000Y-114940000D03*
X156070000Y-114940000D03*
%TD*%
D15*
%TO.C,R26*%
X146240000Y-83650000D03*
X145220000Y-83650000D03*
%TD*%
%TO.C,R9*%
X137257500Y-120350000D03*
X136237500Y-120350000D03*
%TD*%
D12*
%TO.C,C19*%
X183060000Y-103850000D03*
X183060000Y-102890000D03*
%TD*%
D16*
%TO.C,TP5*%
X160900000Y-107100000D03*
%TD*%
D25*
%TO.C,U2*%
X185205000Y-90302500D03*
X183935000Y-90302500D03*
X182665000Y-90302500D03*
X181395000Y-90302500D03*
X181395000Y-95297500D03*
X182665000Y-95297500D03*
X183935000Y-95297500D03*
X185205000Y-95297500D03*
D26*
X183300000Y-92800000D03*
%TD*%
D11*
%TO.C,C20*%
X165900000Y-103070000D03*
X165900000Y-104030000D03*
%TD*%
D30*
%TO.C,C36*%
X160200000Y-93320000D03*
X158300000Y-93320000D03*
%TD*%
D10*
%TO.C,R23*%
X159360000Y-114970000D03*
X160380000Y-114970000D03*
%TD*%
D19*
%TO.C,C30*%
X168421249Y-92110000D03*
X167461249Y-92110000D03*
%TD*%
D11*
%TO.C,C16*%
X184310000Y-102895000D03*
X184310000Y-103855000D03*
%TD*%
D31*
%TO.C,C3*%
X165125000Y-98280000D03*
X163575000Y-98280000D03*
%TD*%
D32*
%TO.C,U1*%
X149850000Y-105837500D03*
X150350000Y-105837500D03*
X150850000Y-105837500D03*
X151350000Y-105837500D03*
X151850000Y-105837500D03*
X152350000Y-105837500D03*
X152850000Y-105837500D03*
X153350000Y-105837500D03*
X153850000Y-105837500D03*
X154350000Y-105837500D03*
X154850000Y-105837500D03*
X155350000Y-105837500D03*
D33*
X156037500Y-105150000D03*
X156037500Y-104650000D03*
X156037500Y-104150000D03*
X156037500Y-103650000D03*
X156037500Y-103150000D03*
X156037500Y-102650000D03*
X156037500Y-102150000D03*
X156037500Y-101650000D03*
X156037500Y-101150000D03*
X156037500Y-100650000D03*
X156037500Y-100150000D03*
X156037500Y-99650000D03*
D32*
X155350000Y-98962500D03*
X154850000Y-98962500D03*
X154350000Y-98962500D03*
X153850000Y-98962500D03*
X153350000Y-98962500D03*
X152850000Y-98962500D03*
X152350000Y-98962500D03*
X151850000Y-98962500D03*
X151350000Y-98962500D03*
X150850000Y-98962500D03*
X150350000Y-98962500D03*
X149850000Y-98962500D03*
D33*
X149162500Y-99650000D03*
X149162500Y-100150000D03*
X149162500Y-100650000D03*
X149162500Y-101150000D03*
X149162500Y-101650000D03*
X149162500Y-102150000D03*
X149162500Y-102650000D03*
X149162500Y-103150000D03*
X149162500Y-103650000D03*
X149162500Y-104150000D03*
X149162500Y-104650000D03*
X149162500Y-105150000D03*
D34*
X152600000Y-102400000D03*
%TD*%
D12*
%TO.C,C25*%
X178250000Y-92820000D03*
X178250000Y-91860000D03*
%TD*%
D22*
%TO.C,H2*%
X185600000Y-79000000D03*
X186302944Y-77302944D03*
X186302944Y-80697056D03*
X188000000Y-76600000D03*
D23*
X188000000Y-79000000D03*
D22*
X188000000Y-81400000D03*
X189697056Y-77302944D03*
X189697056Y-80697056D03*
X190400000Y-79000000D03*
%TD*%
D35*
%TO.C,R3*%
X175470000Y-103110000D03*
X175470000Y-104130000D03*
%TD*%
D10*
%TO.C,R25*%
X144130000Y-101180000D03*
X145150000Y-101180000D03*
%TD*%
D22*
%TO.C,H3*%
X136600000Y-125000000D03*
X137302944Y-123302944D03*
X137302944Y-126697056D03*
X139000000Y-122600000D03*
D23*
X139000000Y-125000000D03*
D22*
X139000000Y-127400000D03*
X140697056Y-123302944D03*
X140697056Y-126697056D03*
X141400000Y-125000000D03*
%TD*%
D10*
%TO.C,R16*%
X153040000Y-114940000D03*
X154060000Y-114940000D03*
%TD*%
D36*
%TO.C,C18*%
X181810000Y-103625000D03*
X181810000Y-102075000D03*
%TD*%
D13*
%TO.C,J8*%
X145610000Y-119080000D03*
D14*
X148110000Y-119080000D03*
%TD*%
D36*
%TO.C,C14*%
X181560000Y-87510000D03*
X181560000Y-85960000D03*
%TD*%
D15*
%TO.C,R13*%
X168441249Y-93170000D03*
X167421249Y-93170000D03*
%TD*%
D18*
%TO.C,C34*%
X161270000Y-114970000D03*
X162230000Y-114970000D03*
%TD*%
D10*
%TO.C,R10*%
X169473749Y-91045000D03*
X170493749Y-91045000D03*
%TD*%
D12*
%TO.C,C17*%
X185200000Y-114550000D03*
X185200000Y-113590000D03*
%TD*%
D37*
%TO.C,J5*%
X189255000Y-117300000D03*
D38*
X189255000Y-114800000D03*
X189255000Y-112300000D03*
X189255000Y-109800000D03*
X189255000Y-107300000D03*
X189255000Y-104800000D03*
%TD*%
D39*
%TO.C,J6*%
X161010000Y-84880000D03*
D40*
X158510000Y-84880000D03*
X156010000Y-84880000D03*
X153510000Y-84880000D03*
X151010000Y-84880000D03*
%TD*%
D15*
%TO.C,R14*%
X170473749Y-94195000D03*
X169453749Y-94195000D03*
%TD*%
D28*
%TO.C,D2*%
X138762500Y-118750000D03*
X140337500Y-118750000D03*
%TD*%
D16*
%TO.C,TP6*%
X165300000Y-107000000D03*
%TD*%
%TO.C,TP7*%
X159910000Y-89050000D03*
%TD*%
D28*
%TO.C,D1*%
X138737500Y-117150000D03*
X140312500Y-117150000D03*
%TD*%
D19*
%TO.C,C35*%
X145130000Y-98940000D03*
X144170000Y-98940000D03*
%TD*%
D11*
%TO.C,C12*%
X184060000Y-86780000D03*
X184060000Y-87740000D03*
%TD*%
D12*
%TO.C,C22*%
X157900000Y-109750000D03*
X157900000Y-108790000D03*
%TD*%
D41*
%TO.C,J4*%
X144995000Y-88500000D03*
D42*
X144995000Y-91000000D03*
%TD*%
D37*
%TO.C,J3*%
X189200000Y-98800000D03*
D38*
X189200000Y-96300000D03*
X189200000Y-93800000D03*
X189200000Y-91300000D03*
X189200000Y-88800000D03*
X189200000Y-86300000D03*
%TD*%
D18*
%TO.C,C5*%
X148490000Y-97690000D03*
X149450000Y-97690000D03*
%TD*%
D11*
%TO.C,C8*%
X158270000Y-99030000D03*
X158270000Y-99990000D03*
%TD*%
D16*
%TO.C,TP2*%
X179660000Y-95350000D03*
%TD*%
D35*
%TO.C,R5*%
X163650000Y-105250000D03*
X163650000Y-106270000D03*
%TD*%
D43*
%TO.C,L2*%
X163960000Y-90030000D03*
X163960000Y-94130000D03*
%TD*%
D11*
%TO.C,C23*%
X170810000Y-100872500D03*
X170810000Y-101832500D03*
%TD*%
D24*
%TO.C,D1_PWR_BATT1*%
X177620000Y-101747500D03*
X177620000Y-100172500D03*
%TD*%
D13*
%TO.C,J9*%
X162640000Y-119080000D03*
D14*
X165140000Y-119080000D03*
%TD*%
D15*
%TO.C,R8*%
X137260000Y-118750000D03*
X136240000Y-118750000D03*
%TD*%
D44*
%TO.C,J1*%
X137550000Y-107340000D03*
X141450000Y-107340000D03*
X137550000Y-108610000D03*
X141450000Y-108610000D03*
X137550000Y-109880000D03*
X141450000Y-109880000D03*
X137550000Y-111150000D03*
X141450000Y-111150000D03*
X137550000Y-112420000D03*
X141450000Y-112420000D03*
X137550000Y-113690000D03*
X141450000Y-113690000D03*
X137550000Y-114960000D03*
X141450000Y-114960000D03*
%TD*%
D35*
%TO.C,R6*%
X162550000Y-105250000D03*
X162550000Y-106270000D03*
%TD*%
%TO.C,R4*%
X173270000Y-103112500D03*
X173270000Y-104132500D03*
%TD*%
D45*
%TO.C,U4*%
X164500000Y-104000000D03*
X164500000Y-103200000D03*
X164500000Y-102400000D03*
X164500000Y-101600000D03*
X164500000Y-100800000D03*
X164500000Y-100000000D03*
D46*
X163500000Y-100000000D03*
D45*
X162500000Y-100000000D03*
X162500000Y-100800000D03*
X162500000Y-101600000D03*
X162500000Y-102400000D03*
X162500000Y-103200000D03*
X162500000Y-104000000D03*
D46*
X163500000Y-104000000D03*
%TD*%
D18*
%TO.C,C33*%
X151050000Y-114940000D03*
X152010000Y-114940000D03*
%TD*%
D15*
%TO.C,R7*%
X137257500Y-117150000D03*
X136237500Y-117150000D03*
%TD*%
D13*
%TO.C,J2*%
X171170000Y-119050000D03*
D14*
X173670000Y-119050000D03*
%TD*%
D35*
%TO.C,R2*%
X177620000Y-103160000D03*
X177620000Y-104180000D03*
%TD*%
D11*
%TO.C,C4*%
X172210000Y-97430000D03*
X172210000Y-98390000D03*
%TD*%
D19*
%TO.C,C26*%
X170463749Y-92085000D03*
X169503749Y-92085000D03*
%TD*%
D15*
%TO.C,R22*%
X160390000Y-113970000D03*
X159370000Y-113970000D03*
%TD*%
%TO.C,R24*%
X145160000Y-100090000D03*
X144140000Y-100090000D03*
%TD*%
D30*
%TO.C,C37*%
X160210000Y-91270000D03*
X158310000Y-91270000D03*
%TD*%
D12*
%TO.C,C15*%
X182810000Y-87740000D03*
X182810000Y-86780000D03*
%TD*%
D22*
%TO.C,H4*%
X185600000Y-125000000D03*
X186302944Y-123302944D03*
X186302944Y-126697056D03*
X188000000Y-122600000D03*
D23*
X188000000Y-125000000D03*
D22*
X188000000Y-127400000D03*
X189697056Y-123302944D03*
X189697056Y-126697056D03*
X190400000Y-125000000D03*
%TD*%
D11*
%TO.C,C1*%
X156800000Y-110920000D03*
X156800000Y-111880000D03*
%TD*%
D19*
%TO.C,C10*%
X158430000Y-102407500D03*
X157470000Y-102407500D03*
%TD*%
D47*
%TO.C,Y1*%
X155300000Y-111700000D03*
X155300000Y-109500000D03*
X153500000Y-109500000D03*
X153500000Y-111700000D03*
%TD*%
D48*
%TO.C,SW2*%
X136840000Y-104550000D03*
X136840000Y-95450000D03*
X141340000Y-104550000D03*
X141340000Y-95450000D03*
%TD*%
D12*
%TO.C,C7*%
X149500000Y-108060000D03*
X149500000Y-107100000D03*
%TD*%
D35*
%TO.C,R19*%
X147110000Y-94500000D03*
X147110000Y-95520000D03*
%TD*%
D49*
%TO.C,C24*%
X176643749Y-92635000D03*
X176643749Y-90735000D03*
%TD*%
D24*
%TO.C,D2_PWR_5V1*%
X175470000Y-101697500D03*
X175470000Y-100122500D03*
%TD*%
D11*
%TO.C,C2*%
X152050000Y-109520000D03*
X152050000Y-110480000D03*
%TD*%
D39*
%TO.C,J11*%
X177210000Y-84830000D03*
D40*
X174710000Y-84830000D03*
X172210000Y-84830000D03*
X169710000Y-84830000D03*
X167210000Y-84830000D03*
%TD*%
D10*
%TO.C,R15*%
X169463749Y-93145000D03*
X170483749Y-93145000D03*
%TD*%
D29*
%TO.C,R18*%
X148410000Y-92240000D03*
X148410000Y-91220000D03*
%TD*%
M02*
