M48
; DRILL file {KiCad 9.0.4} date 2025-10-13T17:03:17+0200
; FORMAT={-:-/ absolute / metric / decimal}
; #@! TF.CreationDate,2025-10-13T17:03:17+02:00
; #@! TF.GenerationSoftware,Kicad,Pcbnew,9.0.4
; #@! TF.FileFunction,Plated,1,4,PTH
FMAT,2
METRIC
; #@! TA.AperFunction,Plated,PTH,ViaDrill
T1C0.300
; #@! TA.AperFunction,Plated,PTH,ComponentDrill
T2C0.500
; #@! TA.AperFunction,Plated,PTH,ComponentDrill
T3C0.950
; #@! TA.AperFunction,Plated,PTH,ComponentDrill
T4C1.000
; #@! TA.AperFunction,Plated,PTH,ComponentDrill
T5C1.850
; #@! TA.AperFunction,Plated,PTH,ComponentDrill
T6C3.200
%
G90
G05
T1
X136.175Y-117.95
X139.05Y-113.69
X139.08Y-109.9
X139.1Y-111.11
X139.18Y-108.53
X140.28Y-95.5
X140.3Y-104.55
X143.04Y-113.69
X143.36Y-84.13
X144.14Y-97.99
X144.16Y-110.76
X145.2Y-102.05
X145.23Y-109.57
X145.255Y-108.023
X145.49Y-96.63
X146.18Y-110.46
X146.264Y-100.48
X146.264Y-101.27
X146.705Y-109.961
X147.225Y-109.436
X147.64Y-97.66
X147.74Y-100.52
X147.794Y-101.244
X147.952Y-105.691
X147.955Y-114.04
X148.08Y-108.075
X149.49Y-94.79
X149.49Y-95.92
X149.5Y-106.45
X150.05Y-114.14
X150.205Y-97.825
X150.661Y-113.241
X150.958Y-112.663
X151.95Y-114.14
X152.13Y-111.79
X152.6Y-102.4
X152.875Y-107.35
X153.05Y-114.14
X153.375Y-97.94
X153.427Y-97.292
X153.525Y-107.365
X154.175Y-107.365
X154.415Y-94.846
X154.433Y-106.7
X154.57Y-114.02
X155.112Y-94.215
X155.145Y-96.245
X155.16Y-97.96
X155.174Y-97.204
X155.35Y-106.66
X156.05Y-114.04
X156.986Y-105.839
X157.47Y-101.88
X157.76Y-99.03
X157.77Y-100.0
X157.88Y-110.78
X158.15Y-114.04
X158.31Y-92.27
X158.43Y-101.87
X159.91Y-90.02
X160.21Y-92.24
X161.27Y-113.97
X162.27Y-113.97
X163.17Y-113.97
X163.575Y-99.16
X164.5Y-105.8
X165.8Y-102.1
X165.8Y-104.8
X166.12Y-98.28
X166.67Y-100.02
X167.421Y-92.64
X168.62Y-91.045
X169.464Y-92.615
X170.208Y-98.052
X171.51Y-101.84
X171.56Y-100.828
X173.27Y-104.902
X174.36Y-89.4
X175.49Y-104.932
X175.51Y-92.05
X175.52Y-90.75
X177.6Y-104.942
X177.79Y-90.735
X178.539Y-95.286
X178.785Y-110.485
X179.55Y-93.9
X179.65Y-110.5
X181.85Y-105.03
X182.07Y-100.72
X182.438Y-119.938
X182.49Y-86.09
X182.51Y-103.85
X182.54Y-105.72
X182.607Y-113.8
X182.607Y-117.35
X182.65Y-97.45
X182.665Y-96.625
X182.81Y-88.4
X182.81Y-89.177
X182.865Y-82.465
X183.242Y-109.5
X183.3Y-92.8
X183.4Y-105.7
X183.877Y-106.078
X184.0Y-89.0
X185.2Y-112.95
X185.205Y-94.295
T2
X136.6Y-79.0
X136.6Y-125.0
X137.303Y-77.303
X137.303Y-80.697
X137.303Y-123.303
X137.303Y-126.697
X139.0Y-76.6
X139.0Y-81.4
X139.0Y-122.6
X139.0Y-127.4
X140.697Y-77.303
X140.697Y-80.697
X140.697Y-123.303
X140.697Y-126.697
X141.4Y-79.0
X141.4Y-125.0
X185.6Y-79.0
X185.6Y-125.0
X186.303Y-77.303
X186.303Y-80.697
X186.303Y-123.303
X186.303Y-126.697
X188.0Y-76.6
X188.0Y-81.4
X188.0Y-122.6
X188.0Y-127.4
X189.697Y-77.303
X189.697Y-80.697
X189.697Y-123.303
X189.697Y-126.697
X190.4Y-79.0
X190.4Y-125.0
T3
X151.01Y-84.88
X153.51Y-84.88
X156.01Y-84.88
X158.51Y-84.88
X161.01Y-84.88
X167.21Y-84.83
X169.71Y-84.83
X172.21Y-84.83
X174.71Y-84.83
X177.21Y-84.83
X189.2Y-86.3
X189.2Y-88.8
X189.2Y-91.3
X189.2Y-93.8
X189.2Y-96.3
X189.2Y-98.8
X189.255Y-104.8
X189.255Y-107.3
X189.255Y-109.8
X189.255Y-112.3
X189.255Y-114.8
X189.255Y-117.3
T4
X144.995Y-88.5
X144.995Y-91.0
X145.61Y-119.08
X148.11Y-119.08
X154.13Y-119.05
X156.63Y-119.05
X162.64Y-119.08
X165.14Y-119.08
X171.17Y-119.05
X173.67Y-119.05
T5
X180.4Y-117.275
X180.4Y-121.975
X180.4Y-126.675
T6
X139.0Y-79.0
X139.0Y-125.0
X188.0Y-79.0
X188.0Y-125.0
M30
