%TF.GenerationSoftware,KiCad,Pcbnew,9.0.4*%
%TF.CreationDate,2025-10-13T17:03:12+02:00*%
%TF.ProjectId,ProjetX,50726f6a-6574-4582-9e6b-696361645f70,rev?*%
%TF.SameCoordinates,Original*%
%TF.FileFunction,Soldermask,Bot*%
%TF.FilePolarity,Negative*%
%FSLAX46Y46*%
G04 Gerber Fmt 4.6, Leading zero omitted, Abs format (unit mm)*
G04 Created by KiCad (PCBNEW 9.0.4) date 2025-10-13 17:03:12*
%MOMM*%
%LPD*%
G01*
G04 APERTURE LIST*
G04 Aperture macros list*
%AMRoundRect*
0 Rectangle with rounded corners*
0 $1 Rounding radius*
0 $2 $3 $4 $5 $6 $7 $8 $9 X,Y pos of 4 corners*
0 Add a 4 corners polygon primitive as box body*
4,1,4,$2,$3,$4,$5,$6,$7,$8,$9,$2,$3,0*
0 Add four circle primitives for the rounded corners*
1,1,$1+$1,$2,$3*
1,1,$1+$1,$4,$5*
1,1,$1+$1,$6,$7*
1,1,$1+$1,$8,$9*
0 Add four rect primitives between the rounded corners*
20,1,$1+$1,$2,$3,$4,$5,0*
20,1,$1+$1,$4,$5,$6,$7,0*
20,1,$1+$1,$6,$7,$8,$9,0*
20,1,$1+$1,$8,$9,$2,$3,0*%
G04 Aperture macros list end*
%ADD10RoundRect,0.250000X-0.600000X-0.750000X0.600000X-0.750000X0.600000X0.750000X-0.600000X0.750000X0*%
%ADD11O,1.700000X2.000000*%
%ADD12R,2.750000X2.750000*%
%ADD13C,2.750000*%
%ADD14C,0.800000*%
%ADD15C,6.400000*%
%ADD16RoundRect,0.250000X0.725000X-0.600000X0.725000X0.600000X-0.725000X0.600000X-0.725000X-0.600000X0*%
%ADD17O,1.950000X1.700000*%
%ADD18RoundRect,0.250000X0.600000X0.725000X-0.600000X0.725000X-0.600000X-0.725000X0.600000X-0.725000X0*%
%ADD19O,1.700000X1.950000*%
%ADD20RoundRect,0.250000X-0.750000X0.600000X-0.750000X-0.600000X0.750000X-0.600000X0.750000X0.600000X0*%
%ADD21O,2.000000X1.700000*%
G04 APERTURE END LIST*
D10*
%TO.C,J7*%
X154130000Y-119050000D03*
D11*
X156630000Y-119050000D03*
%TD*%
D12*
%TO.C,S1*%
X180400000Y-117275000D03*
D13*
X180400000Y-121975000D03*
X180400000Y-126675000D03*
%TD*%
D14*
%TO.C,H1*%
X136600000Y-79000000D03*
X137302944Y-77302944D03*
X137302944Y-80697056D03*
X139000000Y-76600000D03*
D15*
X139000000Y-79000000D03*
D14*
X139000000Y-81400000D03*
X140697056Y-77302944D03*
X140697056Y-80697056D03*
X141400000Y-79000000D03*
%TD*%
%TO.C,H2*%
X185600000Y-79000000D03*
X186302944Y-77302944D03*
X186302944Y-80697056D03*
X188000000Y-76600000D03*
D15*
X188000000Y-79000000D03*
D14*
X188000000Y-81400000D03*
X189697056Y-77302944D03*
X189697056Y-80697056D03*
X190400000Y-79000000D03*
%TD*%
%TO.C,H3*%
X136600000Y-125000000D03*
X137302944Y-123302944D03*
X137302944Y-126697056D03*
X139000000Y-122600000D03*
D15*
X139000000Y-125000000D03*
D14*
X139000000Y-127400000D03*
X140697056Y-123302944D03*
X140697056Y-126697056D03*
X141400000Y-125000000D03*
%TD*%
D10*
%TO.C,J8*%
X145610000Y-119080000D03*
D11*
X148110000Y-119080000D03*
%TD*%
D16*
%TO.C,J5*%
X189255000Y-117300000D03*
D17*
X189255000Y-114800000D03*
X189255000Y-112300000D03*
X189255000Y-109800000D03*
X189255000Y-107300000D03*
X189255000Y-104800000D03*
%TD*%
D18*
%TO.C,J6*%
X161010000Y-84880000D03*
D19*
X158510000Y-84880000D03*
X156010000Y-84880000D03*
X153510000Y-84880000D03*
X151010000Y-84880000D03*
%TD*%
D20*
%TO.C,J4*%
X144995000Y-88500000D03*
D21*
X144995000Y-91000000D03*
%TD*%
D16*
%TO.C,J3*%
X189200000Y-98800000D03*
D17*
X189200000Y-96300000D03*
X189200000Y-93800000D03*
X189200000Y-91300000D03*
X189200000Y-88800000D03*
X189200000Y-86300000D03*
%TD*%
D10*
%TO.C,J9*%
X162640000Y-119080000D03*
D11*
X165140000Y-119080000D03*
%TD*%
D10*
%TO.C,J2*%
X171170000Y-119050000D03*
D11*
X173670000Y-119050000D03*
%TD*%
D14*
%TO.C,H4*%
X185600000Y-125000000D03*
X186302944Y-123302944D03*
X186302944Y-126697056D03*
X188000000Y-122600000D03*
D15*
X188000000Y-125000000D03*
D14*
X188000000Y-127400000D03*
X189697056Y-123302944D03*
X189697056Y-126697056D03*
X190400000Y-125000000D03*
%TD*%
D18*
%TO.C,J11*%
X177210000Y-84830000D03*
D19*
X174710000Y-84830000D03*
X172210000Y-84830000D03*
X169710000Y-84830000D03*
X167210000Y-84830000D03*
%TD*%
M02*
