%TF.GenerationSoftware,KiCad,Pcbnew,9.0.4*%
%TF.CreationDate,2025-10-13T17:03:11+02:00*%
%TF.ProjectId,ProjetX,50726f6a-6574-4582-9e6b-696361645f70,rev?*%
%TF.SameCoordinates,Original*%
%TF.FileFunction,Copper,L4,Bot*%
%TF.FilePolarity,Positive*%
%FSLAX46Y46*%
G04 Gerber Fmt 4.6, Leading zero omitted, Abs format (unit mm)*
G04 Created by KiCad (PCBNEW 9.0.4) date 2025-10-13 17:03:11*
%MOMM*%
%LPD*%
G01*
G04 APERTURE LIST*
G04 Aperture macros list*
%AMRoundRect*
0 Rectangle with rounded corners*
0 $1 Rounding radius*
0 $2 $3 $4 $5 $6 $7 $8 $9 X,Y pos of 4 corners*
0 Add a 4 corners polygon primitive as box body*
4,1,4,$2,$3,$4,$5,$6,$7,$8,$9,$2,$3,0*
0 Add four circle primitives for the rounded corners*
1,1,$1+$1,$2,$3*
1,1,$1+$1,$4,$5*
1,1,$1+$1,$6,$7*
1,1,$1+$1,$8,$9*
0 Add four rect primitives between the rounded corners*
20,1,$1+$1,$2,$3,$4,$5,0*
20,1,$1+$1,$4,$5,$6,$7,0*
20,1,$1+$1,$6,$7,$8,$9,0*
20,1,$1+$1,$8,$9,$2,$3,0*%
G04 Aperture macros list end*
%TA.AperFunction,ComponentPad*%
%ADD10RoundRect,0.250000X-0.600000X-0.750000X0.600000X-0.750000X0.600000X0.750000X-0.600000X0.750000X0*%
%TD*%
%TA.AperFunction,ComponentPad*%
%ADD11O,1.700000X2.000000*%
%TD*%
%TA.AperFunction,ComponentPad*%
%ADD12R,2.750000X2.750000*%
%TD*%
%TA.AperFunction,ComponentPad*%
%ADD13C,2.750000*%
%TD*%
%TA.AperFunction,ComponentPad*%
%ADD14C,0.800000*%
%TD*%
%TA.AperFunction,ComponentPad*%
%ADD15C,6.400000*%
%TD*%
%TA.AperFunction,ComponentPad*%
%ADD16RoundRect,0.250000X0.725000X-0.600000X0.725000X0.600000X-0.725000X0.600000X-0.725000X-0.600000X0*%
%TD*%
%TA.AperFunction,ComponentPad*%
%ADD17O,1.950000X1.700000*%
%TD*%
%TA.AperFunction,ComponentPad*%
%ADD18RoundRect,0.250000X0.600000X0.725000X-0.600000X0.725000X-0.600000X-0.725000X0.600000X-0.725000X0*%
%TD*%
%TA.AperFunction,ComponentPad*%
%ADD19O,1.700000X1.950000*%
%TD*%
%TA.AperFunction,ComponentPad*%
%ADD20RoundRect,0.250000X-0.750000X0.600000X-0.750000X-0.600000X0.750000X-0.600000X0.750000X0.600000X0*%
%TD*%
%TA.AperFunction,ComponentPad*%
%ADD21O,2.000000X1.700000*%
%TD*%
%TA.AperFunction,ViaPad*%
%ADD22C,0.450000*%
%TD*%
%TA.AperFunction,ViaPad*%
%ADD23C,0.600000*%
%TD*%
%TA.AperFunction,Conductor*%
%ADD24C,0.200000*%
%TD*%
%TA.AperFunction,Conductor*%
%ADD25C,0.540000*%
%TD*%
%TA.AperFunction,Conductor*%
%ADD26C,0.250000*%
%TD*%
G04 APERTURE END LIST*
D10*
%TO.P,J7,1,Pin_1*%
%TO.N,Net-(J7-Pin_1)*%
X154130000Y-119050000D03*
D11*
%TO.P,J7,2,Pin_2*%
%TO.N,GND*%
X156630000Y-119050000D03*
%TD*%
D12*
%TO.P,S1,1,1*%
%TO.N,unconnected-(S1-Pad1)*%
X180400000Y-117275000D03*
D13*
%TO.P,S1,2,2*%
%TO.N,+BATT*%
X180400000Y-121975000D03*
%TO.P,S1,3,3*%
%TO.N,Net-(J2-Pin_2)*%
X180400000Y-126675000D03*
%TD*%
D14*
%TO.P,H1,1,1*%
%TO.N,GND*%
X136600000Y-79000000D03*
X137302944Y-77302944D03*
X137302944Y-80697056D03*
X139000000Y-76600000D03*
D15*
X139000000Y-79000000D03*
D14*
X139000000Y-81400000D03*
X140697056Y-77302944D03*
X140697056Y-80697056D03*
X141400000Y-79000000D03*
%TD*%
%TO.P,H2,1,1*%
%TO.N,GND*%
X185600000Y-79000000D03*
X186302944Y-77302944D03*
X186302944Y-80697056D03*
X188000000Y-76600000D03*
D15*
X188000000Y-79000000D03*
D14*
X188000000Y-81400000D03*
X189697056Y-77302944D03*
X189697056Y-80697056D03*
X190400000Y-79000000D03*
%TD*%
%TO.P,H3,1,1*%
%TO.N,GND*%
X136600000Y-125000000D03*
X137302944Y-123302944D03*
X137302944Y-126697056D03*
X139000000Y-122600000D03*
D15*
X139000000Y-125000000D03*
D14*
X139000000Y-127400000D03*
X140697056Y-123302944D03*
X140697056Y-126697056D03*
X141400000Y-125000000D03*
%TD*%
D10*
%TO.P,J8,1,Pin_1*%
%TO.N,Net-(J8-Pin_1)*%
X145610000Y-119080000D03*
D11*
%TO.P,J8,2,Pin_2*%
%TO.N,GND*%
X148110000Y-119080000D03*
%TD*%
D16*
%TO.P,J5,1,Pin_1*%
%TO.N,/Actionneurs/MOTEUR2-*%
X189255000Y-117300000D03*
D17*
%TO.P,J5,2,Pin_2*%
%TO.N,GND*%
X189255000Y-114800000D03*
%TO.P,J5,3,Pin_3*%
%TO.N,/Actionneurs/ENCOD_A2*%
X189255000Y-112300000D03*
%TO.P,J5,4,Pin_4*%
%TO.N,/Actionneurs/ENCOD_B2*%
X189255000Y-109800000D03*
%TO.P,J5,5,Pin_5*%
%TO.N,+3.3V*%
X189255000Y-107300000D03*
%TO.P,J5,6,Pin_6*%
%TO.N,/Actionneurs/MOTEUR2+*%
X189255000Y-104800000D03*
%TD*%
D18*
%TO.P,J6,1,Pin_1*%
%TO.N,/STM32/LIDAR_M_CTR*%
X161010000Y-84880000D03*
D19*
%TO.P,J6,2,Pin_2*%
%TO.N,GND*%
X158510000Y-84880000D03*
%TO.P,J6,3,Pin_3*%
%TO.N,unconnected-(J6-Pin_3-Pad3)*%
X156010000Y-84880000D03*
%TO.P,J6,4,Pin_4*%
%TO.N,Net-(J6-Pin_4)*%
X153510000Y-84880000D03*
%TO.P,J6,5,Pin_5*%
%TO.N,+5V*%
X151010000Y-84880000D03*
%TD*%
D20*
%TO.P,J4,1,Pin_1*%
%TO.N,Net-(J4-Pin_1)*%
X144995000Y-88500000D03*
D21*
%TO.P,J4,2,Pin_2*%
%TO.N,GND*%
X144995000Y-91000000D03*
%TD*%
D16*
%TO.P,J3,1,Pin_1*%
%TO.N,/Actionneurs/MOTEUR1-*%
X189200000Y-98800000D03*
D17*
%TO.P,J3,2,Pin_2*%
%TO.N,GND*%
X189200000Y-96300000D03*
%TO.P,J3,3,Pin_3*%
%TO.N,/Actionneurs/ENCOD_A1*%
X189200000Y-93800000D03*
%TO.P,J3,4,Pin_4*%
%TO.N,/Actionneurs/ENCOD_B1*%
X189200000Y-91300000D03*
%TO.P,J3,5,Pin_5*%
%TO.N,+3.3V*%
X189200000Y-88800000D03*
%TO.P,J3,6,Pin_6*%
%TO.N,/Actionneurs/MOTEUR1+*%
X189200000Y-86300000D03*
%TD*%
D10*
%TO.P,J9,1,Pin_1*%
%TO.N,Net-(J9-Pin_1)*%
X162640000Y-119080000D03*
D11*
%TO.P,J9,2,Pin_2*%
%TO.N,GND*%
X165140000Y-119080000D03*
%TD*%
D10*
%TO.P,J2,1,Pin_1*%
%TO.N,GND*%
X171170000Y-119050000D03*
D11*
%TO.P,J2,2,Pin_2*%
%TO.N,Net-(J2-Pin_2)*%
X173670000Y-119050000D03*
%TD*%
D14*
%TO.P,H4,1,1*%
%TO.N,GND*%
X185600000Y-125000000D03*
X186302944Y-123302944D03*
X186302944Y-126697056D03*
X188000000Y-122600000D03*
D15*
X188000000Y-125000000D03*
D14*
X188000000Y-127400000D03*
X189697056Y-123302944D03*
X189697056Y-126697056D03*
X190400000Y-125000000D03*
%TD*%
D18*
%TO.P,J11,1,Pin_1*%
%TO.N,unconnected-(J11-Pin_1-Pad1)*%
X177210000Y-84830000D03*
D19*
%TO.P,J11,2,Pin_2*%
%TO.N,GND*%
X174710000Y-84830000D03*
%TO.P,J11,3,Pin_3*%
%TO.N,/STM32/BLE_RX*%
X172210000Y-84830000D03*
%TO.P,J11,4,Pin_4*%
%TO.N,/STM32/BLE_TX*%
X169710000Y-84830000D03*
%TO.P,J11,5,Pin_5*%
%TO.N,+5V*%
X167210000Y-84830000D03*
%TD*%
D22*
%TO.N,+3.3V*%
X182865000Y-82465000D03*
X145200000Y-102050000D03*
%TO.N,GND*%
X169463749Y-92615000D03*
X148080000Y-108075000D03*
X157760000Y-99030000D03*
X185200000Y-112950000D03*
X177600000Y-104942500D03*
X152130000Y-111790000D03*
X177790000Y-90735000D03*
X139050000Y-113690000D03*
X140280000Y-95500000D03*
X163170000Y-113970000D03*
X152600000Y-102400000D03*
X144140000Y-97990000D03*
X183300000Y-92800000D03*
X182490000Y-86090000D03*
X154570000Y-114020000D03*
X136175000Y-117950000D03*
X157880000Y-110780000D03*
X165800000Y-102100000D03*
X171510000Y-101840000D03*
X175520000Y-90750000D03*
X182070000Y-100720000D03*
X140300000Y-104550000D03*
X158150000Y-114040000D03*
X144160000Y-110760000D03*
X170207516Y-98052484D03*
X158310000Y-92270000D03*
X158430000Y-101870000D03*
X183242500Y-109500000D03*
X139080000Y-109900000D03*
X139100000Y-111110000D03*
X175490000Y-104932500D03*
X185205000Y-94295000D03*
X147640000Y-97660000D03*
X166120000Y-98280000D03*
X151950000Y-114140000D03*
X173270000Y-104902500D03*
%TO.N,+BATT*%
X174360000Y-89400000D03*
D23*
X182665000Y-96625000D03*
X184000000Y-89000000D03*
X182650000Y-97450000D03*
X183877500Y-106077500D03*
D22*
X168620000Y-91045000D03*
D23*
X182810000Y-88400000D03*
X183400000Y-105700000D03*
D22*
%TO.N,/STM32/NRST*%
X143040000Y-113690000D03*
X152875000Y-107350000D03*
%TO.N,/STM32/BORDER_2*%
X154174829Y-107365000D03*
X156050000Y-114040000D03*
%TO.N,/STM32/BORDER_4*%
X145490000Y-96630000D03*
X155350000Y-106660000D03*
%TO.N,/STM32/BORDER_1*%
X153524826Y-107365000D03*
X150050000Y-114140000D03*
%TO.N,/STM32/BORDER_3*%
X156986268Y-105838732D03*
X162270000Y-113970000D03*
%TO.N,/Actionneurs/ENCOD_A1*%
X154415218Y-94845536D03*
%TO.N,/Actionneurs/ENCOD_B1*%
X155111500Y-94215000D03*
%TO.N,/Actionneurs/ENCOD_A2*%
X146180000Y-110460000D03*
%TO.N,/Actionneurs/ENCOD_B2*%
X153375000Y-97939611D03*
%TO.N,/STM32/RX_SWD*%
X145230000Y-109570000D03*
X145255000Y-108022881D03*
%TO.N,/STM32/TX_SWD*%
X147793768Y-101243768D03*
X146264000Y-101270000D03*
%TO.N,/STM32/SCL*%
X150661182Y-113241000D03*
X146705000Y-109961077D03*
%TO.N,/STM32/SDA*%
X150957971Y-112662710D03*
X147225000Y-109436077D03*
%TO.N,/Actionneurs/FWD1*%
X179550000Y-93900000D03*
X155144741Y-96245270D03*
%TO.N,/Actionneurs/REV1*%
X178538796Y-95286334D03*
X155173768Y-97203768D03*
%TO.N,/Actionneurs/FWD2*%
X153427100Y-97291700D03*
X178785000Y-110485000D03*
%TO.N,/Actionneurs/REV2*%
X179650000Y-110500000D03*
X155160000Y-97960000D03*
%TO.N,/STM32/LIDAR_TX*%
X143360000Y-84130000D03*
X154433115Y-106699753D03*
%TO.N,/STM32/CHAT{slash}SOURIS*%
X147739891Y-100519673D03*
X146264000Y-100480000D03*
%TD*%
D24*
%TO.N,+3.3V*%
X190740000Y-90340000D02*
X189200000Y-88800000D01*
X182865000Y-82465000D02*
X189200000Y-88800000D01*
X189255000Y-107300000D02*
X190740000Y-105815000D01*
X190740000Y-105815000D02*
X190740000Y-90340000D01*
D25*
%TO.N,+BATT*%
X168975000Y-90690000D02*
X173070000Y-90690000D01*
X173070000Y-90690000D02*
X174360000Y-89400000D01*
X168620000Y-91045000D02*
X168975000Y-90690000D01*
D24*
%TO.N,/STM32/NRST*%
X151600000Y-108600000D02*
X147300000Y-108600000D01*
X147300000Y-108600000D02*
X145966000Y-109934000D01*
X152875000Y-107350000D02*
X152850000Y-107350000D01*
X145654000Y-111076000D02*
X143040000Y-113690000D01*
X145962123Y-109934000D02*
X145654000Y-110242123D01*
X145966000Y-109934000D02*
X145962123Y-109934000D01*
X145654000Y-110242123D02*
X145654000Y-111076000D01*
X152850000Y-107350000D02*
X151600000Y-108600000D01*
%TO.N,/STM32/BORDER_2*%
X155750000Y-114040000D02*
X156050000Y-114040000D01*
X154160000Y-112450000D02*
X155750000Y-114040000D01*
X154160000Y-107379829D02*
X154160000Y-112450000D01*
X154174829Y-107365000D02*
X154160000Y-107379829D01*
%TO.N,/STM32/BORDER_4*%
X154860000Y-106170000D02*
X155350000Y-106660000D01*
X145490000Y-96630000D02*
X148760000Y-99900000D01*
X153426100Y-105229000D02*
X154367100Y-106170000D01*
X148935123Y-105229000D02*
X153426100Y-105229000D01*
X154367100Y-106170000D02*
X154860000Y-106170000D01*
X148760000Y-105053877D02*
X148935123Y-105229000D01*
X148760000Y-99900000D02*
X148760000Y-105053877D01*
D26*
%TO.N,/STM32/BORDER_1*%
X153120000Y-112840000D02*
X151840000Y-112840000D01*
X153620000Y-112340000D02*
X153120000Y-112840000D01*
X151840000Y-112840000D02*
X150540000Y-114140000D01*
X153620000Y-107460174D02*
X153620000Y-112340000D01*
X150540000Y-114140000D02*
X150050000Y-114140000D01*
X153524826Y-107365000D02*
X153620000Y-107460174D01*
D24*
%TO.N,/STM32/BORDER_3*%
X156986268Y-105838732D02*
X157398732Y-105838732D01*
X157398732Y-105838732D02*
X162900000Y-111340000D01*
X162900000Y-111340000D02*
X162900000Y-113340000D01*
X162900000Y-113340000D02*
X162270000Y-113970000D01*
%TO.N,/Actionneurs/ENCOD_A1*%
X188730000Y-93330000D02*
X179370000Y-93330000D01*
X155410000Y-94790000D02*
X154470754Y-94790000D01*
X154460000Y-94800754D02*
X154415218Y-94845536D01*
X179370000Y-93330000D02*
X178511000Y-94189000D01*
X176691923Y-94590000D02*
X155610000Y-94590000D01*
X154460000Y-94740000D02*
X154460000Y-94800754D01*
X155610000Y-94590000D02*
X155410000Y-94790000D01*
X177092923Y-94189000D02*
X176691923Y-94590000D01*
X154470754Y-94790000D02*
X154415218Y-94845536D01*
X189200000Y-93800000D02*
X188730000Y-93330000D01*
X178511000Y-94189000D02*
X177092923Y-94189000D01*
%TO.N,/Actionneurs/ENCOD_B1*%
X178342000Y-93788000D02*
X180830000Y-91300000D01*
X155137500Y-94189000D02*
X176525823Y-94189000D01*
X176525823Y-94189000D02*
X176926823Y-93788000D01*
X155111500Y-94215000D02*
X155137500Y-94189000D01*
X188838000Y-91300000D02*
X189059000Y-91521000D01*
X176926823Y-93788000D02*
X178342000Y-93788000D01*
X180830000Y-91300000D02*
X188838000Y-91300000D01*
%TO.N,/Actionneurs/ENCOD_A2*%
X179220000Y-115160000D02*
X185640000Y-115160000D01*
X146175000Y-110465000D02*
X146175000Y-116540077D01*
X146180000Y-110460000D02*
X146175000Y-110465000D01*
X185640000Y-115160000D02*
X188500000Y-112300000D01*
X146884923Y-117250000D02*
X177130000Y-117250000D01*
X188500000Y-112300000D02*
X189255000Y-112300000D01*
X177130000Y-117250000D02*
X179220000Y-115160000D01*
X146175000Y-116540077D02*
X146884923Y-117250000D01*
%TO.N,/Actionneurs/ENCOD_B2*%
X155750000Y-100710000D02*
X155750000Y-103570000D01*
X187924000Y-111131000D02*
X189255000Y-109800000D01*
X163311000Y-111131000D02*
X187924000Y-111131000D01*
X153350000Y-98310000D02*
X155750000Y-100710000D01*
X153375000Y-97939611D02*
X153350000Y-97964611D01*
X153350000Y-97964611D02*
X153350000Y-98310000D01*
X155750000Y-103570000D02*
X163311000Y-111131000D01*
%TO.N,/STM32/RX_SWD*%
X145230000Y-108047881D02*
X145230000Y-109570000D01*
X145255000Y-108022881D02*
X145230000Y-108047881D01*
%TO.N,/STM32/TX_SWD*%
X147597536Y-101270000D02*
X147623768Y-101243768D01*
X147623768Y-101243768D02*
X147793768Y-101243768D01*
X146264000Y-101270000D02*
X147597536Y-101270000D01*
%TO.N,/STM32/SCL*%
X146705000Y-109961077D02*
X146705000Y-109975000D01*
X149971000Y-113241000D02*
X150661182Y-113241000D01*
X146705000Y-109975000D02*
X149971000Y-113241000D01*
%TO.N,/STM32/SDA*%
X147225000Y-109436077D02*
X150451633Y-112662710D01*
X150451633Y-112662710D02*
X150957971Y-112662710D01*
%TO.N,/Actionneurs/FWD1*%
X178730000Y-94590000D02*
X179420000Y-93900000D01*
X155144741Y-96245270D02*
X155374730Y-96245270D01*
X177259023Y-94590000D02*
X178730000Y-94590000D01*
X155374730Y-96245270D02*
X156581000Y-95039000D01*
X179420000Y-93900000D02*
X179550000Y-93900000D01*
X176810023Y-95039000D02*
X177259023Y-94590000D01*
X156581000Y-95039000D02*
X176810023Y-95039000D01*
%TO.N,/Actionneurs/REV1*%
X156937536Y-95440000D02*
X155988536Y-96389000D01*
X155988536Y-96390413D02*
X155680413Y-96698536D01*
X155680413Y-96698536D02*
X155679000Y-96698536D01*
X155679000Y-96698536D02*
X155173768Y-97203768D01*
X178385130Y-95440000D02*
X156937536Y-95440000D01*
X155988536Y-96389000D02*
X155988536Y-96390413D01*
X178538796Y-95286334D02*
X178385130Y-95440000D01*
%TO.N,/Actionneurs/FWD2*%
X178785000Y-110485000D02*
X178540000Y-110730000D01*
X153901000Y-98293900D02*
X153901000Y-97481000D01*
X178540000Y-110730000D02*
X163477100Y-110730000D01*
X153711700Y-97291700D02*
X153427100Y-97291700D01*
X156151000Y-103403900D02*
X156151000Y-100543900D01*
X153901000Y-97481000D02*
X153711700Y-97291700D01*
X163477100Y-110730000D02*
X156151000Y-103403900D01*
X156151000Y-100543900D02*
X153901000Y-98293900D01*
%TO.N,/Actionneurs/REV2*%
X178748900Y-102988900D02*
X179650000Y-103890000D01*
X179650000Y-110500000D02*
X179650000Y-110510000D01*
X179650000Y-103890000D02*
X179650000Y-110500000D01*
X155315232Y-97804768D02*
X155316645Y-97804768D01*
X155624768Y-97495232D02*
X157279000Y-95841000D01*
X155624768Y-97496645D02*
X155624768Y-97495232D01*
X155316645Y-97804768D02*
X155624768Y-97496645D01*
X155160000Y-97960000D02*
X155315232Y-97804768D01*
X157279000Y-95841000D02*
X178351000Y-95841000D01*
X178748900Y-96238900D02*
X178748900Y-102988900D01*
X178351000Y-95841000D02*
X178748900Y-96238900D01*
%TO.N,/STM32/LIDAR_TX*%
X142880000Y-91890000D02*
X144630000Y-93640000D01*
X148290782Y-100280782D02*
X148359000Y-100349000D01*
X153260000Y-105630000D02*
X154329753Y-106699753D01*
X144630000Y-93640000D02*
X144630000Y-96620000D01*
X148359000Y-100349000D02*
X148359000Y-105219977D01*
X154329753Y-106699753D02*
X154433115Y-106699753D01*
X142880000Y-84570000D02*
X142880000Y-91890000D01*
X144630000Y-96620000D02*
X147978782Y-99968782D01*
X143320000Y-84130000D02*
X142880000Y-84570000D01*
X148769023Y-105630000D02*
X153260000Y-105630000D01*
X147978782Y-99968782D02*
X147982659Y-99968782D01*
X143360000Y-84130000D02*
X143320000Y-84130000D01*
X148290782Y-100276905D02*
X148290782Y-100280782D01*
X148359000Y-105219977D02*
X148769023Y-105630000D01*
X147982659Y-99968782D02*
X148290782Y-100276905D01*
%TO.N,/STM32/CHAT{slash}SOURIS*%
X146303673Y-100519673D02*
X146264000Y-100480000D01*
X147739891Y-100519673D02*
X146303673Y-100519673D01*
%TD*%
%TA.AperFunction,Conductor*%
%TO.N,GND*%
G36*
X188503244Y-75500670D02*
G01*
X188807046Y-75516592D01*
X188819953Y-75517949D01*
X188951089Y-75538718D01*
X189117209Y-75565028D01*
X189129896Y-75567724D01*
X189420625Y-75645625D01*
X189432965Y-75649635D01*
X189713938Y-75757490D01*
X189725790Y-75762767D01*
X189993968Y-75899411D01*
X190005199Y-75905896D01*
X190257608Y-76069812D01*
X190268109Y-76077441D01*
X190502010Y-76266850D01*
X190511655Y-76275535D01*
X190724464Y-76488344D01*
X190733149Y-76497989D01*
X190922558Y-76731890D01*
X190930187Y-76742391D01*
X191094101Y-76994796D01*
X191100591Y-77006036D01*
X191237231Y-77274206D01*
X191242510Y-77286064D01*
X191350363Y-77567033D01*
X191354374Y-77579376D01*
X191432273Y-77870097D01*
X191434971Y-77882794D01*
X191482050Y-78180046D01*
X191483407Y-78192953D01*
X191499330Y-78496756D01*
X191499500Y-78503246D01*
X191499500Y-89991717D01*
X191498639Y-89994646D01*
X191499360Y-89997616D01*
X191488857Y-90027962D01*
X191479815Y-90058756D01*
X191477507Y-90060755D01*
X191476508Y-90063643D01*
X191451262Y-90083497D01*
X191427011Y-90104511D01*
X191423989Y-90104945D01*
X191421588Y-90106834D01*
X191389631Y-90109885D01*
X191357853Y-90114455D01*
X191355073Y-90113185D01*
X191352034Y-90113476D01*
X191323503Y-90098768D01*
X191294297Y-90085430D01*
X191291826Y-90082438D01*
X191289931Y-90081461D01*
X191268114Y-90053718D01*
X191241252Y-90007193D01*
X191241250Y-90007190D01*
X191220522Y-89971287D01*
X191220521Y-89971286D01*
X191220520Y-89971284D01*
X191108716Y-89859480D01*
X191108715Y-89859479D01*
X191104385Y-89855149D01*
X191104374Y-89855139D01*
X190628102Y-89378867D01*
X190594617Y-89317544D01*
X190597851Y-89252874D01*
X190642246Y-89116243D01*
X190675500Y-88906287D01*
X190675500Y-88693713D01*
X190642246Y-88483757D01*
X190576557Y-88281588D01*
X190480051Y-88092184D01*
X190480049Y-88092181D01*
X190480048Y-88092179D01*
X190355109Y-87920213D01*
X190204792Y-87769896D01*
X190040204Y-87650316D01*
X189997540Y-87594989D01*
X189991561Y-87525376D01*
X190024166Y-87463580D01*
X190040199Y-87449686D01*
X190204792Y-87330104D01*
X190355104Y-87179792D01*
X190355106Y-87179788D01*
X190355109Y-87179786D01*
X190480048Y-87007820D01*
X190480047Y-87007820D01*
X190480051Y-87007816D01*
X190576557Y-86818412D01*
X190642246Y-86616243D01*
X190675500Y-86406287D01*
X190675500Y-86193713D01*
X190642246Y-85983757D01*
X190576557Y-85781588D01*
X190480051Y-85592184D01*
X190480049Y-85592181D01*
X190480048Y-85592179D01*
X190355109Y-85420213D01*
X190204786Y-85269890D01*
X190032820Y-85144951D01*
X189843414Y-85048444D01*
X189843413Y-85048443D01*
X189843412Y-85048443D01*
X189641243Y-84982754D01*
X189641241Y-84982753D01*
X189641240Y-84982753D01*
X189479957Y-84957208D01*
X189431287Y-84949500D01*
X188968713Y-84949500D01*
X188920042Y-84957208D01*
X188758760Y-84982753D01*
X188556585Y-85048444D01*
X188367179Y-85144951D01*
X188195213Y-85269890D01*
X188044890Y-85420213D01*
X187919951Y-85592179D01*
X187823444Y-85781585D01*
X187757753Y-85983760D01*
X187724074Y-86196402D01*
X187694145Y-86259537D01*
X187634833Y-86296468D01*
X187564971Y-86295470D01*
X187513920Y-86264685D01*
X183604116Y-82354881D01*
X183570631Y-82293558D01*
X183570191Y-82291451D01*
X183562619Y-82253380D01*
X183507929Y-82121347D01*
X183507928Y-82121346D01*
X183507925Y-82121340D01*
X183428532Y-82002521D01*
X183428529Y-82002517D01*
X183327482Y-81901470D01*
X183327478Y-81901467D01*
X183208659Y-81822074D01*
X183208650Y-81822069D01*
X183076620Y-81767381D01*
X183076614Y-81767379D01*
X182936457Y-81739500D01*
X182936455Y-81739500D01*
X182793545Y-81739500D01*
X182793543Y-81739500D01*
X182653385Y-81767379D01*
X182653379Y-81767381D01*
X182521349Y-81822069D01*
X182521340Y-81822074D01*
X182402521Y-81901467D01*
X182402517Y-81901470D01*
X182301470Y-82002517D01*
X182301467Y-82002521D01*
X182222074Y-82121340D01*
X182222069Y-82121349D01*
X182167381Y-82253379D01*
X182167379Y-82253385D01*
X182139500Y-82393542D01*
X182139500Y-82393545D01*
X182139500Y-82536455D01*
X182139500Y-82536457D01*
X182139499Y-82536457D01*
X182167379Y-82676614D01*
X182167381Y-82676620D01*
X182222069Y-82808650D01*
X182222074Y-82808659D01*
X182301467Y-82927478D01*
X182301470Y-82927482D01*
X182402517Y-83028529D01*
X182402521Y-83028532D01*
X182521340Y-83107925D01*
X182521346Y-83107928D01*
X182521347Y-83107929D01*
X182653380Y-83162619D01*
X182691391Y-83170179D01*
X182753302Y-83202564D01*
X182754881Y-83204116D01*
X187771897Y-88221132D01*
X187805382Y-88282455D01*
X187802147Y-88347129D01*
X187761073Y-88473539D01*
X187757753Y-88483760D01*
X187724500Y-88693713D01*
X187724500Y-88906286D01*
X187757308Y-89113431D01*
X187757754Y-89116243D01*
X187802123Y-89252797D01*
X187823444Y-89318414D01*
X187919951Y-89507820D01*
X188044890Y-89679786D01*
X188195209Y-89830105D01*
X188195214Y-89830109D01*
X188359793Y-89949682D01*
X188402459Y-90005011D01*
X188408438Y-90074625D01*
X188375833Y-90136420D01*
X188359793Y-90150318D01*
X188195214Y-90269890D01*
X188195209Y-90269894D01*
X188044890Y-90420213D01*
X187919948Y-90592184D01*
X187919947Y-90592185D01*
X187899765Y-90631795D01*
X187851791Y-90682591D01*
X187789281Y-90699500D01*
X180750939Y-90699500D01*
X180716547Y-90708715D01*
X180716548Y-90708716D01*
X180598214Y-90740423D01*
X180598209Y-90740426D01*
X180461290Y-90819475D01*
X180461282Y-90819481D01*
X180349480Y-90931284D01*
X180349478Y-90931286D01*
X179230504Y-92050261D01*
X178129584Y-93151181D01*
X178068261Y-93184666D01*
X178041903Y-93187500D01*
X177013493Y-93187500D01*
X177013477Y-93187499D01*
X177005881Y-93187499D01*
X176847766Y-93187499D01*
X176771402Y-93207961D01*
X176695037Y-93228423D01*
X176695032Y-93228426D01*
X176558113Y-93307475D01*
X176558105Y-93307481D01*
X176313407Y-93552181D01*
X176252084Y-93585666D01*
X176225726Y-93588500D01*
X155516950Y-93588500D01*
X155458495Y-93573857D01*
X155455154Y-93572071D01*
X155323120Y-93517381D01*
X155323114Y-93517379D01*
X155182957Y-93489500D01*
X155182955Y-93489500D01*
X155040045Y-93489500D01*
X155040043Y-93489500D01*
X154899885Y-93517379D01*
X154899879Y-93517381D01*
X154767849Y-93572069D01*
X154767840Y-93572074D01*
X154649021Y-93651467D01*
X154649017Y-93651470D01*
X154547970Y-93752517D01*
X154547967Y-93752521D01*
X154468574Y-93871340D01*
X154468569Y-93871349D01*
X154413881Y-94003379D01*
X154413880Y-94003381D01*
X154408772Y-94029061D01*
X154376385Y-94090971D01*
X154315668Y-94125543D01*
X154311347Y-94126483D01*
X154203603Y-94147915D01*
X154203597Y-94147917D01*
X154071567Y-94202605D01*
X154071558Y-94202610D01*
X153952739Y-94282003D01*
X153952735Y-94282006D01*
X153851688Y-94383053D01*
X153851685Y-94383057D01*
X153772292Y-94501876D01*
X153772287Y-94501885D01*
X153717599Y-94633915D01*
X153717597Y-94633921D01*
X153689718Y-94774078D01*
X153689718Y-94774081D01*
X153689718Y-94916991D01*
X153689718Y-94916993D01*
X153689717Y-94916993D01*
X153717597Y-95057150D01*
X153717599Y-95057156D01*
X153772287Y-95189186D01*
X153772292Y-95189195D01*
X153851685Y-95308014D01*
X153851688Y-95308018D01*
X153952735Y-95409065D01*
X153952739Y-95409068D01*
X154071558Y-95488461D01*
X154071564Y-95488464D01*
X154071565Y-95488465D01*
X154203598Y-95543155D01*
X154203602Y-95543155D01*
X154203603Y-95543156D01*
X154343760Y-95571036D01*
X154492765Y-95571036D01*
X154492765Y-95573687D01*
X154550102Y-95584518D01*
X154600848Y-95632545D01*
X154617573Y-95700383D01*
X154594966Y-95766495D01*
X154581383Y-95782615D01*
X154581216Y-95782781D01*
X154581208Y-95782791D01*
X154501815Y-95901610D01*
X154501810Y-95901619D01*
X154447122Y-96033649D01*
X154447120Y-96033655D01*
X154419241Y-96173812D01*
X154419241Y-96173815D01*
X154419241Y-96316725D01*
X154419241Y-96316727D01*
X154419240Y-96316727D01*
X154447120Y-96456884D01*
X154447122Y-96456890D01*
X154501810Y-96588920D01*
X154501815Y-96588929D01*
X154560895Y-96677348D01*
X154563656Y-96686168D01*
X154569812Y-96693063D01*
X154573931Y-96718982D01*
X154581773Y-96744026D01*
X154579328Y-96752937D01*
X154580779Y-96762066D01*
X154566011Y-96801477D01*
X154563288Y-96811406D01*
X154561662Y-96813085D01*
X154560897Y-96815128D01*
X154530840Y-96860112D01*
X154530837Y-96860118D01*
X154484263Y-96972558D01*
X154440422Y-97026961D01*
X154374127Y-97049026D01*
X154306428Y-97031747D01*
X154282021Y-97012786D01*
X154209661Y-96940426D01*
X154209659Y-96940423D01*
X154080417Y-96811181D01*
X154080416Y-96811180D01*
X153975394Y-96750546D01*
X153943485Y-96732123D01*
X153876831Y-96714262D01*
X153870726Y-96711915D01*
X153865628Y-96708017D01*
X153846346Y-96699281D01*
X153770750Y-96648769D01*
X153638720Y-96594081D01*
X153638714Y-96594079D01*
X153498557Y-96566200D01*
X153498555Y-96566200D01*
X153355645Y-96566200D01*
X153355643Y-96566200D01*
X153215485Y-96594079D01*
X153215479Y-96594081D01*
X153083449Y-96648769D01*
X153083440Y-96648774D01*
X152964621Y-96728167D01*
X152964617Y-96728170D01*
X152863570Y-96829217D01*
X152863567Y-96829221D01*
X152784174Y-96948040D01*
X152784169Y-96948049D01*
X152729481Y-97080079D01*
X152729479Y-97080085D01*
X152701600Y-97220242D01*
X152701600Y-97220245D01*
X152701600Y-97363155D01*
X152701600Y-97363157D01*
X152701599Y-97363157D01*
X152729479Y-97503313D01*
X152729482Y-97503323D01*
X152730310Y-97505322D01*
X152730431Y-97506451D01*
X152731248Y-97509143D01*
X152730737Y-97509297D01*
X152737773Y-97574791D01*
X152730306Y-97600217D01*
X152677382Y-97727986D01*
X152677379Y-97727996D01*
X152649500Y-97868153D01*
X152649500Y-97868156D01*
X152649500Y-98011066D01*
X152649500Y-98011068D01*
X152649499Y-98011068D01*
X152677379Y-98151225D01*
X152677381Y-98151231D01*
X152732071Y-98283266D01*
X152734856Y-98288475D01*
X152749499Y-98346930D01*
X152749499Y-98389054D01*
X152749498Y-98389054D01*
X152790423Y-98541786D01*
X152801227Y-98560497D01*
X152801228Y-98560502D01*
X152801229Y-98560502D01*
X152869475Y-98678709D01*
X152869481Y-98678717D01*
X152988349Y-98797585D01*
X152988355Y-98797590D01*
X155113181Y-100922416D01*
X155146666Y-100983739D01*
X155149500Y-101010097D01*
X155149500Y-103483330D01*
X155149499Y-103483348D01*
X155149499Y-103649054D01*
X155149498Y-103649054D01*
X155152500Y-103660256D01*
X155190423Y-103801785D01*
X155190424Y-103801787D01*
X155190423Y-103801787D01*
X155203538Y-103824501D01*
X155203539Y-103824503D01*
X155269475Y-103938709D01*
X155269481Y-103938717D01*
X155388349Y-104057585D01*
X155388355Y-104057590D01*
X156477195Y-105146430D01*
X156510680Y-105207753D01*
X156505696Y-105277445D01*
X156477196Y-105321791D01*
X156422739Y-105376248D01*
X156422735Y-105376253D01*
X156343342Y-105495072D01*
X156343337Y-105495081D01*
X156288649Y-105627111D01*
X156288647Y-105627117D01*
X156260768Y-105767274D01*
X156260768Y-105767277D01*
X156260768Y-105910187D01*
X156260768Y-105910189D01*
X156260767Y-105910189D01*
X156288647Y-106050346D01*
X156288649Y-106050352D01*
X156343337Y-106182382D01*
X156343342Y-106182391D01*
X156422735Y-106301210D01*
X156422738Y-106301214D01*
X156523785Y-106402261D01*
X156523789Y-106402264D01*
X156642608Y-106481657D01*
X156642614Y-106481660D01*
X156642615Y-106481661D01*
X156774648Y-106536351D01*
X156774652Y-106536351D01*
X156774653Y-106536352D01*
X156914810Y-106564232D01*
X156914813Y-106564232D01*
X157057724Y-106564232D01*
X157142638Y-106547341D01*
X157173942Y-106541114D01*
X157243533Y-106547341D01*
X157285815Y-106575050D01*
X162263181Y-111552416D01*
X162296666Y-111613739D01*
X162299500Y-111640097D01*
X162299500Y-113039900D01*
X162290855Y-113069339D01*
X162284332Y-113099327D01*
X162280577Y-113104342D01*
X162279815Y-113106939D01*
X162263181Y-113127582D01*
X162159878Y-113230884D01*
X162098555Y-113264368D01*
X162096391Y-113264819D01*
X162058382Y-113272380D01*
X162058381Y-113272380D01*
X161926349Y-113327069D01*
X161926340Y-113327074D01*
X161807521Y-113406467D01*
X161795347Y-113418641D01*
X161734022Y-113452124D01*
X161664331Y-113447137D01*
X161638778Y-113434059D01*
X161578138Y-113393541D01*
X161578124Y-113393533D01*
X161459744Y-113344499D01*
X161459738Y-113344497D01*
X161334071Y-113319500D01*
X161334069Y-113319500D01*
X161205931Y-113319500D01*
X161205929Y-113319500D01*
X161080261Y-113344497D01*
X161080255Y-113344499D01*
X160961875Y-113393533D01*
X160961866Y-113393538D01*
X160855331Y-113464723D01*
X160855327Y-113464726D01*
X160764726Y-113555327D01*
X160764723Y-113555331D01*
X160693538Y-113661866D01*
X160693533Y-113661875D01*
X160644499Y-113780255D01*
X160644497Y-113780261D01*
X160619500Y-113905928D01*
X160619500Y-113905931D01*
X160619500Y-114034069D01*
X160619500Y-114034071D01*
X160619499Y-114034071D01*
X160644497Y-114159738D01*
X160644499Y-114159744D01*
X160693533Y-114278124D01*
X160693538Y-114278133D01*
X160764723Y-114384668D01*
X160764726Y-114384672D01*
X160855327Y-114475273D01*
X160855331Y-114475276D01*
X160961866Y-114546461D01*
X160961872Y-114546464D01*
X160961873Y-114546465D01*
X161080256Y-114595501D01*
X161080260Y-114595501D01*
X161080261Y-114595502D01*
X161205928Y-114620500D01*
X161205931Y-114620500D01*
X161334071Y-114620500D01*
X161439273Y-114599573D01*
X161459744Y-114595501D01*
X161578127Y-114546465D01*
X161638777Y-114505939D01*
X161705454Y-114485062D01*
X161772834Y-114503546D01*
X161795349Y-114521361D01*
X161807517Y-114533529D01*
X161807521Y-114533532D01*
X161926340Y-114612925D01*
X161926349Y-114612930D01*
X161934886Y-114616466D01*
X162058380Y-114667619D01*
X162058384Y-114667619D01*
X162058385Y-114667620D01*
X162198542Y-114695500D01*
X162198545Y-114695500D01*
X162341457Y-114695500D01*
X162435751Y-114676742D01*
X162481620Y-114667619D01*
X162613653Y-114612929D01*
X162732479Y-114533532D01*
X162833532Y-114432479D01*
X162912929Y-114313653D01*
X162967619Y-114181620D01*
X162975179Y-114143608D01*
X163007564Y-114081698D01*
X163009116Y-114080119D01*
X163160856Y-113928379D01*
X163380520Y-113708716D01*
X163459577Y-113571784D01*
X163500501Y-113419057D01*
X163500501Y-113260942D01*
X163500501Y-113253347D01*
X163500500Y-113253329D01*
X163500500Y-111855500D01*
X163520185Y-111788461D01*
X163572989Y-111742706D01*
X163624500Y-111731500D01*
X187724046Y-111731500D01*
X187791085Y-111751185D01*
X187836840Y-111803989D01*
X187846784Y-111873147D01*
X187841977Y-111893818D01*
X187812753Y-111983759D01*
X187790026Y-112127246D01*
X187760096Y-112190381D01*
X187755234Y-112195528D01*
X185427584Y-114523181D01*
X185366261Y-114556666D01*
X185339903Y-114559500D01*
X183050470Y-114559500D01*
X182983431Y-114539815D01*
X182937676Y-114487011D01*
X182927732Y-114417853D01*
X182956757Y-114354297D01*
X182981579Y-114332398D01*
X183009636Y-114313650D01*
X183022169Y-114305276D01*
X183112776Y-114214669D01*
X183183965Y-114108127D01*
X183233001Y-113989744D01*
X183249673Y-113905931D01*
X183258000Y-113864071D01*
X183258000Y-113735928D01*
X183233002Y-113610261D01*
X183233001Y-113610260D01*
X183233001Y-113610256D01*
X183183965Y-113491873D01*
X183183964Y-113491872D01*
X183183961Y-113491866D01*
X183112776Y-113385331D01*
X183112773Y-113385327D01*
X183022172Y-113294726D01*
X183022168Y-113294723D01*
X182915633Y-113223538D01*
X182915624Y-113223533D01*
X182797244Y-113174499D01*
X182797238Y-113174497D01*
X182671571Y-113149500D01*
X182671569Y-113149500D01*
X182543431Y-113149500D01*
X182543429Y-113149500D01*
X182417761Y-113174497D01*
X182417755Y-113174499D01*
X182299375Y-113223533D01*
X182299366Y-113223538D01*
X182192831Y-113294723D01*
X182192827Y-113294726D01*
X182102226Y-113385327D01*
X182102223Y-113385331D01*
X182031038Y-113491866D01*
X182031033Y-113491875D01*
X181981999Y-113610255D01*
X181981997Y-113610261D01*
X181957000Y-113735928D01*
X181957000Y-113735931D01*
X181957000Y-113864069D01*
X181957000Y-113864071D01*
X181956999Y-113864071D01*
X181981997Y-113989738D01*
X181981999Y-113989744D01*
X182031033Y-114108124D01*
X182031038Y-114108133D01*
X182102223Y-114214668D01*
X182102226Y-114214672D01*
X182192827Y-114305273D01*
X182192831Y-114305276D01*
X182233421Y-114332398D01*
X182278226Y-114386011D01*
X182286933Y-114455336D01*
X182256778Y-114518363D01*
X182197335Y-114555082D01*
X182164530Y-114559500D01*
X179140940Y-114559500D01*
X179100019Y-114570464D01*
X179100019Y-114570465D01*
X179062751Y-114580451D01*
X178988214Y-114600423D01*
X178988209Y-114600426D01*
X178851290Y-114679475D01*
X178851282Y-114679481D01*
X178793146Y-114737618D01*
X178739480Y-114791284D01*
X178739478Y-114791286D01*
X177811188Y-115719577D01*
X176917584Y-116613181D01*
X176856261Y-116646666D01*
X176829903Y-116649500D01*
X147185021Y-116649500D01*
X147117982Y-116629815D01*
X147097340Y-116613181D01*
X146811819Y-116327660D01*
X146778334Y-116266337D01*
X146775500Y-116239979D01*
X146775500Y-114104071D01*
X147304499Y-114104071D01*
X147329497Y-114229738D01*
X147329499Y-114229744D01*
X147378533Y-114348124D01*
X147378538Y-114348133D01*
X147449723Y-114454668D01*
X147449726Y-114454672D01*
X147540327Y-114545273D01*
X147540331Y-114545276D01*
X147646866Y-114616461D01*
X147646872Y-114616464D01*
X147646873Y-114616465D01*
X147765256Y-114665501D01*
X147765260Y-114665501D01*
X147765261Y-114665502D01*
X147890928Y-114690500D01*
X147890931Y-114690500D01*
X148019071Y-114690500D01*
X148134101Y-114667618D01*
X148144744Y-114665501D01*
X148263127Y-114616465D01*
X148369669Y-114545276D01*
X148460276Y-114454669D01*
X148531465Y-114348127D01*
X148580501Y-114229744D01*
X148594425Y-114159744D01*
X148605500Y-114104071D01*
X148605500Y-113975928D01*
X148580502Y-113850261D01*
X148580501Y-113850260D01*
X148580501Y-113850256D01*
X148531465Y-113731873D01*
X148531464Y-113731872D01*
X148531461Y-113731866D01*
X148460276Y-113625331D01*
X148460273Y-113625327D01*
X148369672Y-113534726D01*
X148369668Y-113534723D01*
X148263133Y-113463538D01*
X148263124Y-113463533D01*
X148144744Y-113414499D01*
X148144738Y-113414497D01*
X148019071Y-113389500D01*
X148019069Y-113389500D01*
X147890931Y-113389500D01*
X147890929Y-113389500D01*
X147765261Y-113414497D01*
X147765255Y-113414499D01*
X147646875Y-113463533D01*
X147646866Y-113463538D01*
X147540331Y-113534723D01*
X147540327Y-113534726D01*
X147449726Y-113625327D01*
X147449723Y-113625331D01*
X147378538Y-113731866D01*
X147378533Y-113731875D01*
X147329499Y-113850255D01*
X147329497Y-113850261D01*
X147304500Y-113975928D01*
X147304500Y-113975931D01*
X147304500Y-114104069D01*
X147304500Y-114104071D01*
X147304499Y-114104071D01*
X146775500Y-114104071D01*
X146775500Y-111194097D01*
X146795185Y-111127058D01*
X146847989Y-111081303D01*
X146917147Y-111071359D01*
X146980703Y-111100384D01*
X146987181Y-111106416D01*
X149443276Y-113562511D01*
X149476761Y-113623834D01*
X149471777Y-113693526D01*
X149458697Y-113719083D01*
X149407074Y-113796340D01*
X149407069Y-113796349D01*
X149352381Y-113928379D01*
X149352379Y-113928385D01*
X149324500Y-114068542D01*
X149324500Y-114068545D01*
X149324500Y-114211455D01*
X149324500Y-114211457D01*
X149324499Y-114211457D01*
X149352379Y-114351614D01*
X149352381Y-114351620D01*
X149407069Y-114483650D01*
X149407074Y-114483659D01*
X149486467Y-114602478D01*
X149486470Y-114602482D01*
X149587517Y-114703529D01*
X149587521Y-114703532D01*
X149706340Y-114782925D01*
X149706349Y-114782930D01*
X149736258Y-114795318D01*
X149838380Y-114837619D01*
X149838384Y-114837619D01*
X149838385Y-114837620D01*
X149978542Y-114865500D01*
X149978545Y-114865500D01*
X150121457Y-114865500D01*
X150215751Y-114846742D01*
X150261620Y-114837619D01*
X150393653Y-114782929D01*
X150393660Y-114782923D01*
X150398861Y-114780145D01*
X150409192Y-114777209D01*
X150414983Y-114772951D01*
X150439130Y-114768701D01*
X150449533Y-114765745D01*
X150453427Y-114765500D01*
X150478393Y-114765500D01*
X150601607Y-114765500D01*
X150662029Y-114753481D01*
X150722452Y-114741463D01*
X150722455Y-114741461D01*
X150722458Y-114741461D01*
X150755787Y-114727654D01*
X150755786Y-114727654D01*
X150755792Y-114727652D01*
X150836286Y-114694312D01*
X150887509Y-114660084D01*
X150938733Y-114625858D01*
X151025858Y-114538733D01*
X151025858Y-114538731D01*
X151036066Y-114528524D01*
X151036067Y-114528521D01*
X152062772Y-113501819D01*
X152124095Y-113468334D01*
X152150453Y-113465500D01*
X152505192Y-113465500D01*
X152572231Y-113485185D01*
X152617986Y-113537989D01*
X152627930Y-113607147D01*
X152598905Y-113670703D01*
X152592873Y-113677181D01*
X152544726Y-113725327D01*
X152544723Y-113725331D01*
X152473538Y-113831866D01*
X152473533Y-113831875D01*
X152424499Y-113950255D01*
X152424497Y-113950261D01*
X152399500Y-114075928D01*
X152399500Y-114075931D01*
X152399500Y-114204069D01*
X152399500Y-114204071D01*
X152399499Y-114204071D01*
X152424497Y-114329738D01*
X152424499Y-114329744D01*
X152473533Y-114448124D01*
X152473538Y-114448133D01*
X152544723Y-114554668D01*
X152544726Y-114554672D01*
X152635327Y-114645273D01*
X152635331Y-114645276D01*
X152741866Y-114716461D01*
X152741872Y-114716464D01*
X152741873Y-114716465D01*
X152860256Y-114765501D01*
X152860260Y-114765501D01*
X152860261Y-114765502D01*
X152985928Y-114790500D01*
X152985931Y-114790500D01*
X153114071Y-114790500D01*
X153202291Y-114772951D01*
X153239744Y-114765501D01*
X153358127Y-114716465D01*
X153464669Y-114645276D01*
X153555276Y-114554669D01*
X153626465Y-114448127D01*
X153675501Y-114329744D01*
X153691041Y-114251620D01*
X153700500Y-114204071D01*
X153700500Y-114075928D01*
X153675502Y-113950261D01*
X153675501Y-113950260D01*
X153675501Y-113950256D01*
X153626465Y-113831873D01*
X153626464Y-113831872D01*
X153626461Y-113831866D01*
X153555276Y-113725331D01*
X153555273Y-113725327D01*
X153464672Y-113634726D01*
X153414879Y-113601455D01*
X153393840Y-113576280D01*
X153371916Y-113551874D01*
X153371548Y-113549604D01*
X153370075Y-113547842D01*
X153365987Y-113515297D01*
X153360737Y-113482904D01*
X153361654Y-113480796D01*
X153361368Y-113478517D01*
X153375526Y-113448924D01*
X153388621Y-113418839D01*
X153390900Y-113416791D01*
X153391523Y-113415490D01*
X153414877Y-113395253D01*
X153416283Y-113394312D01*
X153416286Y-113394312D01*
X153467509Y-113360084D01*
X153518733Y-113325858D01*
X153605858Y-113238733D01*
X153605859Y-113238731D01*
X153612925Y-113231665D01*
X153612928Y-113231661D01*
X153764997Y-113079591D01*
X153826318Y-113046108D01*
X153896010Y-113051092D01*
X153940357Y-113079593D01*
X154622219Y-113761455D01*
X155381284Y-114520520D01*
X155381286Y-114520521D01*
X155381290Y-114520524D01*
X155467790Y-114570464D01*
X155518216Y-114599577D01*
X155604269Y-114622635D01*
X155641058Y-114639304D01*
X155706347Y-114682929D01*
X155838380Y-114737619D01*
X155838384Y-114737619D01*
X155838385Y-114737620D01*
X155978542Y-114765500D01*
X155978545Y-114765500D01*
X156121457Y-114765500D01*
X156242305Y-114741461D01*
X156261620Y-114737619D01*
X156393653Y-114682929D01*
X156512479Y-114603532D01*
X156613532Y-114502479D01*
X156692929Y-114383653D01*
X156747619Y-114251620D01*
X156775500Y-114111455D01*
X156775500Y-113968545D01*
X156775500Y-113968542D01*
X156747620Y-113828385D01*
X156747619Y-113828384D01*
X156747619Y-113828380D01*
X156698053Y-113708717D01*
X156692930Y-113696349D01*
X156692925Y-113696340D01*
X156613532Y-113577521D01*
X156613529Y-113577517D01*
X156512482Y-113476470D01*
X156512478Y-113476467D01*
X156393659Y-113397074D01*
X156393650Y-113397069D01*
X156261620Y-113342381D01*
X156261614Y-113342379D01*
X156121457Y-113314500D01*
X156121455Y-113314500D01*
X155978545Y-113314500D01*
X155956128Y-113318959D01*
X155886536Y-113312730D01*
X155844257Y-113285022D01*
X154796819Y-112237583D01*
X154763334Y-112176260D01*
X154760500Y-112149902D01*
X154760500Y-107831959D01*
X154780185Y-107764920D01*
X154781328Y-107763173D01*
X154817758Y-107708653D01*
X154872448Y-107576620D01*
X154900329Y-107436455D01*
X154900329Y-107436443D01*
X154900731Y-107432366D01*
X154926889Y-107367577D01*
X154983921Y-107327215D01*
X155053721Y-107324094D01*
X155071575Y-107329947D01*
X155138380Y-107357619D01*
X155138384Y-107357619D01*
X155138385Y-107357620D01*
X155278542Y-107385500D01*
X155278545Y-107385500D01*
X155421457Y-107385500D01*
X155515751Y-107366742D01*
X155561620Y-107357619D01*
X155693653Y-107302929D01*
X155812479Y-107223532D01*
X155913532Y-107122479D01*
X155992929Y-107003653D01*
X156047619Y-106871620D01*
X156065528Y-106781588D01*
X156075500Y-106731457D01*
X156075500Y-106588542D01*
X156047620Y-106448385D01*
X156047619Y-106448384D01*
X156047619Y-106448380D01*
X155992929Y-106316347D01*
X155992928Y-106316346D01*
X155992925Y-106316340D01*
X155913532Y-106197521D01*
X155913529Y-106197517D01*
X155812482Y-106096470D01*
X155812478Y-106096467D01*
X155693659Y-106017074D01*
X155693650Y-106017069D01*
X155561618Y-105962380D01*
X155561614Y-105962379D01*
X155523608Y-105954819D01*
X155461697Y-105922433D01*
X155460119Y-105920883D01*
X155228717Y-105689481D01*
X155228709Y-105689475D01*
X155135967Y-105635931D01*
X155135966Y-105635931D01*
X155091785Y-105610423D01*
X154939057Y-105569499D01*
X154780943Y-105569499D01*
X154773347Y-105569499D01*
X154773331Y-105569500D01*
X154667197Y-105569500D01*
X154600158Y-105549815D01*
X154579516Y-105533181D01*
X153913690Y-104867355D01*
X153913688Y-104867352D01*
X153794817Y-104748481D01*
X153794816Y-104748480D01*
X153699956Y-104693713D01*
X153657885Y-104669423D01*
X153505157Y-104628499D01*
X153347043Y-104628499D01*
X153339447Y-104628499D01*
X153339431Y-104628500D01*
X149484500Y-104628500D01*
X149417461Y-104608815D01*
X149371706Y-104556011D01*
X149360500Y-104504500D01*
X149360500Y-99820942D01*
X149357636Y-99810256D01*
X149357635Y-99810251D01*
X149346532Y-99768815D01*
X149341089Y-99748500D01*
X149319577Y-99668216D01*
X149283271Y-99605331D01*
X149240524Y-99531290D01*
X149240521Y-99531286D01*
X149240520Y-99531284D01*
X149128716Y-99419480D01*
X149128715Y-99419479D01*
X149124385Y-99415149D01*
X149124374Y-99415139D01*
X147598306Y-97889071D01*
X149554499Y-97889071D01*
X149579497Y-98014738D01*
X149579499Y-98014744D01*
X149628533Y-98133124D01*
X149628538Y-98133133D01*
X149699723Y-98239668D01*
X149699726Y-98239672D01*
X149790327Y-98330273D01*
X149790331Y-98330276D01*
X149896866Y-98401461D01*
X149896872Y-98401464D01*
X149896873Y-98401465D01*
X150015256Y-98450501D01*
X150015260Y-98450501D01*
X150015261Y-98450502D01*
X150140928Y-98475500D01*
X150140931Y-98475500D01*
X150269071Y-98475500D01*
X150353615Y-98458682D01*
X150394744Y-98450501D01*
X150513127Y-98401465D01*
X150619669Y-98330276D01*
X150710276Y-98239669D01*
X150781465Y-98133127D01*
X150830501Y-98014744D01*
X150838682Y-97973615D01*
X150855500Y-97889071D01*
X150855500Y-97760928D01*
X150830502Y-97635261D01*
X150830501Y-97635260D01*
X150830501Y-97635256D01*
X150781465Y-97516873D01*
X150781464Y-97516872D01*
X150781461Y-97516866D01*
X150710276Y-97410331D01*
X150710273Y-97410327D01*
X150619672Y-97319726D01*
X150619668Y-97319723D01*
X150513133Y-97248538D01*
X150513124Y-97248533D01*
X150394744Y-97199499D01*
X150394738Y-97199497D01*
X150269071Y-97174500D01*
X150269069Y-97174500D01*
X150140931Y-97174500D01*
X150140929Y-97174500D01*
X150015261Y-97199497D01*
X150015255Y-97199499D01*
X149896875Y-97248533D01*
X149896866Y-97248538D01*
X149790331Y-97319723D01*
X149790327Y-97319726D01*
X149699726Y-97410327D01*
X149699723Y-97410331D01*
X149628538Y-97516866D01*
X149628533Y-97516875D01*
X149579499Y-97635255D01*
X149579497Y-97635261D01*
X149554500Y-97760928D01*
X149554500Y-97760931D01*
X149554500Y-97889069D01*
X149554500Y-97889071D01*
X149554499Y-97889071D01*
X147598306Y-97889071D01*
X146229116Y-96519881D01*
X146195631Y-96458558D01*
X146195191Y-96456451D01*
X146187619Y-96418380D01*
X146132929Y-96286347D01*
X146132928Y-96286346D01*
X146132925Y-96286340D01*
X146053532Y-96167521D01*
X146053529Y-96167517D01*
X145952482Y-96066470D01*
X145952478Y-96066467D01*
X145833659Y-95987074D01*
X145833650Y-95987069D01*
X145701620Y-95932381D01*
X145701614Y-95932379D01*
X145561457Y-95904500D01*
X145561455Y-95904500D01*
X145418545Y-95904500D01*
X145418544Y-95904500D01*
X145378689Y-95912427D01*
X145309098Y-95906198D01*
X145253921Y-95863334D01*
X145230678Y-95797444D01*
X145230500Y-95790809D01*
X145230500Y-94854071D01*
X148839499Y-94854071D01*
X148864497Y-94979738D01*
X148864499Y-94979744D01*
X148913533Y-95098124D01*
X148913538Y-95098133D01*
X148984723Y-95204668D01*
X148984726Y-95204672D01*
X149047373Y-95267319D01*
X149080858Y-95328642D01*
X149075874Y-95398334D01*
X149047373Y-95442681D01*
X148984726Y-95505327D01*
X148984723Y-95505331D01*
X148913538Y-95611866D01*
X148913533Y-95611875D01*
X148864499Y-95730255D01*
X148864497Y-95730261D01*
X148839500Y-95855928D01*
X148839500Y-95855931D01*
X148839500Y-95984069D01*
X148839500Y-95984071D01*
X148839499Y-95984071D01*
X148864497Y-96109738D01*
X148864499Y-96109744D01*
X148913533Y-96228124D01*
X148913538Y-96228133D01*
X148984723Y-96334668D01*
X148984726Y-96334672D01*
X149075327Y-96425273D01*
X149075331Y-96425276D01*
X149181866Y-96496461D01*
X149181872Y-96496464D01*
X149181873Y-96496465D01*
X149300256Y-96545501D01*
X149300260Y-96545501D01*
X149300261Y-96545502D01*
X149425928Y-96570500D01*
X149425931Y-96570500D01*
X149554071Y-96570500D01*
X149638615Y-96553682D01*
X149679744Y-96545501D01*
X149798127Y-96496465D01*
X149904669Y-96425276D01*
X149995276Y-96334669D01*
X150066465Y-96228127D01*
X150115501Y-96109744D01*
X150124110Y-96066467D01*
X150140500Y-95984071D01*
X150140500Y-95855928D01*
X150115502Y-95730261D01*
X150115501Y-95730260D01*
X150115501Y-95730256D01*
X150066465Y-95611873D01*
X150066464Y-95611872D01*
X150066461Y-95611866D01*
X149995276Y-95505331D01*
X149995273Y-95505327D01*
X149932627Y-95442681D01*
X149899142Y-95381358D01*
X149904126Y-95311666D01*
X149932627Y-95267319D01*
X149995273Y-95204672D01*
X149995276Y-95204669D01*
X150066465Y-95098127D01*
X150115501Y-94979744D01*
X150123682Y-94938615D01*
X150140500Y-94854071D01*
X150140500Y-94725928D01*
X150115502Y-94600261D01*
X150115501Y-94600260D01*
X150115501Y-94600256D01*
X150066465Y-94481873D01*
X150066464Y-94481872D01*
X150066461Y-94481866D01*
X149995276Y-94375331D01*
X149995273Y-94375327D01*
X149904672Y-94284726D01*
X149904668Y-94284723D01*
X149798133Y-94213538D01*
X149798124Y-94213533D01*
X149679744Y-94164499D01*
X149679738Y-94164497D01*
X149554071Y-94139500D01*
X149554069Y-94139500D01*
X149425931Y-94139500D01*
X149425929Y-94139500D01*
X149300261Y-94164497D01*
X149300255Y-94164499D01*
X149181875Y-94213533D01*
X149181866Y-94213538D01*
X149075331Y-94284723D01*
X149075327Y-94284726D01*
X148984726Y-94375327D01*
X148984723Y-94375331D01*
X148913538Y-94481866D01*
X148913533Y-94481875D01*
X148864499Y-94600255D01*
X148864497Y-94600261D01*
X148839500Y-94725928D01*
X148839500Y-94725931D01*
X148839500Y-94854069D01*
X148839500Y-94854071D01*
X148839499Y-94854071D01*
X145230500Y-94854071D01*
X145230500Y-93729060D01*
X145230501Y-93729047D01*
X145230501Y-93560944D01*
X145218828Y-93517381D01*
X145189577Y-93408216D01*
X145189573Y-93408209D01*
X145110524Y-93271290D01*
X145110518Y-93271282D01*
X144143307Y-92304071D01*
X159559499Y-92304071D01*
X159584497Y-92429738D01*
X159584499Y-92429744D01*
X159633533Y-92548124D01*
X159633538Y-92548133D01*
X159704723Y-92654668D01*
X159704726Y-92654672D01*
X159795327Y-92745273D01*
X159795331Y-92745276D01*
X159901866Y-92816461D01*
X159901872Y-92816464D01*
X159901873Y-92816465D01*
X160020256Y-92865501D01*
X160020260Y-92865501D01*
X160020261Y-92865502D01*
X160145928Y-92890500D01*
X160145931Y-92890500D01*
X160274071Y-92890500D01*
X160358615Y-92873682D01*
X160399744Y-92865501D01*
X160518127Y-92816465D01*
X160624669Y-92745276D01*
X160665874Y-92704071D01*
X166770748Y-92704071D01*
X166795746Y-92829738D01*
X166795748Y-92829744D01*
X166844782Y-92948124D01*
X166844787Y-92948133D01*
X166915972Y-93054668D01*
X166915975Y-93054672D01*
X167006576Y-93145273D01*
X167006580Y-93145276D01*
X167113115Y-93216461D01*
X167113121Y-93216464D01*
X167113122Y-93216465D01*
X167231505Y-93265501D01*
X167231509Y-93265501D01*
X167231510Y-93265502D01*
X167357177Y-93290500D01*
X167357180Y-93290500D01*
X167485320Y-93290500D01*
X167569864Y-93273682D01*
X167610993Y-93265501D01*
X167729376Y-93216465D01*
X167835918Y-93145276D01*
X167926525Y-93054669D01*
X167997714Y-92948127D01*
X168046750Y-92829744D01*
X168063553Y-92745273D01*
X168071749Y-92704071D01*
X168071749Y-92575928D01*
X168046751Y-92450261D01*
X168046750Y-92450260D01*
X168046750Y-92450256D01*
X167997714Y-92331873D01*
X167997713Y-92331872D01*
X167997710Y-92331866D01*
X167926525Y-92225331D01*
X167926522Y-92225327D01*
X167835921Y-92134726D01*
X167835917Y-92134723D01*
X167805009Y-92114071D01*
X174859499Y-92114071D01*
X174884497Y-92239738D01*
X174884499Y-92239744D01*
X174933533Y-92358124D01*
X174933538Y-92358133D01*
X175004723Y-92464668D01*
X175004726Y-92464672D01*
X175095327Y-92555273D01*
X175095331Y-92555276D01*
X175201866Y-92626461D01*
X175201875Y-92626466D01*
X175225906Y-92636420D01*
X175320256Y-92675501D01*
X175320260Y-92675501D01*
X175320261Y-92675502D01*
X175445928Y-92700500D01*
X175445931Y-92700500D01*
X175574071Y-92700500D01*
X175658615Y-92683682D01*
X175699744Y-92675501D01*
X175818127Y-92626465D01*
X175924669Y-92555276D01*
X176015276Y-92464669D01*
X176086465Y-92358127D01*
X176135501Y-92239744D01*
X176156391Y-92134726D01*
X176160500Y-92114071D01*
X176160500Y-91985928D01*
X176135502Y-91860261D01*
X176135501Y-91860260D01*
X176135501Y-91860256D01*
X176086465Y-91741873D01*
X176086464Y-91741872D01*
X176086461Y-91741866D01*
X176015276Y-91635331D01*
X176015273Y-91635327D01*
X175924672Y-91544726D01*
X175924668Y-91544723D01*
X175818133Y-91473538D01*
X175818124Y-91473533D01*
X175699744Y-91424499D01*
X175699738Y-91424497D01*
X175574071Y-91399500D01*
X175574069Y-91399500D01*
X175445931Y-91399500D01*
X175445929Y-91399500D01*
X175320261Y-91424497D01*
X175320255Y-91424499D01*
X175201875Y-91473533D01*
X175201866Y-91473538D01*
X175095331Y-91544723D01*
X175095327Y-91544726D01*
X175004726Y-91635327D01*
X175004723Y-91635331D01*
X174933538Y-91741866D01*
X174933533Y-91741875D01*
X174884499Y-91860255D01*
X174884497Y-91860261D01*
X174859500Y-91985928D01*
X174859500Y-91985931D01*
X174859500Y-92114069D01*
X174859500Y-92114071D01*
X174859499Y-92114071D01*
X167805009Y-92114071D01*
X167758420Y-92082941D01*
X167729382Y-92063538D01*
X167729373Y-92063533D01*
X167610993Y-92014499D01*
X167610987Y-92014497D01*
X167485320Y-91989500D01*
X167485318Y-91989500D01*
X167357180Y-91989500D01*
X167357178Y-91989500D01*
X167231510Y-92014497D01*
X167231504Y-92014499D01*
X167113124Y-92063533D01*
X167113115Y-92063538D01*
X167006580Y-92134723D01*
X167006576Y-92134726D01*
X166915975Y-92225327D01*
X166915972Y-92225331D01*
X166844787Y-92331866D01*
X166844782Y-92331875D01*
X166795748Y-92450255D01*
X166795746Y-92450261D01*
X166770749Y-92575928D01*
X166770749Y-92575931D01*
X166770749Y-92704069D01*
X166770749Y-92704071D01*
X166770748Y-92704071D01*
X160665874Y-92704071D01*
X160715276Y-92654669D01*
X160786465Y-92548127D01*
X160835501Y-92429744D01*
X160849747Y-92358127D01*
X160860500Y-92304071D01*
X160860500Y-92175928D01*
X160835502Y-92050261D01*
X160835501Y-92050260D01*
X160835501Y-92050256D01*
X160797574Y-91958692D01*
X160786466Y-91931875D01*
X160786461Y-91931866D01*
X160715276Y-91825331D01*
X160715273Y-91825327D01*
X160624672Y-91734726D01*
X160624668Y-91734723D01*
X160518133Y-91663538D01*
X160518124Y-91663533D01*
X160399744Y-91614499D01*
X160399738Y-91614497D01*
X160274071Y-91589500D01*
X160274069Y-91589500D01*
X160145931Y-91589500D01*
X160145929Y-91589500D01*
X160020261Y-91614497D01*
X160020255Y-91614499D01*
X159901875Y-91663533D01*
X159901866Y-91663538D01*
X159795331Y-91734723D01*
X159795327Y-91734726D01*
X159704726Y-91825327D01*
X159704723Y-91825331D01*
X159633538Y-91931866D01*
X159633533Y-91931875D01*
X159584499Y-92050255D01*
X159584497Y-92050261D01*
X159559500Y-92175928D01*
X159559500Y-92175931D01*
X159559500Y-92304069D01*
X159559500Y-92304071D01*
X159559499Y-92304071D01*
X144143307Y-92304071D01*
X143516819Y-91677583D01*
X143483334Y-91616260D01*
X143480500Y-91589902D01*
X143480500Y-90969108D01*
X167849500Y-90969108D01*
X167849500Y-91120891D01*
X167879108Y-91269738D01*
X167879110Y-91269746D01*
X167937192Y-91409968D01*
X168021513Y-91536165D01*
X168021516Y-91536169D01*
X168128830Y-91643483D01*
X168128833Y-91643485D01*
X168128835Y-91643487D01*
X168255032Y-91727808D01*
X168395254Y-91785890D01*
X168544108Y-91815499D01*
X168544111Y-91815500D01*
X168544113Y-91815500D01*
X168695889Y-91815500D01*
X168695890Y-91815499D01*
X168844746Y-91785890D01*
X168984968Y-91727808D01*
X169111165Y-91643487D01*
X169257834Y-91496817D01*
X169319156Y-91463334D01*
X169345514Y-91460500D01*
X173145890Y-91460500D01*
X173145891Y-91460499D01*
X173294747Y-91430890D01*
X173434969Y-91372808D01*
X173460273Y-91355899D01*
X173498402Y-91330424D01*
X173545367Y-91299042D01*
X173561165Y-91288487D01*
X174958486Y-89891165D01*
X175042808Y-89764969D01*
X175100890Y-89624746D01*
X175130499Y-89475888D01*
X175130499Y-89324113D01*
X175100890Y-89175254D01*
X175042808Y-89035032D01*
X175042807Y-89035031D01*
X175042804Y-89035025D01*
X174958486Y-88908835D01*
X174958483Y-88908831D01*
X174851168Y-88801516D01*
X174851164Y-88801513D01*
X174724974Y-88717195D01*
X174724965Y-88717190D01*
X174584748Y-88659111D01*
X174584749Y-88659111D01*
X174584746Y-88659110D01*
X174584742Y-88659109D01*
X174584738Y-88659108D01*
X174435891Y-88629501D01*
X174435887Y-88629501D01*
X174284112Y-88629501D01*
X174284107Y-88629501D01*
X174135262Y-88659108D01*
X174135250Y-88659111D01*
X173995037Y-88717188D01*
X173995024Y-88717195D01*
X173868835Y-88801513D01*
X173868831Y-88801516D01*
X172787167Y-89883181D01*
X172725844Y-89916666D01*
X172699486Y-89919500D01*
X168899109Y-89919500D01*
X168750260Y-89949108D01*
X168750248Y-89949111D01*
X168696719Y-89971283D01*
X168696720Y-89971284D01*
X168610035Y-90007189D01*
X168610021Y-90007197D01*
X168483839Y-90091509D01*
X168483831Y-90091515D01*
X168021516Y-90553830D01*
X167937191Y-90680033D01*
X167879110Y-90820253D01*
X167879108Y-90820261D01*
X167849500Y-90969108D01*
X143480500Y-90969108D01*
X143480500Y-90084071D01*
X159259499Y-90084071D01*
X159284497Y-90209738D01*
X159284499Y-90209744D01*
X159333533Y-90328124D01*
X159333538Y-90328133D01*
X159404723Y-90434668D01*
X159404726Y-90434672D01*
X159495327Y-90525273D01*
X159495331Y-90525276D01*
X159601866Y-90596461D01*
X159601872Y-90596464D01*
X159601873Y-90596465D01*
X159720256Y-90645501D01*
X159720260Y-90645501D01*
X159720261Y-90645502D01*
X159845928Y-90670500D01*
X159845931Y-90670500D01*
X159974071Y-90670500D01*
X160058615Y-90653682D01*
X160099744Y-90645501D01*
X160218127Y-90596465D01*
X160324669Y-90525276D01*
X160415276Y-90434669D01*
X160486465Y-90328127D01*
X160535501Y-90209744D01*
X160548390Y-90144949D01*
X160560500Y-90084071D01*
X160560500Y-89955928D01*
X160535502Y-89830261D01*
X160535501Y-89830260D01*
X160535501Y-89830256D01*
X160486465Y-89711873D01*
X160486464Y-89711872D01*
X160486461Y-89711866D01*
X160415276Y-89605331D01*
X160415273Y-89605327D01*
X160324672Y-89514726D01*
X160324668Y-89514723D01*
X160218133Y-89443538D01*
X160218124Y-89443533D01*
X160099744Y-89394499D01*
X160099738Y-89394497D01*
X159974071Y-89369500D01*
X159974069Y-89369500D01*
X159845931Y-89369500D01*
X159845929Y-89369500D01*
X159720261Y-89394497D01*
X159720255Y-89394499D01*
X159601875Y-89443533D01*
X159601866Y-89443538D01*
X159495331Y-89514723D01*
X159495327Y-89514726D01*
X159404726Y-89605327D01*
X159404723Y-89605331D01*
X159333538Y-89711866D01*
X159333533Y-89711875D01*
X159284499Y-89830255D01*
X159284497Y-89830261D01*
X159259500Y-89955928D01*
X159259500Y-89955931D01*
X159259500Y-90084069D01*
X159259500Y-90084071D01*
X159259499Y-90084071D01*
X143480500Y-90084071D01*
X143480500Y-89696230D01*
X143500185Y-89629191D01*
X143552989Y-89583436D01*
X143622147Y-89573492D01*
X143685703Y-89602517D01*
X143692181Y-89608549D01*
X143776344Y-89692712D01*
X143925666Y-89784814D01*
X144092203Y-89839999D01*
X144194991Y-89850500D01*
X145795008Y-89850499D01*
X145897797Y-89839999D01*
X146064334Y-89784814D01*
X146213656Y-89692712D01*
X146337712Y-89568656D01*
X146429814Y-89419334D01*
X146484999Y-89252797D01*
X146495500Y-89150009D01*
X146495499Y-88321153D01*
X182009500Y-88321153D01*
X182009500Y-88478846D01*
X182040261Y-88633489D01*
X182040264Y-88633501D01*
X182100602Y-88779172D01*
X182100609Y-88779185D01*
X182169236Y-88881892D01*
X182190114Y-88948570D01*
X182185497Y-88981744D01*
X182185687Y-88981782D01*
X182185038Y-88985040D01*
X182184799Y-88986764D01*
X182184499Y-88987751D01*
X182159500Y-89113428D01*
X182159500Y-89113431D01*
X182159500Y-89241569D01*
X182159500Y-89241571D01*
X182159499Y-89241571D01*
X182184497Y-89367238D01*
X182184499Y-89367244D01*
X182233533Y-89485624D01*
X182233538Y-89485633D01*
X182304723Y-89592168D01*
X182304726Y-89592172D01*
X182395327Y-89682773D01*
X182395331Y-89682776D01*
X182501866Y-89753961D01*
X182501872Y-89753964D01*
X182501873Y-89753965D01*
X182620256Y-89803001D01*
X182620260Y-89803001D01*
X182620261Y-89803002D01*
X182745928Y-89828000D01*
X182745931Y-89828000D01*
X182874071Y-89828000D01*
X182958615Y-89811182D01*
X182999744Y-89803001D01*
X183118127Y-89753965D01*
X183224669Y-89682776D01*
X183300003Y-89607441D01*
X183361324Y-89573958D01*
X183431016Y-89578942D01*
X183475364Y-89607443D01*
X183489707Y-89621786D01*
X183489711Y-89621789D01*
X183620814Y-89709390D01*
X183620827Y-89709397D01*
X183728428Y-89753966D01*
X183766503Y-89769737D01*
X183921153Y-89800499D01*
X183921156Y-89800500D01*
X183921158Y-89800500D01*
X184078844Y-89800500D01*
X184078845Y-89800499D01*
X184233497Y-89769737D01*
X184379179Y-89709394D01*
X184510289Y-89621789D01*
X184621789Y-89510289D01*
X184709394Y-89379179D01*
X184769737Y-89233497D01*
X184800500Y-89078842D01*
X184800500Y-88921158D01*
X184800500Y-88921155D01*
X184800499Y-88921153D01*
X184792689Y-88881892D01*
X184769737Y-88766503D01*
X184739587Y-88693713D01*
X184709397Y-88620827D01*
X184709390Y-88620814D01*
X184621789Y-88489711D01*
X184621786Y-88489707D01*
X184510292Y-88378213D01*
X184510288Y-88378210D01*
X184379185Y-88290609D01*
X184379172Y-88290602D01*
X184233501Y-88230264D01*
X184233489Y-88230261D01*
X184078845Y-88199500D01*
X184078842Y-88199500D01*
X183921158Y-88199500D01*
X183921155Y-88199500D01*
X183766510Y-88230261D01*
X183766498Y-88230264D01*
X183744162Y-88239516D01*
X183674692Y-88246983D01*
X183612214Y-88215707D01*
X183584454Y-88171142D01*
X183582068Y-88172131D01*
X183519397Y-88020827D01*
X183519390Y-88020814D01*
X183431789Y-87889711D01*
X183431786Y-87889707D01*
X183320292Y-87778213D01*
X183320288Y-87778210D01*
X183189185Y-87690609D01*
X183189172Y-87690602D01*
X183043501Y-87630264D01*
X183043489Y-87630261D01*
X182888845Y-87599500D01*
X182888842Y-87599500D01*
X182731158Y-87599500D01*
X182731155Y-87599500D01*
X182576510Y-87630261D01*
X182576498Y-87630264D01*
X182430827Y-87690602D01*
X182430814Y-87690609D01*
X182299711Y-87778210D01*
X182299707Y-87778213D01*
X182188213Y-87889707D01*
X182188210Y-87889711D01*
X182100609Y-88020814D01*
X182100602Y-88020827D01*
X182040264Y-88166498D01*
X182040261Y-88166510D01*
X182009500Y-88321153D01*
X146495499Y-88321153D01*
X146495499Y-87849992D01*
X146488166Y-87778211D01*
X146484999Y-87747203D01*
X146484998Y-87747200D01*
X146429814Y-87580666D01*
X146337712Y-87431344D01*
X146213656Y-87307288D01*
X146064334Y-87215186D01*
X145897797Y-87160001D01*
X145897795Y-87160000D01*
X145795010Y-87149500D01*
X144194998Y-87149500D01*
X144194981Y-87149501D01*
X144092203Y-87160000D01*
X144092200Y-87160001D01*
X143925668Y-87215185D01*
X143925663Y-87215187D01*
X143776342Y-87307289D01*
X143692181Y-87391451D01*
X143630858Y-87424936D01*
X143561166Y-87419952D01*
X143505233Y-87378080D01*
X143480816Y-87312616D01*
X143480500Y-87303770D01*
X143480500Y-84947224D01*
X143500185Y-84880185D01*
X143552989Y-84834430D01*
X143568510Y-84828562D01*
X143571610Y-84827620D01*
X143571620Y-84827619D01*
X143703653Y-84772929D01*
X143822479Y-84693532D01*
X143867298Y-84648713D01*
X149659500Y-84648713D01*
X149659500Y-85111286D01*
X149684834Y-85271243D01*
X149692754Y-85321243D01*
X149724911Y-85420213D01*
X149758444Y-85523414D01*
X149854951Y-85712820D01*
X149979890Y-85884786D01*
X150130213Y-86035109D01*
X150302179Y-86160048D01*
X150302181Y-86160049D01*
X150302184Y-86160051D01*
X150491588Y-86256557D01*
X150693757Y-86322246D01*
X150903713Y-86355500D01*
X150903714Y-86355500D01*
X151116286Y-86355500D01*
X151116287Y-86355500D01*
X151326243Y-86322246D01*
X151528412Y-86256557D01*
X151717816Y-86160051D01*
X151786640Y-86110048D01*
X151889786Y-86035109D01*
X151889788Y-86035106D01*
X151889792Y-86035104D01*
X152040104Y-85884792D01*
X152159683Y-85720204D01*
X152215011Y-85677540D01*
X152284624Y-85671561D01*
X152346420Y-85704166D01*
X152360313Y-85720199D01*
X152443565Y-85834786D01*
X152479896Y-85884792D01*
X152630213Y-86035109D01*
X152802179Y-86160048D01*
X152802181Y-86160049D01*
X152802184Y-86160051D01*
X152991588Y-86256557D01*
X153193757Y-86322246D01*
X153403713Y-86355500D01*
X153403714Y-86355500D01*
X153616286Y-86355500D01*
X153616287Y-86355500D01*
X153826243Y-86322246D01*
X154028412Y-86256557D01*
X154217816Y-86160051D01*
X154286640Y-86110048D01*
X154389786Y-86035109D01*
X154389788Y-86035106D01*
X154389792Y-86035104D01*
X154540104Y-85884792D01*
X154659683Y-85720204D01*
X154715011Y-85677540D01*
X154784624Y-85671561D01*
X154846420Y-85704166D01*
X154860313Y-85720199D01*
X154943565Y-85834786D01*
X154979896Y-85884792D01*
X155130213Y-86035109D01*
X155302179Y-86160048D01*
X155302181Y-86160049D01*
X155302184Y-86160051D01*
X155491588Y-86256557D01*
X155693757Y-86322246D01*
X155903713Y-86355500D01*
X155903714Y-86355500D01*
X156116286Y-86355500D01*
X156116287Y-86355500D01*
X156326243Y-86322246D01*
X156528412Y-86256557D01*
X156717816Y-86160051D01*
X156786640Y-86110048D01*
X156889786Y-86035109D01*
X156889788Y-86035106D01*
X156889792Y-86035104D01*
X157040104Y-85884792D01*
X157040106Y-85884788D01*
X157040109Y-85884786D01*
X157165048Y-85712820D01*
X157165047Y-85712820D01*
X157165051Y-85712816D01*
X157261557Y-85523412D01*
X157327246Y-85321243D01*
X157360500Y-85111287D01*
X157360500Y-84648713D01*
X157327246Y-84438757D01*
X157261557Y-84236588D01*
X157194501Y-84104983D01*
X159659500Y-84104983D01*
X159659500Y-85655001D01*
X159659501Y-85655018D01*
X159670000Y-85757796D01*
X159670001Y-85757799D01*
X159708618Y-85874336D01*
X159725186Y-85924334D01*
X159817288Y-86073656D01*
X159941344Y-86197712D01*
X160090666Y-86289814D01*
X160257203Y-86344999D01*
X160359991Y-86355500D01*
X161660008Y-86355499D01*
X161762797Y-86344999D01*
X161929334Y-86289814D01*
X162078656Y-86197712D01*
X162202712Y-86073656D01*
X162294814Y-85924334D01*
X162349999Y-85757797D01*
X162360500Y-85655009D01*
X162360499Y-84598713D01*
X165859500Y-84598713D01*
X165859500Y-85061286D01*
X165892753Y-85271239D01*
X165958444Y-85473414D01*
X166054951Y-85662820D01*
X166179890Y-85834786D01*
X166330213Y-85985109D01*
X166502179Y-86110048D01*
X166502181Y-86110049D01*
X166502184Y-86110051D01*
X166691588Y-86206557D01*
X166893757Y-86272246D01*
X167103713Y-86305500D01*
X167103714Y-86305500D01*
X167316286Y-86305500D01*
X167316287Y-86305500D01*
X167526243Y-86272246D01*
X167728412Y-86206557D01*
X167917816Y-86110051D01*
X167939789Y-86094086D01*
X168089786Y-85985109D01*
X168089788Y-85985106D01*
X168089792Y-85985104D01*
X168240104Y-85834792D01*
X168359683Y-85670204D01*
X168415011Y-85627540D01*
X168484624Y-85621561D01*
X168546420Y-85654166D01*
X168560313Y-85670199D01*
X168679892Y-85834786D01*
X168679896Y-85834792D01*
X168830213Y-85985109D01*
X169002179Y-86110048D01*
X169002181Y-86110049D01*
X169002184Y-86110051D01*
X169191588Y-86206557D01*
X169393757Y-86272246D01*
X169603713Y-86305500D01*
X169603714Y-86305500D01*
X169816286Y-86305500D01*
X169816287Y-86305500D01*
X170026243Y-86272246D01*
X170228412Y-86206557D01*
X170417816Y-86110051D01*
X170439789Y-86094086D01*
X170589786Y-85985109D01*
X170589788Y-85985106D01*
X170589792Y-85985104D01*
X170740104Y-85834792D01*
X170859683Y-85670204D01*
X170915011Y-85627540D01*
X170984624Y-85621561D01*
X171046420Y-85654166D01*
X171060313Y-85670199D01*
X171179892Y-85834786D01*
X171179896Y-85834792D01*
X171330213Y-85985109D01*
X171502179Y-86110048D01*
X171502181Y-86110049D01*
X171502184Y-86110051D01*
X171691588Y-86206557D01*
X171893757Y-86272246D01*
X172103713Y-86305500D01*
X172103714Y-86305500D01*
X172316286Y-86305500D01*
X172316287Y-86305500D01*
X172526243Y-86272246D01*
X172728412Y-86206557D01*
X172917816Y-86110051D01*
X172939789Y-86094086D01*
X173089786Y-85985109D01*
X173089788Y-85985106D01*
X173089792Y-85985104D01*
X173240104Y-85834792D01*
X173240106Y-85834788D01*
X173240109Y-85834786D01*
X173365048Y-85662820D01*
X173365047Y-85662820D01*
X173365051Y-85662816D01*
X173461557Y-85473412D01*
X173527246Y-85271243D01*
X173560500Y-85061287D01*
X173560500Y-84598713D01*
X173527246Y-84388757D01*
X173461557Y-84186588D01*
X173394501Y-84054983D01*
X175859500Y-84054983D01*
X175859500Y-85605001D01*
X175859501Y-85605018D01*
X175870000Y-85707796D01*
X175870001Y-85707799D01*
X175925185Y-85874331D01*
X175925187Y-85874336D01*
X175956024Y-85924331D01*
X176017288Y-86023656D01*
X176141344Y-86147712D01*
X176290666Y-86239814D01*
X176457203Y-86294999D01*
X176559991Y-86305500D01*
X177860008Y-86305499D01*
X177962797Y-86294999D01*
X178129334Y-86239814D01*
X178278656Y-86147712D01*
X178402712Y-86023656D01*
X178494814Y-85874334D01*
X178549999Y-85707797D01*
X178560500Y-85605009D01*
X178560499Y-84054992D01*
X178559701Y-84047184D01*
X178549999Y-83952203D01*
X178549998Y-83952200D01*
X178524487Y-83875213D01*
X178494814Y-83785666D01*
X178402712Y-83636344D01*
X178278656Y-83512288D01*
X178183253Y-83453443D01*
X178129336Y-83420187D01*
X178129331Y-83420185D01*
X178113684Y-83415000D01*
X177962797Y-83365001D01*
X177962795Y-83365000D01*
X177860010Y-83354500D01*
X176559998Y-83354500D01*
X176559981Y-83354501D01*
X176457203Y-83365000D01*
X176457200Y-83365001D01*
X176290668Y-83420185D01*
X176290663Y-83420187D01*
X176141342Y-83512289D01*
X176017289Y-83636342D01*
X175925187Y-83785663D01*
X175925185Y-83785668D01*
X175908617Y-83835668D01*
X175870001Y-83952203D01*
X175870001Y-83952204D01*
X175870000Y-83952204D01*
X175859500Y-84054983D01*
X173394501Y-84054983D01*
X173365051Y-83997184D01*
X173365049Y-83997181D01*
X173365048Y-83997179D01*
X173240109Y-83825213D01*
X173089786Y-83674890D01*
X172917820Y-83549951D01*
X172728414Y-83453444D01*
X172728413Y-83453443D01*
X172728412Y-83453443D01*
X172526243Y-83387754D01*
X172526241Y-83387753D01*
X172526240Y-83387753D01*
X172364957Y-83362208D01*
X172316287Y-83354500D01*
X172103713Y-83354500D01*
X172055042Y-83362208D01*
X171893760Y-83387753D01*
X171691585Y-83453444D01*
X171502179Y-83549951D01*
X171330213Y-83674890D01*
X171179894Y-83825209D01*
X171179890Y-83825214D01*
X171060318Y-83989793D01*
X171004989Y-84032459D01*
X170935375Y-84038438D01*
X170873580Y-84005833D01*
X170859682Y-83989793D01*
X170740109Y-83825214D01*
X170740105Y-83825209D01*
X170589786Y-83674890D01*
X170417820Y-83549951D01*
X170228414Y-83453444D01*
X170228413Y-83453443D01*
X170228412Y-83453443D01*
X170026243Y-83387754D01*
X170026241Y-83387753D01*
X170026240Y-83387753D01*
X169864957Y-83362208D01*
X169816287Y-83354500D01*
X169603713Y-83354500D01*
X169555042Y-83362208D01*
X169393760Y-83387753D01*
X169191585Y-83453444D01*
X169002179Y-83549951D01*
X168830213Y-83674890D01*
X168679894Y-83825209D01*
X168679890Y-83825214D01*
X168560318Y-83989793D01*
X168504989Y-84032459D01*
X168435375Y-84038438D01*
X168373580Y-84005833D01*
X168359682Y-83989793D01*
X168240109Y-83825214D01*
X168240105Y-83825209D01*
X168089786Y-83674890D01*
X167917820Y-83549951D01*
X167728414Y-83453444D01*
X167728413Y-83453443D01*
X167728412Y-83453443D01*
X167526243Y-83387754D01*
X167526241Y-83387753D01*
X167526240Y-83387753D01*
X167364957Y-83362208D01*
X167316287Y-83354500D01*
X167103713Y-83354500D01*
X167055042Y-83362208D01*
X166893760Y-83387753D01*
X166691585Y-83453444D01*
X166502179Y-83549951D01*
X166330213Y-83674890D01*
X166179890Y-83825213D01*
X166054951Y-83997179D01*
X165958444Y-84186585D01*
X165892753Y-84388760D01*
X165859500Y-84598713D01*
X162360499Y-84598713D01*
X162360499Y-84104992D01*
X162358914Y-84089480D01*
X162349999Y-84002203D01*
X162349998Y-84002200D01*
X162333431Y-83952204D01*
X162294814Y-83835666D01*
X162202712Y-83686344D01*
X162078656Y-83562288D01*
X161929334Y-83470186D01*
X161762797Y-83415001D01*
X161762795Y-83415000D01*
X161660010Y-83404500D01*
X160359998Y-83404500D01*
X160359981Y-83404501D01*
X160257203Y-83415000D01*
X160257200Y-83415001D01*
X160090668Y-83470185D01*
X160090663Y-83470187D01*
X159941342Y-83562289D01*
X159817289Y-83686342D01*
X159725187Y-83835663D01*
X159725186Y-83835666D01*
X159670001Y-84002203D01*
X159670001Y-84002204D01*
X159670000Y-84002204D01*
X159659500Y-84104983D01*
X157194501Y-84104983D01*
X157165051Y-84047184D01*
X157165049Y-84047181D01*
X157165048Y-84047179D01*
X157040109Y-83875213D01*
X156889786Y-83724890D01*
X156717820Y-83599951D01*
X156528414Y-83503444D01*
X156528413Y-83503443D01*
X156528412Y-83503443D01*
X156326243Y-83437754D01*
X156326241Y-83437753D01*
X156326240Y-83437753D01*
X156164957Y-83412208D01*
X156116287Y-83404500D01*
X155903713Y-83404500D01*
X155855042Y-83412208D01*
X155693760Y-83437753D01*
X155491585Y-83503444D01*
X155302179Y-83599951D01*
X155130213Y-83724890D01*
X154979894Y-83875209D01*
X154979890Y-83875214D01*
X154860318Y-84039793D01*
X154804989Y-84082459D01*
X154735375Y-84088438D01*
X154673580Y-84055833D01*
X154659682Y-84039793D01*
X154540109Y-83875214D01*
X154540105Y-83875209D01*
X154389786Y-83724890D01*
X154217820Y-83599951D01*
X154028414Y-83503444D01*
X154028413Y-83503443D01*
X154028412Y-83503443D01*
X153826243Y-83437754D01*
X153826241Y-83437753D01*
X153826240Y-83437753D01*
X153664957Y-83412208D01*
X153616287Y-83404500D01*
X153403713Y-83404500D01*
X153355042Y-83412208D01*
X153193760Y-83437753D01*
X152991585Y-83503444D01*
X152802179Y-83599951D01*
X152630213Y-83724890D01*
X152479894Y-83875209D01*
X152479890Y-83875214D01*
X152360318Y-84039793D01*
X152304989Y-84082459D01*
X152235375Y-84088438D01*
X152173580Y-84055833D01*
X152159682Y-84039793D01*
X152040109Y-83875214D01*
X152040105Y-83875209D01*
X151889786Y-83724890D01*
X151717820Y-83599951D01*
X151528414Y-83503444D01*
X151528413Y-83503443D01*
X151528412Y-83503443D01*
X151326243Y-83437754D01*
X151326241Y-83437753D01*
X151326240Y-83437753D01*
X151164957Y-83412208D01*
X151116287Y-83404500D01*
X150903713Y-83404500D01*
X150855042Y-83412208D01*
X150693760Y-83437753D01*
X150491585Y-83503444D01*
X150302179Y-83599951D01*
X150130213Y-83724890D01*
X149979890Y-83875213D01*
X149854951Y-84047179D01*
X149758444Y-84236585D01*
X149692753Y-84438760D01*
X149659500Y-84648713D01*
X143867298Y-84648713D01*
X143923532Y-84592479D01*
X144002929Y-84473653D01*
X144057619Y-84341620D01*
X144074221Y-84258156D01*
X144085500Y-84201457D01*
X144085500Y-84058542D01*
X144057620Y-83918385D01*
X144057619Y-83918384D01*
X144057619Y-83918380D01*
X144002929Y-83786347D01*
X144002928Y-83786346D01*
X144002925Y-83786340D01*
X143923532Y-83667521D01*
X143923529Y-83667517D01*
X143822482Y-83566470D01*
X143822478Y-83566467D01*
X143703659Y-83487074D01*
X143703650Y-83487069D01*
X143571620Y-83432381D01*
X143571614Y-83432379D01*
X143431457Y-83404500D01*
X143431455Y-83404500D01*
X143288545Y-83404500D01*
X143288543Y-83404500D01*
X143148385Y-83432379D01*
X143148379Y-83432381D01*
X143016349Y-83487069D01*
X143016340Y-83487074D01*
X142897521Y-83566467D01*
X142897517Y-83566470D01*
X142796470Y-83667517D01*
X142796467Y-83667521D01*
X142717074Y-83786340D01*
X142717069Y-83786350D01*
X142660050Y-83924007D01*
X142658978Y-83923563D01*
X142655257Y-83929770D01*
X142652858Y-83940801D01*
X142631708Y-83969056D01*
X142511286Y-84089478D01*
X142511285Y-84089478D01*
X142511284Y-84089479D01*
X142399479Y-84201284D01*
X142376401Y-84241258D01*
X142366646Y-84258155D01*
X142320423Y-84338215D01*
X142279499Y-84490943D01*
X142279499Y-84490945D01*
X142279499Y-84659046D01*
X142279500Y-84659059D01*
X142279500Y-91803330D01*
X142279499Y-91803348D01*
X142279499Y-91969054D01*
X142279498Y-91969054D01*
X142320423Y-92121785D01*
X142345070Y-92164473D01*
X142345071Y-92164477D01*
X142345072Y-92164477D01*
X142380205Y-92225331D01*
X142399479Y-92258714D01*
X142399481Y-92258717D01*
X142518349Y-92377585D01*
X142518355Y-92377590D01*
X143993181Y-93852416D01*
X144026666Y-93913739D01*
X144029500Y-93940097D01*
X144029500Y-96533330D01*
X144029499Y-96533348D01*
X144029499Y-96699054D01*
X144029498Y-96699054D01*
X144043296Y-96750546D01*
X144070423Y-96851785D01*
X144082981Y-96873535D01*
X144111530Y-96922984D01*
X144149479Y-96988715D01*
X144268349Y-97107585D01*
X144268355Y-97107590D01*
X146868257Y-99707492D01*
X146878869Y-99726928D01*
X146893370Y-99743662D01*
X146895286Y-99756993D01*
X146901742Y-99768815D01*
X146900162Y-99790901D01*
X146903314Y-99812820D01*
X146897718Y-99825071D01*
X146896758Y-99838507D01*
X146883487Y-99856233D01*
X146874289Y-99876376D01*
X146862957Y-99883658D01*
X146854886Y-99894440D01*
X146834140Y-99902177D01*
X146815511Y-99914150D01*
X146793592Y-99917301D01*
X146789422Y-99918857D01*
X146780576Y-99919173D01*
X146768143Y-99919173D01*
X146701104Y-99899488D01*
X146699252Y-99898275D01*
X146607659Y-99837074D01*
X146607650Y-99837069D01*
X146475620Y-99782381D01*
X146475614Y-99782379D01*
X146335457Y-99754500D01*
X146335455Y-99754500D01*
X146192545Y-99754500D01*
X146192543Y-99754500D01*
X146052385Y-99782379D01*
X146052379Y-99782381D01*
X145920349Y-99837069D01*
X145920340Y-99837074D01*
X145801521Y-99916467D01*
X145801517Y-99916470D01*
X145700470Y-100017517D01*
X145700468Y-100017520D01*
X145621074Y-100136340D01*
X145621069Y-100136349D01*
X145566381Y-100268379D01*
X145566379Y-100268385D01*
X145538500Y-100408542D01*
X145538500Y-100408545D01*
X145538500Y-100551455D01*
X145538500Y-100551457D01*
X145538499Y-100551457D01*
X145566379Y-100691614D01*
X145566381Y-100691620D01*
X145622684Y-100827547D01*
X145630153Y-100897017D01*
X145622684Y-100922453D01*
X145566381Y-101058379D01*
X145566379Y-101058385D01*
X145538500Y-101198542D01*
X145538500Y-101226524D01*
X145518815Y-101293563D01*
X145466011Y-101339318D01*
X145396853Y-101349262D01*
X145390309Y-101348141D01*
X145271458Y-101324500D01*
X145271455Y-101324500D01*
X145128545Y-101324500D01*
X145128543Y-101324500D01*
X144988385Y-101352379D01*
X144988379Y-101352381D01*
X144856349Y-101407069D01*
X144856340Y-101407074D01*
X144737521Y-101486467D01*
X144737517Y-101486470D01*
X144636470Y-101587517D01*
X144636467Y-101587521D01*
X144557074Y-101706340D01*
X144557069Y-101706349D01*
X144502381Y-101838379D01*
X144502379Y-101838385D01*
X144474500Y-101978542D01*
X144474500Y-101978545D01*
X144474500Y-102121455D01*
X144474500Y-102121457D01*
X144474499Y-102121457D01*
X144502379Y-102261614D01*
X144502381Y-102261620D01*
X144557069Y-102393650D01*
X144557074Y-102393659D01*
X144636467Y-102512478D01*
X144636470Y-102512482D01*
X144737517Y-102613529D01*
X144737521Y-102613532D01*
X144856340Y-102692925D01*
X144856346Y-102692928D01*
X144856347Y-102692929D01*
X144988380Y-102747619D01*
X144988384Y-102747619D01*
X144988385Y-102747620D01*
X145128542Y-102775500D01*
X145128545Y-102775500D01*
X145271457Y-102775500D01*
X145365751Y-102756742D01*
X145411620Y-102747619D01*
X145543653Y-102692929D01*
X145662479Y-102613532D01*
X145763532Y-102512479D01*
X145842929Y-102393653D01*
X145897619Y-102261620D01*
X145912238Y-102188127D01*
X145925500Y-102121457D01*
X145925500Y-102093475D01*
X145945185Y-102026436D01*
X145997989Y-101980681D01*
X146067147Y-101970737D01*
X146073681Y-101971856D01*
X146107293Y-101978542D01*
X146192543Y-101995500D01*
X146192545Y-101995500D01*
X146335457Y-101995500D01*
X146454309Y-101971858D01*
X146475620Y-101967619D01*
X146607653Y-101912929D01*
X146639876Y-101891397D01*
X146706554Y-101870520D01*
X146708767Y-101870500D01*
X147388752Y-101870500D01*
X147444451Y-101884452D01*
X147444487Y-101884366D01*
X147445071Y-101884607D01*
X147447207Y-101885143D01*
X147450113Y-101886696D01*
X147450114Y-101886696D01*
X147450115Y-101886697D01*
X147582148Y-101941387D01*
X147619771Y-101948870D01*
X147658691Y-101956613D01*
X147720602Y-101988998D01*
X147755176Y-102049714D01*
X147758500Y-102078230D01*
X147758500Y-104983717D01*
X147738815Y-105050756D01*
X147686011Y-105096511D01*
X147681953Y-105098278D01*
X147643786Y-105114087D01*
X147643776Y-105114092D01*
X147537241Y-105185277D01*
X147537237Y-105185280D01*
X147446636Y-105275881D01*
X147446633Y-105275885D01*
X147375448Y-105382420D01*
X147375443Y-105382429D01*
X147326409Y-105500809D01*
X147326407Y-105500815D01*
X147301410Y-105626482D01*
X147301410Y-105626485D01*
X147301410Y-105754623D01*
X147301410Y-105754625D01*
X147301409Y-105754625D01*
X147326407Y-105880292D01*
X147326409Y-105880298D01*
X147375443Y-105998678D01*
X147375448Y-105998687D01*
X147446633Y-106105222D01*
X147446636Y-106105226D01*
X147537237Y-106195827D01*
X147537241Y-106195830D01*
X147643776Y-106267015D01*
X147643785Y-106267020D01*
X147670602Y-106278128D01*
X147762166Y-106316055D01*
X147762170Y-106316055D01*
X147762171Y-106316056D01*
X147887838Y-106341054D01*
X147887841Y-106341054D01*
X148015981Y-106341054D01*
X148112828Y-106321789D01*
X148141654Y-106316055D01*
X148260037Y-106267019D01*
X148366579Y-106195830D01*
X148366581Y-106195827D01*
X148371283Y-106191969D01*
X148372236Y-106193130D01*
X148427033Y-106163199D01*
X148496726Y-106168173D01*
X148515411Y-106176975D01*
X148537235Y-106189576D01*
X148537237Y-106189576D01*
X148537238Y-106189577D01*
X148689966Y-106230500D01*
X148729323Y-106230500D01*
X148796362Y-106250185D01*
X148842117Y-106302989D01*
X148852061Y-106372147D01*
X148850939Y-106378696D01*
X148849500Y-106385928D01*
X148849500Y-106385931D01*
X148849500Y-106514069D01*
X148849500Y-106514071D01*
X148849499Y-106514071D01*
X148874497Y-106639738D01*
X148874499Y-106639744D01*
X148923533Y-106758124D01*
X148923538Y-106758133D01*
X148994723Y-106864668D01*
X148994726Y-106864672D01*
X149085327Y-106955273D01*
X149085331Y-106955276D01*
X149191866Y-107026461D01*
X149191872Y-107026464D01*
X149191873Y-107026465D01*
X149310256Y-107075501D01*
X149310260Y-107075501D01*
X149310261Y-107075502D01*
X149435928Y-107100500D01*
X149435931Y-107100500D01*
X149564071Y-107100500D01*
X149648615Y-107083682D01*
X149689744Y-107075501D01*
X149808127Y-107026465D01*
X149914669Y-106955276D01*
X150005276Y-106864669D01*
X150076465Y-106758127D01*
X150125501Y-106639744D01*
X150143882Y-106547341D01*
X150150500Y-106514071D01*
X150150500Y-106385928D01*
X150149061Y-106378696D01*
X150155285Y-106309104D01*
X150198146Y-106253925D01*
X150264035Y-106230678D01*
X150270677Y-106230500D01*
X152959903Y-106230500D01*
X153026942Y-106250185D01*
X153047584Y-106266819D01*
X153237374Y-106456609D01*
X153270859Y-106517932D01*
X153265875Y-106587624D01*
X153224003Y-106643557D01*
X153158539Y-106667974D01*
X153102241Y-106658851D01*
X153086624Y-106652382D01*
X153086614Y-106652379D01*
X152946457Y-106624500D01*
X152946455Y-106624500D01*
X152803545Y-106624500D01*
X152803543Y-106624500D01*
X152663385Y-106652379D01*
X152663379Y-106652381D01*
X152531349Y-106707069D01*
X152531340Y-106707074D01*
X152412521Y-106786467D01*
X152412517Y-106786470D01*
X152311470Y-106887517D01*
X152311467Y-106887521D01*
X152232074Y-107006340D01*
X152232069Y-107006349D01*
X152177380Y-107138381D01*
X152177380Y-107138382D01*
X152176027Y-107145185D01*
X152143640Y-107207095D01*
X152142091Y-107208672D01*
X151387584Y-107963181D01*
X151326261Y-107996666D01*
X151299903Y-107999500D01*
X147386669Y-107999500D01*
X147386653Y-107999499D01*
X147379057Y-107999499D01*
X147220943Y-107999499D01*
X147068215Y-108040423D01*
X147068214Y-108040423D01*
X147068212Y-108040424D01*
X147038258Y-108057719D01*
X147038256Y-108057720D01*
X146931287Y-108119477D01*
X146931282Y-108119481D01*
X146042181Y-109008583D01*
X145980858Y-109042068D01*
X145911166Y-109037084D01*
X145855233Y-108995212D01*
X145830816Y-108929748D01*
X145830500Y-108920902D01*
X145830500Y-108505062D01*
X145850185Y-108438023D01*
X145851360Y-108436228D01*
X145897929Y-108366534D01*
X145952619Y-108234501D01*
X145961742Y-108188632D01*
X145980500Y-108094338D01*
X145980500Y-107951423D01*
X145952620Y-107811266D01*
X145952619Y-107811265D01*
X145952619Y-107811261D01*
X145897929Y-107679228D01*
X145897928Y-107679227D01*
X145897925Y-107679221D01*
X145818532Y-107560402D01*
X145818529Y-107560398D01*
X145717482Y-107459351D01*
X145717478Y-107459348D01*
X145598659Y-107379955D01*
X145598650Y-107379950D01*
X145466620Y-107325262D01*
X145466614Y-107325260D01*
X145326457Y-107297381D01*
X145326455Y-107297381D01*
X145183545Y-107297381D01*
X145183543Y-107297381D01*
X145043385Y-107325260D01*
X145043379Y-107325262D01*
X144911349Y-107379950D01*
X144911340Y-107379955D01*
X144792521Y-107459348D01*
X144792517Y-107459351D01*
X144691470Y-107560398D01*
X144691467Y-107560402D01*
X144612074Y-107679221D01*
X144612069Y-107679230D01*
X144557381Y-107811260D01*
X144557379Y-107811266D01*
X144529500Y-107951423D01*
X144529500Y-107951426D01*
X144529500Y-108094336D01*
X144529500Y-108094338D01*
X144529499Y-108094338D01*
X144557379Y-108234495D01*
X144557381Y-108234501D01*
X144612068Y-108366529D01*
X144614853Y-108371737D01*
X144629500Y-108430200D01*
X144629500Y-109125232D01*
X144609815Y-109192271D01*
X144608603Y-109194122D01*
X144587070Y-109226348D01*
X144532381Y-109358379D01*
X144532379Y-109358385D01*
X144504500Y-109498542D01*
X144504500Y-109498545D01*
X144504500Y-109641455D01*
X144504500Y-109641457D01*
X144504499Y-109641457D01*
X144532379Y-109781614D01*
X144532381Y-109781620D01*
X144587069Y-109913650D01*
X144587074Y-109913659D01*
X144666467Y-110032478D01*
X144666470Y-110032482D01*
X144767517Y-110133529D01*
X144767521Y-110133532D01*
X144886340Y-110212925D01*
X144886347Y-110212929D01*
X144976954Y-110250460D01*
X145031355Y-110294298D01*
X145053421Y-110360592D01*
X145053500Y-110365019D01*
X145053500Y-110775902D01*
X145033815Y-110842941D01*
X145017181Y-110863583D01*
X142929880Y-112950883D01*
X142868557Y-112984368D01*
X142866392Y-112984819D01*
X142828383Y-112992379D01*
X142828381Y-112992380D01*
X142696349Y-113047069D01*
X142696340Y-113047074D01*
X142577521Y-113126467D01*
X142577517Y-113126470D01*
X142476470Y-113227517D01*
X142476467Y-113227521D01*
X142397074Y-113346340D01*
X142397069Y-113346349D01*
X142342381Y-113478379D01*
X142342379Y-113478385D01*
X142314500Y-113618542D01*
X142314500Y-113618545D01*
X142314500Y-113761455D01*
X142314500Y-113761457D01*
X142314499Y-113761457D01*
X142342379Y-113901614D01*
X142342381Y-113901620D01*
X142397069Y-114033650D01*
X142397074Y-114033659D01*
X142476467Y-114152478D01*
X142476470Y-114152482D01*
X142577517Y-114253529D01*
X142577521Y-114253532D01*
X142696340Y-114332925D01*
X142696346Y-114332928D01*
X142696347Y-114332929D01*
X142828380Y-114387619D01*
X142828384Y-114387619D01*
X142828385Y-114387620D01*
X142968542Y-114415500D01*
X142968545Y-114415500D01*
X143111457Y-114415500D01*
X143205751Y-114396742D01*
X143251620Y-114387619D01*
X143383653Y-114332929D01*
X143502479Y-114253532D01*
X143603532Y-114152479D01*
X143682929Y-114033653D01*
X143737619Y-113901620D01*
X143745180Y-113863606D01*
X143777563Y-113801697D01*
X143779057Y-113800176D01*
X145362820Y-112216413D01*
X145424142Y-112182930D01*
X145493834Y-112187914D01*
X145549767Y-112229786D01*
X145574184Y-112295250D01*
X145574500Y-112304096D01*
X145574500Y-116453407D01*
X145574499Y-116453425D01*
X145574499Y-116619131D01*
X145574498Y-116619131D01*
X145615422Y-116771859D01*
X145615426Y-116771868D01*
X145616390Y-116773538D01*
X145616391Y-116773539D01*
X145694477Y-116908789D01*
X145694481Y-116908794D01*
X145813349Y-117027662D01*
X145813355Y-117027667D01*
X146153506Y-117367819D01*
X146186991Y-117429142D01*
X146182007Y-117498834D01*
X146140135Y-117554767D01*
X146074671Y-117579184D01*
X146065825Y-117579500D01*
X144959998Y-117579500D01*
X144959981Y-117579501D01*
X144857203Y-117590000D01*
X144857200Y-117590001D01*
X144690668Y-117645185D01*
X144690663Y-117645187D01*
X144541342Y-117737289D01*
X144417289Y-117861342D01*
X144325187Y-118010663D01*
X144325185Y-118010668D01*
X144311226Y-118052795D01*
X144270001Y-118177203D01*
X144270001Y-118177204D01*
X144270000Y-118177204D01*
X144259500Y-118279983D01*
X144259500Y-119880001D01*
X144259501Y-119880018D01*
X144270000Y-119982796D01*
X144270001Y-119982799D01*
X144319307Y-120131592D01*
X144325186Y-120149334D01*
X144417288Y-120298656D01*
X144541344Y-120422712D01*
X144690666Y-120514814D01*
X144857203Y-120569999D01*
X144959991Y-120580500D01*
X146260008Y-120580499D01*
X146362797Y-120569999D01*
X146529334Y-120514814D01*
X146678656Y-120422712D01*
X146802712Y-120298656D01*
X146894814Y-120149334D01*
X146949999Y-119982797D01*
X146960500Y-119880009D01*
X146960499Y-118279992D01*
X146957434Y-118249992D01*
X146949999Y-118177203D01*
X146949998Y-118177200D01*
X146923852Y-118098298D01*
X146895753Y-118013502D01*
X146893352Y-117943676D01*
X146929084Y-117883634D01*
X146991604Y-117852441D01*
X147013460Y-117850500D01*
X152716599Y-117850500D01*
X152783638Y-117870185D01*
X152829393Y-117922989D01*
X152839337Y-117992147D01*
X152834306Y-118013499D01*
X152790001Y-118147203D01*
X152790001Y-118147204D01*
X152790000Y-118147204D01*
X152779500Y-118249983D01*
X152779500Y-119850001D01*
X152779501Y-119850018D01*
X152790000Y-119952796D01*
X152790001Y-119952799D01*
X152845185Y-120119331D01*
X152845187Y-120119336D01*
X152852746Y-120131591D01*
X152937288Y-120268656D01*
X153061344Y-120392712D01*
X153210666Y-120484814D01*
X153377203Y-120539999D01*
X153479991Y-120550500D01*
X154780008Y-120550499D01*
X154882797Y-120539999D01*
X155049334Y-120484814D01*
X155198656Y-120392712D01*
X155322712Y-120268656D01*
X155414814Y-120119334D01*
X155469999Y-119952797D01*
X155480500Y-119850009D01*
X155480499Y-118249992D01*
X155477367Y-118219336D01*
X155469999Y-118147203D01*
X155453793Y-118098298D01*
X155425694Y-118013502D01*
X155423293Y-117943676D01*
X155459024Y-117883634D01*
X155521545Y-117852441D01*
X155543401Y-117850500D01*
X161236540Y-117850500D01*
X161303579Y-117870185D01*
X161349334Y-117922989D01*
X161359278Y-117992147D01*
X161354247Y-118013499D01*
X161300001Y-118177203D01*
X161300001Y-118177204D01*
X161300000Y-118177204D01*
X161289500Y-118279983D01*
X161289500Y-119880001D01*
X161289501Y-119880018D01*
X161300000Y-119982796D01*
X161300001Y-119982799D01*
X161349307Y-120131592D01*
X161355186Y-120149334D01*
X161447288Y-120298656D01*
X161571344Y-120422712D01*
X161720666Y-120514814D01*
X161887203Y-120569999D01*
X161989991Y-120580500D01*
X163290008Y-120580499D01*
X163392797Y-120569999D01*
X163559334Y-120514814D01*
X163708656Y-120422712D01*
X163832712Y-120298656D01*
X163924814Y-120149334D01*
X163979999Y-119982797D01*
X163990500Y-119880009D01*
X163990499Y-118279992D01*
X163987434Y-118249992D01*
X163979999Y-118177203D01*
X163979998Y-118177200D01*
X163953852Y-118098298D01*
X163925753Y-118013502D01*
X163923352Y-117943676D01*
X163959084Y-117883634D01*
X164021604Y-117852441D01*
X164043460Y-117850500D01*
X172519832Y-117850500D01*
X172586871Y-117870185D01*
X172632626Y-117922989D01*
X172642570Y-117992147D01*
X172620150Y-118047385D01*
X172514951Y-118192180D01*
X172418444Y-118381585D01*
X172352753Y-118583760D01*
X172334679Y-118697876D01*
X172319500Y-118793713D01*
X172319500Y-119306287D01*
X172320405Y-119311999D01*
X172339446Y-119432224D01*
X172352754Y-119516243D01*
X172389512Y-119629373D01*
X172418444Y-119718414D01*
X172514951Y-119907820D01*
X172639890Y-120079786D01*
X172790213Y-120230109D01*
X172962179Y-120355048D01*
X172962181Y-120355049D01*
X172962184Y-120355051D01*
X173151588Y-120451557D01*
X173353757Y-120517246D01*
X173563713Y-120550500D01*
X173563714Y-120550500D01*
X173776286Y-120550500D01*
X173776287Y-120550500D01*
X173986243Y-120517246D01*
X174188412Y-120451557D01*
X174377816Y-120355051D01*
X174399789Y-120339086D01*
X174549786Y-120230109D01*
X174549788Y-120230106D01*
X174549792Y-120230104D01*
X174700104Y-120079792D01*
X174700106Y-120079788D01*
X174700109Y-120079786D01*
X174756935Y-120001571D01*
X181786999Y-120001571D01*
X181811997Y-120127238D01*
X181811999Y-120127244D01*
X181861033Y-120245624D01*
X181861038Y-120245633D01*
X181932223Y-120352168D01*
X181932226Y-120352172D01*
X182022827Y-120442773D01*
X182022831Y-120442776D01*
X182129366Y-120513961D01*
X182129375Y-120513966D01*
X182137294Y-120517246D01*
X182247756Y-120563001D01*
X182247760Y-120563001D01*
X182247761Y-120563002D01*
X182373428Y-120588000D01*
X182373431Y-120588000D01*
X182501571Y-120588000D01*
X182592069Y-120569998D01*
X182627244Y-120563001D01*
X182745627Y-120513965D01*
X182852169Y-120442776D01*
X182942776Y-120352169D01*
X183013965Y-120245627D01*
X183063001Y-120127244D01*
X183088000Y-120001569D01*
X183088000Y-119873431D01*
X183088000Y-119873428D01*
X183063002Y-119747761D01*
X183063001Y-119747760D01*
X183063001Y-119747756D01*
X183013965Y-119629373D01*
X183013964Y-119629372D01*
X183013961Y-119629366D01*
X182942776Y-119522831D01*
X182942773Y-119522827D01*
X182852172Y-119432226D01*
X182852168Y-119432223D01*
X182745633Y-119361038D01*
X182745624Y-119361033D01*
X182627244Y-119311999D01*
X182627238Y-119311997D01*
X182501571Y-119287000D01*
X182501569Y-119287000D01*
X182373431Y-119287000D01*
X182373429Y-119287000D01*
X182247761Y-119311997D01*
X182247755Y-119311999D01*
X182129375Y-119361033D01*
X182129366Y-119361038D01*
X182022831Y-119432223D01*
X182022827Y-119432226D01*
X181932226Y-119522827D01*
X181932223Y-119522831D01*
X181861038Y-119629366D01*
X181861033Y-119629375D01*
X181811999Y-119747755D01*
X181811997Y-119747761D01*
X181787000Y-119873428D01*
X181787000Y-119873431D01*
X181787000Y-120001569D01*
X181787000Y-120001571D01*
X181786999Y-120001571D01*
X174756935Y-120001571D01*
X174792369Y-119952799D01*
X174825051Y-119907816D01*
X174921557Y-119718412D01*
X174987246Y-119516243D01*
X175020500Y-119306287D01*
X175020500Y-118793713D01*
X174987246Y-118583757D01*
X174921557Y-118381588D01*
X174825051Y-118192184D01*
X174814165Y-118177200D01*
X174719850Y-118047385D01*
X174696370Y-117981579D01*
X174712196Y-117913525D01*
X174762302Y-117864830D01*
X174820168Y-117850500D01*
X177043331Y-117850500D01*
X177043347Y-117850501D01*
X177050943Y-117850501D01*
X177209054Y-117850501D01*
X177209057Y-117850501D01*
X177361785Y-117809577D01*
X177411904Y-117780639D01*
X177498716Y-117730520D01*
X177610520Y-117618716D01*
X177610520Y-117618714D01*
X177620728Y-117608507D01*
X177620730Y-117608504D01*
X178312821Y-116916412D01*
X178374142Y-116882929D01*
X178443834Y-116887913D01*
X178499767Y-116929785D01*
X178524184Y-116995249D01*
X178524500Y-117004095D01*
X178524500Y-118697870D01*
X178524501Y-118697876D01*
X178530908Y-118757483D01*
X178581202Y-118892328D01*
X178581206Y-118892335D01*
X178667452Y-119007544D01*
X178667455Y-119007547D01*
X178782664Y-119093793D01*
X178782671Y-119093797D01*
X178917517Y-119144091D01*
X178917516Y-119144091D01*
X178924444Y-119144835D01*
X178977127Y-119150500D01*
X181822872Y-119150499D01*
X181882483Y-119144091D01*
X182017331Y-119093796D01*
X182132546Y-119007546D01*
X182218796Y-118892331D01*
X182269091Y-118757483D01*
X182275500Y-118697873D01*
X182275499Y-118098297D01*
X182295183Y-118031259D01*
X182347987Y-117985504D01*
X182417146Y-117975560D01*
X182423663Y-117976676D01*
X182519007Y-117995641D01*
X182543430Y-118000500D01*
X182543431Y-118000500D01*
X182671571Y-118000500D01*
X182756115Y-117983682D01*
X182797244Y-117975501D01*
X182915627Y-117926465D01*
X183022169Y-117855276D01*
X183112776Y-117764669D01*
X183183965Y-117658127D01*
X183233001Y-117539744D01*
X183258000Y-117414069D01*
X183258000Y-117285931D01*
X183258000Y-117285928D01*
X183233002Y-117160261D01*
X183233001Y-117160260D01*
X183233001Y-117160256D01*
X183183965Y-117041873D01*
X183183964Y-117041872D01*
X183183961Y-117041866D01*
X183112776Y-116935331D01*
X183112773Y-116935327D01*
X183022172Y-116844726D01*
X183022168Y-116844723D01*
X182915633Y-116773538D01*
X182915623Y-116773533D01*
X182886319Y-116761395D01*
X182886317Y-116761394D01*
X182797248Y-116724500D01*
X182797238Y-116724497D01*
X182671571Y-116699500D01*
X182671569Y-116699500D01*
X182543431Y-116699500D01*
X182543429Y-116699500D01*
X182423691Y-116723318D01*
X182354099Y-116717091D01*
X182298922Y-116674228D01*
X182290369Y-116649983D01*
X187779500Y-116649983D01*
X187779500Y-117950001D01*
X187779501Y-117950018D01*
X187790000Y-118052796D01*
X187790001Y-118052799D01*
X187845185Y-118219331D01*
X187845187Y-118219336D01*
X187880069Y-118275888D01*
X187937288Y-118368656D01*
X188061344Y-118492712D01*
X188210666Y-118584814D01*
X188377203Y-118639999D01*
X188479991Y-118650500D01*
X190030008Y-118650499D01*
X190132797Y-118639999D01*
X190299334Y-118584814D01*
X190448656Y-118492712D01*
X190572712Y-118368656D01*
X190664814Y-118219334D01*
X190719999Y-118052797D01*
X190730500Y-117950009D01*
X190730499Y-116649992D01*
X190719999Y-116547203D01*
X190664814Y-116380666D01*
X190572712Y-116231344D01*
X190448656Y-116107288D01*
X190299334Y-116015186D01*
X190132797Y-115960001D01*
X190132795Y-115960000D01*
X190030010Y-115949500D01*
X188479998Y-115949500D01*
X188479981Y-115949501D01*
X188377203Y-115960000D01*
X188377200Y-115960001D01*
X188210668Y-116015185D01*
X188210663Y-116015187D01*
X188061342Y-116107289D01*
X187937289Y-116231342D01*
X187845187Y-116380663D01*
X187845186Y-116380666D01*
X187790001Y-116547203D01*
X187790001Y-116547204D01*
X187790000Y-116547204D01*
X187779500Y-116649983D01*
X182290369Y-116649983D01*
X182275677Y-116608339D01*
X182275499Y-116601701D01*
X182275499Y-115884500D01*
X182295184Y-115817461D01*
X182347988Y-115771706D01*
X182399499Y-115760500D01*
X185553331Y-115760500D01*
X185553347Y-115760501D01*
X185560943Y-115760501D01*
X185719054Y-115760501D01*
X185719057Y-115760501D01*
X185871785Y-115719577D01*
X185921904Y-115690639D01*
X186008716Y-115640520D01*
X186120520Y-115528716D01*
X186120520Y-115528714D01*
X186130728Y-115518507D01*
X186130729Y-115518504D01*
X188215243Y-113433991D01*
X188276564Y-113400508D01*
X188346256Y-113405492D01*
X188375808Y-113421357D01*
X188422179Y-113455048D01*
X188422181Y-113455049D01*
X188422184Y-113455051D01*
X188611588Y-113551557D01*
X188813757Y-113617246D01*
X189023713Y-113650500D01*
X189023714Y-113650500D01*
X189486286Y-113650500D01*
X189486287Y-113650500D01*
X189696243Y-113617246D01*
X189898412Y-113551557D01*
X190087816Y-113455051D01*
X190137658Y-113418839D01*
X190259786Y-113330109D01*
X190259788Y-113330106D01*
X190259792Y-113330104D01*
X190410104Y-113179792D01*
X190410106Y-113179788D01*
X190410109Y-113179786D01*
X190535048Y-113007820D01*
X190535047Y-113007820D01*
X190535051Y-113007816D01*
X190631557Y-112818412D01*
X190697246Y-112616243D01*
X190730500Y-112406287D01*
X190730500Y-112193713D01*
X190697246Y-111983757D01*
X190631557Y-111781588D01*
X190535051Y-111592184D01*
X190535049Y-111592181D01*
X190535048Y-111592179D01*
X190410109Y-111420213D01*
X190259792Y-111269896D01*
X190095204Y-111150316D01*
X190052540Y-111094989D01*
X190046561Y-111025376D01*
X190079166Y-110963580D01*
X190095199Y-110949686D01*
X190259792Y-110830104D01*
X190410104Y-110679792D01*
X190410106Y-110679788D01*
X190410109Y-110679786D01*
X190535048Y-110507820D01*
X190535047Y-110507820D01*
X190535051Y-110507816D01*
X190631557Y-110318412D01*
X190697246Y-110116243D01*
X190730500Y-109906287D01*
X190730500Y-109693713D01*
X190697246Y-109483757D01*
X190631557Y-109281588D01*
X190535051Y-109092184D01*
X190535049Y-109092181D01*
X190535048Y-109092179D01*
X190410109Y-108920213D01*
X190259792Y-108769896D01*
X190190763Y-108719744D01*
X190095204Y-108650316D01*
X190052540Y-108594989D01*
X190046561Y-108525376D01*
X190079166Y-108463580D01*
X190095199Y-108449686D01*
X190259792Y-108330104D01*
X190410104Y-108179792D01*
X190410106Y-108179788D01*
X190410109Y-108179786D01*
X190535048Y-108007820D01*
X190535047Y-108007820D01*
X190535051Y-108007816D01*
X190631557Y-107818412D01*
X190697246Y-107616243D01*
X190730500Y-107406287D01*
X190730500Y-107193713D01*
X190697246Y-106983757D01*
X190652851Y-106847126D01*
X190650857Y-106777290D01*
X190683100Y-106721133D01*
X191098506Y-106305728D01*
X191098511Y-106305724D01*
X191108714Y-106295520D01*
X191108716Y-106295520D01*
X191220520Y-106183716D01*
X191268114Y-106101280D01*
X191318679Y-106053066D01*
X191387286Y-106039842D01*
X191452151Y-106065810D01*
X191492680Y-106122723D01*
X191499500Y-106163281D01*
X191499500Y-125496753D01*
X191499330Y-125503243D01*
X191483407Y-125807046D01*
X191482050Y-125819953D01*
X191434971Y-126117205D01*
X191432273Y-126129902D01*
X191354374Y-126420623D01*
X191350363Y-126432966D01*
X191242510Y-126713935D01*
X191237231Y-126725793D01*
X191100591Y-126993963D01*
X191094101Y-127005203D01*
X190930187Y-127257608D01*
X190922558Y-127268109D01*
X190733149Y-127502010D01*
X190724464Y-127511655D01*
X190511655Y-127724464D01*
X190502010Y-127733149D01*
X190268109Y-127922558D01*
X190257608Y-127930187D01*
X190005203Y-128094101D01*
X189993963Y-128100591D01*
X189725793Y-128237231D01*
X189713935Y-128242510D01*
X189432966Y-128350363D01*
X189420623Y-128354374D01*
X189129902Y-128432273D01*
X189117205Y-128434971D01*
X188819953Y-128482050D01*
X188807046Y-128483407D01*
X188503244Y-128499330D01*
X188496754Y-128499500D01*
X181453646Y-128499500D01*
X181386607Y-128479815D01*
X181340852Y-128427011D01*
X181330908Y-128357853D01*
X181359933Y-128294297D01*
X181391643Y-128268115D01*
X181444208Y-128237767D01*
X181639256Y-128088101D01*
X181813101Y-127914256D01*
X181962767Y-127719208D01*
X182085694Y-127506292D01*
X182179778Y-127279153D01*
X182243409Y-127041677D01*
X182275500Y-126797927D01*
X182275500Y-126552073D01*
X182243409Y-126308323D01*
X182179778Y-126070847D01*
X182085694Y-125843708D01*
X181962767Y-125630792D01*
X181864895Y-125503243D01*
X181813102Y-125435745D01*
X181813096Y-125435738D01*
X181639261Y-125261903D01*
X181639254Y-125261897D01*
X181444212Y-125112236D01*
X181444211Y-125112235D01*
X181444208Y-125112233D01*
X181231292Y-124989306D01*
X181231285Y-124989303D01*
X181004162Y-124895225D01*
X181004155Y-124895223D01*
X181004153Y-124895222D01*
X180766677Y-124831591D01*
X180725939Y-124826227D01*
X180522934Y-124799500D01*
X180522927Y-124799500D01*
X180277073Y-124799500D01*
X180277065Y-124799500D01*
X180045059Y-124830045D01*
X180033323Y-124831591D01*
X179795847Y-124895222D01*
X179795837Y-124895225D01*
X179568714Y-124989303D01*
X179568705Y-124989307D01*
X179355787Y-125112236D01*
X179160745Y-125261897D01*
X179160738Y-125261903D01*
X178986903Y-125435738D01*
X178986897Y-125435745D01*
X178837236Y-125630787D01*
X178714307Y-125843705D01*
X178714303Y-125843714D01*
X178620225Y-126070837D01*
X178620222Y-126070847D01*
X178556592Y-126308320D01*
X178556590Y-126308331D01*
X178524500Y-126552065D01*
X178524500Y-126797934D01*
X178550309Y-126993963D01*
X178556591Y-127041677D01*
X178617263Y-127268109D01*
X178620222Y-127279152D01*
X178620225Y-127279162D01*
X178690467Y-127448740D01*
X178714306Y-127506292D01*
X178837233Y-127719208D01*
X178837235Y-127719211D01*
X178837236Y-127719212D01*
X178986897Y-127914254D01*
X178986903Y-127914261D01*
X179160738Y-128088096D01*
X179160744Y-128088101D01*
X179355792Y-128237767D01*
X179408355Y-128268114D01*
X179456570Y-128318680D01*
X179469793Y-128387287D01*
X179443825Y-128452152D01*
X179386911Y-128492680D01*
X179346354Y-128499500D01*
X138503246Y-128499500D01*
X138496756Y-128499330D01*
X138192953Y-128483407D01*
X138180046Y-128482050D01*
X137882794Y-128434971D01*
X137870097Y-128432273D01*
X137579376Y-128354374D01*
X137567033Y-128350363D01*
X137286064Y-128242510D01*
X137274206Y-128237231D01*
X137006036Y-128100591D01*
X136994796Y-128094101D01*
X136742391Y-127930187D01*
X136731890Y-127922558D01*
X136497989Y-127733149D01*
X136488344Y-127724464D01*
X136275535Y-127511655D01*
X136266850Y-127502010D01*
X136077441Y-127268109D01*
X136069812Y-127257608D01*
X135905896Y-127005199D01*
X135899408Y-126993963D01*
X135762768Y-126725793D01*
X135757489Y-126713935D01*
X135695353Y-126552065D01*
X135649635Y-126432965D01*
X135645625Y-126420623D01*
X135615534Y-126308323D01*
X135567724Y-126129896D01*
X135565028Y-126117205D01*
X135517949Y-125819953D01*
X135516592Y-125807046D01*
X135500670Y-125503243D01*
X135500500Y-125496753D01*
X135500500Y-121852065D01*
X178524500Y-121852065D01*
X178524500Y-122097934D01*
X178551227Y-122300939D01*
X178556591Y-122341677D01*
X178556592Y-122341679D01*
X178620222Y-122579152D01*
X178620225Y-122579162D01*
X178714303Y-122806285D01*
X178714306Y-122806292D01*
X178837233Y-123019208D01*
X178837235Y-123019211D01*
X178837236Y-123019212D01*
X178986897Y-123214254D01*
X178986903Y-123214261D01*
X179160738Y-123388096D01*
X179160744Y-123388101D01*
X179355792Y-123537767D01*
X179568708Y-123660694D01*
X179795847Y-123754778D01*
X180033323Y-123818409D01*
X180277073Y-123850500D01*
X180277080Y-123850500D01*
X180522920Y-123850500D01*
X180522927Y-123850500D01*
X180766677Y-123818409D01*
X181004153Y-123754778D01*
X181231292Y-123660694D01*
X181444208Y-123537767D01*
X181639256Y-123388101D01*
X181813101Y-123214256D01*
X181962767Y-123019208D01*
X182085694Y-122806292D01*
X182179778Y-122579153D01*
X182243409Y-122341677D01*
X182275500Y-122097927D01*
X182275500Y-121852073D01*
X182243409Y-121608323D01*
X182179778Y-121370847D01*
X182085694Y-121143708D01*
X181962767Y-120930792D01*
X181813101Y-120735744D01*
X181813096Y-120735738D01*
X181639261Y-120561903D01*
X181639254Y-120561897D01*
X181444212Y-120412236D01*
X181444211Y-120412235D01*
X181444208Y-120412233D01*
X181270260Y-120311804D01*
X181231294Y-120289307D01*
X181231285Y-120289303D01*
X181004162Y-120195225D01*
X181004155Y-120195223D01*
X181004153Y-120195222D01*
X180766677Y-120131591D01*
X180725939Y-120126227D01*
X180522934Y-120099500D01*
X180522927Y-120099500D01*
X180277073Y-120099500D01*
X180277065Y-120099500D01*
X180045059Y-120130045D01*
X180033323Y-120131591D01*
X179795847Y-120195222D01*
X179795837Y-120195225D01*
X179568714Y-120289303D01*
X179568705Y-120289307D01*
X179355787Y-120412236D01*
X179160745Y-120561897D01*
X179160738Y-120561903D01*
X178986903Y-120735738D01*
X178986897Y-120735745D01*
X178837236Y-120930787D01*
X178714307Y-121143705D01*
X178714303Y-121143714D01*
X178620225Y-121370837D01*
X178620222Y-121370847D01*
X178556592Y-121608320D01*
X178556590Y-121608331D01*
X178524500Y-121852065D01*
X135500500Y-121852065D01*
X135500500Y-108594071D01*
X138529499Y-108594071D01*
X138554497Y-108719738D01*
X138554499Y-108719744D01*
X138603533Y-108838124D01*
X138603538Y-108838133D01*
X138674723Y-108944668D01*
X138674726Y-108944672D01*
X138765327Y-109035273D01*
X138765331Y-109035276D01*
X138871866Y-109106461D01*
X138871875Y-109106466D01*
X138898692Y-109117574D01*
X138990256Y-109155501D01*
X138990260Y-109155501D01*
X138990261Y-109155502D01*
X139115928Y-109180500D01*
X139115931Y-109180500D01*
X139244071Y-109180500D01*
X139349263Y-109159575D01*
X139369744Y-109155501D01*
X139488127Y-109106465D01*
X139594669Y-109035276D01*
X139685276Y-108944669D01*
X139756465Y-108838127D01*
X139805501Y-108719744D01*
X139830500Y-108594069D01*
X139830500Y-108465931D01*
X139830500Y-108465928D01*
X139805502Y-108340261D01*
X139805501Y-108340260D01*
X139805501Y-108340256D01*
X139756465Y-108221873D01*
X139756464Y-108221872D01*
X139756461Y-108221866D01*
X139685276Y-108115331D01*
X139685273Y-108115327D01*
X139594672Y-108024726D01*
X139594668Y-108024723D01*
X139488133Y-107953538D01*
X139488124Y-107953533D01*
X139369744Y-107904499D01*
X139369738Y-107904497D01*
X139244071Y-107879500D01*
X139244069Y-107879500D01*
X139115931Y-107879500D01*
X139115929Y-107879500D01*
X138990261Y-107904497D01*
X138990255Y-107904499D01*
X138871875Y-107953533D01*
X138871866Y-107953538D01*
X138765331Y-108024723D01*
X138765327Y-108024726D01*
X138674726Y-108115327D01*
X138674723Y-108115331D01*
X138603538Y-108221866D01*
X138603533Y-108221875D01*
X138554499Y-108340255D01*
X138554497Y-108340261D01*
X138529500Y-108465928D01*
X138529500Y-108465931D01*
X138529500Y-108594069D01*
X138529500Y-108594071D01*
X138529499Y-108594071D01*
X135500500Y-108594071D01*
X135500500Y-78503246D01*
X135500670Y-78496756D01*
X135516592Y-78192953D01*
X135517949Y-78180046D01*
X135565028Y-77882794D01*
X135567723Y-77870107D01*
X135645627Y-77579368D01*
X135649636Y-77567033D01*
X135757493Y-77286054D01*
X135762763Y-77274215D01*
X135899415Y-77006023D01*
X135905891Y-76994808D01*
X136069819Y-76742380D01*
X136077434Y-76731899D01*
X136266858Y-76497979D01*
X136275525Y-76488354D01*
X136488354Y-76275525D01*
X136497979Y-76266858D01*
X136731899Y-76077434D01*
X136742380Y-76069819D01*
X136994808Y-75905891D01*
X137006023Y-75899415D01*
X137274215Y-75762763D01*
X137286054Y-75757493D01*
X137567040Y-75649633D01*
X137579368Y-75645627D01*
X137870107Y-75567723D01*
X137882786Y-75565029D01*
X138180046Y-75517949D01*
X138192951Y-75516592D01*
X138496756Y-75500669D01*
X138503246Y-75500500D01*
X138565892Y-75500500D01*
X188434108Y-75500500D01*
X188496754Y-75500500D01*
X188503244Y-75500670D01*
G37*
%TD.AperFunction*%
%TA.AperFunction,Conductor*%
G36*
X152913834Y-108237914D02*
G01*
X152969767Y-108279786D01*
X152994184Y-108345250D01*
X152994500Y-108354096D01*
X152994500Y-112029548D01*
X152985855Y-112058988D01*
X152979332Y-112088975D01*
X152975577Y-112093990D01*
X152974815Y-112096587D01*
X152958181Y-112117229D01*
X152897229Y-112178181D01*
X152835906Y-112211666D01*
X152809548Y-112214500D01*
X151907741Y-112214500D01*
X151907721Y-112214499D01*
X151901607Y-112214499D01*
X151778394Y-112214499D01*
X151677597Y-112234548D01*
X151677592Y-112234548D01*
X151657545Y-112238536D01*
X151653078Y-112239892D01*
X151583211Y-112240516D01*
X151525927Y-112204421D01*
X151525811Y-112204538D01*
X151525295Y-112204022D01*
X151524098Y-112203268D01*
X151521566Y-112200293D01*
X151420453Y-112099180D01*
X151420449Y-112099177D01*
X151301630Y-112019784D01*
X151301621Y-112019779D01*
X151169591Y-111965091D01*
X151169585Y-111965089D01*
X151029428Y-111937210D01*
X151029426Y-111937210D01*
X150886516Y-111937210D01*
X150886514Y-111937210D01*
X150746357Y-111965089D01*
X150746346Y-111965092D01*
X150721703Y-111975299D01*
X150652234Y-111982765D01*
X150589756Y-111951487D01*
X150586575Y-111948417D01*
X148050339Y-109412181D01*
X148016854Y-109350858D01*
X148021838Y-109281166D01*
X148063710Y-109225233D01*
X148129174Y-109200816D01*
X148138020Y-109200500D01*
X151513331Y-109200500D01*
X151513347Y-109200501D01*
X151520943Y-109200501D01*
X151679054Y-109200501D01*
X151679057Y-109200501D01*
X151831785Y-109159577D01*
X151921948Y-109107521D01*
X151968716Y-109080520D01*
X152080520Y-108968716D01*
X152080520Y-108968714D01*
X152090724Y-108958511D01*
X152090728Y-108958506D01*
X152782819Y-108266415D01*
X152844142Y-108232930D01*
X152913834Y-108237914D01*
G37*
%TD.AperFunction*%
%TA.AperFunction,Conductor*%
G36*
X187655133Y-93940103D02*
G01*
X187687972Y-93949238D01*
X187688585Y-93949925D01*
X187689468Y-93950185D01*
X187711766Y-93975919D01*
X187734476Y-94001383D01*
X187734833Y-94002539D01*
X187735223Y-94002989D01*
X187744902Y-94035102D01*
X187757753Y-94116239D01*
X187757754Y-94116243D01*
X187811613Y-94282004D01*
X187823444Y-94318414D01*
X187919951Y-94507820D01*
X188044890Y-94679786D01*
X188195213Y-94830109D01*
X188367179Y-94955048D01*
X188367181Y-94955049D01*
X188367184Y-94955051D01*
X188556588Y-95051557D01*
X188758757Y-95117246D01*
X188968713Y-95150500D01*
X188968714Y-95150500D01*
X189431286Y-95150500D01*
X189431287Y-95150500D01*
X189641243Y-95117246D01*
X189843412Y-95051557D01*
X189959206Y-94992556D01*
X190027874Y-94979661D01*
X190092614Y-95005937D01*
X190132872Y-95063043D01*
X190139500Y-95103042D01*
X190139500Y-97328991D01*
X190119815Y-97396030D01*
X190067011Y-97441785D01*
X190002897Y-97452349D01*
X189975010Y-97449500D01*
X188424998Y-97449500D01*
X188424981Y-97449501D01*
X188322203Y-97460000D01*
X188322200Y-97460001D01*
X188155668Y-97515185D01*
X188155663Y-97515187D01*
X188006342Y-97607289D01*
X187882289Y-97731342D01*
X187790187Y-97880663D01*
X187790185Y-97880668D01*
X187762349Y-97964670D01*
X187735001Y-98047203D01*
X187735001Y-98047204D01*
X187735000Y-98047204D01*
X187724500Y-98149983D01*
X187724500Y-99450001D01*
X187724501Y-99450018D01*
X187735000Y-99552796D01*
X187735001Y-99552799D01*
X187790185Y-99719331D01*
X187790187Y-99719336D01*
X187808176Y-99748500D01*
X187882288Y-99868656D01*
X188006344Y-99992712D01*
X188155666Y-100084814D01*
X188322203Y-100139999D01*
X188424991Y-100150500D01*
X189975008Y-100150499D01*
X190002898Y-100147650D01*
X190071591Y-100160420D01*
X190122475Y-100208300D01*
X190139500Y-100271008D01*
X190139500Y-103468933D01*
X190119815Y-103535972D01*
X190067011Y-103581727D01*
X189997853Y-103591671D01*
X189959206Y-103579418D01*
X189898417Y-103548445D01*
X189898414Y-103548444D01*
X189898412Y-103548443D01*
X189696243Y-103482754D01*
X189696241Y-103482753D01*
X189696240Y-103482753D01*
X189534957Y-103457208D01*
X189486287Y-103449500D01*
X189023713Y-103449500D01*
X188975042Y-103457208D01*
X188813760Y-103482753D01*
X188611585Y-103548444D01*
X188422179Y-103644951D01*
X188250213Y-103769890D01*
X188099890Y-103920213D01*
X187974951Y-104092179D01*
X187878444Y-104281585D01*
X187812753Y-104483760D01*
X187790112Y-104626712D01*
X187779500Y-104693713D01*
X187779500Y-104906287D01*
X187783298Y-104930264D01*
X187812412Y-105114089D01*
X187812754Y-105116243D01*
X187870746Y-105294724D01*
X187878444Y-105318414D01*
X187974951Y-105507820D01*
X188099890Y-105679786D01*
X188250209Y-105830105D01*
X188250214Y-105830109D01*
X188414793Y-105949682D01*
X188457459Y-106005011D01*
X188463438Y-106074625D01*
X188430833Y-106136420D01*
X188414793Y-106150318D01*
X188250216Y-106269889D01*
X188250209Y-106269894D01*
X188099890Y-106420213D01*
X187974951Y-106592179D01*
X187878444Y-106781585D01*
X187812753Y-106983760D01*
X187779500Y-107193713D01*
X187779500Y-107406286D01*
X187803909Y-107560402D01*
X187812754Y-107616243D01*
X187876119Y-107811261D01*
X187878444Y-107818414D01*
X187974951Y-108007820D01*
X188099890Y-108179786D01*
X188250209Y-108330105D01*
X188250214Y-108330109D01*
X188414793Y-108449682D01*
X188457459Y-108505011D01*
X188463438Y-108574625D01*
X188430833Y-108636420D01*
X188414793Y-108650318D01*
X188250214Y-108769890D01*
X188250209Y-108769894D01*
X188099890Y-108920213D01*
X187974951Y-109092179D01*
X187878444Y-109281585D01*
X187878443Y-109281587D01*
X187878443Y-109281588D01*
X187855936Y-109350858D01*
X187812753Y-109483760D01*
X187786930Y-109646804D01*
X187779500Y-109693713D01*
X187779500Y-109906287D01*
X187781905Y-109921470D01*
X187812753Y-110116240D01*
X187857146Y-110252868D01*
X187857580Y-110268080D01*
X187862899Y-110282339D01*
X187858557Y-110302295D01*
X187859141Y-110322709D01*
X187851053Y-110336793D01*
X187848048Y-110350612D01*
X187826897Y-110378866D01*
X187711585Y-110494180D01*
X187650262Y-110527666D01*
X187623903Y-110530500D01*
X180497545Y-110530500D01*
X180430506Y-110510815D01*
X180384751Y-110458011D01*
X180375928Y-110430692D01*
X180347620Y-110288385D01*
X180347619Y-110288384D01*
X180347619Y-110288380D01*
X180292929Y-110156347D01*
X180271396Y-110124121D01*
X180250520Y-110057444D01*
X180250500Y-110055232D01*
X180250500Y-105094071D01*
X181199499Y-105094071D01*
X181224497Y-105219738D01*
X181224499Y-105219744D01*
X181273533Y-105338124D01*
X181273538Y-105338133D01*
X181344723Y-105444668D01*
X181344726Y-105444672D01*
X181435327Y-105535273D01*
X181435331Y-105535276D01*
X181541866Y-105606461D01*
X181541872Y-105606464D01*
X181541873Y-105606465D01*
X181660256Y-105655501D01*
X181785931Y-105680500D01*
X181791054Y-105681519D01*
X181852965Y-105713904D01*
X181887539Y-105774620D01*
X181888480Y-105778944D01*
X181914497Y-105909738D01*
X181914499Y-105909744D01*
X181963533Y-106028124D01*
X181963538Y-106028133D01*
X182034723Y-106134668D01*
X182034726Y-106134672D01*
X182125327Y-106225273D01*
X182125331Y-106225276D01*
X182231866Y-106296461D01*
X182231875Y-106296466D01*
X182254226Y-106305724D01*
X182350256Y-106345501D01*
X182350260Y-106345501D01*
X182350261Y-106345502D01*
X182475928Y-106370500D01*
X182475931Y-106370500D01*
X182604071Y-106370500D01*
X182688615Y-106353682D01*
X182729744Y-106345501D01*
X182789167Y-106320886D01*
X182858635Y-106313418D01*
X182905510Y-106332346D01*
X183020814Y-106409390D01*
X183020823Y-106409395D01*
X183146032Y-106461258D01*
X183200435Y-106505099D01*
X183201681Y-106506928D01*
X183255710Y-106587788D01*
X183255713Y-106587792D01*
X183367207Y-106699286D01*
X183367211Y-106699289D01*
X183498314Y-106786890D01*
X183498327Y-106786897D01*
X183643747Y-106847131D01*
X183644003Y-106847237D01*
X183766554Y-106871614D01*
X183798653Y-106877999D01*
X183798656Y-106878000D01*
X183798658Y-106878000D01*
X183956344Y-106878000D01*
X183956345Y-106877999D01*
X184110997Y-106847237D01*
X184256679Y-106786894D01*
X184387789Y-106699289D01*
X184499289Y-106587789D01*
X184586894Y-106456679D01*
X184590330Y-106448385D01*
X184602001Y-106420208D01*
X184647237Y-106310997D01*
X184678000Y-106156342D01*
X184678000Y-105998658D01*
X184678000Y-105998655D01*
X184677999Y-105998653D01*
X184660314Y-105909744D01*
X184647237Y-105844003D01*
X184629543Y-105801285D01*
X184586897Y-105698327D01*
X184586890Y-105698314D01*
X184499289Y-105567211D01*
X184499286Y-105567207D01*
X184387792Y-105455713D01*
X184387788Y-105455710D01*
X184256685Y-105368109D01*
X184256675Y-105368104D01*
X184131467Y-105316241D01*
X184077064Y-105272400D01*
X184075818Y-105270571D01*
X184021789Y-105189710D01*
X183910292Y-105078213D01*
X183910288Y-105078210D01*
X183779185Y-104990609D01*
X183779172Y-104990602D01*
X183633501Y-104930264D01*
X183633489Y-104930261D01*
X183478845Y-104899500D01*
X183478842Y-104899500D01*
X183321158Y-104899500D01*
X183321155Y-104899500D01*
X183166510Y-104930261D01*
X183166498Y-104930264D01*
X183020827Y-104990602D01*
X183020814Y-104990609D01*
X182889714Y-105078208D01*
X182885007Y-105082072D01*
X182884220Y-105081114D01*
X182828589Y-105111482D01*
X182773013Y-105110818D01*
X182763670Y-105108551D01*
X182729744Y-105094499D01*
X182604069Y-105069500D01*
X182602692Y-105069500D01*
X182593903Y-105067368D01*
X182565792Y-105051138D01*
X182537033Y-105036095D01*
X182535709Y-105033770D01*
X182533394Y-105032434D01*
X182518525Y-105003592D01*
X182502459Y-104975379D01*
X182501519Y-104971054D01*
X182493405Y-104930263D01*
X182475501Y-104840256D01*
X182426465Y-104721873D01*
X182426462Y-104721868D01*
X182407434Y-104693390D01*
X182386557Y-104626712D01*
X182405042Y-104559332D01*
X182457021Y-104512643D01*
X182510537Y-104500500D01*
X182574071Y-104500500D01*
X182658615Y-104483682D01*
X182699744Y-104475501D01*
X182818127Y-104426465D01*
X182924669Y-104355276D01*
X183015276Y-104264669D01*
X183086465Y-104158127D01*
X183135501Y-104039744D01*
X183155597Y-103938717D01*
X183160500Y-103914071D01*
X183160500Y-103785928D01*
X183135502Y-103660261D01*
X183135501Y-103660260D01*
X183135501Y-103660256D01*
X183089187Y-103548444D01*
X183086466Y-103541875D01*
X183086461Y-103541866D01*
X183015276Y-103435331D01*
X183015273Y-103435327D01*
X182924672Y-103344726D01*
X182924668Y-103344723D01*
X182818133Y-103273538D01*
X182818124Y-103273533D01*
X182699744Y-103224499D01*
X182699738Y-103224497D01*
X182574071Y-103199500D01*
X182574069Y-103199500D01*
X182445931Y-103199500D01*
X182445929Y-103199500D01*
X182320261Y-103224497D01*
X182320255Y-103224499D01*
X182201875Y-103273533D01*
X182201866Y-103273538D01*
X182095331Y-103344723D01*
X182095327Y-103344726D01*
X182004726Y-103435327D01*
X182004723Y-103435331D01*
X181933538Y-103541866D01*
X181933533Y-103541875D01*
X181884499Y-103660255D01*
X181884497Y-103660261D01*
X181859500Y-103785928D01*
X181859500Y-103785931D01*
X181859500Y-103914069D01*
X181859500Y-103914071D01*
X181859499Y-103914071D01*
X181884497Y-104039738D01*
X181884499Y-104039744D01*
X181933533Y-104158124D01*
X181933537Y-104158131D01*
X181952566Y-104186610D01*
X181973443Y-104253288D01*
X181954958Y-104320668D01*
X181902979Y-104367357D01*
X181849463Y-104379500D01*
X181785929Y-104379500D01*
X181660261Y-104404497D01*
X181660255Y-104404499D01*
X181541875Y-104453533D01*
X181541866Y-104453538D01*
X181435331Y-104524723D01*
X181435327Y-104524726D01*
X181344726Y-104615327D01*
X181344723Y-104615331D01*
X181273538Y-104721866D01*
X181273533Y-104721875D01*
X181224499Y-104840255D01*
X181224497Y-104840261D01*
X181199500Y-104965928D01*
X181199500Y-104965931D01*
X181199500Y-105094069D01*
X181199500Y-105094071D01*
X181199499Y-105094071D01*
X180250500Y-105094071D01*
X180250500Y-103979059D01*
X180250501Y-103979046D01*
X180250501Y-103810945D01*
X180250501Y-103810943D01*
X180209577Y-103658215D01*
X180169846Y-103589400D01*
X180130520Y-103521284D01*
X180018716Y-103409480D01*
X180018715Y-103409479D01*
X180014385Y-103405149D01*
X180014374Y-103405139D01*
X179385719Y-102776484D01*
X179352234Y-102715161D01*
X179349400Y-102688803D01*
X179349400Y-97371153D01*
X181849500Y-97371153D01*
X181849500Y-97528846D01*
X181880261Y-97683489D01*
X181880264Y-97683501D01*
X181940602Y-97829172D01*
X181940609Y-97829185D01*
X182028210Y-97960288D01*
X182028213Y-97960292D01*
X182139707Y-98071786D01*
X182139711Y-98071789D01*
X182270814Y-98159390D01*
X182270827Y-98159397D01*
X182416498Y-98219735D01*
X182416503Y-98219737D01*
X182571153Y-98250499D01*
X182571156Y-98250500D01*
X182571158Y-98250500D01*
X182728844Y-98250500D01*
X182728845Y-98250499D01*
X182883497Y-98219737D01*
X183029179Y-98159394D01*
X183160289Y-98071789D01*
X183271789Y-97960289D01*
X183359394Y-97829179D01*
X183419737Y-97683497D01*
X183450500Y-97528842D01*
X183450500Y-97371158D01*
X183450500Y-97371155D01*
X183450499Y-97371153D01*
X183426109Y-97248538D01*
X183419737Y-97216503D01*
X183372746Y-97103057D01*
X183365278Y-97033589D01*
X183372747Y-97008153D01*
X183374391Y-97004182D01*
X183374394Y-97004179D01*
X183434737Y-96858497D01*
X183465500Y-96703842D01*
X183465500Y-96546158D01*
X183465500Y-96546155D01*
X183465499Y-96546153D01*
X183459101Y-96513989D01*
X183434737Y-96391503D01*
X183411196Y-96334669D01*
X183374397Y-96245827D01*
X183374390Y-96245814D01*
X183286789Y-96114711D01*
X183286786Y-96114707D01*
X183175292Y-96003213D01*
X183175288Y-96003210D01*
X183044185Y-95915609D01*
X183044172Y-95915602D01*
X182898501Y-95855264D01*
X182898489Y-95855261D01*
X182743845Y-95824500D01*
X182743842Y-95824500D01*
X182586158Y-95824500D01*
X182586155Y-95824500D01*
X182431510Y-95855261D01*
X182431498Y-95855264D01*
X182285827Y-95915602D01*
X182285814Y-95915609D01*
X182154711Y-96003210D01*
X182154707Y-96003213D01*
X182043213Y-96114707D01*
X182043210Y-96114711D01*
X181955609Y-96245814D01*
X181955602Y-96245827D01*
X181895264Y-96391498D01*
X181895261Y-96391510D01*
X181864500Y-96546153D01*
X181864500Y-96703846D01*
X181895261Y-96858489D01*
X181895264Y-96858501D01*
X181942252Y-96971941D01*
X181949721Y-97041410D01*
X181942252Y-97066845D01*
X181880264Y-97216498D01*
X181880261Y-97216510D01*
X181849500Y-97371153D01*
X179349400Y-97371153D01*
X179349400Y-96327960D01*
X179349401Y-96327947D01*
X179349401Y-96159844D01*
X179349401Y-96159843D01*
X179308477Y-96007116D01*
X179306224Y-96003213D01*
X179229424Y-95870190D01*
X179229418Y-95870182D01*
X179176577Y-95817341D01*
X179143092Y-95756018D01*
X179148076Y-95686326D01*
X179161155Y-95660771D01*
X179181725Y-95629987D01*
X179236415Y-95497954D01*
X179254096Y-95409068D01*
X179264296Y-95357791D01*
X179264296Y-95214876D01*
X179236416Y-95074719D01*
X179236413Y-95074708D01*
X179226562Y-95050927D01*
X179219092Y-94981458D01*
X179250366Y-94918978D01*
X179253382Y-94915851D01*
X179507417Y-94661816D01*
X179568739Y-94628334D01*
X179595097Y-94625500D01*
X179621457Y-94625500D01*
X179715751Y-94606742D01*
X179761620Y-94597619D01*
X179893653Y-94542929D01*
X180012479Y-94463532D01*
X180113532Y-94362479D01*
X180192929Y-94243653D01*
X180247619Y-94111620D01*
X180262840Y-94035102D01*
X180263794Y-94030308D01*
X180296179Y-93968397D01*
X180356895Y-93933823D01*
X180385411Y-93930500D01*
X187622429Y-93930500D01*
X187655133Y-93940103D01*
G37*
%TD.AperFunction*%
%TA.AperFunction,Conductor*%
G36*
X178091439Y-96461185D02*
G01*
X178137194Y-96513989D01*
X178148400Y-96565500D01*
X178148400Y-102902230D01*
X178148399Y-102902248D01*
X178148399Y-103067954D01*
X178148398Y-103067954D01*
X178189323Y-103220685D01*
X178218258Y-103270800D01*
X178218259Y-103270804D01*
X178218260Y-103270804D01*
X178268379Y-103357614D01*
X178268381Y-103357617D01*
X178387249Y-103476485D01*
X178387255Y-103476490D01*
X179013181Y-104102416D01*
X179046666Y-104163739D01*
X179049500Y-104190097D01*
X179049500Y-109646804D01*
X179029815Y-109713843D01*
X178977011Y-109759598D01*
X178907853Y-109769542D01*
X178901310Y-109768422D01*
X178856455Y-109759500D01*
X178713545Y-109759500D01*
X178713543Y-109759500D01*
X178573385Y-109787379D01*
X178573379Y-109787381D01*
X178441349Y-109842069D01*
X178441340Y-109842074D01*
X178322521Y-109921467D01*
X178322517Y-109921470D01*
X178221470Y-110022517D01*
X178221467Y-110022521D01*
X178186809Y-110074391D01*
X178133197Y-110119196D01*
X178083707Y-110129500D01*
X163777197Y-110129500D01*
X163710158Y-110109815D01*
X163689516Y-110093181D01*
X159460406Y-105864071D01*
X163849499Y-105864071D01*
X163874497Y-105989738D01*
X163874499Y-105989744D01*
X163923533Y-106108124D01*
X163923538Y-106108133D01*
X163994723Y-106214668D01*
X163994726Y-106214672D01*
X164085327Y-106305273D01*
X164085331Y-106305276D01*
X164191866Y-106376461D01*
X164191872Y-106376464D01*
X164191873Y-106376465D01*
X164310256Y-106425501D01*
X164310260Y-106425501D01*
X164310261Y-106425502D01*
X164435928Y-106450500D01*
X164435931Y-106450500D01*
X164564071Y-106450500D01*
X164648615Y-106433682D01*
X164689744Y-106425501D01*
X164808127Y-106376465D01*
X164914669Y-106305276D01*
X165005276Y-106214669D01*
X165076465Y-106108127D01*
X165125501Y-105989744D01*
X165141326Y-105910187D01*
X165150500Y-105864071D01*
X165150500Y-105735928D01*
X165125502Y-105610261D01*
X165125501Y-105610260D01*
X165125501Y-105610256D01*
X165087574Y-105518692D01*
X165076466Y-105491875D01*
X165076461Y-105491866D01*
X165005276Y-105385331D01*
X165005273Y-105385327D01*
X164914672Y-105294726D01*
X164914668Y-105294723D01*
X164808133Y-105223538D01*
X164808124Y-105223533D01*
X164689744Y-105174499D01*
X164689738Y-105174497D01*
X164564071Y-105149500D01*
X164564069Y-105149500D01*
X164435931Y-105149500D01*
X164435929Y-105149500D01*
X164310261Y-105174497D01*
X164310255Y-105174499D01*
X164191875Y-105223533D01*
X164191866Y-105223538D01*
X164085331Y-105294723D01*
X164085327Y-105294726D01*
X163994726Y-105385327D01*
X163994723Y-105385331D01*
X163923538Y-105491866D01*
X163923533Y-105491875D01*
X163874499Y-105610255D01*
X163874497Y-105610261D01*
X163849500Y-105735928D01*
X163849500Y-105735931D01*
X163849500Y-105864069D01*
X163849500Y-105864071D01*
X163849499Y-105864071D01*
X159460406Y-105864071D01*
X158460406Y-104864071D01*
X165149499Y-104864071D01*
X165174497Y-104989738D01*
X165174499Y-104989744D01*
X165223533Y-105108124D01*
X165223538Y-105108133D01*
X165294723Y-105214668D01*
X165294726Y-105214672D01*
X165385327Y-105305273D01*
X165385331Y-105305276D01*
X165491866Y-105376461D01*
X165491875Y-105376466D01*
X165506266Y-105382427D01*
X165610256Y-105425501D01*
X165610260Y-105425501D01*
X165610261Y-105425502D01*
X165735928Y-105450500D01*
X165735931Y-105450500D01*
X165864071Y-105450500D01*
X165948615Y-105433682D01*
X165989744Y-105425501D01*
X166108127Y-105376465D01*
X166214669Y-105305276D01*
X166305276Y-105214669D01*
X166376465Y-105108127D01*
X166425501Y-104989744D01*
X166443452Y-104899500D01*
X166450500Y-104864071D01*
X166450500Y-104735928D01*
X166425502Y-104610261D01*
X166425501Y-104610260D01*
X166425501Y-104610256D01*
X166381695Y-104504500D01*
X166376466Y-104491875D01*
X166376461Y-104491866D01*
X166305276Y-104385331D01*
X166305273Y-104385327D01*
X166214672Y-104294726D01*
X166214668Y-104294723D01*
X166108133Y-104223538D01*
X166108124Y-104223533D01*
X165989744Y-104174499D01*
X165989738Y-104174497D01*
X165864071Y-104149500D01*
X165864069Y-104149500D01*
X165735931Y-104149500D01*
X165735929Y-104149500D01*
X165610261Y-104174497D01*
X165610255Y-104174499D01*
X165491875Y-104223533D01*
X165491866Y-104223538D01*
X165385331Y-104294723D01*
X165385327Y-104294726D01*
X165294726Y-104385327D01*
X165294723Y-104385331D01*
X165223538Y-104491866D01*
X165223533Y-104491875D01*
X165174499Y-104610255D01*
X165174497Y-104610261D01*
X165149500Y-104735928D01*
X165149500Y-104735931D01*
X165149500Y-104864069D01*
X165149500Y-104864071D01*
X165149499Y-104864071D01*
X158460406Y-104864071D01*
X156787819Y-103191484D01*
X156754334Y-103130161D01*
X156751500Y-103103803D01*
X156751500Y-102380808D01*
X156771185Y-102313769D01*
X156823989Y-102268014D01*
X156893147Y-102258070D01*
X156956703Y-102287095D01*
X156963181Y-102293127D01*
X157055327Y-102385273D01*
X157055331Y-102385276D01*
X157161866Y-102456461D01*
X157161872Y-102456464D01*
X157161873Y-102456465D01*
X157280256Y-102505501D01*
X157280260Y-102505501D01*
X157280261Y-102505502D01*
X157405928Y-102530500D01*
X157405931Y-102530500D01*
X157534071Y-102530500D01*
X157624669Y-102512478D01*
X157659744Y-102505501D01*
X157778127Y-102456465D01*
X157884669Y-102385276D01*
X157975276Y-102294669D01*
X158046465Y-102188127D01*
X158095501Y-102069744D01*
X158104116Y-102026436D01*
X158120500Y-101944071D01*
X158120500Y-101815928D01*
X158095502Y-101690261D01*
X158095501Y-101690260D01*
X158095501Y-101690256D01*
X158046465Y-101571873D01*
X158046464Y-101571872D01*
X158046461Y-101571866D01*
X157975276Y-101465331D01*
X157975273Y-101465327D01*
X157884672Y-101374726D01*
X157884668Y-101374723D01*
X157778133Y-101303538D01*
X157778124Y-101303533D01*
X157659744Y-101254499D01*
X157659738Y-101254497D01*
X157534071Y-101229500D01*
X157534069Y-101229500D01*
X157405931Y-101229500D01*
X157405929Y-101229500D01*
X157280261Y-101254497D01*
X157280255Y-101254499D01*
X157161875Y-101303533D01*
X157161866Y-101303538D01*
X157055331Y-101374723D01*
X157055327Y-101374726D01*
X156963181Y-101466873D01*
X156901858Y-101500358D01*
X156832166Y-101495374D01*
X156776233Y-101453502D01*
X156751816Y-101388038D01*
X156751500Y-101379192D01*
X156751500Y-100891571D01*
X170909499Y-100891571D01*
X170934497Y-101017238D01*
X170934499Y-101017244D01*
X170983533Y-101135624D01*
X170983538Y-101135633D01*
X171054723Y-101242168D01*
X171054726Y-101242172D01*
X171145327Y-101332773D01*
X171145331Y-101332776D01*
X171251866Y-101403961D01*
X171251875Y-101403966D01*
X171274067Y-101413158D01*
X171370256Y-101453001D01*
X171370260Y-101453001D01*
X171370261Y-101453002D01*
X171495928Y-101478000D01*
X171495931Y-101478000D01*
X171624071Y-101478000D01*
X171708615Y-101461182D01*
X171749744Y-101453001D01*
X171868127Y-101403965D01*
X171974669Y-101332776D01*
X172065276Y-101242169D01*
X172136465Y-101135627D01*
X172185501Y-101017244D01*
X172193682Y-100976115D01*
X172210500Y-100891571D01*
X172210500Y-100763428D01*
X172185502Y-100637761D01*
X172185501Y-100637760D01*
X172185501Y-100637756D01*
X172136465Y-100519373D01*
X172136464Y-100519372D01*
X172136461Y-100519366D01*
X172065276Y-100412831D01*
X172065273Y-100412827D01*
X171974672Y-100322226D01*
X171974668Y-100322223D01*
X171868133Y-100251038D01*
X171868124Y-100251033D01*
X171749744Y-100201999D01*
X171749738Y-100201997D01*
X171624071Y-100177000D01*
X171624069Y-100177000D01*
X171495931Y-100177000D01*
X171495929Y-100177000D01*
X171370261Y-100201997D01*
X171370255Y-100201999D01*
X171251875Y-100251033D01*
X171251866Y-100251038D01*
X171145331Y-100322223D01*
X171145327Y-100322226D01*
X171054726Y-100412827D01*
X171054723Y-100412831D01*
X170983538Y-100519366D01*
X170983533Y-100519375D01*
X170934499Y-100637755D01*
X170934497Y-100637761D01*
X170909500Y-100763428D01*
X170909500Y-100763431D01*
X170909500Y-100891569D01*
X170909500Y-100891571D01*
X170909499Y-100891571D01*
X156751500Y-100891571D01*
X156751500Y-100632960D01*
X156751501Y-100632947D01*
X156751501Y-100464844D01*
X156751501Y-100464843D01*
X156710577Y-100312116D01*
X156651470Y-100209738D01*
X156631524Y-100175190D01*
X156631518Y-100175182D01*
X156520407Y-100064071D01*
X157119499Y-100064071D01*
X157144497Y-100189738D01*
X157144499Y-100189744D01*
X157193533Y-100308124D01*
X157193538Y-100308133D01*
X157264723Y-100414668D01*
X157264726Y-100414672D01*
X157355327Y-100505273D01*
X157355331Y-100505276D01*
X157461866Y-100576461D01*
X157461872Y-100576464D01*
X157461873Y-100576465D01*
X157580256Y-100625501D01*
X157580260Y-100625501D01*
X157580261Y-100625502D01*
X157705928Y-100650500D01*
X157705931Y-100650500D01*
X157834071Y-100650500D01*
X157922311Y-100632947D01*
X157959744Y-100625501D01*
X158078127Y-100576465D01*
X158184669Y-100505276D01*
X158275276Y-100414669D01*
X158346465Y-100308127D01*
X158395501Y-100189744D01*
X158406124Y-100136340D01*
X158416522Y-100084071D01*
X166019499Y-100084071D01*
X166044497Y-100209738D01*
X166044499Y-100209744D01*
X166093533Y-100328124D01*
X166093538Y-100328133D01*
X166164723Y-100434668D01*
X166164726Y-100434672D01*
X166255327Y-100525273D01*
X166255331Y-100525276D01*
X166361866Y-100596461D01*
X166361872Y-100596464D01*
X166361873Y-100596465D01*
X166480256Y-100645501D01*
X166480260Y-100645501D01*
X166480261Y-100645502D01*
X166605928Y-100670500D01*
X166605931Y-100670500D01*
X166734071Y-100670500D01*
X166834613Y-100650500D01*
X166859744Y-100645501D01*
X166859749Y-100645499D01*
X166866316Y-100642779D01*
X166866316Y-100642778D01*
X166878442Y-100637756D01*
X166978120Y-100596468D01*
X166978120Y-100596467D01*
X166978127Y-100596465D01*
X167084669Y-100525276D01*
X167175276Y-100434669D01*
X167246465Y-100328127D01*
X167295501Y-100209744D01*
X167310101Y-100136347D01*
X167320500Y-100084071D01*
X167320500Y-99955928D01*
X167295502Y-99830261D01*
X167295501Y-99830260D01*
X167295501Y-99830256D01*
X167249556Y-99719336D01*
X167246466Y-99711875D01*
X167246461Y-99711866D01*
X167175276Y-99605331D01*
X167175273Y-99605327D01*
X167084672Y-99514726D01*
X167084668Y-99514723D01*
X166978133Y-99443538D01*
X166978124Y-99443533D01*
X166859744Y-99394499D01*
X166859738Y-99394497D01*
X166734071Y-99369500D01*
X166734069Y-99369500D01*
X166605931Y-99369500D01*
X166605929Y-99369500D01*
X166480261Y-99394497D01*
X166480255Y-99394499D01*
X166361875Y-99443533D01*
X166361866Y-99443538D01*
X166255331Y-99514723D01*
X166255327Y-99514726D01*
X166164726Y-99605327D01*
X166164723Y-99605331D01*
X166093538Y-99711866D01*
X166093533Y-99711875D01*
X166044499Y-99830255D01*
X166044497Y-99830261D01*
X166019500Y-99955928D01*
X166019500Y-99955931D01*
X166019500Y-100084069D01*
X166019500Y-100084071D01*
X166019499Y-100084071D01*
X158416522Y-100084071D01*
X158420500Y-100064071D01*
X158420500Y-99935928D01*
X158395501Y-99810256D01*
X158395499Y-99810251D01*
X158346466Y-99691875D01*
X158346461Y-99691866D01*
X158275276Y-99585331D01*
X158275273Y-99585327D01*
X158184672Y-99494726D01*
X158184668Y-99494723D01*
X158078133Y-99423538D01*
X158078124Y-99423533D01*
X157959744Y-99374499D01*
X157959738Y-99374497D01*
X157834071Y-99349500D01*
X157834069Y-99349500D01*
X157705931Y-99349500D01*
X157705929Y-99349500D01*
X157580261Y-99374497D01*
X157580255Y-99374499D01*
X157461875Y-99423533D01*
X157461866Y-99423538D01*
X157355331Y-99494723D01*
X157355327Y-99494726D01*
X157264726Y-99585327D01*
X157264723Y-99585331D01*
X157193538Y-99691866D01*
X157193533Y-99691875D01*
X157144501Y-99810251D01*
X157144499Y-99810256D01*
X157119500Y-99935928D01*
X157119500Y-99935931D01*
X157119500Y-100064069D01*
X157119500Y-100064071D01*
X157119499Y-100064071D01*
X156520407Y-100064071D01*
X156473856Y-100017520D01*
X156061663Y-99605327D01*
X155680406Y-99224071D01*
X162924499Y-99224071D01*
X162949497Y-99349738D01*
X162949499Y-99349744D01*
X162998533Y-99468124D01*
X162998538Y-99468133D01*
X163069723Y-99574668D01*
X163069726Y-99574672D01*
X163160327Y-99665273D01*
X163160331Y-99665276D01*
X163266866Y-99736461D01*
X163266872Y-99736464D01*
X163266873Y-99736465D01*
X163385256Y-99785501D01*
X163385260Y-99785501D01*
X163385261Y-99785502D01*
X163510928Y-99810500D01*
X163510931Y-99810500D01*
X163639071Y-99810500D01*
X163737597Y-99790901D01*
X163764744Y-99785501D01*
X163883127Y-99736465D01*
X163989669Y-99665276D01*
X164080276Y-99574669D01*
X164151465Y-99468127D01*
X164200501Y-99349744D01*
X164225500Y-99224069D01*
X164225500Y-99095931D01*
X164225500Y-99095928D01*
X164200502Y-98970261D01*
X164200501Y-98970260D01*
X164200501Y-98970256D01*
X164151465Y-98851873D01*
X164151464Y-98851872D01*
X164151461Y-98851866D01*
X164080276Y-98745331D01*
X164080273Y-98745327D01*
X163989672Y-98654726D01*
X163989668Y-98654723D01*
X163883133Y-98583538D01*
X163883124Y-98583533D01*
X163764744Y-98534499D01*
X163764738Y-98534497D01*
X163639071Y-98509500D01*
X163639069Y-98509500D01*
X163510931Y-98509500D01*
X163510929Y-98509500D01*
X163385261Y-98534497D01*
X163385255Y-98534499D01*
X163266875Y-98583533D01*
X163266866Y-98583538D01*
X163160331Y-98654723D01*
X163160327Y-98654726D01*
X163069726Y-98745327D01*
X163069723Y-98745331D01*
X162998538Y-98851866D01*
X162998533Y-98851875D01*
X162949499Y-98970255D01*
X162949497Y-98970261D01*
X162924500Y-99095928D01*
X162924500Y-99095931D01*
X162924500Y-99224069D01*
X162924500Y-99224071D01*
X162924499Y-99224071D01*
X155680406Y-99224071D01*
X155320210Y-98863875D01*
X155286726Y-98802553D01*
X155291710Y-98732861D01*
X155333582Y-98676928D01*
X155366188Y-98660425D01*
X155365992Y-98659950D01*
X155378609Y-98654724D01*
X155503653Y-98602929D01*
X155622479Y-98523532D01*
X155723532Y-98422479D01*
X155802929Y-98303653D01*
X155857619Y-98171620D01*
X155864829Y-98135370D01*
X155897213Y-98073462D01*
X155898699Y-98071947D01*
X156105288Y-97865361D01*
X156105289Y-97865358D01*
X156105621Y-97865027D01*
X156115696Y-97853537D01*
X157491416Y-96477819D01*
X157552739Y-96444334D01*
X157579097Y-96441500D01*
X178024400Y-96441500D01*
X178091439Y-96461185D01*
G37*
%TD.AperFunction*%
%TA.AperFunction,Conductor*%
G36*
X187803883Y-91904787D02*
G01*
X187819088Y-91904136D01*
X187836726Y-91914431D01*
X187856320Y-91920185D01*
X187867216Y-91932228D01*
X187879430Y-91939358D01*
X187899765Y-91968205D01*
X187919947Y-92007814D01*
X187919948Y-92007815D01*
X188044890Y-92179786D01*
X188195209Y-92330105D01*
X188195214Y-92330109D01*
X188359793Y-92449682D01*
X188376969Y-92471956D01*
X188396578Y-92492133D01*
X188398021Y-92499256D01*
X188402459Y-92505011D01*
X188404866Y-92533038D01*
X188410453Y-92560611D01*
X188407816Y-92567383D01*
X188408438Y-92574625D01*
X188395309Y-92599506D01*
X188385104Y-92625720D01*
X188377663Y-92632951D01*
X188375833Y-92636420D01*
X188359793Y-92650318D01*
X188283404Y-92705818D01*
X188217598Y-92729298D01*
X188210519Y-92729500D01*
X180549097Y-92729500D01*
X180482058Y-92709815D01*
X180436303Y-92657011D01*
X180426359Y-92587853D01*
X180455384Y-92524297D01*
X180461416Y-92517819D01*
X181042416Y-91936819D01*
X181103739Y-91903334D01*
X181130097Y-91900500D01*
X187789281Y-91900500D01*
X187803883Y-91904787D01*
G37*
%TD.AperFunction*%
%TD*%
M02*
