%TF.GenerationSoftware,KiCad,Pcbnew,9.0.4*%
%TF.CreationDate,2025-10-13T17:03:11+02:00*%
%TF.ProjectId,ProjetX,50726f6a-6574-4582-9e6b-696361645f70,rev?*%
%TF.SameCoordinates,Original*%
%TF.FileFunction,Copper,L2,Inr*%
%TF.FilePolarity,Positive*%
%FSLAX46Y46*%
G04 Gerber Fmt 4.6, Leading zero omitted, Abs format (unit mm)*
G04 Created by KiCad (PCBNEW 9.0.4) date 2025-10-13 17:03:11*
%MOMM*%
%LPD*%
G01*
G04 APERTURE LIST*
G04 Aperture macros list*
%AMRoundRect*
0 Rectangle with rounded corners*
0 $1 Rounding radius*
0 $2 $3 $4 $5 $6 $7 $8 $9 X,Y pos of 4 corners*
0 Add a 4 corners polygon primitive as box body*
4,1,4,$2,$3,$4,$5,$6,$7,$8,$9,$2,$3,0*
0 Add four circle primitives for the rounded corners*
1,1,$1+$1,$2,$3*
1,1,$1+$1,$4,$5*
1,1,$1+$1,$6,$7*
1,1,$1+$1,$8,$9*
0 Add four rect primitives between the rounded corners*
20,1,$1+$1,$2,$3,$4,$5,0*
20,1,$1+$1,$4,$5,$6,$7,0*
20,1,$1+$1,$6,$7,$8,$9,0*
20,1,$1+$1,$8,$9,$2,$3,0*%
G04 Aperture macros list end*
%TA.AperFunction,ComponentPad*%
%ADD10RoundRect,0.250000X-0.600000X-0.750000X0.600000X-0.750000X0.600000X0.750000X-0.600000X0.750000X0*%
%TD*%
%TA.AperFunction,ComponentPad*%
%ADD11O,1.700000X2.000000*%
%TD*%
%TA.AperFunction,ComponentPad*%
%ADD12R,2.750000X2.750000*%
%TD*%
%TA.AperFunction,ComponentPad*%
%ADD13C,2.750000*%
%TD*%
%TA.AperFunction,ComponentPad*%
%ADD14C,0.800000*%
%TD*%
%TA.AperFunction,ComponentPad*%
%ADD15C,6.400000*%
%TD*%
%TA.AperFunction,ComponentPad*%
%ADD16RoundRect,0.250000X0.725000X-0.600000X0.725000X0.600000X-0.725000X0.600000X-0.725000X-0.600000X0*%
%TD*%
%TA.AperFunction,ComponentPad*%
%ADD17O,1.950000X1.700000*%
%TD*%
%TA.AperFunction,ComponentPad*%
%ADD18RoundRect,0.250000X0.600000X0.725000X-0.600000X0.725000X-0.600000X-0.725000X0.600000X-0.725000X0*%
%TD*%
%TA.AperFunction,ComponentPad*%
%ADD19O,1.700000X1.950000*%
%TD*%
%TA.AperFunction,ComponentPad*%
%ADD20RoundRect,0.250000X-0.750000X0.600000X-0.750000X-0.600000X0.750000X-0.600000X0.750000X0.600000X0*%
%TD*%
%TA.AperFunction,ComponentPad*%
%ADD21O,2.000000X1.700000*%
%TD*%
%TA.AperFunction,ViaPad*%
%ADD22C,0.450000*%
%TD*%
%TA.AperFunction,ViaPad*%
%ADD23C,0.600000*%
%TD*%
G04 APERTURE END LIST*
D10*
%TO.N,Net-(J7-Pin_1)*%
%TO.C,J7*%
X154130000Y-119050000D03*
D11*
%TO.N,GND*%
X156630000Y-119050000D03*
%TD*%
D12*
%TO.N,unconnected-(S1-Pad1)*%
%TO.C,S1*%
X180400000Y-117275000D03*
D13*
%TO.N,+BATT*%
X180400000Y-121975000D03*
%TO.N,Net-(J2-Pin_2)*%
X180400000Y-126675000D03*
%TD*%
D14*
%TO.N,GND*%
%TO.C,H1*%
X136600000Y-79000000D03*
X137302944Y-77302944D03*
X137302944Y-80697056D03*
X139000000Y-76600000D03*
D15*
X139000000Y-79000000D03*
D14*
X139000000Y-81400000D03*
X140697056Y-77302944D03*
X140697056Y-80697056D03*
X141400000Y-79000000D03*
%TD*%
%TO.N,GND*%
%TO.C,H2*%
X185600000Y-79000000D03*
X186302944Y-77302944D03*
X186302944Y-80697056D03*
X188000000Y-76600000D03*
D15*
X188000000Y-79000000D03*
D14*
X188000000Y-81400000D03*
X189697056Y-77302944D03*
X189697056Y-80697056D03*
X190400000Y-79000000D03*
%TD*%
%TO.N,GND*%
%TO.C,H3*%
X136600000Y-125000000D03*
X137302944Y-123302944D03*
X137302944Y-126697056D03*
X139000000Y-122600000D03*
D15*
X139000000Y-125000000D03*
D14*
X139000000Y-127400000D03*
X140697056Y-123302944D03*
X140697056Y-126697056D03*
X141400000Y-125000000D03*
%TD*%
D10*
%TO.N,Net-(J8-Pin_1)*%
%TO.C,J8*%
X145610000Y-119080000D03*
D11*
%TO.N,GND*%
X148110000Y-119080000D03*
%TD*%
D16*
%TO.N,/Actionneurs/MOTEUR2-*%
%TO.C,J5*%
X189255000Y-117300000D03*
D17*
%TO.N,GND*%
X189255000Y-114800000D03*
%TO.N,/Actionneurs/ENCOD_A2*%
X189255000Y-112300000D03*
%TO.N,/Actionneurs/ENCOD_B2*%
X189255000Y-109800000D03*
%TO.N,+3.3V*%
X189255000Y-107300000D03*
%TO.N,/Actionneurs/MOTEUR2+*%
X189255000Y-104800000D03*
%TD*%
D18*
%TO.N,/STM32/LIDAR_M_CTR*%
%TO.C,J6*%
X161010000Y-84880000D03*
D19*
%TO.N,GND*%
X158510000Y-84880000D03*
%TO.N,unconnected-(J6-Pin_3-Pad3)*%
X156010000Y-84880000D03*
%TO.N,Net-(J6-Pin_4)*%
X153510000Y-84880000D03*
%TO.N,+5V*%
X151010000Y-84880000D03*
%TD*%
D20*
%TO.N,Net-(J4-Pin_1)*%
%TO.C,J4*%
X144995000Y-88500000D03*
D21*
%TO.N,GND*%
X144995000Y-91000000D03*
%TD*%
D16*
%TO.N,/Actionneurs/MOTEUR1-*%
%TO.C,J3*%
X189200000Y-98800000D03*
D17*
%TO.N,GND*%
X189200000Y-96300000D03*
%TO.N,/Actionneurs/ENCOD_A1*%
X189200000Y-93800000D03*
%TO.N,/Actionneurs/ENCOD_B1*%
X189200000Y-91300000D03*
%TO.N,+3.3V*%
X189200000Y-88800000D03*
%TO.N,/Actionneurs/MOTEUR1+*%
X189200000Y-86300000D03*
%TD*%
D10*
%TO.N,Net-(J9-Pin_1)*%
%TO.C,J9*%
X162640000Y-119080000D03*
D11*
%TO.N,GND*%
X165140000Y-119080000D03*
%TD*%
D10*
%TO.N,GND*%
%TO.C,J2*%
X171170000Y-119050000D03*
D11*
%TO.N,Net-(J2-Pin_2)*%
X173670000Y-119050000D03*
%TD*%
D14*
%TO.N,GND*%
%TO.C,H4*%
X185600000Y-125000000D03*
X186302944Y-123302944D03*
X186302944Y-126697056D03*
X188000000Y-122600000D03*
D15*
X188000000Y-125000000D03*
D14*
X188000000Y-127400000D03*
X189697056Y-123302944D03*
X189697056Y-126697056D03*
X190400000Y-125000000D03*
%TD*%
D18*
%TO.N,unconnected-(J11-Pin_1-Pad1)*%
%TO.C,J11*%
X177210000Y-84830000D03*
D19*
%TO.N,GND*%
X174710000Y-84830000D03*
%TO.N,/STM32/BLE_RX*%
X172210000Y-84830000D03*
%TO.N,/STM32/BLE_TX*%
X169710000Y-84830000D03*
%TO.N,+5V*%
X167210000Y-84830000D03*
%TD*%
D22*
%TO.N,+3.3V*%
X145200000Y-102050000D03*
%TO.N,GND*%
X169463749Y-92615000D03*
X148080000Y-108075000D03*
X157760000Y-99030000D03*
X185200000Y-112950000D03*
X177600000Y-104942500D03*
X152130000Y-111790000D03*
X177790000Y-90735000D03*
X139050000Y-113690000D03*
X140280000Y-95500000D03*
X163170000Y-113970000D03*
X152600000Y-102400000D03*
X144140000Y-97990000D03*
X183300000Y-92800000D03*
X182490000Y-86090000D03*
X154570000Y-114020000D03*
X136175000Y-117950000D03*
X157880000Y-110780000D03*
X165800000Y-102100000D03*
X171510000Y-101840000D03*
X175520000Y-90750000D03*
X182070000Y-100720000D03*
X140300000Y-104550000D03*
X158150000Y-114040000D03*
X144160000Y-110760000D03*
X170207516Y-98052484D03*
X158310000Y-92270000D03*
X158430000Y-101870000D03*
X183242500Y-109500000D03*
X139080000Y-109900000D03*
X139100000Y-111110000D03*
X175490000Y-104932500D03*
X185205000Y-94295000D03*
X147640000Y-97660000D03*
X166120000Y-98280000D03*
X151950000Y-114140000D03*
X173270000Y-104902500D03*
D23*
%TO.N,+BATT*%
X182665000Y-96625000D03*
X184000000Y-89000000D03*
X182650000Y-97450000D03*
X183877500Y-106077500D03*
X182810000Y-88400000D03*
X183400000Y-105700000D03*
D22*
%TO.N,/Actionneurs/ENCOD_A1*%
X154415218Y-94845536D03*
%TO.N,/Actionneurs/FWD1*%
X179550000Y-93900000D03*
%TD*%
%TA.AperFunction,Conductor*%
%TO.N,GND*%
G36*
X188503244Y-75500670D02*
G01*
X188807046Y-75516592D01*
X188819953Y-75517949D01*
X188951089Y-75538718D01*
X189117209Y-75565028D01*
X189129896Y-75567724D01*
X189420625Y-75645625D01*
X189432965Y-75649635D01*
X189713938Y-75757490D01*
X189725790Y-75762767D01*
X189993968Y-75899411D01*
X190005199Y-75905896D01*
X190257608Y-76069812D01*
X190268109Y-76077441D01*
X190502010Y-76266850D01*
X190511655Y-76275535D01*
X190724464Y-76488344D01*
X190733149Y-76497989D01*
X190922558Y-76731890D01*
X190930187Y-76742391D01*
X191094101Y-76994796D01*
X191100591Y-77006036D01*
X191237231Y-77274206D01*
X191242510Y-77286064D01*
X191350363Y-77567033D01*
X191354374Y-77579376D01*
X191432273Y-77870097D01*
X191434971Y-77882794D01*
X191482050Y-78180046D01*
X191483407Y-78192953D01*
X191499330Y-78496756D01*
X191499500Y-78503246D01*
X191499500Y-125496753D01*
X191499330Y-125503243D01*
X191483407Y-125807046D01*
X191482050Y-125819953D01*
X191434971Y-126117205D01*
X191432273Y-126129902D01*
X191354374Y-126420623D01*
X191350363Y-126432966D01*
X191242510Y-126713935D01*
X191237231Y-126725793D01*
X191100591Y-126993963D01*
X191094101Y-127005203D01*
X190930187Y-127257608D01*
X190922558Y-127268109D01*
X190733149Y-127502010D01*
X190724464Y-127511655D01*
X190511655Y-127724464D01*
X190502010Y-127733149D01*
X190268109Y-127922558D01*
X190257608Y-127930187D01*
X190005203Y-128094101D01*
X189993963Y-128100591D01*
X189725793Y-128237231D01*
X189713935Y-128242510D01*
X189432966Y-128350363D01*
X189420623Y-128354374D01*
X189129902Y-128432273D01*
X189117205Y-128434971D01*
X188819953Y-128482050D01*
X188807046Y-128483407D01*
X188503244Y-128499330D01*
X188496754Y-128499500D01*
X138503246Y-128499500D01*
X138496756Y-128499330D01*
X138192953Y-128483407D01*
X138180046Y-128482050D01*
X137882794Y-128434971D01*
X137870097Y-128432273D01*
X137579376Y-128354374D01*
X137567033Y-128350363D01*
X137286064Y-128242510D01*
X137274206Y-128237231D01*
X137006036Y-128100591D01*
X136994796Y-128094101D01*
X136742391Y-127930187D01*
X136731890Y-127922558D01*
X136497989Y-127733149D01*
X136488344Y-127724464D01*
X136275535Y-127511655D01*
X136266850Y-127502010D01*
X136077441Y-127268109D01*
X136069812Y-127257608D01*
X135905896Y-127005199D01*
X135899408Y-126993963D01*
X135800066Y-126798995D01*
X135762767Y-126725790D01*
X135757489Y-126713935D01*
X135710134Y-126590570D01*
X135694944Y-126550999D01*
X178824500Y-126550999D01*
X178824500Y-126799000D01*
X178856296Y-126999750D01*
X178863294Y-127043931D01*
X178939927Y-127279782D01*
X179052511Y-127500742D01*
X179198276Y-127701370D01*
X179373630Y-127876724D01*
X179574258Y-128022489D01*
X179795218Y-128135073D01*
X180031069Y-128211706D01*
X180122920Y-128226253D01*
X180276000Y-128250500D01*
X180276005Y-128250500D01*
X180524000Y-128250500D01*
X180660070Y-128228947D01*
X180768931Y-128211706D01*
X181004782Y-128135073D01*
X181225742Y-128022489D01*
X181426370Y-127876724D01*
X181601724Y-127701370D01*
X181747489Y-127500742D01*
X181860073Y-127279782D01*
X181936706Y-127043931D01*
X181953947Y-126935070D01*
X181975500Y-126799000D01*
X181975500Y-126550999D01*
X181936706Y-126306072D01*
X181936706Y-126306069D01*
X181860073Y-126070218D01*
X181747489Y-125849258D01*
X181601724Y-125648630D01*
X181426370Y-125473276D01*
X181225742Y-125327511D01*
X181004782Y-125214927D01*
X180768931Y-125138294D01*
X180768929Y-125138293D01*
X180768927Y-125138293D01*
X180524000Y-125099500D01*
X180523995Y-125099500D01*
X180276005Y-125099500D01*
X180276000Y-125099500D01*
X180031072Y-125138293D01*
X179795215Y-125214928D01*
X179574257Y-125327511D01*
X179459792Y-125410675D01*
X179373630Y-125473276D01*
X179373628Y-125473278D01*
X179373627Y-125473278D01*
X179198278Y-125648627D01*
X179198278Y-125648628D01*
X179198276Y-125648630D01*
X179171885Y-125684954D01*
X179052511Y-125849257D01*
X178939928Y-126070215D01*
X178863293Y-126306072D01*
X178824500Y-126550999D01*
X135694944Y-126550999D01*
X135649636Y-126432966D01*
X135645625Y-126420623D01*
X135567726Y-126129902D01*
X135565028Y-126117205D01*
X135517949Y-125819953D01*
X135516592Y-125807046D01*
X135500670Y-125503243D01*
X135500500Y-125496753D01*
X135500500Y-121850999D01*
X178824500Y-121850999D01*
X178824500Y-122099000D01*
X178863293Y-122343927D01*
X178863294Y-122343931D01*
X178939927Y-122579782D01*
X179052511Y-122800742D01*
X179198276Y-123001370D01*
X179373630Y-123176724D01*
X179574258Y-123322489D01*
X179795218Y-123435073D01*
X180031069Y-123511706D01*
X180122920Y-123526253D01*
X180276000Y-123550500D01*
X180276005Y-123550500D01*
X180524000Y-123550500D01*
X180660070Y-123528947D01*
X180768931Y-123511706D01*
X181004782Y-123435073D01*
X181225742Y-123322489D01*
X181426370Y-123176724D01*
X181601724Y-123001370D01*
X181747489Y-122800742D01*
X181860073Y-122579782D01*
X181936706Y-122343931D01*
X181953947Y-122235070D01*
X181975500Y-122099000D01*
X181975500Y-121850999D01*
X181936706Y-121606072D01*
X181936706Y-121606069D01*
X181860073Y-121370218D01*
X181747489Y-121149258D01*
X181601724Y-120948630D01*
X181426370Y-120773276D01*
X181225742Y-120627511D01*
X181004782Y-120514927D01*
X180768931Y-120438294D01*
X180768929Y-120438293D01*
X180768927Y-120438293D01*
X180524000Y-120399500D01*
X180523995Y-120399500D01*
X180276005Y-120399500D01*
X180276000Y-120399500D01*
X180031072Y-120438293D01*
X179795215Y-120514928D01*
X179574257Y-120627511D01*
X179459792Y-120710675D01*
X179373630Y-120773276D01*
X179373628Y-120773278D01*
X179373627Y-120773278D01*
X179198278Y-120948627D01*
X179198278Y-120948628D01*
X179198276Y-120948630D01*
X179135675Y-121034792D01*
X179052511Y-121149257D01*
X178939928Y-121370215D01*
X178863293Y-121606072D01*
X178824500Y-121850999D01*
X135500500Y-121850999D01*
X135500500Y-118275730D01*
X144559500Y-118275730D01*
X144559500Y-119884269D01*
X144562353Y-119914699D01*
X144562353Y-119914701D01*
X144607206Y-120042880D01*
X144607207Y-120042882D01*
X144687850Y-120152150D01*
X144797118Y-120232793D01*
X144839566Y-120247646D01*
X144925299Y-120277646D01*
X144955730Y-120280500D01*
X144955734Y-120280500D01*
X146264270Y-120280500D01*
X146294699Y-120277646D01*
X146294701Y-120277646D01*
X146380434Y-120247646D01*
X146422882Y-120232793D01*
X146532150Y-120152150D01*
X146612793Y-120042882D01*
X146635219Y-119978790D01*
X146657646Y-119914701D01*
X146657646Y-119914699D01*
X146660500Y-119884269D01*
X146660500Y-118275729D01*
X146658501Y-118254412D01*
X146657686Y-118245730D01*
X153079500Y-118245730D01*
X153079500Y-119854269D01*
X153082353Y-119884699D01*
X153082353Y-119884701D01*
X153127206Y-120012880D01*
X153127207Y-120012882D01*
X153207850Y-120122150D01*
X153317118Y-120202793D01*
X153338089Y-120210131D01*
X153445299Y-120247646D01*
X153475730Y-120250500D01*
X153475734Y-120250500D01*
X154784270Y-120250500D01*
X154814699Y-120247646D01*
X154814701Y-120247646D01*
X154878790Y-120225219D01*
X154942882Y-120202793D01*
X155052150Y-120122150D01*
X155132793Y-120012882D01*
X155167149Y-119914699D01*
X155177646Y-119884701D01*
X155177646Y-119884699D01*
X155180500Y-119854269D01*
X155180500Y-118275730D01*
X161589500Y-118275730D01*
X161589500Y-119884269D01*
X161592353Y-119914699D01*
X161592353Y-119914701D01*
X161637206Y-120042880D01*
X161637207Y-120042882D01*
X161717850Y-120152150D01*
X161827118Y-120232793D01*
X161869566Y-120247646D01*
X161955299Y-120277646D01*
X161985730Y-120280500D01*
X161985734Y-120280500D01*
X163294270Y-120280500D01*
X163324699Y-120277646D01*
X163324701Y-120277646D01*
X163410434Y-120247646D01*
X163452882Y-120232793D01*
X163562150Y-120152150D01*
X163642793Y-120042882D01*
X163665219Y-119978790D01*
X163687646Y-119914701D01*
X163687646Y-119914699D01*
X163690500Y-119884269D01*
X163690500Y-118796530D01*
X172619500Y-118796530D01*
X172619500Y-119303469D01*
X172659868Y-119506412D01*
X172659870Y-119506420D01*
X172739059Y-119697598D01*
X172796062Y-119782910D01*
X172854024Y-119869657D01*
X173000342Y-120015975D01*
X173000345Y-120015977D01*
X173172402Y-120130941D01*
X173363580Y-120210130D01*
X173552187Y-120247646D01*
X173566530Y-120250499D01*
X173566534Y-120250500D01*
X173566535Y-120250500D01*
X173773466Y-120250500D01*
X173773467Y-120250499D01*
X173976420Y-120210130D01*
X174167598Y-120130941D01*
X174339655Y-120015977D01*
X174470859Y-119884773D01*
X182037000Y-119884773D01*
X182037000Y-119990227D01*
X182064293Y-120092087D01*
X182117020Y-120183413D01*
X182191587Y-120257980D01*
X182282913Y-120310707D01*
X182384773Y-120338000D01*
X182384775Y-120338000D01*
X182490225Y-120338000D01*
X182490227Y-120338000D01*
X182592087Y-120310707D01*
X182683413Y-120257980D01*
X182757980Y-120183413D01*
X182810707Y-120092087D01*
X182838000Y-119990227D01*
X182838000Y-119884773D01*
X182810707Y-119782913D01*
X182757980Y-119691587D01*
X182683413Y-119617020D01*
X182592087Y-119564293D01*
X182490227Y-119537000D01*
X182384773Y-119537000D01*
X182282913Y-119564293D01*
X182282910Y-119564294D01*
X182191585Y-119617021D01*
X182117021Y-119691585D01*
X182064294Y-119782910D01*
X182064293Y-119782913D01*
X182037000Y-119884773D01*
X174470859Y-119884773D01*
X174485977Y-119869655D01*
X174600941Y-119697598D01*
X174680130Y-119506420D01*
X174720500Y-119303465D01*
X174720500Y-118796535D01*
X174680130Y-118593580D01*
X174600941Y-118402402D01*
X174485977Y-118230345D01*
X174485975Y-118230342D01*
X174339657Y-118084024D01*
X174191005Y-117984699D01*
X174167598Y-117969059D01*
X173976420Y-117889870D01*
X173976412Y-117889868D01*
X173773469Y-117849500D01*
X173773465Y-117849500D01*
X173566535Y-117849500D01*
X173566530Y-117849500D01*
X173363587Y-117889868D01*
X173363579Y-117889870D01*
X173172403Y-117969058D01*
X173000342Y-118084024D01*
X172854024Y-118230342D01*
X172739058Y-118402403D01*
X172659870Y-118593579D01*
X172659868Y-118593587D01*
X172619500Y-118796530D01*
X163690500Y-118796530D01*
X163690500Y-118275730D01*
X163687646Y-118245300D01*
X163687646Y-118245298D01*
X163642793Y-118117119D01*
X163642792Y-118117117D01*
X163562150Y-118007850D01*
X163452882Y-117927207D01*
X163452880Y-117927206D01*
X163324700Y-117882353D01*
X163294270Y-117879500D01*
X163294266Y-117879500D01*
X161985734Y-117879500D01*
X161985730Y-117879500D01*
X161955300Y-117882353D01*
X161955298Y-117882353D01*
X161827119Y-117927206D01*
X161827117Y-117927207D01*
X161717850Y-118007850D01*
X161637207Y-118117117D01*
X161637206Y-118117119D01*
X161592353Y-118245298D01*
X161592353Y-118245300D01*
X161589500Y-118275730D01*
X155180500Y-118275730D01*
X155180500Y-118245730D01*
X155177646Y-118215300D01*
X155177646Y-118215298D01*
X155132793Y-118087119D01*
X155132792Y-118087117D01*
X155052150Y-117977850D01*
X154942882Y-117897207D01*
X154942880Y-117897206D01*
X154814700Y-117852353D01*
X154784270Y-117849500D01*
X154784266Y-117849500D01*
X153475734Y-117849500D01*
X153475730Y-117849500D01*
X153445300Y-117852353D01*
X153445298Y-117852353D01*
X153317119Y-117897206D01*
X153317117Y-117897207D01*
X153207850Y-117977850D01*
X153127207Y-118087117D01*
X153127206Y-118087119D01*
X153082353Y-118215298D01*
X153082353Y-118215300D01*
X153079500Y-118245730D01*
X146657686Y-118245730D01*
X146657646Y-118245300D01*
X146657646Y-118245298D01*
X146612793Y-118117119D01*
X146612792Y-118117117D01*
X146532150Y-118007850D01*
X146422882Y-117927207D01*
X146422880Y-117927206D01*
X146294700Y-117882353D01*
X146264270Y-117879500D01*
X146264266Y-117879500D01*
X144955734Y-117879500D01*
X144955730Y-117879500D01*
X144925300Y-117882353D01*
X144925298Y-117882353D01*
X144797119Y-117927206D01*
X144797117Y-117927207D01*
X144687850Y-118007850D01*
X144607207Y-118117117D01*
X144607206Y-118117119D01*
X144562353Y-118245298D01*
X144562353Y-118245300D01*
X144559500Y-118275730D01*
X135500500Y-118275730D01*
X135500500Y-115880247D01*
X178824500Y-115880247D01*
X178824500Y-118669752D01*
X178836131Y-118728229D01*
X178836132Y-118728230D01*
X178880447Y-118794552D01*
X178946769Y-118838867D01*
X178946770Y-118838868D01*
X179005247Y-118850499D01*
X179005250Y-118850500D01*
X179005252Y-118850500D01*
X181794750Y-118850500D01*
X181794751Y-118850499D01*
X181809568Y-118847552D01*
X181853229Y-118838868D01*
X181853229Y-118838867D01*
X181853231Y-118838867D01*
X181919552Y-118794552D01*
X181963867Y-118728231D01*
X181963867Y-118728229D01*
X181963868Y-118728229D01*
X181975499Y-118669752D01*
X181975500Y-118669750D01*
X181975500Y-117480630D01*
X181995185Y-117413591D01*
X182047989Y-117367836D01*
X182117147Y-117357892D01*
X182180703Y-117386917D01*
X182218477Y-117445695D01*
X182219266Y-117448507D01*
X182234293Y-117504587D01*
X182287020Y-117595913D01*
X182361587Y-117670480D01*
X182452913Y-117723207D01*
X182554773Y-117750500D01*
X182554775Y-117750500D01*
X182660225Y-117750500D01*
X182660227Y-117750500D01*
X182762087Y-117723207D01*
X182853413Y-117670480D01*
X182927980Y-117595913D01*
X182980707Y-117504587D01*
X183008000Y-117402727D01*
X183008000Y-117297273D01*
X182980707Y-117195413D01*
X182927980Y-117104087D01*
X182853413Y-117029520D01*
X182762087Y-116976793D01*
X182660227Y-116949500D01*
X182554773Y-116949500D01*
X182452913Y-116976793D01*
X182452910Y-116976794D01*
X182361585Y-117029521D01*
X182287021Y-117104085D01*
X182234294Y-117195410D01*
X182234293Y-117195411D01*
X182219275Y-117251463D01*
X182182910Y-117311123D01*
X182120063Y-117341652D01*
X182050687Y-117333357D01*
X181996809Y-117288872D01*
X181975535Y-117222320D01*
X181975500Y-117219369D01*
X181975500Y-116645730D01*
X188079500Y-116645730D01*
X188079500Y-117954269D01*
X188082353Y-117984699D01*
X188082353Y-117984701D01*
X188118192Y-118087119D01*
X188127207Y-118112882D01*
X188207850Y-118222150D01*
X188317118Y-118302793D01*
X188359845Y-118317744D01*
X188445299Y-118347646D01*
X188475730Y-118350500D01*
X188475734Y-118350500D01*
X190034270Y-118350500D01*
X190064699Y-118347646D01*
X190064701Y-118347646D01*
X190128790Y-118325219D01*
X190192882Y-118302793D01*
X190302150Y-118222150D01*
X190382793Y-118112882D01*
X190405219Y-118048790D01*
X190427646Y-117984701D01*
X190427646Y-117984699D01*
X190430500Y-117954269D01*
X190430500Y-116645730D01*
X190427646Y-116615300D01*
X190427646Y-116615298D01*
X190382793Y-116487119D01*
X190382792Y-116487117D01*
X190302150Y-116377850D01*
X190192882Y-116297207D01*
X190192880Y-116297206D01*
X190064700Y-116252353D01*
X190034270Y-116249500D01*
X190034266Y-116249500D01*
X188475734Y-116249500D01*
X188475730Y-116249500D01*
X188445300Y-116252353D01*
X188445298Y-116252353D01*
X188317119Y-116297206D01*
X188317117Y-116297207D01*
X188207850Y-116377850D01*
X188127207Y-116487117D01*
X188127206Y-116487119D01*
X188082353Y-116615298D01*
X188082353Y-116615300D01*
X188079500Y-116645730D01*
X181975500Y-116645730D01*
X181975500Y-115880249D01*
X181975499Y-115880247D01*
X181963868Y-115821770D01*
X181963867Y-115821769D01*
X181919552Y-115755447D01*
X181853230Y-115711132D01*
X181853229Y-115711131D01*
X181794752Y-115699500D01*
X181794748Y-115699500D01*
X179005252Y-115699500D01*
X179005247Y-115699500D01*
X178946770Y-115711131D01*
X178946769Y-115711132D01*
X178880447Y-115755447D01*
X178836132Y-115821769D01*
X178836131Y-115821770D01*
X178824500Y-115880247D01*
X135500500Y-115880247D01*
X135500500Y-113637273D01*
X142639500Y-113637273D01*
X142639500Y-113742727D01*
X142666793Y-113844587D01*
X142719520Y-113935913D01*
X142794087Y-114010480D01*
X142885413Y-114063207D01*
X142987273Y-114090500D01*
X142987275Y-114090500D01*
X143092725Y-114090500D01*
X143092727Y-114090500D01*
X143194587Y-114063207D01*
X143285913Y-114010480D01*
X143309120Y-113987273D01*
X147554500Y-113987273D01*
X147554500Y-114092727D01*
X147581793Y-114194587D01*
X147634520Y-114285913D01*
X147709087Y-114360480D01*
X147800413Y-114413207D01*
X147902273Y-114440500D01*
X147902275Y-114440500D01*
X148007725Y-114440500D01*
X148007727Y-114440500D01*
X148109587Y-114413207D01*
X148200913Y-114360480D01*
X148275480Y-114285913D01*
X148328207Y-114194587D01*
X148355500Y-114092727D01*
X148355500Y-114087273D01*
X149649500Y-114087273D01*
X149649500Y-114192727D01*
X149676793Y-114294587D01*
X149729520Y-114385913D01*
X149804087Y-114460480D01*
X149895413Y-114513207D01*
X149997273Y-114540500D01*
X149997275Y-114540500D01*
X150102725Y-114540500D01*
X150102727Y-114540500D01*
X150204587Y-114513207D01*
X150295913Y-114460480D01*
X150370480Y-114385913D01*
X150423207Y-114294587D01*
X150450500Y-114192727D01*
X150450500Y-114087273D01*
X152649500Y-114087273D01*
X152649500Y-114192727D01*
X152676793Y-114294587D01*
X152729520Y-114385913D01*
X152804087Y-114460480D01*
X152895413Y-114513207D01*
X152997273Y-114540500D01*
X152997275Y-114540500D01*
X153102725Y-114540500D01*
X153102727Y-114540500D01*
X153204587Y-114513207D01*
X153295913Y-114460480D01*
X153370480Y-114385913D01*
X153423207Y-114294587D01*
X153450500Y-114192727D01*
X153450500Y-114087273D01*
X153423705Y-113987273D01*
X155649500Y-113987273D01*
X155649500Y-114092727D01*
X155676793Y-114194587D01*
X155729520Y-114285913D01*
X155804087Y-114360480D01*
X155895413Y-114413207D01*
X155997273Y-114440500D01*
X155997275Y-114440500D01*
X156102725Y-114440500D01*
X156102727Y-114440500D01*
X156204587Y-114413207D01*
X156295913Y-114360480D01*
X156370480Y-114285913D01*
X156423207Y-114194587D01*
X156450500Y-114092727D01*
X156450500Y-113987273D01*
X156431744Y-113917273D01*
X160869500Y-113917273D01*
X160869500Y-114022727D01*
X160896793Y-114124587D01*
X160949520Y-114215913D01*
X161024087Y-114290480D01*
X161115413Y-114343207D01*
X161217273Y-114370500D01*
X161217275Y-114370500D01*
X161322725Y-114370500D01*
X161322727Y-114370500D01*
X161424587Y-114343207D01*
X161515913Y-114290480D01*
X161590480Y-114215913D01*
X161643207Y-114124587D01*
X161650225Y-114098393D01*
X161686589Y-114038733D01*
X161749436Y-114008203D01*
X161818812Y-114016497D01*
X161872690Y-114060982D01*
X161889775Y-114098394D01*
X161896792Y-114124585D01*
X161896793Y-114124587D01*
X161949520Y-114215913D01*
X162024087Y-114290480D01*
X162115413Y-114343207D01*
X162217273Y-114370500D01*
X162217275Y-114370500D01*
X162322725Y-114370500D01*
X162322727Y-114370500D01*
X162424587Y-114343207D01*
X162515913Y-114290480D01*
X162590480Y-114215913D01*
X162643207Y-114124587D01*
X162670500Y-114022727D01*
X162670500Y-113917273D01*
X162643207Y-113815413D01*
X162603866Y-113747273D01*
X182207000Y-113747273D01*
X182207000Y-113852727D01*
X182234293Y-113954587D01*
X182287020Y-114045913D01*
X182361587Y-114120480D01*
X182452913Y-114173207D01*
X182554773Y-114200500D01*
X182554775Y-114200500D01*
X182660225Y-114200500D01*
X182660227Y-114200500D01*
X182762087Y-114173207D01*
X182853413Y-114120480D01*
X182927980Y-114045913D01*
X182980707Y-113954587D01*
X183008000Y-113852727D01*
X183008000Y-113747273D01*
X182980707Y-113645413D01*
X182927980Y-113554087D01*
X182853413Y-113479520D01*
X182762087Y-113426793D01*
X182660227Y-113399500D01*
X182554773Y-113399500D01*
X182452913Y-113426793D01*
X182452910Y-113426794D01*
X182361585Y-113479521D01*
X182287021Y-113554085D01*
X182234294Y-113645410D01*
X182234293Y-113645413D01*
X182207000Y-113747273D01*
X162603866Y-113747273D01*
X162590480Y-113724087D01*
X162515913Y-113649520D01*
X162424587Y-113596793D01*
X162322727Y-113569500D01*
X162217273Y-113569500D01*
X162115413Y-113596793D01*
X162115410Y-113596794D01*
X162024085Y-113649521D01*
X161949521Y-113724085D01*
X161896794Y-113815410D01*
X161896793Y-113815413D01*
X161889775Y-113841606D01*
X161853410Y-113901267D01*
X161790563Y-113931796D01*
X161721188Y-113923501D01*
X161667310Y-113879016D01*
X161650225Y-113841606D01*
X161643207Y-113815413D01*
X161590480Y-113724087D01*
X161515913Y-113649520D01*
X161424587Y-113596793D01*
X161322727Y-113569500D01*
X161217273Y-113569500D01*
X161115413Y-113596793D01*
X161115410Y-113596794D01*
X161024085Y-113649521D01*
X160949521Y-113724085D01*
X160896794Y-113815410D01*
X160896793Y-113815413D01*
X160869500Y-113917273D01*
X156431744Y-113917273D01*
X156423207Y-113885413D01*
X156370480Y-113794087D01*
X156295913Y-113719520D01*
X156204587Y-113666793D01*
X156102727Y-113639500D01*
X155997273Y-113639500D01*
X155895413Y-113666793D01*
X155895410Y-113666794D01*
X155804085Y-113719521D01*
X155729521Y-113794085D01*
X155676794Y-113885410D01*
X155676793Y-113885413D01*
X155649500Y-113987273D01*
X153423705Y-113987273D01*
X153423207Y-113985413D01*
X153370480Y-113894087D01*
X153295913Y-113819520D01*
X153204587Y-113766793D01*
X153102727Y-113739500D01*
X152997273Y-113739500D01*
X152895413Y-113766793D01*
X152895410Y-113766794D01*
X152804085Y-113819521D01*
X152729521Y-113894085D01*
X152676794Y-113985410D01*
X152676794Y-113985411D01*
X152676793Y-113985413D01*
X152649500Y-114087273D01*
X150450500Y-114087273D01*
X150423207Y-113985413D01*
X150370480Y-113894087D01*
X150295913Y-113819520D01*
X150204587Y-113766793D01*
X150102727Y-113739500D01*
X149997273Y-113739500D01*
X149895413Y-113766793D01*
X149895410Y-113766794D01*
X149804085Y-113819521D01*
X149729521Y-113894085D01*
X149676794Y-113985410D01*
X149676794Y-113985411D01*
X149676793Y-113985413D01*
X149649500Y-114087273D01*
X148355500Y-114087273D01*
X148355500Y-113987273D01*
X148328207Y-113885413D01*
X148275480Y-113794087D01*
X148200913Y-113719520D01*
X148109587Y-113666793D01*
X148007727Y-113639500D01*
X147902273Y-113639500D01*
X147800413Y-113666793D01*
X147800410Y-113666794D01*
X147709085Y-113719521D01*
X147634521Y-113794085D01*
X147581794Y-113885410D01*
X147581793Y-113885413D01*
X147554500Y-113987273D01*
X143309120Y-113987273D01*
X143360480Y-113935913D01*
X143413207Y-113844587D01*
X143440500Y-113742727D01*
X143440500Y-113637273D01*
X143413207Y-113535413D01*
X143360480Y-113444087D01*
X143285913Y-113369520D01*
X143194587Y-113316793D01*
X143092727Y-113289500D01*
X142987273Y-113289500D01*
X142885413Y-113316793D01*
X142885410Y-113316794D01*
X142794085Y-113369521D01*
X142719521Y-113444085D01*
X142666794Y-113535410D01*
X142666793Y-113535413D01*
X142639500Y-113637273D01*
X135500500Y-113637273D01*
X135500500Y-113188273D01*
X150260682Y-113188273D01*
X150260682Y-113293727D01*
X150287975Y-113395587D01*
X150340702Y-113486913D01*
X150415269Y-113561480D01*
X150506595Y-113614207D01*
X150608455Y-113641500D01*
X150608457Y-113641500D01*
X150713907Y-113641500D01*
X150713909Y-113641500D01*
X150815769Y-113614207D01*
X150907095Y-113561480D01*
X150981662Y-113486913D01*
X151034389Y-113395587D01*
X151061682Y-113293727D01*
X151061682Y-113188273D01*
X151057770Y-113173673D01*
X151059432Y-113103824D01*
X151098593Y-113045961D01*
X151115535Y-113034198D01*
X151203884Y-112983190D01*
X151278451Y-112908623D01*
X151331178Y-112817297D01*
X151358471Y-112715437D01*
X151358471Y-112609983D01*
X151331178Y-112508123D01*
X151278451Y-112416797D01*
X151203884Y-112342230D01*
X151126978Y-112297828D01*
X151112560Y-112289504D01*
X151112559Y-112289503D01*
X151112558Y-112289503D01*
X151010698Y-112262210D01*
X150905244Y-112262210D01*
X150803384Y-112289503D01*
X150803381Y-112289504D01*
X150712056Y-112342231D01*
X150637492Y-112416795D01*
X150584765Y-112508120D01*
X150584764Y-112508123D01*
X150557471Y-112609983D01*
X150557471Y-112715436D01*
X150561383Y-112730036D01*
X150559720Y-112799886D01*
X150520557Y-112857748D01*
X150503610Y-112869515D01*
X150415267Y-112920521D01*
X150340703Y-112995085D01*
X150287976Y-113086410D01*
X150287975Y-113086413D01*
X150260682Y-113188273D01*
X135500500Y-113188273D01*
X135500500Y-112196530D01*
X188079500Y-112196530D01*
X188079500Y-112403469D01*
X188119868Y-112606412D01*
X188119870Y-112606420D01*
X188165026Y-112715437D01*
X188199059Y-112797598D01*
X188247112Y-112869515D01*
X188314024Y-112969657D01*
X188460342Y-113115975D01*
X188460345Y-113115977D01*
X188632402Y-113230941D01*
X188823580Y-113310130D01*
X189026530Y-113350499D01*
X189026534Y-113350500D01*
X189026535Y-113350500D01*
X189483466Y-113350500D01*
X189483467Y-113350499D01*
X189686420Y-113310130D01*
X189877598Y-113230941D01*
X190049655Y-113115977D01*
X190195977Y-112969655D01*
X190310941Y-112797598D01*
X190390130Y-112606420D01*
X190430500Y-112403465D01*
X190430500Y-112196535D01*
X190390130Y-111993580D01*
X190310941Y-111802402D01*
X190195977Y-111630345D01*
X190195975Y-111630342D01*
X190049657Y-111484024D01*
X189963626Y-111426541D01*
X189877598Y-111369059D01*
X189686420Y-111289870D01*
X189686412Y-111289868D01*
X189483469Y-111249500D01*
X189483465Y-111249500D01*
X189026535Y-111249500D01*
X189026530Y-111249500D01*
X188823587Y-111289868D01*
X188823579Y-111289870D01*
X188632403Y-111369058D01*
X188460342Y-111484024D01*
X188314024Y-111630342D01*
X188199058Y-111802403D01*
X188119870Y-111993579D01*
X188119868Y-111993587D01*
X188079500Y-112196530D01*
X135500500Y-112196530D01*
X135500500Y-110407273D01*
X145779500Y-110407273D01*
X145779500Y-110512727D01*
X145790218Y-110552725D01*
X145806793Y-110614586D01*
X145806794Y-110614589D01*
X145820922Y-110639059D01*
X145859520Y-110705913D01*
X145934087Y-110780480D01*
X146025413Y-110833207D01*
X146127273Y-110860500D01*
X146127275Y-110860500D01*
X146232725Y-110860500D01*
X146232727Y-110860500D01*
X146334587Y-110833207D01*
X146425913Y-110780480D01*
X146500480Y-110705913D01*
X146553207Y-110614587D01*
X146580500Y-110512727D01*
X146580500Y-110485577D01*
X146596152Y-110432273D01*
X178384500Y-110432273D01*
X178384500Y-110537727D01*
X178411793Y-110639587D01*
X178464520Y-110730913D01*
X178539087Y-110805480D01*
X178630413Y-110858207D01*
X178732273Y-110885500D01*
X178732275Y-110885500D01*
X178837725Y-110885500D01*
X178837727Y-110885500D01*
X178939587Y-110858207D01*
X179030913Y-110805480D01*
X179105480Y-110730913D01*
X179105780Y-110730393D01*
X179106148Y-110730041D01*
X179110426Y-110724467D01*
X179111294Y-110725133D01*
X179156337Y-110682177D01*
X179224943Y-110668947D01*
X179289810Y-110694908D01*
X179320554Y-110730384D01*
X179329520Y-110745913D01*
X179404087Y-110820480D01*
X179495413Y-110873207D01*
X179597273Y-110900500D01*
X179597275Y-110900500D01*
X179702725Y-110900500D01*
X179702727Y-110900500D01*
X179804587Y-110873207D01*
X179895913Y-110820480D01*
X179970480Y-110745913D01*
X180023207Y-110654587D01*
X180050500Y-110552727D01*
X180050500Y-110447273D01*
X180023207Y-110345413D01*
X179970480Y-110254087D01*
X179895913Y-110179520D01*
X179804587Y-110126793D01*
X179702727Y-110099500D01*
X179597273Y-110099500D01*
X179495413Y-110126793D01*
X179495410Y-110126794D01*
X179404085Y-110179521D01*
X179329520Y-110254086D01*
X179329214Y-110254617D01*
X179328838Y-110254974D01*
X179324574Y-110260533D01*
X179323706Y-110259867D01*
X179278645Y-110302830D01*
X179210037Y-110316050D01*
X179145173Y-110290079D01*
X179114445Y-110254616D01*
X179105480Y-110239087D01*
X179030913Y-110164520D01*
X178939587Y-110111793D01*
X178837727Y-110084500D01*
X178732273Y-110084500D01*
X178630413Y-110111793D01*
X178630410Y-110111794D01*
X178539085Y-110164521D01*
X178464521Y-110239085D01*
X178411794Y-110330410D01*
X178411793Y-110330413D01*
X178384500Y-110432273D01*
X146596152Y-110432273D01*
X146600185Y-110418538D01*
X146652989Y-110372783D01*
X146704500Y-110361577D01*
X146757725Y-110361577D01*
X146757727Y-110361577D01*
X146859587Y-110334284D01*
X146950913Y-110281557D01*
X147025480Y-110206990D01*
X147078207Y-110115664D01*
X147105500Y-110013804D01*
X147105500Y-109960577D01*
X147125185Y-109893538D01*
X147177989Y-109847783D01*
X147229500Y-109836577D01*
X147277725Y-109836577D01*
X147277727Y-109836577D01*
X147379587Y-109809284D01*
X147470913Y-109756557D01*
X147530940Y-109696530D01*
X188079500Y-109696530D01*
X188079500Y-109903469D01*
X188119868Y-110106412D01*
X188119870Y-110106420D01*
X188195944Y-110290079D01*
X188199059Y-110297598D01*
X188241808Y-110361577D01*
X188314024Y-110469657D01*
X188460342Y-110615975D01*
X188460345Y-110615977D01*
X188632402Y-110730941D01*
X188823580Y-110810130D01*
X189026530Y-110850499D01*
X189026534Y-110850500D01*
X189026535Y-110850500D01*
X189483466Y-110850500D01*
X189483467Y-110850499D01*
X189686420Y-110810130D01*
X189877598Y-110730941D01*
X190049655Y-110615977D01*
X190195977Y-110469655D01*
X190310941Y-110297598D01*
X190390130Y-110106420D01*
X190430500Y-109903465D01*
X190430500Y-109696535D01*
X190390130Y-109493580D01*
X190310941Y-109302402D01*
X190195977Y-109130345D01*
X190195975Y-109130342D01*
X190049657Y-108984024D01*
X189928701Y-108903205D01*
X189877598Y-108869059D01*
X189686420Y-108789870D01*
X189686412Y-108789868D01*
X189483469Y-108749500D01*
X189483465Y-108749500D01*
X189026535Y-108749500D01*
X189026530Y-108749500D01*
X188823587Y-108789868D01*
X188823579Y-108789870D01*
X188632403Y-108869058D01*
X188460342Y-108984024D01*
X188314024Y-109130342D01*
X188199058Y-109302403D01*
X188119870Y-109493579D01*
X188119868Y-109493587D01*
X188079500Y-109696530D01*
X147530940Y-109696530D01*
X147545480Y-109681990D01*
X147598207Y-109590664D01*
X147625500Y-109488804D01*
X147625500Y-109383350D01*
X147598207Y-109281490D01*
X147545480Y-109190164D01*
X147470913Y-109115597D01*
X147379587Y-109062870D01*
X147277727Y-109035577D01*
X147172273Y-109035577D01*
X147070413Y-109062870D01*
X147070410Y-109062871D01*
X146979085Y-109115598D01*
X146904521Y-109190162D01*
X146851794Y-109281487D01*
X146851793Y-109281490D01*
X146824500Y-109383350D01*
X146824500Y-109436577D01*
X146804815Y-109503616D01*
X146752011Y-109549371D01*
X146700500Y-109560577D01*
X146652273Y-109560577D01*
X146550413Y-109587870D01*
X146550410Y-109587871D01*
X146459085Y-109640598D01*
X146384521Y-109715162D01*
X146331794Y-109806487D01*
X146331793Y-109806490D01*
X146304500Y-109908350D01*
X146304500Y-109935500D01*
X146284815Y-110002539D01*
X146232011Y-110048294D01*
X146180500Y-110059500D01*
X146127273Y-110059500D01*
X146025413Y-110086793D01*
X146025410Y-110086794D01*
X145934085Y-110139521D01*
X145859521Y-110214085D01*
X145806794Y-110305410D01*
X145806793Y-110305413D01*
X145779500Y-110407273D01*
X135500500Y-110407273D01*
X135500500Y-109517273D01*
X144829500Y-109517273D01*
X144829500Y-109622727D01*
X144856793Y-109724587D01*
X144909520Y-109815913D01*
X144984087Y-109890480D01*
X145075413Y-109943207D01*
X145177273Y-109970500D01*
X145177275Y-109970500D01*
X145282725Y-109970500D01*
X145282727Y-109970500D01*
X145384587Y-109943207D01*
X145475913Y-109890480D01*
X145550480Y-109815913D01*
X145603207Y-109724587D01*
X145630500Y-109622727D01*
X145630500Y-109517273D01*
X145603207Y-109415413D01*
X145550480Y-109324087D01*
X145475913Y-109249520D01*
X145384587Y-109196793D01*
X145282727Y-109169500D01*
X145177273Y-109169500D01*
X145075413Y-109196793D01*
X145075410Y-109196794D01*
X144984085Y-109249521D01*
X144909521Y-109324085D01*
X144856794Y-109415410D01*
X144856793Y-109415413D01*
X144829500Y-109517273D01*
X135500500Y-109517273D01*
X135500500Y-108477273D01*
X138779500Y-108477273D01*
X138779500Y-108582727D01*
X138806793Y-108684587D01*
X138859520Y-108775913D01*
X138934087Y-108850480D01*
X139025413Y-108903207D01*
X139127273Y-108930500D01*
X139127275Y-108930500D01*
X139232725Y-108930500D01*
X139232727Y-108930500D01*
X139334587Y-108903207D01*
X139425913Y-108850480D01*
X139500480Y-108775913D01*
X139553207Y-108684587D01*
X139580500Y-108582727D01*
X139580500Y-108477273D01*
X139553207Y-108375413D01*
X139500480Y-108284087D01*
X139425913Y-108209520D01*
X139334587Y-108156793D01*
X139232727Y-108129500D01*
X139127273Y-108129500D01*
X139025413Y-108156793D01*
X139025410Y-108156794D01*
X138934085Y-108209521D01*
X138859521Y-108284085D01*
X138806794Y-108375410D01*
X138806793Y-108375413D01*
X138779500Y-108477273D01*
X135500500Y-108477273D01*
X135500500Y-107970154D01*
X144854500Y-107970154D01*
X144854500Y-108075608D01*
X144881793Y-108177468D01*
X144934520Y-108268794D01*
X145009087Y-108343361D01*
X145100413Y-108396088D01*
X145202273Y-108423381D01*
X145202275Y-108423381D01*
X145307725Y-108423381D01*
X145307727Y-108423381D01*
X145409587Y-108396088D01*
X145500913Y-108343361D01*
X145575480Y-108268794D01*
X145628207Y-108177468D01*
X145655500Y-108075608D01*
X145655500Y-107970154D01*
X145628207Y-107868294D01*
X145575480Y-107776968D01*
X145500913Y-107702401D01*
X145433415Y-107663431D01*
X145409589Y-107649675D01*
X145409588Y-107649674D01*
X145409587Y-107649674D01*
X145307727Y-107622381D01*
X145202273Y-107622381D01*
X145100413Y-107649674D01*
X145100410Y-107649675D01*
X145009085Y-107702402D01*
X144934521Y-107776966D01*
X144881794Y-107868291D01*
X144881793Y-107868294D01*
X144854500Y-107970154D01*
X135500500Y-107970154D01*
X135500500Y-107297273D01*
X152474500Y-107297273D01*
X152474500Y-107402727D01*
X152501793Y-107504587D01*
X152554520Y-107595913D01*
X152629087Y-107670480D01*
X152720413Y-107723207D01*
X152822273Y-107750500D01*
X152822275Y-107750500D01*
X152927725Y-107750500D01*
X152927727Y-107750500D01*
X153029587Y-107723207D01*
X153120913Y-107670480D01*
X153120914Y-107670478D01*
X153127951Y-107666416D01*
X153129548Y-107669183D01*
X153180711Y-107649399D01*
X153249157Y-107663431D01*
X153272399Y-107680614D01*
X153272463Y-107680531D01*
X153277114Y-107684099D01*
X153278720Y-107685287D01*
X153278913Y-107685480D01*
X153370239Y-107738207D01*
X153472099Y-107765500D01*
X153472101Y-107765500D01*
X153577551Y-107765500D01*
X153577553Y-107765500D01*
X153679413Y-107738207D01*
X153770739Y-107685480D01*
X153770747Y-107685471D01*
X153774338Y-107682717D01*
X153839507Y-107657521D01*
X153907952Y-107671558D01*
X153925311Y-107682713D01*
X153928912Y-107685476D01*
X153928916Y-107685480D01*
X154020242Y-107738207D01*
X154122102Y-107765500D01*
X154122104Y-107765500D01*
X154227554Y-107765500D01*
X154227556Y-107765500D01*
X154329416Y-107738207D01*
X154420742Y-107685480D01*
X154495309Y-107610913D01*
X154548036Y-107519587D01*
X154575329Y-107417727D01*
X154575329Y-107312273D01*
X154548036Y-107210413D01*
X154548033Y-107210408D01*
X154546079Y-107203114D01*
X154546236Y-107196530D01*
X188079500Y-107196530D01*
X188079500Y-107403469D01*
X188119868Y-107606412D01*
X188119870Y-107606420D01*
X188199058Y-107797596D01*
X188314024Y-107969657D01*
X188460342Y-108115975D01*
X188460345Y-108115977D01*
X188632402Y-108230941D01*
X188823580Y-108310130D01*
X188990635Y-108343359D01*
X189026530Y-108350499D01*
X189026534Y-108350500D01*
X189026535Y-108350500D01*
X189483466Y-108350500D01*
X189483467Y-108350499D01*
X189686420Y-108310130D01*
X189877598Y-108230941D01*
X190049655Y-108115977D01*
X190195977Y-107969655D01*
X190310941Y-107797598D01*
X190390130Y-107606420D01*
X190430500Y-107403465D01*
X190430500Y-107196535D01*
X190390130Y-106993580D01*
X190310941Y-106802402D01*
X190195977Y-106630345D01*
X190195975Y-106630342D01*
X190049657Y-106484024D01*
X189944985Y-106414085D01*
X189877598Y-106369059D01*
X189806287Y-106339521D01*
X189686420Y-106289870D01*
X189686412Y-106289868D01*
X189483469Y-106249500D01*
X189483465Y-106249500D01*
X189026535Y-106249500D01*
X189026530Y-106249500D01*
X188823587Y-106289868D01*
X188823579Y-106289870D01*
X188632403Y-106369058D01*
X188460342Y-106484024D01*
X188314024Y-106630342D01*
X188199058Y-106802403D01*
X188119870Y-106993579D01*
X188119868Y-106993587D01*
X188079500Y-107196530D01*
X154546236Y-107196530D01*
X154547742Y-107133264D01*
X154586905Y-107075402D01*
X154603848Y-107063637D01*
X154679028Y-107020233D01*
X154753595Y-106945666D01*
X154795647Y-106872828D01*
X154846213Y-106824615D01*
X154914820Y-106811391D01*
X154979684Y-106837359D01*
X155010418Y-106872828D01*
X155029520Y-106905913D01*
X155104087Y-106980480D01*
X155195413Y-107033207D01*
X155297273Y-107060500D01*
X155297275Y-107060500D01*
X155402725Y-107060500D01*
X155402727Y-107060500D01*
X155504587Y-107033207D01*
X155595913Y-106980480D01*
X155670480Y-106905913D01*
X155723207Y-106814587D01*
X155750500Y-106712727D01*
X155750500Y-106607273D01*
X155723207Y-106505413D01*
X155670480Y-106414087D01*
X155595913Y-106339520D01*
X155504587Y-106286793D01*
X155402727Y-106259500D01*
X155297273Y-106259500D01*
X155195413Y-106286793D01*
X155195410Y-106286794D01*
X155104085Y-106339521D01*
X155029520Y-106414086D01*
X154987467Y-106486923D01*
X154936900Y-106535138D01*
X154868293Y-106548360D01*
X154803428Y-106522392D01*
X154772694Y-106486921D01*
X154753595Y-106453840D01*
X154679028Y-106379273D01*
X154587702Y-106326546D01*
X154485842Y-106299253D01*
X154380388Y-106299253D01*
X154278528Y-106326546D01*
X154278525Y-106326547D01*
X154187200Y-106379274D01*
X154112636Y-106453838D01*
X154059909Y-106545163D01*
X154059908Y-106545166D01*
X154032615Y-106647026D01*
X154032615Y-106752480D01*
X154059908Y-106854340D01*
X154059908Y-106854341D01*
X154061864Y-106861638D01*
X154061223Y-106888557D01*
X154064195Y-106915322D01*
X154060403Y-106922961D01*
X154060201Y-106931488D01*
X154045107Y-106953787D01*
X154033138Y-106977910D01*
X154023651Y-106985489D01*
X154021038Y-106989350D01*
X154005734Y-107000152D01*
X154004903Y-107000648D01*
X153928916Y-107044520D01*
X153925003Y-107048432D01*
X153913472Y-107055329D01*
X153886302Y-107062364D01*
X153860133Y-107072479D01*
X153852941Y-107071003D01*
X153845833Y-107072844D01*
X153819178Y-107064075D01*
X153791690Y-107058435D01*
X153780845Y-107051465D01*
X153779462Y-107051010D01*
X153778725Y-107050102D01*
X153774345Y-107047287D01*
X153770740Y-107044521D01*
X153770739Y-107044520D01*
X153693891Y-107000152D01*
X153679415Y-106991794D01*
X153679414Y-106991793D01*
X153679413Y-106991793D01*
X153577553Y-106964500D01*
X153472099Y-106964500D01*
X153370239Y-106991793D01*
X153370236Y-106991794D01*
X153320983Y-107020231D01*
X153278913Y-107044520D01*
X153278911Y-107044521D01*
X153271875Y-107048584D01*
X153270286Y-107045833D01*
X153218988Y-107065611D01*
X153150556Y-107051508D01*
X153127424Y-107034388D01*
X153127363Y-107034469D01*
X153122747Y-107030927D01*
X153121105Y-107029712D01*
X153120914Y-107029521D01*
X153120913Y-107029520D01*
X153029587Y-106976793D01*
X152927727Y-106949500D01*
X152822273Y-106949500D01*
X152720413Y-106976793D01*
X152720410Y-106976794D01*
X152629085Y-107029521D01*
X152554521Y-107104085D01*
X152501794Y-107195410D01*
X152501793Y-107195413D01*
X152474500Y-107297273D01*
X135500500Y-107297273D01*
X135500500Y-106397273D01*
X149099500Y-106397273D01*
X149099500Y-106502727D01*
X149126793Y-106604587D01*
X149179520Y-106695913D01*
X149254087Y-106770480D01*
X149345413Y-106823207D01*
X149447273Y-106850500D01*
X149447275Y-106850500D01*
X149552725Y-106850500D01*
X149552727Y-106850500D01*
X149654587Y-106823207D01*
X149745913Y-106770480D01*
X149820480Y-106695913D01*
X149873207Y-106604587D01*
X149900500Y-106502727D01*
X149900500Y-106397273D01*
X149873207Y-106295413D01*
X149820480Y-106204087D01*
X149745913Y-106129520D01*
X149654587Y-106076793D01*
X149552727Y-106049500D01*
X149447273Y-106049500D01*
X149345413Y-106076793D01*
X149345410Y-106076794D01*
X149254085Y-106129521D01*
X149179521Y-106204085D01*
X149126794Y-106295410D01*
X149126793Y-106295413D01*
X149099500Y-106397273D01*
X135500500Y-106397273D01*
X135500500Y-105637827D01*
X147551410Y-105637827D01*
X147551410Y-105743281D01*
X147578703Y-105845141D01*
X147631430Y-105936467D01*
X147705997Y-106011034D01*
X147797323Y-106063761D01*
X147899183Y-106091054D01*
X147899185Y-106091054D01*
X148004635Y-106091054D01*
X148004637Y-106091054D01*
X148106497Y-106063761D01*
X148197823Y-106011034D01*
X148272390Y-105936467D01*
X148325117Y-105845141D01*
X148340962Y-105786005D01*
X156585768Y-105786005D01*
X156585768Y-105891459D01*
X156613061Y-105993319D01*
X156665788Y-106084645D01*
X156740355Y-106159212D01*
X156831681Y-106211939D01*
X156933541Y-106239232D01*
X156933543Y-106239232D01*
X157038993Y-106239232D01*
X157038995Y-106239232D01*
X157140855Y-106211939D01*
X157232181Y-106159212D01*
X157306748Y-106084645D01*
X157359475Y-105993319D01*
X157386768Y-105891459D01*
X157386768Y-105786005D01*
X157376390Y-105747273D01*
X164099500Y-105747273D01*
X164099500Y-105852727D01*
X164126793Y-105954587D01*
X164179520Y-106045913D01*
X164254087Y-106120480D01*
X164345413Y-106173207D01*
X164447273Y-106200500D01*
X164447275Y-106200500D01*
X164552725Y-106200500D01*
X164552727Y-106200500D01*
X164654587Y-106173207D01*
X164745913Y-106120480D01*
X164820480Y-106045913D01*
X164873207Y-105954587D01*
X164900500Y-105852727D01*
X164900500Y-105747273D01*
X164873207Y-105645413D01*
X164820480Y-105554087D01*
X164745913Y-105479520D01*
X164654587Y-105426793D01*
X164552727Y-105399500D01*
X164447273Y-105399500D01*
X164345413Y-105426793D01*
X164345410Y-105426794D01*
X164254085Y-105479521D01*
X164179521Y-105554085D01*
X164126794Y-105645410D01*
X164126793Y-105645413D01*
X164099500Y-105747273D01*
X157376390Y-105747273D01*
X157359475Y-105684145D01*
X157306748Y-105592819D01*
X157232181Y-105518252D01*
X157148012Y-105469657D01*
X157140857Y-105465526D01*
X157140856Y-105465525D01*
X157140855Y-105465525D01*
X157038995Y-105438232D01*
X156933541Y-105438232D01*
X156831681Y-105465525D01*
X156831678Y-105465526D01*
X156740353Y-105518253D01*
X156665789Y-105592817D01*
X156613062Y-105684142D01*
X156613061Y-105684145D01*
X156585768Y-105786005D01*
X148340962Y-105786005D01*
X148352410Y-105743281D01*
X148352410Y-105637827D01*
X148325117Y-105535967D01*
X148272390Y-105444641D01*
X148197823Y-105370074D01*
X148106497Y-105317347D01*
X148004637Y-105290054D01*
X147899183Y-105290054D01*
X147797323Y-105317347D01*
X147797320Y-105317348D01*
X147705995Y-105370075D01*
X147631431Y-105444639D01*
X147578704Y-105535964D01*
X147578703Y-105535967D01*
X147551410Y-105637827D01*
X135500500Y-105637827D01*
X135500500Y-104747273D01*
X165399500Y-104747273D01*
X165399500Y-104852727D01*
X165426793Y-104954587D01*
X165479520Y-105045913D01*
X165554087Y-105120480D01*
X165645413Y-105173207D01*
X165747273Y-105200500D01*
X165747275Y-105200500D01*
X165852725Y-105200500D01*
X165852727Y-105200500D01*
X165954587Y-105173207D01*
X166045913Y-105120480D01*
X166120480Y-105045913D01*
X166160109Y-104977273D01*
X181449500Y-104977273D01*
X181449500Y-105082727D01*
X181473744Y-105173205D01*
X181476793Y-105184586D01*
X181476794Y-105184589D01*
X181481766Y-105193201D01*
X181529520Y-105275913D01*
X181604087Y-105350480D01*
X181695413Y-105403207D01*
X181797273Y-105430500D01*
X181797275Y-105430500D01*
X181902725Y-105430500D01*
X181902727Y-105430500D01*
X182004587Y-105403207D01*
X182004598Y-105403200D01*
X182004905Y-105403074D01*
X182005200Y-105403042D01*
X182012438Y-105401103D01*
X182012740Y-105402230D01*
X182074374Y-105395599D01*
X182136856Y-105426869D01*
X182172514Y-105486954D01*
X182170026Y-105556780D01*
X182166932Y-105565076D01*
X182166795Y-105565406D01*
X182166793Y-105565412D01*
X182166793Y-105565413D01*
X182139500Y-105667273D01*
X182139500Y-105772727D01*
X182166793Y-105874587D01*
X182219520Y-105965913D01*
X182294087Y-106040480D01*
X182385413Y-106093207D01*
X182487273Y-106120500D01*
X182487275Y-106120500D01*
X182592725Y-106120500D01*
X182592727Y-106120500D01*
X182694587Y-106093207D01*
X182785913Y-106040480D01*
X182821609Y-106004783D01*
X182882929Y-105971299D01*
X182952621Y-105976283D01*
X182996970Y-106004784D01*
X182999500Y-106007314D01*
X183092686Y-106100500D01*
X183206814Y-106166392D01*
X183328953Y-106199118D01*
X183388613Y-106235483D01*
X183406630Y-106263886D01*
X183407044Y-106263647D01*
X183411108Y-106270686D01*
X183477000Y-106384814D01*
X183570186Y-106478000D01*
X183684314Y-106543892D01*
X183811608Y-106578000D01*
X183811610Y-106578000D01*
X183943390Y-106578000D01*
X183943392Y-106578000D01*
X184070686Y-106543892D01*
X184184814Y-106478000D01*
X184278000Y-106384814D01*
X184343892Y-106270686D01*
X184378000Y-106143392D01*
X184378000Y-106011608D01*
X184343892Y-105884314D01*
X184278000Y-105770186D01*
X184184814Y-105677000D01*
X184070686Y-105611108D01*
X183948545Y-105578380D01*
X183888886Y-105542016D01*
X183870871Y-105513613D01*
X183870456Y-105513853D01*
X183842554Y-105465526D01*
X183800500Y-105392686D01*
X183707314Y-105299500D01*
X183644139Y-105263026D01*
X183593187Y-105233608D01*
X183529539Y-105216554D01*
X183465892Y-105199500D01*
X183334108Y-105199500D01*
X183206812Y-105233608D01*
X183092686Y-105299500D01*
X183092683Y-105299502D01*
X182999502Y-105392683D01*
X182994552Y-105399135D01*
X182993491Y-105398321D01*
X182949052Y-105440694D01*
X182880444Y-105453916D01*
X182815580Y-105427948D01*
X182804552Y-105418159D01*
X182785914Y-105399521D01*
X182785913Y-105399520D01*
X182694828Y-105346932D01*
X182694589Y-105346794D01*
X182694588Y-105346793D01*
X182694587Y-105346793D01*
X182592727Y-105319500D01*
X182487273Y-105319500D01*
X182385406Y-105346795D01*
X182385076Y-105346932D01*
X182384774Y-105346964D01*
X182377562Y-105348897D01*
X182377260Y-105347771D01*
X182315606Y-105354396D01*
X182253129Y-105323117D01*
X182217481Y-105263026D01*
X182219979Y-105193201D01*
X182223074Y-105184905D01*
X182223200Y-105184598D01*
X182223207Y-105184587D01*
X182250500Y-105082727D01*
X182250500Y-104977273D01*
X182223207Y-104875413D01*
X182170480Y-104784087D01*
X182095913Y-104709520D01*
X182073414Y-104696530D01*
X188079500Y-104696530D01*
X188079500Y-104903469D01*
X188115157Y-105082726D01*
X188119870Y-105106420D01*
X188199059Y-105297598D01*
X188237010Y-105354396D01*
X188314024Y-105469657D01*
X188460342Y-105615975D01*
X188460345Y-105615977D01*
X188632402Y-105730941D01*
X188823580Y-105810130D01*
X189002992Y-105845817D01*
X189026530Y-105850499D01*
X189026534Y-105850500D01*
X189026535Y-105850500D01*
X189483466Y-105850500D01*
X189483467Y-105850499D01*
X189686420Y-105810130D01*
X189877598Y-105730941D01*
X190049655Y-105615977D01*
X190195977Y-105469655D01*
X190310941Y-105297598D01*
X190390130Y-105106420D01*
X190430500Y-104903465D01*
X190430500Y-104696535D01*
X190390130Y-104493580D01*
X190310941Y-104302402D01*
X190195977Y-104130345D01*
X190195975Y-104130342D01*
X190049657Y-103984024D01*
X189927986Y-103902727D01*
X189877598Y-103869059D01*
X189686420Y-103789870D01*
X189686412Y-103789868D01*
X189483469Y-103749500D01*
X189483465Y-103749500D01*
X189026535Y-103749500D01*
X189026530Y-103749500D01*
X188823587Y-103789868D01*
X188823579Y-103789870D01*
X188632403Y-103869058D01*
X188460342Y-103984024D01*
X188314024Y-104130342D01*
X188199058Y-104302403D01*
X188119870Y-104493579D01*
X188119868Y-104493587D01*
X188079500Y-104696530D01*
X182073414Y-104696530D01*
X182004587Y-104656793D01*
X181902727Y-104629500D01*
X181797273Y-104629500D01*
X181695413Y-104656793D01*
X181695410Y-104656794D01*
X181604085Y-104709521D01*
X181529521Y-104784085D01*
X181476794Y-104875410D01*
X181476793Y-104875413D01*
X181449500Y-104977273D01*
X166160109Y-104977273D01*
X166173207Y-104954587D01*
X166200500Y-104852727D01*
X166200500Y-104747273D01*
X166173207Y-104645413D01*
X166120480Y-104554087D01*
X166045913Y-104479520D01*
X165954587Y-104426793D01*
X165852727Y-104399500D01*
X165747273Y-104399500D01*
X165645413Y-104426793D01*
X165645410Y-104426794D01*
X165554085Y-104479521D01*
X165479521Y-104554085D01*
X165426794Y-104645410D01*
X165426793Y-104645413D01*
X165399500Y-104747273D01*
X135500500Y-104747273D01*
X135500500Y-103797273D01*
X182109500Y-103797273D01*
X182109500Y-103902727D01*
X182136793Y-104004587D01*
X182189520Y-104095913D01*
X182264087Y-104170480D01*
X182355413Y-104223207D01*
X182457273Y-104250500D01*
X182457275Y-104250500D01*
X182562725Y-104250500D01*
X182562727Y-104250500D01*
X182664587Y-104223207D01*
X182755913Y-104170480D01*
X182830480Y-104095913D01*
X182883207Y-104004587D01*
X182910500Y-103902727D01*
X182910500Y-103797273D01*
X182883207Y-103695413D01*
X182830480Y-103604087D01*
X182755913Y-103529520D01*
X182664587Y-103476793D01*
X182562727Y-103449500D01*
X182457273Y-103449500D01*
X182355413Y-103476793D01*
X182355410Y-103476794D01*
X182264085Y-103529521D01*
X182189521Y-103604085D01*
X182136794Y-103695410D01*
X182136793Y-103695413D01*
X182109500Y-103797273D01*
X135500500Y-103797273D01*
X135500500Y-101993982D01*
X144774500Y-101993982D01*
X144774500Y-102106018D01*
X144803497Y-102214237D01*
X144859515Y-102311263D01*
X144938737Y-102390485D01*
X145035763Y-102446503D01*
X145143982Y-102475500D01*
X145143984Y-102475500D01*
X145256016Y-102475500D01*
X145256018Y-102475500D01*
X145364237Y-102446503D01*
X145461263Y-102390485D01*
X145540485Y-102311263D01*
X145596503Y-102214237D01*
X145625500Y-102106018D01*
X145625500Y-101993982D01*
X145596503Y-101885763D01*
X145562734Y-101827273D01*
X157069500Y-101827273D01*
X157069500Y-101932727D01*
X157096793Y-102034587D01*
X157149520Y-102125913D01*
X157224087Y-102200480D01*
X157315413Y-102253207D01*
X157417273Y-102280500D01*
X157417275Y-102280500D01*
X157522725Y-102280500D01*
X157522727Y-102280500D01*
X157624587Y-102253207D01*
X157715913Y-102200480D01*
X157790480Y-102125913D01*
X157843207Y-102034587D01*
X157870500Y-101932727D01*
X157870500Y-101827273D01*
X157843207Y-101725413D01*
X157790480Y-101634087D01*
X157715913Y-101559520D01*
X157624587Y-101506793D01*
X157522727Y-101479500D01*
X157417273Y-101479500D01*
X157315413Y-101506793D01*
X157315410Y-101506794D01*
X157224085Y-101559521D01*
X157149521Y-101634085D01*
X157096794Y-101725410D01*
X157096793Y-101725413D01*
X157069500Y-101827273D01*
X145562734Y-101827273D01*
X145540485Y-101788737D01*
X145461263Y-101709515D01*
X145364237Y-101653497D01*
X145256018Y-101624500D01*
X145143982Y-101624500D01*
X145035763Y-101653497D01*
X145035760Y-101653498D01*
X144938740Y-101709513D01*
X144938734Y-101709517D01*
X144859517Y-101788734D01*
X144859513Y-101788740D01*
X144803498Y-101885760D01*
X144803497Y-101885763D01*
X144774500Y-101993982D01*
X135500500Y-101993982D01*
X135500500Y-100427273D01*
X145863500Y-100427273D01*
X145863500Y-100532727D01*
X145890793Y-100634587D01*
X145929822Y-100702188D01*
X145943521Y-100725914D01*
X146004926Y-100787319D01*
X146038411Y-100848642D01*
X146033427Y-100918334D01*
X146004926Y-100962681D01*
X145943521Y-101024085D01*
X145890794Y-101115410D01*
X145890793Y-101115413D01*
X145863500Y-101217273D01*
X145863500Y-101322727D01*
X145890793Y-101424587D01*
X145943520Y-101515913D01*
X146018087Y-101590480D01*
X146109413Y-101643207D01*
X146211273Y-101670500D01*
X146211275Y-101670500D01*
X146316725Y-101670500D01*
X146316727Y-101670500D01*
X146418587Y-101643207D01*
X146509913Y-101590480D01*
X146584480Y-101515913D01*
X146637207Y-101424587D01*
X146664500Y-101322727D01*
X146664500Y-101217273D01*
X146637207Y-101115413D01*
X146584480Y-101024087D01*
X146523074Y-100962681D01*
X146489589Y-100901358D01*
X146494573Y-100831666D01*
X146523074Y-100787319D01*
X146544807Y-100765586D01*
X146584480Y-100725913D01*
X146637207Y-100634587D01*
X146664500Y-100532727D01*
X146664500Y-100466946D01*
X147339391Y-100466946D01*
X147339391Y-100572400D01*
X147366684Y-100674260D01*
X147396506Y-100725914D01*
X147419412Y-100765587D01*
X147474803Y-100820978D01*
X147508288Y-100882301D01*
X147503304Y-100951993D01*
X147478061Y-100991270D01*
X147478237Y-100991405D01*
X147476621Y-100993510D01*
X147474803Y-100996340D01*
X147473289Y-100997853D01*
X147420562Y-101089178D01*
X147420561Y-101089181D01*
X147393268Y-101191041D01*
X147393268Y-101296495D01*
X147420561Y-101398355D01*
X147473288Y-101489681D01*
X147547855Y-101564248D01*
X147639181Y-101616975D01*
X147741041Y-101644268D01*
X147741043Y-101644268D01*
X147846493Y-101644268D01*
X147846495Y-101644268D01*
X147948355Y-101616975D01*
X148039681Y-101564248D01*
X148114248Y-101489681D01*
X148166975Y-101398355D01*
X148194268Y-101296495D01*
X148194268Y-101191041D01*
X148166975Y-101089181D01*
X148114248Y-100997855D01*
X148058856Y-100942463D01*
X148025371Y-100881140D01*
X148030355Y-100811448D01*
X148042094Y-100787942D01*
X148049344Y-100776612D01*
X148051183Y-100774773D01*
X171159500Y-100774773D01*
X171159500Y-100880227D01*
X171186793Y-100982087D01*
X171239520Y-101073413D01*
X171314087Y-101147980D01*
X171405413Y-101200707D01*
X171507273Y-101228000D01*
X171507275Y-101228000D01*
X171612725Y-101228000D01*
X171612727Y-101228000D01*
X171714587Y-101200707D01*
X171805913Y-101147980D01*
X171880480Y-101073413D01*
X171933207Y-100982087D01*
X171960500Y-100880227D01*
X171960500Y-100774773D01*
X171933207Y-100672913D01*
X171880480Y-100581587D01*
X171805913Y-100507020D01*
X171714587Y-100454293D01*
X171612727Y-100427000D01*
X171507273Y-100427000D01*
X171405413Y-100454293D01*
X171405410Y-100454294D01*
X171314085Y-100507021D01*
X171239521Y-100581585D01*
X171186794Y-100672910D01*
X171186793Y-100672913D01*
X171159500Y-100774773D01*
X148051183Y-100774773D01*
X148060371Y-100765586D01*
X148113098Y-100674260D01*
X148140391Y-100572400D01*
X148140391Y-100466946D01*
X148113098Y-100365086D01*
X148060371Y-100273760D01*
X147985804Y-100199193D01*
X147917088Y-100159520D01*
X147894480Y-100146467D01*
X147894479Y-100146466D01*
X147894478Y-100146466D01*
X147792618Y-100119173D01*
X147687164Y-100119173D01*
X147585304Y-100146466D01*
X147585301Y-100146467D01*
X147493976Y-100199194D01*
X147419412Y-100273758D01*
X147366685Y-100365083D01*
X147366684Y-100365086D01*
X147339391Y-100466946D01*
X146664500Y-100466946D01*
X146664500Y-100427273D01*
X146637207Y-100325413D01*
X146584480Y-100234087D01*
X146509913Y-100159520D01*
X146418587Y-100106793D01*
X146316727Y-100079500D01*
X146211273Y-100079500D01*
X146109413Y-100106793D01*
X146109410Y-100106794D01*
X146018085Y-100159521D01*
X145943521Y-100234085D01*
X145890794Y-100325410D01*
X145890793Y-100325413D01*
X145863500Y-100427273D01*
X135500500Y-100427273D01*
X135500500Y-99947273D01*
X157369500Y-99947273D01*
X157369500Y-100052727D01*
X157396793Y-100154587D01*
X157449520Y-100245913D01*
X157524087Y-100320480D01*
X157615413Y-100373207D01*
X157717273Y-100400500D01*
X157717275Y-100400500D01*
X157822725Y-100400500D01*
X157822727Y-100400500D01*
X157924587Y-100373207D01*
X158015913Y-100320480D01*
X158090480Y-100245913D01*
X158143207Y-100154587D01*
X158170500Y-100052727D01*
X158170500Y-99967273D01*
X166269500Y-99967273D01*
X166269500Y-100072727D01*
X166296793Y-100174587D01*
X166349520Y-100265913D01*
X166424087Y-100340480D01*
X166515413Y-100393207D01*
X166617273Y-100420500D01*
X166617275Y-100420500D01*
X166722725Y-100420500D01*
X166722727Y-100420500D01*
X166824587Y-100393207D01*
X166915913Y-100340480D01*
X166990480Y-100265913D01*
X167043207Y-100174587D01*
X167070500Y-100072727D01*
X167070500Y-99967273D01*
X167043207Y-99865413D01*
X166990480Y-99774087D01*
X166915913Y-99699520D01*
X166824587Y-99646793D01*
X166722727Y-99619500D01*
X166617273Y-99619500D01*
X166515413Y-99646793D01*
X166515410Y-99646794D01*
X166424085Y-99699521D01*
X166349521Y-99774085D01*
X166296794Y-99865410D01*
X166296793Y-99865413D01*
X166269500Y-99967273D01*
X158170500Y-99967273D01*
X158170500Y-99947273D01*
X158143207Y-99845413D01*
X158090480Y-99754087D01*
X158015913Y-99679520D01*
X157924587Y-99626793D01*
X157822727Y-99599500D01*
X157717273Y-99599500D01*
X157615413Y-99626793D01*
X157615410Y-99626794D01*
X157524085Y-99679521D01*
X157449521Y-99754085D01*
X157396794Y-99845410D01*
X157396793Y-99845413D01*
X157369500Y-99947273D01*
X135500500Y-99947273D01*
X135500500Y-99107273D01*
X163174500Y-99107273D01*
X163174500Y-99212727D01*
X163201793Y-99314587D01*
X163254520Y-99405913D01*
X163329087Y-99480480D01*
X163420413Y-99533207D01*
X163522273Y-99560500D01*
X163522275Y-99560500D01*
X163627725Y-99560500D01*
X163627727Y-99560500D01*
X163729587Y-99533207D01*
X163820913Y-99480480D01*
X163895480Y-99405913D01*
X163948207Y-99314587D01*
X163975500Y-99212727D01*
X163975500Y-99107273D01*
X163948207Y-99005413D01*
X163895480Y-98914087D01*
X163820913Y-98839520D01*
X163729587Y-98786793D01*
X163627727Y-98759500D01*
X163522273Y-98759500D01*
X163420413Y-98786793D01*
X163420410Y-98786794D01*
X163329085Y-98839521D01*
X163254521Y-98914085D01*
X163201794Y-99005410D01*
X163201793Y-99005413D01*
X163174500Y-99107273D01*
X135500500Y-99107273D01*
X135500500Y-97772273D01*
X149804500Y-97772273D01*
X149804500Y-97877727D01*
X149824000Y-97950500D01*
X149831793Y-97979586D01*
X149831794Y-97979589D01*
X149839154Y-97992336D01*
X149884520Y-98070913D01*
X149959087Y-98145480D01*
X150050413Y-98198207D01*
X150152273Y-98225500D01*
X150152275Y-98225500D01*
X150257725Y-98225500D01*
X150257727Y-98225500D01*
X150359587Y-98198207D01*
X150450913Y-98145480D01*
X150525480Y-98070913D01*
X150578207Y-97979587D01*
X150603046Y-97886884D01*
X152974500Y-97886884D01*
X152974500Y-97992337D01*
X153001793Y-98094197D01*
X153001794Y-98094200D01*
X153011344Y-98110741D01*
X153054520Y-98185524D01*
X153129087Y-98260091D01*
X153220413Y-98312818D01*
X153322273Y-98340111D01*
X153322275Y-98340111D01*
X153427725Y-98340111D01*
X153427727Y-98340111D01*
X153529587Y-98312818D01*
X153620913Y-98260091D01*
X153695480Y-98185524D01*
X153748207Y-98094198D01*
X153775500Y-97992338D01*
X153775500Y-97886884D01*
X153748207Y-97785024D01*
X153704990Y-97710171D01*
X153688519Y-97642276D01*
X153711371Y-97576249D01*
X153724688Y-97560504D01*
X153747580Y-97537613D01*
X153800307Y-97446287D01*
X153827600Y-97344427D01*
X153827600Y-97238973D01*
X153800307Y-97137113D01*
X153747580Y-97045787D01*
X153673013Y-96971220D01*
X153581687Y-96918493D01*
X153479827Y-96891200D01*
X153374373Y-96891200D01*
X153272513Y-96918493D01*
X153272510Y-96918494D01*
X153181185Y-96971221D01*
X153106621Y-97045785D01*
X153053894Y-97137110D01*
X153053893Y-97137113D01*
X153026600Y-97238973D01*
X153026600Y-97344427D01*
X153053893Y-97446287D01*
X153097107Y-97521137D01*
X153113580Y-97589035D01*
X153090728Y-97655062D01*
X153077403Y-97670815D01*
X153054520Y-97693698D01*
X153001794Y-97785021D01*
X153001793Y-97785024D01*
X152974500Y-97886884D01*
X150603046Y-97886884D01*
X150605500Y-97877727D01*
X150605500Y-97772273D01*
X150578207Y-97670413D01*
X150525480Y-97579087D01*
X150450913Y-97504520D01*
X150359587Y-97451793D01*
X150257727Y-97424500D01*
X150152273Y-97424500D01*
X150050413Y-97451793D01*
X150050410Y-97451794D01*
X149959085Y-97504521D01*
X149884521Y-97579085D01*
X149831794Y-97670410D01*
X149831793Y-97670413D01*
X149804500Y-97772273D01*
X135500500Y-97772273D01*
X135500500Y-96577273D01*
X145089500Y-96577273D01*
X145089500Y-96682727D01*
X145116793Y-96784587D01*
X145169520Y-96875913D01*
X145244087Y-96950480D01*
X145335413Y-97003207D01*
X145437273Y-97030500D01*
X145437275Y-97030500D01*
X145542725Y-97030500D01*
X145542727Y-97030500D01*
X145644587Y-97003207D01*
X145735913Y-96950480D01*
X145810480Y-96875913D01*
X145863207Y-96784587D01*
X145890500Y-96682727D01*
X145890500Y-96577273D01*
X145863207Y-96475413D01*
X145810480Y-96384087D01*
X145735913Y-96309520D01*
X145644587Y-96256793D01*
X145542727Y-96229500D01*
X145437273Y-96229500D01*
X145335413Y-96256793D01*
X145335410Y-96256794D01*
X145244085Y-96309521D01*
X145169521Y-96384085D01*
X145116794Y-96475410D01*
X145116793Y-96475413D01*
X145089500Y-96577273D01*
X135500500Y-96577273D01*
X135500500Y-95867273D01*
X149089500Y-95867273D01*
X149089500Y-95972727D01*
X149116793Y-96074587D01*
X149169520Y-96165913D01*
X149244087Y-96240480D01*
X149335413Y-96293207D01*
X149437273Y-96320500D01*
X149437275Y-96320500D01*
X149542725Y-96320500D01*
X149542727Y-96320500D01*
X149644587Y-96293207D01*
X149735913Y-96240480D01*
X149783850Y-96192543D01*
X154744241Y-96192543D01*
X154744241Y-96297997D01*
X154771534Y-96399857D01*
X154824261Y-96491183D01*
X154898828Y-96565750D01*
X154974157Y-96609241D01*
X154997193Y-96622541D01*
X154996324Y-96624045D01*
X155043035Y-96661681D01*
X155065105Y-96727973D01*
X155047831Y-96795674D01*
X155003185Y-96839795D01*
X154927854Y-96883288D01*
X154853289Y-96957853D01*
X154800562Y-97049178D01*
X154800561Y-97049181D01*
X154773268Y-97151041D01*
X154773268Y-97256495D01*
X154800561Y-97358355D01*
X154851328Y-97446287D01*
X154853289Y-97449682D01*
X154890926Y-97487319D01*
X154924411Y-97548642D01*
X154919427Y-97618334D01*
X154890926Y-97662681D01*
X154839521Y-97714085D01*
X154786794Y-97805410D01*
X154786793Y-97805413D01*
X154759500Y-97907273D01*
X154759500Y-98012727D01*
X154785763Y-98110741D01*
X154786793Y-98114586D01*
X154786794Y-98114589D01*
X154787205Y-98115301D01*
X154839520Y-98205913D01*
X154914087Y-98280480D01*
X155005413Y-98333207D01*
X155107273Y-98360500D01*
X155107275Y-98360500D01*
X155212725Y-98360500D01*
X155212727Y-98360500D01*
X155314587Y-98333207D01*
X155405913Y-98280480D01*
X155480480Y-98205913D01*
X155515227Y-98145730D01*
X188024500Y-98145730D01*
X188024500Y-99454269D01*
X188027353Y-99484699D01*
X188027353Y-99484701D01*
X188067524Y-99599500D01*
X188072207Y-99612882D01*
X188152850Y-99722150D01*
X188262118Y-99802793D01*
X188304845Y-99817744D01*
X188390299Y-99847646D01*
X188420730Y-99850500D01*
X188420734Y-99850500D01*
X189979270Y-99850500D01*
X190009699Y-99847646D01*
X190009701Y-99847646D01*
X190073790Y-99825219D01*
X190137882Y-99802793D01*
X190247150Y-99722150D01*
X190327793Y-99612882D01*
X190350219Y-99548790D01*
X190372646Y-99484701D01*
X190372646Y-99484699D01*
X190375500Y-99454269D01*
X190375500Y-98145730D01*
X190372646Y-98115300D01*
X190372646Y-98115298D01*
X190336753Y-98012725D01*
X190327793Y-97987118D01*
X190247150Y-97877850D01*
X190137882Y-97797207D01*
X190137880Y-97797206D01*
X190009700Y-97752353D01*
X189979270Y-97749500D01*
X189979266Y-97749500D01*
X188420734Y-97749500D01*
X188420730Y-97749500D01*
X188390300Y-97752353D01*
X188390298Y-97752353D01*
X188262119Y-97797206D01*
X188262117Y-97797207D01*
X188152850Y-97877850D01*
X188072207Y-97987117D01*
X188072206Y-97987119D01*
X188027353Y-98115298D01*
X188027353Y-98115300D01*
X188024500Y-98145730D01*
X155515227Y-98145730D01*
X155533207Y-98114587D01*
X155560500Y-98012727D01*
X155560500Y-97907273D01*
X155533207Y-97805413D01*
X155480480Y-97714087D01*
X155442842Y-97676449D01*
X155409357Y-97615126D01*
X155414341Y-97545434D01*
X155442842Y-97501087D01*
X155456610Y-97487319D01*
X155494248Y-97449681D01*
X155532107Y-97384108D01*
X182149500Y-97384108D01*
X182149500Y-97515892D01*
X182165672Y-97576249D01*
X182183608Y-97643187D01*
X182202812Y-97676449D01*
X182249500Y-97757314D01*
X182342686Y-97850500D01*
X182456814Y-97916392D01*
X182584108Y-97950500D01*
X182584110Y-97950500D01*
X182715890Y-97950500D01*
X182715892Y-97950500D01*
X182843186Y-97916392D01*
X182957314Y-97850500D01*
X183050500Y-97757314D01*
X183116392Y-97643186D01*
X183150500Y-97515892D01*
X183150500Y-97384108D01*
X183116392Y-97256814D01*
X183050500Y-97142686D01*
X183040495Y-97132681D01*
X183007010Y-97071358D01*
X183011994Y-97001666D01*
X183040495Y-96957319D01*
X183047336Y-96950478D01*
X183065500Y-96932314D01*
X183131392Y-96818186D01*
X183165500Y-96690892D01*
X183165500Y-96559108D01*
X183131392Y-96431814D01*
X183065500Y-96317686D01*
X182972314Y-96224500D01*
X182915250Y-96191554D01*
X182858187Y-96158608D01*
X182794539Y-96141554D01*
X182730892Y-96124500D01*
X182599108Y-96124500D01*
X182471812Y-96158608D01*
X182357686Y-96224500D01*
X182357683Y-96224502D01*
X182264502Y-96317683D01*
X182264500Y-96317686D01*
X182198608Y-96431812D01*
X182164500Y-96559108D01*
X182164500Y-96690891D01*
X182198608Y-96818187D01*
X182211084Y-96839795D01*
X182264500Y-96932314D01*
X182264502Y-96932316D01*
X182264504Y-96932318D01*
X182274507Y-96942322D01*
X182307990Y-97003646D01*
X182303003Y-97073337D01*
X182274506Y-97117680D01*
X182249500Y-97142686D01*
X182183608Y-97256812D01*
X182160132Y-97344427D01*
X182149500Y-97384108D01*
X155532107Y-97384108D01*
X155546975Y-97358355D01*
X155574268Y-97256495D01*
X155574268Y-97151041D01*
X155546975Y-97049181D01*
X155494248Y-96957855D01*
X155419681Y-96883288D01*
X155328355Y-96830561D01*
X155321316Y-96826497D01*
X155322183Y-96824994D01*
X155275467Y-96787348D01*
X155253403Y-96721053D01*
X155270683Y-96653354D01*
X155315322Y-96609242D01*
X155390654Y-96565750D01*
X155465221Y-96491183D01*
X155517948Y-96399857D01*
X155545241Y-96297997D01*
X155545241Y-96192543D01*
X155517948Y-96090683D01*
X155465221Y-95999357D01*
X155390654Y-95924790D01*
X155299328Y-95872063D01*
X155197468Y-95844770D01*
X155092014Y-95844770D01*
X154990154Y-95872063D01*
X154990151Y-95872064D01*
X154898826Y-95924791D01*
X154824262Y-95999355D01*
X154771535Y-96090680D01*
X154771534Y-96090683D01*
X154744241Y-96192543D01*
X149783850Y-96192543D01*
X149810480Y-96165913D01*
X149863207Y-96074587D01*
X149890500Y-95972727D01*
X149890500Y-95867273D01*
X149863207Y-95765413D01*
X149810480Y-95674087D01*
X149735913Y-95599520D01*
X149644587Y-95546793D01*
X149542727Y-95519500D01*
X149437273Y-95519500D01*
X149335413Y-95546793D01*
X149335410Y-95546794D01*
X149244085Y-95599521D01*
X149169521Y-95674085D01*
X149116794Y-95765410D01*
X149116793Y-95765413D01*
X149089500Y-95867273D01*
X135500500Y-95867273D01*
X135500500Y-94737273D01*
X149089500Y-94737273D01*
X149089500Y-94842727D01*
X149116793Y-94944587D01*
X149169520Y-95035913D01*
X149244087Y-95110480D01*
X149335413Y-95163207D01*
X149437273Y-95190500D01*
X149437275Y-95190500D01*
X149542725Y-95190500D01*
X149542727Y-95190500D01*
X149644587Y-95163207D01*
X149735913Y-95110480D01*
X149810480Y-95035913D01*
X149863207Y-94944587D01*
X149890500Y-94842727D01*
X149890500Y-94789518D01*
X153989718Y-94789518D01*
X153989718Y-94901554D01*
X154006948Y-94965855D01*
X154018715Y-95009772D01*
X154018716Y-95009775D01*
X154036408Y-95040419D01*
X154074733Y-95106799D01*
X154153955Y-95186021D01*
X154250981Y-95242039D01*
X154359200Y-95271036D01*
X154359202Y-95271036D01*
X154471234Y-95271036D01*
X154471236Y-95271036D01*
X154579455Y-95242039D01*
X154594060Y-95233607D01*
X178138296Y-95233607D01*
X178138296Y-95339061D01*
X178165589Y-95440921D01*
X178218316Y-95532247D01*
X178292883Y-95606814D01*
X178384209Y-95659541D01*
X178486069Y-95686834D01*
X178486071Y-95686834D01*
X178591521Y-95686834D01*
X178591523Y-95686834D01*
X178693383Y-95659541D01*
X178784709Y-95606814D01*
X178859276Y-95532247D01*
X178912003Y-95440921D01*
X178939296Y-95339061D01*
X178939296Y-95233607D01*
X178912003Y-95131747D01*
X178859276Y-95040421D01*
X178784709Y-94965854D01*
X178693383Y-94913127D01*
X178591523Y-94885834D01*
X178486069Y-94885834D01*
X178384209Y-94913127D01*
X178384206Y-94913128D01*
X178292881Y-94965855D01*
X178218317Y-95040419D01*
X178165590Y-95131744D01*
X178165589Y-95131747D01*
X178138296Y-95233607D01*
X154594060Y-95233607D01*
X154676481Y-95186021D01*
X154755703Y-95106799D01*
X154811721Y-95009773D01*
X154840718Y-94901554D01*
X154840718Y-94789518D01*
X154829204Y-94746547D01*
X154830866Y-94676699D01*
X154870027Y-94618836D01*
X154934256Y-94591331D01*
X154981065Y-94594678D01*
X155058773Y-94615500D01*
X155058776Y-94615500D01*
X155164225Y-94615500D01*
X155164227Y-94615500D01*
X155266087Y-94588207D01*
X155357413Y-94535480D01*
X155431980Y-94460913D01*
X155484707Y-94369587D01*
X155512000Y-94267727D01*
X155512000Y-94162273D01*
X155484707Y-94060413D01*
X155431980Y-93969087D01*
X155357413Y-93894520D01*
X155269882Y-93843984D01*
X155269879Y-93843982D01*
X179124500Y-93843982D01*
X179124500Y-93956018D01*
X179153497Y-94064237D01*
X179209515Y-94161263D01*
X179288737Y-94240485D01*
X179385763Y-94296503D01*
X179493982Y-94325500D01*
X179493984Y-94325500D01*
X179606016Y-94325500D01*
X179606018Y-94325500D01*
X179714237Y-94296503D01*
X179811263Y-94240485D01*
X179890485Y-94161263D01*
X179946503Y-94064237D01*
X179975500Y-93956018D01*
X179975500Y-93843982D01*
X179946503Y-93735763D01*
X179923852Y-93696530D01*
X188024500Y-93696530D01*
X188024500Y-93903469D01*
X188064868Y-94106412D01*
X188064870Y-94106420D01*
X188143604Y-94296501D01*
X188144059Y-94297598D01*
X188188043Y-94363425D01*
X188259024Y-94469657D01*
X188405342Y-94615975D01*
X188405345Y-94615977D01*
X188577402Y-94730941D01*
X188768580Y-94810130D01*
X188971530Y-94850499D01*
X188971534Y-94850500D01*
X188971535Y-94850500D01*
X189428466Y-94850500D01*
X189428467Y-94850499D01*
X189631420Y-94810130D01*
X189822598Y-94730941D01*
X189994655Y-94615977D01*
X190140977Y-94469655D01*
X190255941Y-94297598D01*
X190335130Y-94106420D01*
X190375500Y-93903465D01*
X190375500Y-93696535D01*
X190335130Y-93493580D01*
X190255941Y-93302402D01*
X190140977Y-93130345D01*
X190140975Y-93130342D01*
X189994657Y-92984024D01*
X189847822Y-92885913D01*
X189822598Y-92869059D01*
X189631420Y-92789870D01*
X189631412Y-92789868D01*
X189428469Y-92749500D01*
X189428465Y-92749500D01*
X188971535Y-92749500D01*
X188971530Y-92749500D01*
X188768587Y-92789868D01*
X188768579Y-92789870D01*
X188577403Y-92869058D01*
X188405342Y-92984024D01*
X188259024Y-93130342D01*
X188144058Y-93302403D01*
X188064870Y-93493579D01*
X188064868Y-93493587D01*
X188024500Y-93696530D01*
X179923852Y-93696530D01*
X179890485Y-93638737D01*
X179811263Y-93559515D01*
X179714237Y-93503497D01*
X179606018Y-93474500D01*
X179493982Y-93474500D01*
X179385763Y-93503497D01*
X179385760Y-93503498D01*
X179288740Y-93559513D01*
X179288734Y-93559517D01*
X179209517Y-93638734D01*
X179209513Y-93638740D01*
X179153498Y-93735760D01*
X179153497Y-93735763D01*
X179124500Y-93843982D01*
X155269879Y-93843982D01*
X155266089Y-93841794D01*
X155266088Y-93841793D01*
X155266087Y-93841793D01*
X155164227Y-93814500D01*
X155058773Y-93814500D01*
X154956913Y-93841793D01*
X154956910Y-93841794D01*
X154865585Y-93894521D01*
X154791021Y-93969085D01*
X154738294Y-94060410D01*
X154738293Y-94060413D01*
X154711000Y-94162273D01*
X154711000Y-94267728D01*
X154717926Y-94293576D01*
X154716263Y-94363425D01*
X154677100Y-94421288D01*
X154612871Y-94448791D01*
X154566058Y-94445443D01*
X154515300Y-94431842D01*
X154471236Y-94420036D01*
X154359200Y-94420036D01*
X154250981Y-94449033D01*
X154250978Y-94449034D01*
X154153958Y-94505049D01*
X154153952Y-94505053D01*
X154074735Y-94584270D01*
X154074731Y-94584276D01*
X154018716Y-94681296D01*
X154018715Y-94681299D01*
X153989718Y-94789518D01*
X149890500Y-94789518D01*
X149890500Y-94737273D01*
X149863207Y-94635413D01*
X149810480Y-94544087D01*
X149735913Y-94469520D01*
X149644587Y-94416793D01*
X149542727Y-94389500D01*
X149437273Y-94389500D01*
X149335413Y-94416793D01*
X149335410Y-94416794D01*
X149244085Y-94469521D01*
X149169521Y-94544085D01*
X149116794Y-94635410D01*
X149116793Y-94635413D01*
X149089500Y-94737273D01*
X135500500Y-94737273D01*
X135500500Y-92187273D01*
X159809500Y-92187273D01*
X159809500Y-92292727D01*
X159836793Y-92394587D01*
X159889520Y-92485913D01*
X159964087Y-92560480D01*
X160055413Y-92613207D01*
X160157273Y-92640500D01*
X160157275Y-92640500D01*
X160262725Y-92640500D01*
X160262727Y-92640500D01*
X160364587Y-92613207D01*
X160409506Y-92587273D01*
X167020749Y-92587273D01*
X167020749Y-92692727D01*
X167048042Y-92794587D01*
X167100769Y-92885913D01*
X167175336Y-92960480D01*
X167266662Y-93013207D01*
X167368522Y-93040500D01*
X167368524Y-93040500D01*
X167473974Y-93040500D01*
X167473976Y-93040500D01*
X167575836Y-93013207D01*
X167667162Y-92960480D01*
X167741729Y-92885913D01*
X167794456Y-92794587D01*
X167821749Y-92692727D01*
X167821749Y-92587273D01*
X167794456Y-92485413D01*
X167741729Y-92394087D01*
X167667162Y-92319520D01*
X167575836Y-92266793D01*
X167473976Y-92239500D01*
X167368522Y-92239500D01*
X167266662Y-92266793D01*
X167266659Y-92266794D01*
X167175334Y-92319521D01*
X167100770Y-92394085D01*
X167048043Y-92485410D01*
X167048042Y-92485413D01*
X167020749Y-92587273D01*
X160409506Y-92587273D01*
X160455913Y-92560480D01*
X160530480Y-92485913D01*
X160583207Y-92394587D01*
X160610500Y-92292727D01*
X160610500Y-92187273D01*
X160583207Y-92085413D01*
X160532319Y-91997273D01*
X175109500Y-91997273D01*
X175109500Y-92102727D01*
X175136793Y-92204587D01*
X175189520Y-92295913D01*
X175264087Y-92370480D01*
X175355413Y-92423207D01*
X175457273Y-92450500D01*
X175457275Y-92450500D01*
X175562725Y-92450500D01*
X175562727Y-92450500D01*
X175664587Y-92423207D01*
X175755913Y-92370480D01*
X175830480Y-92295913D01*
X175883207Y-92204587D01*
X175910500Y-92102727D01*
X175910500Y-91997273D01*
X175883207Y-91895413D01*
X175830480Y-91804087D01*
X175755913Y-91729520D01*
X175664587Y-91676793D01*
X175562727Y-91649500D01*
X175457273Y-91649500D01*
X175355413Y-91676793D01*
X175355410Y-91676794D01*
X175264085Y-91729521D01*
X175189521Y-91804085D01*
X175136794Y-91895410D01*
X175136793Y-91895413D01*
X175109500Y-91997273D01*
X160532319Y-91997273D01*
X160530480Y-91994087D01*
X160455913Y-91919520D01*
X160364587Y-91866793D01*
X160262727Y-91839500D01*
X160157273Y-91839500D01*
X160055413Y-91866793D01*
X160055410Y-91866794D01*
X159964085Y-91919521D01*
X159889521Y-91994085D01*
X159836794Y-92085410D01*
X159836793Y-92085413D01*
X159809500Y-92187273D01*
X135500500Y-92187273D01*
X135500500Y-90992273D01*
X168219500Y-90992273D01*
X168219500Y-91097727D01*
X168246793Y-91199587D01*
X168299520Y-91290913D01*
X168374087Y-91365480D01*
X168465413Y-91418207D01*
X168567273Y-91445500D01*
X168567275Y-91445500D01*
X168672725Y-91445500D01*
X168672727Y-91445500D01*
X168774587Y-91418207D01*
X168865913Y-91365480D01*
X168940480Y-91290913D01*
X168993207Y-91199587D01*
X168994026Y-91196530D01*
X188024500Y-91196530D01*
X188024500Y-91403469D01*
X188032861Y-91445500D01*
X188064870Y-91606420D01*
X188144059Y-91797598D01*
X188148395Y-91804087D01*
X188259024Y-91969657D01*
X188405342Y-92115975D01*
X188405345Y-92115977D01*
X188577402Y-92230941D01*
X188768580Y-92310130D01*
X188971530Y-92350499D01*
X188971534Y-92350500D01*
X188971535Y-92350500D01*
X189428466Y-92350500D01*
X189428467Y-92350499D01*
X189631420Y-92310130D01*
X189822598Y-92230941D01*
X189994655Y-92115977D01*
X190140977Y-91969655D01*
X190255941Y-91797598D01*
X190335130Y-91606420D01*
X190375500Y-91403465D01*
X190375500Y-91196535D01*
X190335130Y-90993580D01*
X190255941Y-90802402D01*
X190140977Y-90630345D01*
X190140975Y-90630342D01*
X189994657Y-90484024D01*
X189858735Y-90393205D01*
X189822598Y-90369059D01*
X189631420Y-90289870D01*
X189631412Y-90289868D01*
X189428469Y-90249500D01*
X189428465Y-90249500D01*
X188971535Y-90249500D01*
X188971530Y-90249500D01*
X188768587Y-90289868D01*
X188768579Y-90289870D01*
X188577403Y-90369058D01*
X188405342Y-90484024D01*
X188259024Y-90630342D01*
X188144058Y-90802403D01*
X188064870Y-90993579D01*
X188064868Y-90993587D01*
X188024500Y-91196530D01*
X168994026Y-91196530D01*
X169020500Y-91097727D01*
X169020500Y-90992273D01*
X168993207Y-90890413D01*
X168940480Y-90799087D01*
X168865913Y-90724520D01*
X168774587Y-90671793D01*
X168672727Y-90644500D01*
X168567273Y-90644500D01*
X168465413Y-90671793D01*
X168465410Y-90671794D01*
X168374085Y-90724521D01*
X168299521Y-90799085D01*
X168246794Y-90890410D01*
X168246793Y-90890413D01*
X168219500Y-90992273D01*
X135500500Y-90992273D01*
X135500500Y-89967273D01*
X159509500Y-89967273D01*
X159509500Y-90072727D01*
X159536793Y-90174587D01*
X159589520Y-90265913D01*
X159664087Y-90340480D01*
X159755413Y-90393207D01*
X159857273Y-90420500D01*
X159857275Y-90420500D01*
X159962725Y-90420500D01*
X159962727Y-90420500D01*
X160064587Y-90393207D01*
X160155913Y-90340480D01*
X160230480Y-90265913D01*
X160283207Y-90174587D01*
X160310500Y-90072727D01*
X160310500Y-89967273D01*
X160283207Y-89865413D01*
X160230480Y-89774087D01*
X160155913Y-89699520D01*
X160064587Y-89646793D01*
X159962727Y-89619500D01*
X159857273Y-89619500D01*
X159755413Y-89646793D01*
X159755410Y-89646794D01*
X159664085Y-89699521D01*
X159589521Y-89774085D01*
X159536794Y-89865410D01*
X159536793Y-89865413D01*
X159509500Y-89967273D01*
X135500500Y-89967273D01*
X135500500Y-87845730D01*
X143794500Y-87845730D01*
X143794500Y-89154269D01*
X143797353Y-89184699D01*
X143797353Y-89184701D01*
X143840259Y-89307316D01*
X143842207Y-89312882D01*
X143922850Y-89422150D01*
X144032118Y-89502793D01*
X144074845Y-89517744D01*
X144160299Y-89547646D01*
X144190730Y-89550500D01*
X144190734Y-89550500D01*
X145799270Y-89550500D01*
X145829699Y-89547646D01*
X145829701Y-89547646D01*
X145893790Y-89525219D01*
X145957882Y-89502793D01*
X146067150Y-89422150D01*
X146122411Y-89347273D01*
X173959500Y-89347273D01*
X173959500Y-89452727D01*
X173986793Y-89554587D01*
X174039520Y-89645913D01*
X174114087Y-89720480D01*
X174205413Y-89773207D01*
X174307273Y-89800500D01*
X174307275Y-89800500D01*
X174412725Y-89800500D01*
X174412727Y-89800500D01*
X174514587Y-89773207D01*
X174605913Y-89720480D01*
X174680480Y-89645913D01*
X174733207Y-89554587D01*
X174760500Y-89452727D01*
X174760500Y-89347273D01*
X174733207Y-89245413D01*
X174680480Y-89154087D01*
X174605913Y-89079520D01*
X174514587Y-89026793D01*
X174412727Y-88999500D01*
X174307273Y-88999500D01*
X174205413Y-89026793D01*
X174205410Y-89026794D01*
X174114085Y-89079521D01*
X174039521Y-89154085D01*
X173986794Y-89245410D01*
X173986793Y-89245413D01*
X173959500Y-89347273D01*
X146122411Y-89347273D01*
X146147793Y-89312882D01*
X146192646Y-89184699D01*
X146195500Y-89154266D01*
X146195500Y-88334108D01*
X182309500Y-88334108D01*
X182309500Y-88465891D01*
X182343608Y-88593187D01*
X182376554Y-88650250D01*
X182409500Y-88707314D01*
X182409502Y-88707316D01*
X182475256Y-88773070D01*
X182508741Y-88834393D01*
X182503757Y-88904085D01*
X182492710Y-88924044D01*
X182493584Y-88924549D01*
X182489521Y-88931585D01*
X182489520Y-88931587D01*
X182467638Y-88969487D01*
X182436794Y-89022910D01*
X182436793Y-89022913D01*
X182409500Y-89124773D01*
X182409500Y-89230227D01*
X182436793Y-89332087D01*
X182489520Y-89423413D01*
X182564087Y-89497980D01*
X182655413Y-89550707D01*
X182757273Y-89578000D01*
X182757275Y-89578000D01*
X182862725Y-89578000D01*
X182862727Y-89578000D01*
X182964587Y-89550707D01*
X183055913Y-89497980D01*
X183130480Y-89423413D01*
X183183207Y-89332087D01*
X183210500Y-89230227D01*
X183210500Y-89124773D01*
X183183207Y-89022913D01*
X183131935Y-88934108D01*
X183499500Y-88934108D01*
X183499500Y-89065891D01*
X183533608Y-89193187D01*
X183563760Y-89245410D01*
X183599500Y-89307314D01*
X183692686Y-89400500D01*
X183806814Y-89466392D01*
X183934108Y-89500500D01*
X183934110Y-89500500D01*
X184065890Y-89500500D01*
X184065892Y-89500500D01*
X184193186Y-89466392D01*
X184307314Y-89400500D01*
X184400500Y-89307314D01*
X184466392Y-89193186D01*
X184500500Y-89065892D01*
X184500500Y-88934108D01*
X184466392Y-88806814D01*
X184402719Y-88696530D01*
X188024500Y-88696530D01*
X188024500Y-88903469D01*
X188059519Y-89079520D01*
X188064870Y-89106420D01*
X188144059Y-89297598D01*
X188154272Y-89312883D01*
X188259024Y-89469657D01*
X188405342Y-89615975D01*
X188405345Y-89615977D01*
X188577402Y-89730941D01*
X188768580Y-89810130D01*
X188971530Y-89850499D01*
X188971534Y-89850500D01*
X188971535Y-89850500D01*
X189428466Y-89850500D01*
X189428467Y-89850499D01*
X189631420Y-89810130D01*
X189822598Y-89730941D01*
X189994655Y-89615977D01*
X190140977Y-89469655D01*
X190255941Y-89297598D01*
X190335130Y-89106420D01*
X190375500Y-88903465D01*
X190375500Y-88696535D01*
X190335130Y-88493580D01*
X190255941Y-88302402D01*
X190140977Y-88130345D01*
X190140975Y-88130342D01*
X189994657Y-87984024D01*
X189868156Y-87899500D01*
X189822598Y-87869059D01*
X189692815Y-87815301D01*
X189631420Y-87789870D01*
X189631412Y-87789868D01*
X189428469Y-87749500D01*
X189428465Y-87749500D01*
X188971535Y-87749500D01*
X188971530Y-87749500D01*
X188768587Y-87789868D01*
X188768579Y-87789870D01*
X188577403Y-87869058D01*
X188405342Y-87984024D01*
X188259024Y-88130342D01*
X188144058Y-88302403D01*
X188064870Y-88493579D01*
X188064868Y-88493587D01*
X188024500Y-88696530D01*
X184402719Y-88696530D01*
X184400500Y-88692686D01*
X184307314Y-88599500D01*
X184250250Y-88566554D01*
X184193187Y-88533608D01*
X184129539Y-88516554D01*
X184065892Y-88499500D01*
X183934108Y-88499500D01*
X183806812Y-88533608D01*
X183692686Y-88599500D01*
X183692683Y-88599502D01*
X183599502Y-88692683D01*
X183599500Y-88692686D01*
X183533608Y-88806812D01*
X183499500Y-88934108D01*
X183131935Y-88934108D01*
X183130480Y-88931587D01*
X183129770Y-88930877D01*
X183125281Y-88923171D01*
X183118720Y-88896583D01*
X183108852Y-88871040D01*
X183110471Y-88863154D01*
X183108542Y-88855336D01*
X183117398Y-88829420D01*
X183122906Y-88802598D01*
X183129707Y-88793401D01*
X183131136Y-88789220D01*
X183135155Y-88786033D01*
X183144737Y-88773076D01*
X183210500Y-88707314D01*
X183276392Y-88593186D01*
X183310500Y-88465892D01*
X183310500Y-88334108D01*
X183276392Y-88206814D01*
X183210500Y-88092686D01*
X183117314Y-87999500D01*
X183060250Y-87966554D01*
X183003187Y-87933608D01*
X182939539Y-87916554D01*
X182875892Y-87899500D01*
X182744108Y-87899500D01*
X182616812Y-87933608D01*
X182502686Y-87999500D01*
X182502683Y-87999502D01*
X182409502Y-88092683D01*
X182409500Y-88092686D01*
X182343608Y-88206812D01*
X182309500Y-88334108D01*
X146195500Y-88334108D01*
X146195500Y-87845734D01*
X146192646Y-87815301D01*
X146192646Y-87815300D01*
X146192646Y-87815298D01*
X146147793Y-87687119D01*
X146147792Y-87687117D01*
X146067150Y-87577850D01*
X145957882Y-87497207D01*
X145957880Y-87497206D01*
X145829700Y-87452353D01*
X145799270Y-87449500D01*
X145799266Y-87449500D01*
X144190734Y-87449500D01*
X144190730Y-87449500D01*
X144160300Y-87452353D01*
X144160298Y-87452353D01*
X144032119Y-87497206D01*
X144032117Y-87497207D01*
X143922850Y-87577850D01*
X143842207Y-87687117D01*
X143842206Y-87687119D01*
X143797353Y-87815298D01*
X143797353Y-87815300D01*
X143794500Y-87845730D01*
X135500500Y-87845730D01*
X135500500Y-86196530D01*
X188024500Y-86196530D01*
X188024500Y-86403469D01*
X188064868Y-86606412D01*
X188064870Y-86606420D01*
X188144058Y-86797596D01*
X188259024Y-86969657D01*
X188405342Y-87115975D01*
X188405345Y-87115977D01*
X188577402Y-87230941D01*
X188768580Y-87310130D01*
X188971530Y-87350499D01*
X188971534Y-87350500D01*
X188971535Y-87350500D01*
X189428466Y-87350500D01*
X189428467Y-87350499D01*
X189631420Y-87310130D01*
X189822598Y-87230941D01*
X189994655Y-87115977D01*
X190140977Y-86969655D01*
X190255941Y-86797598D01*
X190335130Y-86606420D01*
X190375500Y-86403465D01*
X190375500Y-86196535D01*
X190335130Y-85993580D01*
X190255941Y-85802402D01*
X190140977Y-85630345D01*
X190140975Y-85630342D01*
X189994657Y-85484024D01*
X189908626Y-85426541D01*
X189822598Y-85369059D01*
X189631420Y-85289870D01*
X189631412Y-85289868D01*
X189428469Y-85249500D01*
X189428465Y-85249500D01*
X188971535Y-85249500D01*
X188971530Y-85249500D01*
X188768587Y-85289868D01*
X188768579Y-85289870D01*
X188577403Y-85369058D01*
X188405342Y-85484024D01*
X188259024Y-85630342D01*
X188144058Y-85802403D01*
X188064870Y-85993579D01*
X188064868Y-85993587D01*
X188024500Y-86196530D01*
X135500500Y-86196530D01*
X135500500Y-84651530D01*
X149959500Y-84651530D01*
X149959500Y-85108469D01*
X149999868Y-85311412D01*
X149999870Y-85311420D01*
X150079058Y-85502596D01*
X150194024Y-85674657D01*
X150340342Y-85820975D01*
X150340345Y-85820977D01*
X150512402Y-85935941D01*
X150703580Y-86015130D01*
X150892187Y-86052646D01*
X150906530Y-86055499D01*
X150906534Y-86055500D01*
X150906535Y-86055500D01*
X151113466Y-86055500D01*
X151113467Y-86055499D01*
X151316420Y-86015130D01*
X151507598Y-85935941D01*
X151679655Y-85820977D01*
X151825977Y-85674655D01*
X151940941Y-85502598D01*
X152020130Y-85311420D01*
X152060500Y-85108465D01*
X152060500Y-84651535D01*
X152060499Y-84651530D01*
X152459500Y-84651530D01*
X152459500Y-85108469D01*
X152499868Y-85311412D01*
X152499870Y-85311420D01*
X152579058Y-85502596D01*
X152694024Y-85674657D01*
X152840342Y-85820975D01*
X152840345Y-85820977D01*
X153012402Y-85935941D01*
X153203580Y-86015130D01*
X153392187Y-86052646D01*
X153406530Y-86055499D01*
X153406534Y-86055500D01*
X153406535Y-86055500D01*
X153613466Y-86055500D01*
X153613467Y-86055499D01*
X153816420Y-86015130D01*
X154007598Y-85935941D01*
X154179655Y-85820977D01*
X154325977Y-85674655D01*
X154440941Y-85502598D01*
X154520130Y-85311420D01*
X154560500Y-85108465D01*
X154560500Y-84651535D01*
X154560499Y-84651530D01*
X154959500Y-84651530D01*
X154959500Y-85108469D01*
X154999868Y-85311412D01*
X154999870Y-85311420D01*
X155079058Y-85502596D01*
X155194024Y-85674657D01*
X155340342Y-85820975D01*
X155340345Y-85820977D01*
X155512402Y-85935941D01*
X155703580Y-86015130D01*
X155892187Y-86052646D01*
X155906530Y-86055499D01*
X155906534Y-86055500D01*
X155906535Y-86055500D01*
X156113466Y-86055500D01*
X156113467Y-86055499D01*
X156316420Y-86015130D01*
X156507598Y-85935941D01*
X156679655Y-85820977D01*
X156825977Y-85674655D01*
X156940941Y-85502598D01*
X157020130Y-85311420D01*
X157060500Y-85108465D01*
X157060500Y-84651535D01*
X157020130Y-84448580D01*
X156940941Y-84257402D01*
X156880353Y-84166725D01*
X156880352Y-84166722D01*
X156836257Y-84100730D01*
X159959500Y-84100730D01*
X159959500Y-85659269D01*
X159962353Y-85689699D01*
X159962353Y-85689701D01*
X160007206Y-85817880D01*
X160007207Y-85817882D01*
X160087850Y-85927150D01*
X160197118Y-86007793D01*
X160218089Y-86015131D01*
X160325299Y-86052646D01*
X160355730Y-86055500D01*
X160355734Y-86055500D01*
X161664270Y-86055500D01*
X161694699Y-86052646D01*
X161694701Y-86052646D01*
X161758790Y-86030219D01*
X161822882Y-86007793D01*
X161932150Y-85927150D01*
X162012793Y-85817882D01*
X162035219Y-85753790D01*
X162057646Y-85689701D01*
X162057646Y-85689699D01*
X162060500Y-85659269D01*
X162060500Y-84601530D01*
X166159500Y-84601530D01*
X166159500Y-85058469D01*
X166169446Y-85108469D01*
X166199870Y-85261420D01*
X166279059Y-85452598D01*
X166312468Y-85502598D01*
X166394024Y-85624657D01*
X166540342Y-85770975D01*
X166540345Y-85770977D01*
X166712402Y-85885941D01*
X166903580Y-85965130D01*
X167092187Y-86002646D01*
X167106530Y-86005499D01*
X167106534Y-86005500D01*
X167106535Y-86005500D01*
X167313466Y-86005500D01*
X167313467Y-86005499D01*
X167516420Y-85965130D01*
X167707598Y-85885941D01*
X167879655Y-85770977D01*
X168025977Y-85624655D01*
X168140941Y-85452598D01*
X168220130Y-85261420D01*
X168260500Y-85058465D01*
X168260500Y-84601535D01*
X168260499Y-84601530D01*
X168659500Y-84601530D01*
X168659500Y-85058469D01*
X168669446Y-85108469D01*
X168699870Y-85261420D01*
X168779059Y-85452598D01*
X168812468Y-85502598D01*
X168894024Y-85624657D01*
X169040342Y-85770975D01*
X169040345Y-85770977D01*
X169212402Y-85885941D01*
X169403580Y-85965130D01*
X169592187Y-86002646D01*
X169606530Y-86005499D01*
X169606534Y-86005500D01*
X169606535Y-86005500D01*
X169813466Y-86005500D01*
X169813467Y-86005499D01*
X170016420Y-85965130D01*
X170207598Y-85885941D01*
X170379655Y-85770977D01*
X170525977Y-85624655D01*
X170640941Y-85452598D01*
X170720130Y-85261420D01*
X170760500Y-85058465D01*
X170760500Y-84601535D01*
X170760499Y-84601530D01*
X171159500Y-84601530D01*
X171159500Y-85058469D01*
X171169446Y-85108469D01*
X171199870Y-85261420D01*
X171279059Y-85452598D01*
X171312468Y-85502598D01*
X171394024Y-85624657D01*
X171540342Y-85770975D01*
X171540345Y-85770977D01*
X171712402Y-85885941D01*
X171903580Y-85965130D01*
X172092187Y-86002646D01*
X172106530Y-86005499D01*
X172106534Y-86005500D01*
X172106535Y-86005500D01*
X172313466Y-86005500D01*
X172313467Y-86005499D01*
X172516420Y-85965130D01*
X172707598Y-85885941D01*
X172879655Y-85770977D01*
X173025977Y-85624655D01*
X173140941Y-85452598D01*
X173220130Y-85261420D01*
X173260500Y-85058465D01*
X173260500Y-84601535D01*
X173220130Y-84398580D01*
X173140941Y-84207402D01*
X173080353Y-84116725D01*
X173080352Y-84116722D01*
X173036257Y-84050730D01*
X176159500Y-84050730D01*
X176159500Y-85609269D01*
X176162353Y-85639699D01*
X176162353Y-85639701D01*
X176207206Y-85767880D01*
X176207207Y-85767882D01*
X176287850Y-85877150D01*
X176397118Y-85957793D01*
X176418089Y-85965131D01*
X176525299Y-86002646D01*
X176555730Y-86005500D01*
X176555734Y-86005500D01*
X177864270Y-86005500D01*
X177894699Y-86002646D01*
X177894701Y-86002646D01*
X177958790Y-85980219D01*
X178022882Y-85957793D01*
X178132150Y-85877150D01*
X178212793Y-85767882D01*
X178245414Y-85674657D01*
X178257646Y-85639701D01*
X178257646Y-85639699D01*
X178260500Y-85609269D01*
X178260500Y-84050730D01*
X178257646Y-84020300D01*
X178257646Y-84020298D01*
X178212793Y-83892119D01*
X178212792Y-83892117D01*
X178132150Y-83782850D01*
X178022882Y-83702207D01*
X178022880Y-83702206D01*
X177894700Y-83657353D01*
X177864270Y-83654500D01*
X177864266Y-83654500D01*
X176555734Y-83654500D01*
X176555730Y-83654500D01*
X176525300Y-83657353D01*
X176525298Y-83657353D01*
X176397119Y-83702206D01*
X176397117Y-83702207D01*
X176287850Y-83782850D01*
X176207207Y-83892117D01*
X176207206Y-83892119D01*
X176162353Y-84020298D01*
X176162353Y-84020300D01*
X176159500Y-84050730D01*
X173036257Y-84050730D01*
X173025980Y-84035349D01*
X173025974Y-84035341D01*
X172879657Y-83889024D01*
X172760671Y-83809521D01*
X172707598Y-83774059D01*
X172665914Y-83756793D01*
X172516420Y-83694870D01*
X172516412Y-83694868D01*
X172313469Y-83654500D01*
X172313465Y-83654500D01*
X172106535Y-83654500D01*
X172106530Y-83654500D01*
X171903587Y-83694868D01*
X171903579Y-83694870D01*
X171712403Y-83774058D01*
X171540342Y-83889024D01*
X171394024Y-84035342D01*
X171279058Y-84207403D01*
X171199870Y-84398579D01*
X171199868Y-84398587D01*
X171159500Y-84601530D01*
X170760499Y-84601530D01*
X170720130Y-84398580D01*
X170640941Y-84207402D01*
X170525977Y-84035345D01*
X170525975Y-84035342D01*
X170379657Y-83889024D01*
X170260671Y-83809521D01*
X170207598Y-83774059D01*
X170165914Y-83756793D01*
X170016420Y-83694870D01*
X170016412Y-83694868D01*
X169813469Y-83654500D01*
X169813465Y-83654500D01*
X169606535Y-83654500D01*
X169606530Y-83654500D01*
X169403587Y-83694868D01*
X169403579Y-83694870D01*
X169212403Y-83774058D01*
X169040342Y-83889024D01*
X168894024Y-84035342D01*
X168779058Y-84207403D01*
X168699870Y-84398579D01*
X168699868Y-84398587D01*
X168659500Y-84601530D01*
X168260499Y-84601530D01*
X168220130Y-84398580D01*
X168140941Y-84207402D01*
X168025977Y-84035345D01*
X168025975Y-84035342D01*
X167879657Y-83889024D01*
X167760671Y-83809521D01*
X167707598Y-83774059D01*
X167665914Y-83756793D01*
X167516420Y-83694870D01*
X167516412Y-83694868D01*
X167313469Y-83654500D01*
X167313465Y-83654500D01*
X167106535Y-83654500D01*
X167106530Y-83654500D01*
X166903587Y-83694868D01*
X166903579Y-83694870D01*
X166712403Y-83774058D01*
X166540342Y-83889024D01*
X166394024Y-84035342D01*
X166279058Y-84207403D01*
X166199870Y-84398579D01*
X166199868Y-84398587D01*
X166159500Y-84601530D01*
X162060500Y-84601530D01*
X162060500Y-84100730D01*
X162057646Y-84070300D01*
X162057646Y-84070298D01*
X162012793Y-83942119D01*
X162012792Y-83942117D01*
X161932150Y-83832850D01*
X161822882Y-83752207D01*
X161822880Y-83752206D01*
X161694700Y-83707353D01*
X161664270Y-83704500D01*
X161664266Y-83704500D01*
X160355734Y-83704500D01*
X160355730Y-83704500D01*
X160325300Y-83707353D01*
X160325298Y-83707353D01*
X160197119Y-83752206D01*
X160197117Y-83752207D01*
X160087850Y-83832850D01*
X160007207Y-83942117D01*
X160007206Y-83942119D01*
X159962353Y-84070298D01*
X159962353Y-84070300D01*
X159959500Y-84100730D01*
X156836257Y-84100730D01*
X156825980Y-84085349D01*
X156825974Y-84085341D01*
X156679657Y-83939024D01*
X156593626Y-83881541D01*
X156507598Y-83824059D01*
X156472500Y-83809521D01*
X156316420Y-83744870D01*
X156316412Y-83744868D01*
X156113469Y-83704500D01*
X156113465Y-83704500D01*
X155906535Y-83704500D01*
X155906530Y-83704500D01*
X155703587Y-83744868D01*
X155703579Y-83744870D01*
X155512403Y-83824058D01*
X155340342Y-83939024D01*
X155194024Y-84085342D01*
X155079058Y-84257403D01*
X154999870Y-84448579D01*
X154999868Y-84448587D01*
X154959500Y-84651530D01*
X154560499Y-84651530D01*
X154520130Y-84448580D01*
X154440941Y-84257402D01*
X154325977Y-84085345D01*
X154325975Y-84085342D01*
X154179657Y-83939024D01*
X154093626Y-83881541D01*
X154007598Y-83824059D01*
X153972500Y-83809521D01*
X153816420Y-83744870D01*
X153816412Y-83744868D01*
X153613469Y-83704500D01*
X153613465Y-83704500D01*
X153406535Y-83704500D01*
X153406530Y-83704500D01*
X153203587Y-83744868D01*
X153203579Y-83744870D01*
X153012403Y-83824058D01*
X152840342Y-83939024D01*
X152694024Y-84085342D01*
X152579058Y-84257403D01*
X152499870Y-84448579D01*
X152499868Y-84448587D01*
X152459500Y-84651530D01*
X152060499Y-84651530D01*
X152020130Y-84448580D01*
X151940941Y-84257402D01*
X151825977Y-84085345D01*
X151825975Y-84085342D01*
X151679657Y-83939024D01*
X151593626Y-83881541D01*
X151507598Y-83824059D01*
X151472500Y-83809521D01*
X151316420Y-83744870D01*
X151316412Y-83744868D01*
X151113469Y-83704500D01*
X151113465Y-83704500D01*
X150906535Y-83704500D01*
X150906530Y-83704500D01*
X150703587Y-83744868D01*
X150703579Y-83744870D01*
X150512403Y-83824058D01*
X150340342Y-83939024D01*
X150194024Y-84085342D01*
X150079058Y-84257403D01*
X149999870Y-84448579D01*
X149999868Y-84448587D01*
X149959500Y-84651530D01*
X135500500Y-84651530D01*
X135500500Y-84077273D01*
X142959500Y-84077273D01*
X142959500Y-84182727D01*
X142986793Y-84284587D01*
X143039520Y-84375913D01*
X143114087Y-84450480D01*
X143205413Y-84503207D01*
X143307273Y-84530500D01*
X143307275Y-84530500D01*
X143412725Y-84530500D01*
X143412727Y-84530500D01*
X143514587Y-84503207D01*
X143605913Y-84450480D01*
X143680480Y-84375913D01*
X143733207Y-84284587D01*
X143760500Y-84182727D01*
X143760500Y-84077273D01*
X143733207Y-83975413D01*
X143680480Y-83884087D01*
X143605913Y-83809520D01*
X143514587Y-83756793D01*
X143412727Y-83729500D01*
X143307273Y-83729500D01*
X143205413Y-83756793D01*
X143205410Y-83756794D01*
X143114085Y-83809521D01*
X143039521Y-83884085D01*
X142986794Y-83975410D01*
X142986793Y-83975413D01*
X142959500Y-84077273D01*
X135500500Y-84077273D01*
X135500500Y-82412273D01*
X182464500Y-82412273D01*
X182464500Y-82517727D01*
X182491793Y-82619587D01*
X182544520Y-82710913D01*
X182619087Y-82785480D01*
X182710413Y-82838207D01*
X182812273Y-82865500D01*
X182812275Y-82865500D01*
X182917725Y-82865500D01*
X182917727Y-82865500D01*
X183019587Y-82838207D01*
X183110913Y-82785480D01*
X183185480Y-82710913D01*
X183238207Y-82619587D01*
X183265500Y-82517727D01*
X183265500Y-82412273D01*
X183238207Y-82310413D01*
X183185480Y-82219087D01*
X183110913Y-82144520D01*
X183019587Y-82091793D01*
X182917727Y-82064500D01*
X182812273Y-82064500D01*
X182710413Y-82091793D01*
X182710410Y-82091794D01*
X182619085Y-82144521D01*
X182544521Y-82219085D01*
X182491794Y-82310410D01*
X182491793Y-82310413D01*
X182464500Y-82412273D01*
X135500500Y-82412273D01*
X135500500Y-78503246D01*
X135500670Y-78496756D01*
X135516592Y-78192953D01*
X135517949Y-78180046D01*
X135565028Y-77882794D01*
X135567723Y-77870107D01*
X135645627Y-77579368D01*
X135649636Y-77567033D01*
X135757493Y-77286054D01*
X135762763Y-77274215D01*
X135899415Y-77006023D01*
X135905891Y-76994808D01*
X136069819Y-76742380D01*
X136077434Y-76731899D01*
X136266858Y-76497979D01*
X136275525Y-76488354D01*
X136488354Y-76275525D01*
X136497979Y-76266858D01*
X136731899Y-76077434D01*
X136742380Y-76069819D01*
X136994808Y-75905891D01*
X137006023Y-75899415D01*
X137274215Y-75762763D01*
X137286054Y-75757493D01*
X137567040Y-75649633D01*
X137579368Y-75645627D01*
X137870107Y-75567723D01*
X137882786Y-75565029D01*
X138180046Y-75517949D01*
X138192951Y-75516592D01*
X138496756Y-75500669D01*
X138503246Y-75500500D01*
X138565892Y-75500500D01*
X188434108Y-75500500D01*
X188496754Y-75500500D01*
X188503244Y-75500670D01*
G37*
%TD.AperFunction*%
%TD*%
M02*
