%TF.GenerationSoftware,KiCad,Pcbnew,9.0.4*%
%TF.CreationDate,2025-10-13T17:03:11+02:00*%
%TF.ProjectId,ProjetX,50726f6a-6574-4582-9e6b-696361645f70,rev?*%
%TF.SameCoordinates,Original*%
%TF.FileFunction,Legend,Top*%
%TF.FilePolarity,Positive*%
%FSLAX46Y46*%
G04 Gerber Fmt 4.6, Leading zero omitted, Abs format (unit mm)*
G04 Created by KiCad (PCBNEW 9.0.4) date 2025-10-13 17:03:11*
%MOMM*%
%LPD*%
G01*
G04 APERTURE LIST*
%ADD10C,0.070000*%
%ADD11C,0.060000*%
%ADD12C,0.050000*%
%ADD13C,0.150000*%
%ADD14C,0.000000*%
%ADD15C,0.120000*%
G04 APERTURE END LIST*
D10*
X154106766Y-88297407D02*
X153916290Y-88297407D01*
X153916290Y-88297407D02*
X153916290Y-87897407D01*
X154240100Y-88297407D02*
X154240100Y-87897407D01*
X154430576Y-88297407D02*
X154430576Y-87897407D01*
X154430576Y-87897407D02*
X154525814Y-87897407D01*
X154525814Y-87897407D02*
X154582957Y-87916455D01*
X154582957Y-87916455D02*
X154621052Y-87954550D01*
X154621052Y-87954550D02*
X154640099Y-87992645D01*
X154640099Y-87992645D02*
X154659147Y-88068836D01*
X154659147Y-88068836D02*
X154659147Y-88125979D01*
X154659147Y-88125979D02*
X154640099Y-88202169D01*
X154640099Y-88202169D02*
X154621052Y-88240264D01*
X154621052Y-88240264D02*
X154582957Y-88278360D01*
X154582957Y-88278360D02*
X154525814Y-88297407D01*
X154525814Y-88297407D02*
X154430576Y-88297407D01*
X154811528Y-88183121D02*
X155002004Y-88183121D01*
X154773433Y-88297407D02*
X154906766Y-87897407D01*
X154906766Y-87897407D02*
X155040099Y-88297407D01*
X155402004Y-88297407D02*
X155268671Y-88106931D01*
X155173433Y-88297407D02*
X155173433Y-87897407D01*
X155173433Y-87897407D02*
X155325814Y-87897407D01*
X155325814Y-87897407D02*
X155363909Y-87916455D01*
X155363909Y-87916455D02*
X155382956Y-87935502D01*
X155382956Y-87935502D02*
X155402004Y-87973598D01*
X155402004Y-87973598D02*
X155402004Y-88030740D01*
X155402004Y-88030740D02*
X155382956Y-88068836D01*
X155382956Y-88068836D02*
X155363909Y-88087883D01*
X155363909Y-88087883D02*
X155325814Y-88106931D01*
X155325814Y-88106931D02*
X155173433Y-88106931D01*
D11*
X171463282Y-116034832D02*
X171444234Y-116053880D01*
X171444234Y-116053880D02*
X171387092Y-116072927D01*
X171387092Y-116072927D02*
X171348996Y-116072927D01*
X171348996Y-116072927D02*
X171291853Y-116053880D01*
X171291853Y-116053880D02*
X171253758Y-116015784D01*
X171253758Y-116015784D02*
X171234711Y-115977689D01*
X171234711Y-115977689D02*
X171215663Y-115901499D01*
X171215663Y-115901499D02*
X171215663Y-115844356D01*
X171215663Y-115844356D02*
X171234711Y-115768165D01*
X171234711Y-115768165D02*
X171253758Y-115730070D01*
X171253758Y-115730070D02*
X171291853Y-115691975D01*
X171291853Y-115691975D02*
X171348996Y-115672927D01*
X171348996Y-115672927D02*
X171387092Y-115672927D01*
X171387092Y-115672927D02*
X171444234Y-115691975D01*
X171444234Y-115691975D02*
X171463282Y-115711022D01*
X171691853Y-116072927D02*
X171653758Y-116053880D01*
X171653758Y-116053880D02*
X171634711Y-116034832D01*
X171634711Y-116034832D02*
X171615663Y-115996737D01*
X171615663Y-115996737D02*
X171615663Y-115882451D01*
X171615663Y-115882451D02*
X171634711Y-115844356D01*
X171634711Y-115844356D02*
X171653758Y-115825308D01*
X171653758Y-115825308D02*
X171691853Y-115806260D01*
X171691853Y-115806260D02*
X171748996Y-115806260D01*
X171748996Y-115806260D02*
X171787092Y-115825308D01*
X171787092Y-115825308D02*
X171806139Y-115844356D01*
X171806139Y-115844356D02*
X171825187Y-115882451D01*
X171825187Y-115882451D02*
X171825187Y-115996737D01*
X171825187Y-115996737D02*
X171806139Y-116034832D01*
X171806139Y-116034832D02*
X171787092Y-116053880D01*
X171787092Y-116053880D02*
X171748996Y-116072927D01*
X171748996Y-116072927D02*
X171691853Y-116072927D01*
X171996616Y-115806260D02*
X171996616Y-116072927D01*
X171996616Y-115844356D02*
X172015663Y-115825308D01*
X172015663Y-115825308D02*
X172053758Y-115806260D01*
X172053758Y-115806260D02*
X172110901Y-115806260D01*
X172110901Y-115806260D02*
X172148997Y-115825308D01*
X172148997Y-115825308D02*
X172168044Y-115863403D01*
X172168044Y-115863403D02*
X172168044Y-116072927D01*
X172263283Y-116111022D02*
X172568044Y-116111022D01*
X172796616Y-115863403D02*
X172853759Y-115882451D01*
X172853759Y-115882451D02*
X172872806Y-115901499D01*
X172872806Y-115901499D02*
X172891854Y-115939594D01*
X172891854Y-115939594D02*
X172891854Y-115996737D01*
X172891854Y-115996737D02*
X172872806Y-116034832D01*
X172872806Y-116034832D02*
X172853759Y-116053880D01*
X172853759Y-116053880D02*
X172815664Y-116072927D01*
X172815664Y-116072927D02*
X172663283Y-116072927D01*
X172663283Y-116072927D02*
X172663283Y-115672927D01*
X172663283Y-115672927D02*
X172796616Y-115672927D01*
X172796616Y-115672927D02*
X172834711Y-115691975D01*
X172834711Y-115691975D02*
X172853759Y-115711022D01*
X172853759Y-115711022D02*
X172872806Y-115749118D01*
X172872806Y-115749118D02*
X172872806Y-115787213D01*
X172872806Y-115787213D02*
X172853759Y-115825308D01*
X172853759Y-115825308D02*
X172834711Y-115844356D01*
X172834711Y-115844356D02*
X172796616Y-115863403D01*
X172796616Y-115863403D02*
X172663283Y-115863403D01*
X173234711Y-116072927D02*
X173234711Y-115863403D01*
X173234711Y-115863403D02*
X173215664Y-115825308D01*
X173215664Y-115825308D02*
X173177568Y-115806260D01*
X173177568Y-115806260D02*
X173101378Y-115806260D01*
X173101378Y-115806260D02*
X173063283Y-115825308D01*
X173234711Y-116053880D02*
X173196616Y-116072927D01*
X173196616Y-116072927D02*
X173101378Y-116072927D01*
X173101378Y-116072927D02*
X173063283Y-116053880D01*
X173063283Y-116053880D02*
X173044235Y-116015784D01*
X173044235Y-116015784D02*
X173044235Y-115977689D01*
X173044235Y-115977689D02*
X173063283Y-115939594D01*
X173063283Y-115939594D02*
X173101378Y-115920546D01*
X173101378Y-115920546D02*
X173196616Y-115920546D01*
X173196616Y-115920546D02*
X173234711Y-115901499D01*
X173368045Y-115806260D02*
X173520426Y-115806260D01*
X173425188Y-115672927D02*
X173425188Y-116015784D01*
X173425188Y-116015784D02*
X173444235Y-116053880D01*
X173444235Y-116053880D02*
X173482330Y-116072927D01*
X173482330Y-116072927D02*
X173520426Y-116072927D01*
X173596616Y-115806260D02*
X173748997Y-115806260D01*
X173653759Y-115672927D02*
X173653759Y-116015784D01*
X173653759Y-116015784D02*
X173672806Y-116053880D01*
X173672806Y-116053880D02*
X173710901Y-116072927D01*
X173710901Y-116072927D02*
X173748997Y-116072927D01*
D10*
X173074623Y-88037883D02*
X173131766Y-88056931D01*
X173131766Y-88056931D02*
X173150813Y-88075979D01*
X173150813Y-88075979D02*
X173169861Y-88114074D01*
X173169861Y-88114074D02*
X173169861Y-88171217D01*
X173169861Y-88171217D02*
X173150813Y-88209312D01*
X173150813Y-88209312D02*
X173131766Y-88228360D01*
X173131766Y-88228360D02*
X173093671Y-88247407D01*
X173093671Y-88247407D02*
X172941290Y-88247407D01*
X172941290Y-88247407D02*
X172941290Y-87847407D01*
X172941290Y-87847407D02*
X173074623Y-87847407D01*
X173074623Y-87847407D02*
X173112718Y-87866455D01*
X173112718Y-87866455D02*
X173131766Y-87885502D01*
X173131766Y-87885502D02*
X173150813Y-87923598D01*
X173150813Y-87923598D02*
X173150813Y-87961693D01*
X173150813Y-87961693D02*
X173131766Y-87999788D01*
X173131766Y-87999788D02*
X173112718Y-88018836D01*
X173112718Y-88018836D02*
X173074623Y-88037883D01*
X173074623Y-88037883D02*
X172941290Y-88037883D01*
X173531766Y-88247407D02*
X173341290Y-88247407D01*
X173341290Y-88247407D02*
X173341290Y-87847407D01*
X173665100Y-88037883D02*
X173798433Y-88037883D01*
X173855576Y-88247407D02*
X173665100Y-88247407D01*
X173665100Y-88247407D02*
X173665100Y-87847407D01*
X173665100Y-87847407D02*
X173855576Y-87847407D01*
D12*
X175654934Y-94167856D02*
X175512077Y-94267856D01*
X175654934Y-94339285D02*
X175354934Y-94339285D01*
X175354934Y-94339285D02*
X175354934Y-94224999D01*
X175354934Y-94224999D02*
X175369220Y-94196428D01*
X175369220Y-94196428D02*
X175383506Y-94182142D01*
X175383506Y-94182142D02*
X175412077Y-94167856D01*
X175412077Y-94167856D02*
X175454934Y-94167856D01*
X175454934Y-94167856D02*
X175483506Y-94182142D01*
X175483506Y-94182142D02*
X175497791Y-94196428D01*
X175497791Y-94196428D02*
X175512077Y-94224999D01*
X175512077Y-94224999D02*
X175512077Y-94339285D01*
X175654934Y-93882142D02*
X175654934Y-94053571D01*
X175654934Y-93967856D02*
X175354934Y-93967856D01*
X175354934Y-93967856D02*
X175397791Y-93996428D01*
X175397791Y-93996428D02*
X175426363Y-94024999D01*
X175426363Y-94024999D02*
X175440649Y-94053571D01*
X175654934Y-93596428D02*
X175654934Y-93767857D01*
X175654934Y-93682142D02*
X175354934Y-93682142D01*
X175354934Y-93682142D02*
X175397791Y-93710714D01*
X175397791Y-93710714D02*
X175426363Y-93739285D01*
X175426363Y-93739285D02*
X175440649Y-93767857D01*
X149257143Y-115876185D02*
X149157143Y-115733328D01*
X149085714Y-115876185D02*
X149085714Y-115576185D01*
X149085714Y-115576185D02*
X149200000Y-115576185D01*
X149200000Y-115576185D02*
X149228571Y-115590471D01*
X149228571Y-115590471D02*
X149242857Y-115604757D01*
X149242857Y-115604757D02*
X149257143Y-115633328D01*
X149257143Y-115633328D02*
X149257143Y-115676185D01*
X149257143Y-115676185D02*
X149242857Y-115704757D01*
X149242857Y-115704757D02*
X149228571Y-115719042D01*
X149228571Y-115719042D02*
X149200000Y-115733328D01*
X149200000Y-115733328D02*
X149085714Y-115733328D01*
X149371428Y-115604757D02*
X149385714Y-115590471D01*
X149385714Y-115590471D02*
X149414286Y-115576185D01*
X149414286Y-115576185D02*
X149485714Y-115576185D01*
X149485714Y-115576185D02*
X149514286Y-115590471D01*
X149514286Y-115590471D02*
X149528571Y-115604757D01*
X149528571Y-115604757D02*
X149542857Y-115633328D01*
X149542857Y-115633328D02*
X149542857Y-115661900D01*
X149542857Y-115661900D02*
X149528571Y-115704757D01*
X149528571Y-115704757D02*
X149357143Y-115876185D01*
X149357143Y-115876185D02*
X149542857Y-115876185D01*
X149828571Y-115876185D02*
X149657142Y-115876185D01*
X149742857Y-115876185D02*
X149742857Y-115576185D01*
X149742857Y-115576185D02*
X149714285Y-115619042D01*
X149714285Y-115619042D02*
X149685714Y-115647614D01*
X149685714Y-115647614D02*
X149657142Y-115661900D01*
X145357614Y-95132856D02*
X145371900Y-95147142D01*
X145371900Y-95147142D02*
X145386185Y-95189999D01*
X145386185Y-95189999D02*
X145386185Y-95218571D01*
X145386185Y-95218571D02*
X145371900Y-95261428D01*
X145371900Y-95261428D02*
X145343328Y-95289999D01*
X145343328Y-95289999D02*
X145314757Y-95304285D01*
X145314757Y-95304285D02*
X145257614Y-95318571D01*
X145257614Y-95318571D02*
X145214757Y-95318571D01*
X145214757Y-95318571D02*
X145157614Y-95304285D01*
X145157614Y-95304285D02*
X145129042Y-95289999D01*
X145129042Y-95289999D02*
X145100471Y-95261428D01*
X145100471Y-95261428D02*
X145086185Y-95218571D01*
X145086185Y-95218571D02*
X145086185Y-95189999D01*
X145086185Y-95189999D02*
X145100471Y-95147142D01*
X145100471Y-95147142D02*
X145114757Y-95132856D01*
X145086185Y-95032856D02*
X145086185Y-94847142D01*
X145086185Y-94847142D02*
X145200471Y-94947142D01*
X145200471Y-94947142D02*
X145200471Y-94904285D01*
X145200471Y-94904285D02*
X145214757Y-94875714D01*
X145214757Y-94875714D02*
X145229042Y-94861428D01*
X145229042Y-94861428D02*
X145257614Y-94847142D01*
X145257614Y-94847142D02*
X145329042Y-94847142D01*
X145329042Y-94847142D02*
X145357614Y-94861428D01*
X145357614Y-94861428D02*
X145371900Y-94875714D01*
X145371900Y-94875714D02*
X145386185Y-94904285D01*
X145386185Y-94904285D02*
X145386185Y-94989999D01*
X145386185Y-94989999D02*
X145371900Y-95018571D01*
X145371900Y-95018571D02*
X145357614Y-95032856D01*
X145114757Y-94732857D02*
X145100471Y-94718571D01*
X145100471Y-94718571D02*
X145086185Y-94690000D01*
X145086185Y-94690000D02*
X145086185Y-94618571D01*
X145086185Y-94618571D02*
X145100471Y-94590000D01*
X145100471Y-94590000D02*
X145114757Y-94575714D01*
X145114757Y-94575714D02*
X145143328Y-94561428D01*
X145143328Y-94561428D02*
X145171900Y-94561428D01*
X145171900Y-94561428D02*
X145214757Y-94575714D01*
X145214757Y-94575714D02*
X145386185Y-94747142D01*
X145386185Y-94747142D02*
X145386185Y-94561428D01*
X168886185Y-90232856D02*
X168743328Y-90332856D01*
X168886185Y-90404285D02*
X168586185Y-90404285D01*
X168586185Y-90404285D02*
X168586185Y-90289999D01*
X168586185Y-90289999D02*
X168600471Y-90261428D01*
X168600471Y-90261428D02*
X168614757Y-90247142D01*
X168614757Y-90247142D02*
X168643328Y-90232856D01*
X168643328Y-90232856D02*
X168686185Y-90232856D01*
X168686185Y-90232856D02*
X168714757Y-90247142D01*
X168714757Y-90247142D02*
X168729042Y-90261428D01*
X168729042Y-90261428D02*
X168743328Y-90289999D01*
X168743328Y-90289999D02*
X168743328Y-90404285D01*
X168886185Y-89947142D02*
X168886185Y-90118571D01*
X168886185Y-90032856D02*
X168586185Y-90032856D01*
X168586185Y-90032856D02*
X168629042Y-90061428D01*
X168629042Y-90061428D02*
X168657614Y-90089999D01*
X168657614Y-90089999D02*
X168671900Y-90118571D01*
X168614757Y-89832857D02*
X168600471Y-89818571D01*
X168600471Y-89818571D02*
X168586185Y-89790000D01*
X168586185Y-89790000D02*
X168586185Y-89718571D01*
X168586185Y-89718571D02*
X168600471Y-89690000D01*
X168600471Y-89690000D02*
X168614757Y-89675714D01*
X168614757Y-89675714D02*
X168643328Y-89661428D01*
X168643328Y-89661428D02*
X168671900Y-89661428D01*
X168671900Y-89661428D02*
X168714757Y-89675714D01*
X168714757Y-89675714D02*
X168886185Y-89847142D01*
X168886185Y-89847142D02*
X168886185Y-89661428D01*
X169976185Y-99174285D02*
X169676185Y-99174285D01*
X169676185Y-99174285D02*
X169676185Y-99059999D01*
X169676185Y-99059999D02*
X169690471Y-99031428D01*
X169690471Y-99031428D02*
X169704757Y-99017142D01*
X169704757Y-99017142D02*
X169733328Y-99002856D01*
X169733328Y-99002856D02*
X169776185Y-99002856D01*
X169776185Y-99002856D02*
X169804757Y-99017142D01*
X169804757Y-99017142D02*
X169819042Y-99031428D01*
X169819042Y-99031428D02*
X169833328Y-99059999D01*
X169833328Y-99059999D02*
X169833328Y-99174285D01*
X169961900Y-98888571D02*
X169976185Y-98845714D01*
X169976185Y-98845714D02*
X169976185Y-98774285D01*
X169976185Y-98774285D02*
X169961900Y-98745714D01*
X169961900Y-98745714D02*
X169947614Y-98731428D01*
X169947614Y-98731428D02*
X169919042Y-98717142D01*
X169919042Y-98717142D02*
X169890471Y-98717142D01*
X169890471Y-98717142D02*
X169861900Y-98731428D01*
X169861900Y-98731428D02*
X169847614Y-98745714D01*
X169847614Y-98745714D02*
X169833328Y-98774285D01*
X169833328Y-98774285D02*
X169819042Y-98831428D01*
X169819042Y-98831428D02*
X169804757Y-98859999D01*
X169804757Y-98859999D02*
X169790471Y-98874285D01*
X169790471Y-98874285D02*
X169761900Y-98888571D01*
X169761900Y-98888571D02*
X169733328Y-98888571D01*
X169733328Y-98888571D02*
X169704757Y-98874285D01*
X169704757Y-98874285D02*
X169690471Y-98859999D01*
X169690471Y-98859999D02*
X169676185Y-98831428D01*
X169676185Y-98831428D02*
X169676185Y-98759999D01*
X169676185Y-98759999D02*
X169690471Y-98717142D01*
X169976185Y-98431428D02*
X169976185Y-98602857D01*
X169976185Y-98517142D02*
X169676185Y-98517142D01*
X169676185Y-98517142D02*
X169719042Y-98545714D01*
X169719042Y-98545714D02*
X169747614Y-98574285D01*
X169747614Y-98574285D02*
X169761900Y-98602857D01*
X157257143Y-115847614D02*
X157242857Y-115861900D01*
X157242857Y-115861900D02*
X157200000Y-115876185D01*
X157200000Y-115876185D02*
X157171428Y-115876185D01*
X157171428Y-115876185D02*
X157128571Y-115861900D01*
X157128571Y-115861900D02*
X157100000Y-115833328D01*
X157100000Y-115833328D02*
X157085714Y-115804757D01*
X157085714Y-115804757D02*
X157071428Y-115747614D01*
X157071428Y-115747614D02*
X157071428Y-115704757D01*
X157071428Y-115704757D02*
X157085714Y-115647614D01*
X157085714Y-115647614D02*
X157100000Y-115619042D01*
X157100000Y-115619042D02*
X157128571Y-115590471D01*
X157128571Y-115590471D02*
X157171428Y-115576185D01*
X157171428Y-115576185D02*
X157200000Y-115576185D01*
X157200000Y-115576185D02*
X157242857Y-115590471D01*
X157242857Y-115590471D02*
X157257143Y-115604757D01*
X157357143Y-115576185D02*
X157542857Y-115576185D01*
X157542857Y-115576185D02*
X157442857Y-115690471D01*
X157442857Y-115690471D02*
X157485714Y-115690471D01*
X157485714Y-115690471D02*
X157514286Y-115704757D01*
X157514286Y-115704757D02*
X157528571Y-115719042D01*
X157528571Y-115719042D02*
X157542857Y-115747614D01*
X157542857Y-115747614D02*
X157542857Y-115819042D01*
X157542857Y-115819042D02*
X157528571Y-115847614D01*
X157528571Y-115847614D02*
X157514286Y-115861900D01*
X157514286Y-115861900D02*
X157485714Y-115876185D01*
X157485714Y-115876185D02*
X157400000Y-115876185D01*
X157400000Y-115876185D02*
X157371428Y-115861900D01*
X157371428Y-115861900D02*
X157357143Y-115847614D01*
X157828571Y-115876185D02*
X157657142Y-115876185D01*
X157742857Y-115876185D02*
X157742857Y-115576185D01*
X157742857Y-115576185D02*
X157714285Y-115619042D01*
X157714285Y-115619042D02*
X157685714Y-115647614D01*
X157685714Y-115647614D02*
X157657142Y-115661900D01*
X168738572Y-102588685D02*
X168924286Y-102588685D01*
X168924286Y-102588685D02*
X168824286Y-102702971D01*
X168824286Y-102702971D02*
X168867143Y-102702971D01*
X168867143Y-102702971D02*
X168895715Y-102717257D01*
X168895715Y-102717257D02*
X168910000Y-102731542D01*
X168910000Y-102731542D02*
X168924286Y-102760114D01*
X168924286Y-102760114D02*
X168924286Y-102831542D01*
X168924286Y-102831542D02*
X168910000Y-102860114D01*
X168910000Y-102860114D02*
X168895715Y-102874400D01*
X168895715Y-102874400D02*
X168867143Y-102888685D01*
X168867143Y-102888685D02*
X168781429Y-102888685D01*
X168781429Y-102888685D02*
X168752857Y-102874400D01*
X168752857Y-102874400D02*
X168738572Y-102860114D01*
X169010000Y-102588685D02*
X169110000Y-102888685D01*
X169110000Y-102888685D02*
X169210000Y-102588685D01*
X169281429Y-102588685D02*
X169467143Y-102588685D01*
X169467143Y-102588685D02*
X169367143Y-102702971D01*
X169367143Y-102702971D02*
X169410000Y-102702971D01*
X169410000Y-102702971D02*
X169438572Y-102717257D01*
X169438572Y-102717257D02*
X169452857Y-102731542D01*
X169452857Y-102731542D02*
X169467143Y-102760114D01*
X169467143Y-102760114D02*
X169467143Y-102831542D01*
X169467143Y-102831542D02*
X169452857Y-102860114D01*
X169452857Y-102860114D02*
X169438572Y-102874400D01*
X169438572Y-102874400D02*
X169410000Y-102888685D01*
X169410000Y-102888685D02*
X169324286Y-102888685D01*
X169324286Y-102888685D02*
X169295714Y-102874400D01*
X169295714Y-102874400D02*
X169281429Y-102860114D01*
X159297614Y-101535356D02*
X159311900Y-101549642D01*
X159311900Y-101549642D02*
X159326185Y-101592499D01*
X159326185Y-101592499D02*
X159326185Y-101621071D01*
X159326185Y-101621071D02*
X159311900Y-101663928D01*
X159311900Y-101663928D02*
X159283328Y-101692499D01*
X159283328Y-101692499D02*
X159254757Y-101706785D01*
X159254757Y-101706785D02*
X159197614Y-101721071D01*
X159197614Y-101721071D02*
X159154757Y-101721071D01*
X159154757Y-101721071D02*
X159097614Y-101706785D01*
X159097614Y-101706785D02*
X159069042Y-101692499D01*
X159069042Y-101692499D02*
X159040471Y-101663928D01*
X159040471Y-101663928D02*
X159026185Y-101621071D01*
X159026185Y-101621071D02*
X159026185Y-101592499D01*
X159026185Y-101592499D02*
X159040471Y-101549642D01*
X159040471Y-101549642D02*
X159054757Y-101535356D01*
X159326185Y-101249642D02*
X159326185Y-101421071D01*
X159326185Y-101335356D02*
X159026185Y-101335356D01*
X159026185Y-101335356D02*
X159069042Y-101363928D01*
X159069042Y-101363928D02*
X159097614Y-101392499D01*
X159097614Y-101392499D02*
X159111900Y-101421071D01*
X159326185Y-100963928D02*
X159326185Y-101135357D01*
X159326185Y-101049642D02*
X159026185Y-101049642D01*
X159026185Y-101049642D02*
X159069042Y-101078214D01*
X159069042Y-101078214D02*
X159097614Y-101106785D01*
X159097614Y-101106785D02*
X159111900Y-101135357D01*
X168887614Y-89152856D02*
X168901900Y-89167142D01*
X168901900Y-89167142D02*
X168916185Y-89209999D01*
X168916185Y-89209999D02*
X168916185Y-89238571D01*
X168916185Y-89238571D02*
X168901900Y-89281428D01*
X168901900Y-89281428D02*
X168873328Y-89309999D01*
X168873328Y-89309999D02*
X168844757Y-89324285D01*
X168844757Y-89324285D02*
X168787614Y-89338571D01*
X168787614Y-89338571D02*
X168744757Y-89338571D01*
X168744757Y-89338571D02*
X168687614Y-89324285D01*
X168687614Y-89324285D02*
X168659042Y-89309999D01*
X168659042Y-89309999D02*
X168630471Y-89281428D01*
X168630471Y-89281428D02*
X168616185Y-89238571D01*
X168616185Y-89238571D02*
X168616185Y-89209999D01*
X168616185Y-89209999D02*
X168630471Y-89167142D01*
X168630471Y-89167142D02*
X168644757Y-89152856D01*
X168644757Y-89038571D02*
X168630471Y-89024285D01*
X168630471Y-89024285D02*
X168616185Y-88995714D01*
X168616185Y-88995714D02*
X168616185Y-88924285D01*
X168616185Y-88924285D02*
X168630471Y-88895714D01*
X168630471Y-88895714D02*
X168644757Y-88881428D01*
X168644757Y-88881428D02*
X168673328Y-88867142D01*
X168673328Y-88867142D02*
X168701900Y-88867142D01*
X168701900Y-88867142D02*
X168744757Y-88881428D01*
X168744757Y-88881428D02*
X168916185Y-89052856D01*
X168916185Y-89052856D02*
X168916185Y-88867142D01*
X168616185Y-88767142D02*
X168616185Y-88567142D01*
X168616185Y-88567142D02*
X168916185Y-88695714D01*
X182697143Y-99577614D02*
X182682857Y-99591900D01*
X182682857Y-99591900D02*
X182640000Y-99606185D01*
X182640000Y-99606185D02*
X182611428Y-99606185D01*
X182611428Y-99606185D02*
X182568571Y-99591900D01*
X182568571Y-99591900D02*
X182540000Y-99563328D01*
X182540000Y-99563328D02*
X182525714Y-99534757D01*
X182525714Y-99534757D02*
X182511428Y-99477614D01*
X182511428Y-99477614D02*
X182511428Y-99434757D01*
X182511428Y-99434757D02*
X182525714Y-99377614D01*
X182525714Y-99377614D02*
X182540000Y-99349042D01*
X182540000Y-99349042D02*
X182568571Y-99320471D01*
X182568571Y-99320471D02*
X182611428Y-99306185D01*
X182611428Y-99306185D02*
X182640000Y-99306185D01*
X182640000Y-99306185D02*
X182682857Y-99320471D01*
X182682857Y-99320471D02*
X182697143Y-99334757D01*
X182982857Y-99606185D02*
X182811428Y-99606185D01*
X182897143Y-99606185D02*
X182897143Y-99306185D01*
X182897143Y-99306185D02*
X182868571Y-99349042D01*
X182868571Y-99349042D02*
X182840000Y-99377614D01*
X182840000Y-99377614D02*
X182811428Y-99391900D01*
X183082857Y-99306185D02*
X183268571Y-99306185D01*
X183268571Y-99306185D02*
X183168571Y-99420471D01*
X183168571Y-99420471D02*
X183211428Y-99420471D01*
X183211428Y-99420471D02*
X183240000Y-99434757D01*
X183240000Y-99434757D02*
X183254285Y-99449042D01*
X183254285Y-99449042D02*
X183268571Y-99477614D01*
X183268571Y-99477614D02*
X183268571Y-99549042D01*
X183268571Y-99549042D02*
X183254285Y-99577614D01*
X183254285Y-99577614D02*
X183240000Y-99591900D01*
X183240000Y-99591900D02*
X183211428Y-99606185D01*
X183211428Y-99606185D02*
X183125714Y-99606185D01*
X183125714Y-99606185D02*
X183097142Y-99591900D01*
X183097142Y-99591900D02*
X183082857Y-99577614D01*
X172034286Y-106126185D02*
X172034286Y-105826185D01*
X172034286Y-105826185D02*
X172105715Y-105826185D01*
X172105715Y-105826185D02*
X172148572Y-105840471D01*
X172148572Y-105840471D02*
X172177143Y-105869042D01*
X172177143Y-105869042D02*
X172191429Y-105897614D01*
X172191429Y-105897614D02*
X172205715Y-105954757D01*
X172205715Y-105954757D02*
X172205715Y-105997614D01*
X172205715Y-105997614D02*
X172191429Y-106054757D01*
X172191429Y-106054757D02*
X172177143Y-106083328D01*
X172177143Y-106083328D02*
X172148572Y-106111900D01*
X172148572Y-106111900D02*
X172105715Y-106126185D01*
X172105715Y-106126185D02*
X172034286Y-106126185D01*
X172305715Y-105826185D02*
X172491429Y-105826185D01*
X172491429Y-105826185D02*
X172391429Y-105940471D01*
X172391429Y-105940471D02*
X172434286Y-105940471D01*
X172434286Y-105940471D02*
X172462858Y-105954757D01*
X172462858Y-105954757D02*
X172477143Y-105969042D01*
X172477143Y-105969042D02*
X172491429Y-105997614D01*
X172491429Y-105997614D02*
X172491429Y-106069042D01*
X172491429Y-106069042D02*
X172477143Y-106097614D01*
X172477143Y-106097614D02*
X172462858Y-106111900D01*
X172462858Y-106111900D02*
X172434286Y-106126185D01*
X172434286Y-106126185D02*
X172348572Y-106126185D01*
X172348572Y-106126185D02*
X172320000Y-106111900D01*
X172320000Y-106111900D02*
X172305715Y-106097614D01*
X172548572Y-106154757D02*
X172777143Y-106154757D01*
X172848571Y-106126185D02*
X172848571Y-105826185D01*
X172848571Y-105826185D02*
X172962857Y-105826185D01*
X172962857Y-105826185D02*
X172991428Y-105840471D01*
X172991428Y-105840471D02*
X173005714Y-105854757D01*
X173005714Y-105854757D02*
X173020000Y-105883328D01*
X173020000Y-105883328D02*
X173020000Y-105926185D01*
X173020000Y-105926185D02*
X173005714Y-105954757D01*
X173005714Y-105954757D02*
X172991428Y-105969042D01*
X172991428Y-105969042D02*
X172962857Y-105983328D01*
X172962857Y-105983328D02*
X172848571Y-105983328D01*
X173120000Y-105826185D02*
X173191428Y-106126185D01*
X173191428Y-106126185D02*
X173248571Y-105911900D01*
X173248571Y-105911900D02*
X173305714Y-106126185D01*
X173305714Y-106126185D02*
X173377143Y-105826185D01*
X173662857Y-106126185D02*
X173562857Y-105983328D01*
X173491428Y-106126185D02*
X173491428Y-105826185D01*
X173491428Y-105826185D02*
X173605714Y-105826185D01*
X173605714Y-105826185D02*
X173634285Y-105840471D01*
X173634285Y-105840471D02*
X173648571Y-105854757D01*
X173648571Y-105854757D02*
X173662857Y-105883328D01*
X173662857Y-105883328D02*
X173662857Y-105926185D01*
X173662857Y-105926185D02*
X173648571Y-105954757D01*
X173648571Y-105954757D02*
X173634285Y-105969042D01*
X173634285Y-105969042D02*
X173605714Y-105983328D01*
X173605714Y-105983328D02*
X173491428Y-105983328D01*
X173720000Y-106154757D02*
X173948571Y-106154757D01*
X173991428Y-105826185D02*
X174177142Y-105826185D01*
X174177142Y-105826185D02*
X174077142Y-105940471D01*
X174077142Y-105940471D02*
X174119999Y-105940471D01*
X174119999Y-105940471D02*
X174148571Y-105954757D01*
X174148571Y-105954757D02*
X174162856Y-105969042D01*
X174162856Y-105969042D02*
X174177142Y-105997614D01*
X174177142Y-105997614D02*
X174177142Y-106069042D01*
X174177142Y-106069042D02*
X174162856Y-106097614D01*
X174162856Y-106097614D02*
X174148571Y-106111900D01*
X174148571Y-106111900D02*
X174119999Y-106126185D01*
X174119999Y-106126185D02*
X174034285Y-106126185D01*
X174034285Y-106126185D02*
X174005713Y-106111900D01*
X174005713Y-106111900D02*
X173991428Y-106097614D01*
X174262856Y-105826185D02*
X174362856Y-106126185D01*
X174362856Y-106126185D02*
X174462856Y-105826185D01*
X174719999Y-106126185D02*
X174548570Y-106126185D01*
X174634285Y-106126185D02*
X174634285Y-105826185D01*
X174634285Y-105826185D02*
X174605713Y-105869042D01*
X174605713Y-105869042D02*
X174577142Y-105897614D01*
X174577142Y-105897614D02*
X174548570Y-105911900D01*
X173133392Y-91786185D02*
X173133392Y-91486185D01*
X173447678Y-91757614D02*
X173433392Y-91771900D01*
X173433392Y-91771900D02*
X173390535Y-91786185D01*
X173390535Y-91786185D02*
X173361963Y-91786185D01*
X173361963Y-91786185D02*
X173319106Y-91771900D01*
X173319106Y-91771900D02*
X173290535Y-91743328D01*
X173290535Y-91743328D02*
X173276249Y-91714757D01*
X173276249Y-91714757D02*
X173261963Y-91657614D01*
X173261963Y-91657614D02*
X173261963Y-91614757D01*
X173261963Y-91614757D02*
X173276249Y-91557614D01*
X173276249Y-91557614D02*
X173290535Y-91529042D01*
X173290535Y-91529042D02*
X173319106Y-91500471D01*
X173319106Y-91500471D02*
X173361963Y-91486185D01*
X173361963Y-91486185D02*
X173390535Y-91486185D01*
X173390535Y-91486185D02*
X173433392Y-91500471D01*
X173433392Y-91500471D02*
X173447678Y-91514757D01*
X173733392Y-91786185D02*
X173561963Y-91786185D01*
X173647678Y-91786185D02*
X173647678Y-91486185D01*
X173647678Y-91486185D02*
X173619106Y-91529042D01*
X173619106Y-91529042D02*
X173590535Y-91557614D01*
X173590535Y-91557614D02*
X173561963Y-91571900D01*
X166767614Y-100882856D02*
X166781900Y-100897142D01*
X166781900Y-100897142D02*
X166796185Y-100939999D01*
X166796185Y-100939999D02*
X166796185Y-100968571D01*
X166796185Y-100968571D02*
X166781900Y-101011428D01*
X166781900Y-101011428D02*
X166753328Y-101039999D01*
X166753328Y-101039999D02*
X166724757Y-101054285D01*
X166724757Y-101054285D02*
X166667614Y-101068571D01*
X166667614Y-101068571D02*
X166624757Y-101068571D01*
X166624757Y-101068571D02*
X166567614Y-101054285D01*
X166567614Y-101054285D02*
X166539042Y-101039999D01*
X166539042Y-101039999D02*
X166510471Y-101011428D01*
X166510471Y-101011428D02*
X166496185Y-100968571D01*
X166496185Y-100968571D02*
X166496185Y-100939999D01*
X166496185Y-100939999D02*
X166510471Y-100897142D01*
X166510471Y-100897142D02*
X166524757Y-100882856D01*
X166524757Y-100768571D02*
X166510471Y-100754285D01*
X166510471Y-100754285D02*
X166496185Y-100725714D01*
X166496185Y-100725714D02*
X166496185Y-100654285D01*
X166496185Y-100654285D02*
X166510471Y-100625714D01*
X166510471Y-100625714D02*
X166524757Y-100611428D01*
X166524757Y-100611428D02*
X166553328Y-100597142D01*
X166553328Y-100597142D02*
X166581900Y-100597142D01*
X166581900Y-100597142D02*
X166624757Y-100611428D01*
X166624757Y-100611428D02*
X166796185Y-100782856D01*
X166796185Y-100782856D02*
X166796185Y-100597142D01*
X166796185Y-100311428D02*
X166796185Y-100482857D01*
X166796185Y-100397142D02*
X166496185Y-100397142D01*
X166496185Y-100397142D02*
X166539042Y-100425714D01*
X166539042Y-100425714D02*
X166567614Y-100454285D01*
X166567614Y-100454285D02*
X166581900Y-100482857D01*
X147247143Y-115886185D02*
X147147143Y-115743328D01*
X147075714Y-115886185D02*
X147075714Y-115586185D01*
X147075714Y-115586185D02*
X147190000Y-115586185D01*
X147190000Y-115586185D02*
X147218571Y-115600471D01*
X147218571Y-115600471D02*
X147232857Y-115614757D01*
X147232857Y-115614757D02*
X147247143Y-115643328D01*
X147247143Y-115643328D02*
X147247143Y-115686185D01*
X147247143Y-115686185D02*
X147232857Y-115714757D01*
X147232857Y-115714757D02*
X147218571Y-115729042D01*
X147218571Y-115729042D02*
X147190000Y-115743328D01*
X147190000Y-115743328D02*
X147075714Y-115743328D01*
X147361428Y-115614757D02*
X147375714Y-115600471D01*
X147375714Y-115600471D02*
X147404286Y-115586185D01*
X147404286Y-115586185D02*
X147475714Y-115586185D01*
X147475714Y-115586185D02*
X147504286Y-115600471D01*
X147504286Y-115600471D02*
X147518571Y-115614757D01*
X147518571Y-115614757D02*
X147532857Y-115643328D01*
X147532857Y-115643328D02*
X147532857Y-115671900D01*
X147532857Y-115671900D02*
X147518571Y-115714757D01*
X147518571Y-115714757D02*
X147347143Y-115886185D01*
X147347143Y-115886185D02*
X147532857Y-115886185D01*
X147718571Y-115586185D02*
X147747142Y-115586185D01*
X147747142Y-115586185D02*
X147775714Y-115600471D01*
X147775714Y-115600471D02*
X147790000Y-115614757D01*
X147790000Y-115614757D02*
X147804285Y-115643328D01*
X147804285Y-115643328D02*
X147818571Y-115700471D01*
X147818571Y-115700471D02*
X147818571Y-115771900D01*
X147818571Y-115771900D02*
X147804285Y-115829042D01*
X147804285Y-115829042D02*
X147790000Y-115857614D01*
X147790000Y-115857614D02*
X147775714Y-115871900D01*
X147775714Y-115871900D02*
X147747142Y-115886185D01*
X147747142Y-115886185D02*
X147718571Y-115886185D01*
X147718571Y-115886185D02*
X147690000Y-115871900D01*
X147690000Y-115871900D02*
X147675714Y-115857614D01*
X147675714Y-115857614D02*
X147661428Y-115829042D01*
X147661428Y-115829042D02*
X147647142Y-115771900D01*
X147647142Y-115771900D02*
X147647142Y-115700471D01*
X147647142Y-115700471D02*
X147661428Y-115643328D01*
X147661428Y-115643328D02*
X147675714Y-115614757D01*
X147675714Y-115614757D02*
X147690000Y-115600471D01*
X147690000Y-115600471D02*
X147718571Y-115586185D01*
X155157143Y-115976185D02*
X155057143Y-115833328D01*
X154985714Y-115976185D02*
X154985714Y-115676185D01*
X154985714Y-115676185D02*
X155100000Y-115676185D01*
X155100000Y-115676185D02*
X155128571Y-115690471D01*
X155128571Y-115690471D02*
X155142857Y-115704757D01*
X155142857Y-115704757D02*
X155157143Y-115733328D01*
X155157143Y-115733328D02*
X155157143Y-115776185D01*
X155157143Y-115776185D02*
X155142857Y-115804757D01*
X155142857Y-115804757D02*
X155128571Y-115819042D01*
X155128571Y-115819042D02*
X155100000Y-115833328D01*
X155100000Y-115833328D02*
X154985714Y-115833328D01*
X155442857Y-115976185D02*
X155271428Y-115976185D01*
X155357143Y-115976185D02*
X155357143Y-115676185D01*
X155357143Y-115676185D02*
X155328571Y-115719042D01*
X155328571Y-115719042D02*
X155300000Y-115747614D01*
X155300000Y-115747614D02*
X155271428Y-115761900D01*
X155542857Y-115676185D02*
X155742857Y-115676185D01*
X155742857Y-115676185D02*
X155614285Y-115976185D01*
X145447143Y-84586185D02*
X145347143Y-84443328D01*
X145275714Y-84586185D02*
X145275714Y-84286185D01*
X145275714Y-84286185D02*
X145390000Y-84286185D01*
X145390000Y-84286185D02*
X145418571Y-84300471D01*
X145418571Y-84300471D02*
X145432857Y-84314757D01*
X145432857Y-84314757D02*
X145447143Y-84343328D01*
X145447143Y-84343328D02*
X145447143Y-84386185D01*
X145447143Y-84386185D02*
X145432857Y-84414757D01*
X145432857Y-84414757D02*
X145418571Y-84429042D01*
X145418571Y-84429042D02*
X145390000Y-84443328D01*
X145390000Y-84443328D02*
X145275714Y-84443328D01*
X145561428Y-84314757D02*
X145575714Y-84300471D01*
X145575714Y-84300471D02*
X145604286Y-84286185D01*
X145604286Y-84286185D02*
X145675714Y-84286185D01*
X145675714Y-84286185D02*
X145704286Y-84300471D01*
X145704286Y-84300471D02*
X145718571Y-84314757D01*
X145718571Y-84314757D02*
X145732857Y-84343328D01*
X145732857Y-84343328D02*
X145732857Y-84371900D01*
X145732857Y-84371900D02*
X145718571Y-84414757D01*
X145718571Y-84414757D02*
X145547143Y-84586185D01*
X145547143Y-84586185D02*
X145732857Y-84586185D01*
X145990000Y-84286185D02*
X145932857Y-84286185D01*
X145932857Y-84286185D02*
X145904285Y-84300471D01*
X145904285Y-84300471D02*
X145890000Y-84314757D01*
X145890000Y-84314757D02*
X145861428Y-84357614D01*
X145861428Y-84357614D02*
X145847142Y-84414757D01*
X145847142Y-84414757D02*
X145847142Y-84529042D01*
X145847142Y-84529042D02*
X145861428Y-84557614D01*
X145861428Y-84557614D02*
X145875714Y-84571900D01*
X145875714Y-84571900D02*
X145904285Y-84586185D01*
X145904285Y-84586185D02*
X145961428Y-84586185D01*
X145961428Y-84586185D02*
X145990000Y-84571900D01*
X145990000Y-84571900D02*
X146004285Y-84557614D01*
X146004285Y-84557614D02*
X146018571Y-84529042D01*
X146018571Y-84529042D02*
X146018571Y-84457614D01*
X146018571Y-84457614D02*
X146004285Y-84429042D01*
X146004285Y-84429042D02*
X145990000Y-84414757D01*
X145990000Y-84414757D02*
X145961428Y-84400471D01*
X145961428Y-84400471D02*
X145904285Y-84400471D01*
X145904285Y-84400471D02*
X145875714Y-84414757D01*
X145875714Y-84414757D02*
X145861428Y-84429042D01*
X145861428Y-84429042D02*
X145847142Y-84457614D01*
X135661185Y-120399999D02*
X135518328Y-120499999D01*
X135661185Y-120571428D02*
X135361185Y-120571428D01*
X135361185Y-120571428D02*
X135361185Y-120457142D01*
X135361185Y-120457142D02*
X135375471Y-120428571D01*
X135375471Y-120428571D02*
X135389757Y-120414285D01*
X135389757Y-120414285D02*
X135418328Y-120399999D01*
X135418328Y-120399999D02*
X135461185Y-120399999D01*
X135461185Y-120399999D02*
X135489757Y-120414285D01*
X135489757Y-120414285D02*
X135504042Y-120428571D01*
X135504042Y-120428571D02*
X135518328Y-120457142D01*
X135518328Y-120457142D02*
X135518328Y-120571428D01*
X135661185Y-120257142D02*
X135661185Y-120199999D01*
X135661185Y-120199999D02*
X135646900Y-120171428D01*
X135646900Y-120171428D02*
X135632614Y-120157142D01*
X135632614Y-120157142D02*
X135589757Y-120128571D01*
X135589757Y-120128571D02*
X135532614Y-120114285D01*
X135532614Y-120114285D02*
X135418328Y-120114285D01*
X135418328Y-120114285D02*
X135389757Y-120128571D01*
X135389757Y-120128571D02*
X135375471Y-120142857D01*
X135375471Y-120142857D02*
X135361185Y-120171428D01*
X135361185Y-120171428D02*
X135361185Y-120228571D01*
X135361185Y-120228571D02*
X135375471Y-120257142D01*
X135375471Y-120257142D02*
X135389757Y-120271428D01*
X135389757Y-120271428D02*
X135418328Y-120285714D01*
X135418328Y-120285714D02*
X135489757Y-120285714D01*
X135489757Y-120285714D02*
X135518328Y-120271428D01*
X135518328Y-120271428D02*
X135532614Y-120257142D01*
X135532614Y-120257142D02*
X135546900Y-120228571D01*
X135546900Y-120228571D02*
X135546900Y-120171428D01*
X135546900Y-120171428D02*
X135532614Y-120142857D01*
X135532614Y-120142857D02*
X135518328Y-120128571D01*
X135518328Y-120128571D02*
X135489757Y-120114285D01*
X182927143Y-102207614D02*
X182912857Y-102221900D01*
X182912857Y-102221900D02*
X182870000Y-102236185D01*
X182870000Y-102236185D02*
X182841428Y-102236185D01*
X182841428Y-102236185D02*
X182798571Y-102221900D01*
X182798571Y-102221900D02*
X182770000Y-102193328D01*
X182770000Y-102193328D02*
X182755714Y-102164757D01*
X182755714Y-102164757D02*
X182741428Y-102107614D01*
X182741428Y-102107614D02*
X182741428Y-102064757D01*
X182741428Y-102064757D02*
X182755714Y-102007614D01*
X182755714Y-102007614D02*
X182770000Y-101979042D01*
X182770000Y-101979042D02*
X182798571Y-101950471D01*
X182798571Y-101950471D02*
X182841428Y-101936185D01*
X182841428Y-101936185D02*
X182870000Y-101936185D01*
X182870000Y-101936185D02*
X182912857Y-101950471D01*
X182912857Y-101950471D02*
X182927143Y-101964757D01*
X183212857Y-102236185D02*
X183041428Y-102236185D01*
X183127143Y-102236185D02*
X183127143Y-101936185D01*
X183127143Y-101936185D02*
X183098571Y-101979042D01*
X183098571Y-101979042D02*
X183070000Y-102007614D01*
X183070000Y-102007614D02*
X183041428Y-102021900D01*
X183355714Y-102236185D02*
X183412857Y-102236185D01*
X183412857Y-102236185D02*
X183441428Y-102221900D01*
X183441428Y-102221900D02*
X183455714Y-102207614D01*
X183455714Y-102207614D02*
X183484285Y-102164757D01*
X183484285Y-102164757D02*
X183498571Y-102107614D01*
X183498571Y-102107614D02*
X183498571Y-101993328D01*
X183498571Y-101993328D02*
X183484285Y-101964757D01*
X183484285Y-101964757D02*
X183470000Y-101950471D01*
X183470000Y-101950471D02*
X183441428Y-101936185D01*
X183441428Y-101936185D02*
X183384285Y-101936185D01*
X183384285Y-101936185D02*
X183355714Y-101950471D01*
X183355714Y-101950471D02*
X183341428Y-101964757D01*
X183341428Y-101964757D02*
X183327142Y-101993328D01*
X183327142Y-101993328D02*
X183327142Y-102064757D01*
X183327142Y-102064757D02*
X183341428Y-102093328D01*
X183341428Y-102093328D02*
X183355714Y-102107614D01*
X183355714Y-102107614D02*
X183384285Y-102121900D01*
X183384285Y-102121900D02*
X183441428Y-102121900D01*
X183441428Y-102121900D02*
X183470000Y-102107614D01*
X183470000Y-102107614D02*
X183484285Y-102093328D01*
X183484285Y-102093328D02*
X183498571Y-102064757D01*
X166707614Y-103842856D02*
X166721900Y-103857142D01*
X166721900Y-103857142D02*
X166736185Y-103899999D01*
X166736185Y-103899999D02*
X166736185Y-103928571D01*
X166736185Y-103928571D02*
X166721900Y-103971428D01*
X166721900Y-103971428D02*
X166693328Y-103999999D01*
X166693328Y-103999999D02*
X166664757Y-104014285D01*
X166664757Y-104014285D02*
X166607614Y-104028571D01*
X166607614Y-104028571D02*
X166564757Y-104028571D01*
X166564757Y-104028571D02*
X166507614Y-104014285D01*
X166507614Y-104014285D02*
X166479042Y-103999999D01*
X166479042Y-103999999D02*
X166450471Y-103971428D01*
X166450471Y-103971428D02*
X166436185Y-103928571D01*
X166436185Y-103928571D02*
X166436185Y-103899999D01*
X166436185Y-103899999D02*
X166450471Y-103857142D01*
X166450471Y-103857142D02*
X166464757Y-103842856D01*
X166464757Y-103728571D02*
X166450471Y-103714285D01*
X166450471Y-103714285D02*
X166436185Y-103685714D01*
X166436185Y-103685714D02*
X166436185Y-103614285D01*
X166436185Y-103614285D02*
X166450471Y-103585714D01*
X166450471Y-103585714D02*
X166464757Y-103571428D01*
X166464757Y-103571428D02*
X166493328Y-103557142D01*
X166493328Y-103557142D02*
X166521900Y-103557142D01*
X166521900Y-103557142D02*
X166564757Y-103571428D01*
X166564757Y-103571428D02*
X166736185Y-103742856D01*
X166736185Y-103742856D02*
X166736185Y-103557142D01*
X166436185Y-103371428D02*
X166436185Y-103342857D01*
X166436185Y-103342857D02*
X166450471Y-103314285D01*
X166450471Y-103314285D02*
X166464757Y-103300000D01*
X166464757Y-103300000D02*
X166493328Y-103285714D01*
X166493328Y-103285714D02*
X166550471Y-103271428D01*
X166550471Y-103271428D02*
X166621900Y-103271428D01*
X166621900Y-103271428D02*
X166679042Y-103285714D01*
X166679042Y-103285714D02*
X166707614Y-103300000D01*
X166707614Y-103300000D02*
X166721900Y-103314285D01*
X166721900Y-103314285D02*
X166736185Y-103342857D01*
X166736185Y-103342857D02*
X166736185Y-103371428D01*
X166736185Y-103371428D02*
X166721900Y-103400000D01*
X166721900Y-103400000D02*
X166707614Y-103414285D01*
X166707614Y-103414285D02*
X166679042Y-103428571D01*
X166679042Y-103428571D02*
X166621900Y-103442857D01*
X166621900Y-103442857D02*
X166550471Y-103442857D01*
X166550471Y-103442857D02*
X166493328Y-103428571D01*
X166493328Y-103428571D02*
X166464757Y-103414285D01*
X166464757Y-103414285D02*
X166450471Y-103400000D01*
X166450471Y-103400000D02*
X166436185Y-103371428D01*
X159927143Y-115946185D02*
X159827143Y-115803328D01*
X159755714Y-115946185D02*
X159755714Y-115646185D01*
X159755714Y-115646185D02*
X159870000Y-115646185D01*
X159870000Y-115646185D02*
X159898571Y-115660471D01*
X159898571Y-115660471D02*
X159912857Y-115674757D01*
X159912857Y-115674757D02*
X159927143Y-115703328D01*
X159927143Y-115703328D02*
X159927143Y-115746185D01*
X159927143Y-115746185D02*
X159912857Y-115774757D01*
X159912857Y-115774757D02*
X159898571Y-115789042D01*
X159898571Y-115789042D02*
X159870000Y-115803328D01*
X159870000Y-115803328D02*
X159755714Y-115803328D01*
X160041428Y-115674757D02*
X160055714Y-115660471D01*
X160055714Y-115660471D02*
X160084286Y-115646185D01*
X160084286Y-115646185D02*
X160155714Y-115646185D01*
X160155714Y-115646185D02*
X160184286Y-115660471D01*
X160184286Y-115660471D02*
X160198571Y-115674757D01*
X160198571Y-115674757D02*
X160212857Y-115703328D01*
X160212857Y-115703328D02*
X160212857Y-115731900D01*
X160212857Y-115731900D02*
X160198571Y-115774757D01*
X160198571Y-115774757D02*
X160027143Y-115946185D01*
X160027143Y-115946185D02*
X160212857Y-115946185D01*
X160312857Y-115646185D02*
X160498571Y-115646185D01*
X160498571Y-115646185D02*
X160398571Y-115760471D01*
X160398571Y-115760471D02*
X160441428Y-115760471D01*
X160441428Y-115760471D02*
X160470000Y-115774757D01*
X160470000Y-115774757D02*
X160484285Y-115789042D01*
X160484285Y-115789042D02*
X160498571Y-115817614D01*
X160498571Y-115817614D02*
X160498571Y-115889042D01*
X160498571Y-115889042D02*
X160484285Y-115917614D01*
X160484285Y-115917614D02*
X160470000Y-115931900D01*
X160470000Y-115931900D02*
X160441428Y-115946185D01*
X160441428Y-115946185D02*
X160355714Y-115946185D01*
X160355714Y-115946185D02*
X160327142Y-115931900D01*
X160327142Y-115931900D02*
X160312857Y-115917614D01*
X184087143Y-102257614D02*
X184072857Y-102271900D01*
X184072857Y-102271900D02*
X184030000Y-102286185D01*
X184030000Y-102286185D02*
X184001428Y-102286185D01*
X184001428Y-102286185D02*
X183958571Y-102271900D01*
X183958571Y-102271900D02*
X183930000Y-102243328D01*
X183930000Y-102243328D02*
X183915714Y-102214757D01*
X183915714Y-102214757D02*
X183901428Y-102157614D01*
X183901428Y-102157614D02*
X183901428Y-102114757D01*
X183901428Y-102114757D02*
X183915714Y-102057614D01*
X183915714Y-102057614D02*
X183930000Y-102029042D01*
X183930000Y-102029042D02*
X183958571Y-102000471D01*
X183958571Y-102000471D02*
X184001428Y-101986185D01*
X184001428Y-101986185D02*
X184030000Y-101986185D01*
X184030000Y-101986185D02*
X184072857Y-102000471D01*
X184072857Y-102000471D02*
X184087143Y-102014757D01*
X184372857Y-102286185D02*
X184201428Y-102286185D01*
X184287143Y-102286185D02*
X184287143Y-101986185D01*
X184287143Y-101986185D02*
X184258571Y-102029042D01*
X184258571Y-102029042D02*
X184230000Y-102057614D01*
X184230000Y-102057614D02*
X184201428Y-102071900D01*
X184630000Y-101986185D02*
X184572857Y-101986185D01*
X184572857Y-101986185D02*
X184544285Y-102000471D01*
X184544285Y-102000471D02*
X184530000Y-102014757D01*
X184530000Y-102014757D02*
X184501428Y-102057614D01*
X184501428Y-102057614D02*
X184487142Y-102114757D01*
X184487142Y-102114757D02*
X184487142Y-102229042D01*
X184487142Y-102229042D02*
X184501428Y-102257614D01*
X184501428Y-102257614D02*
X184515714Y-102271900D01*
X184515714Y-102271900D02*
X184544285Y-102286185D01*
X184544285Y-102286185D02*
X184601428Y-102286185D01*
X184601428Y-102286185D02*
X184630000Y-102271900D01*
X184630000Y-102271900D02*
X184644285Y-102257614D01*
X184644285Y-102257614D02*
X184658571Y-102229042D01*
X184658571Y-102229042D02*
X184658571Y-102157614D01*
X184658571Y-102157614D02*
X184644285Y-102129042D01*
X184644285Y-102129042D02*
X184630000Y-102114757D01*
X184630000Y-102114757D02*
X184601428Y-102100471D01*
X184601428Y-102100471D02*
X184544285Y-102100471D01*
X184544285Y-102100471D02*
X184515714Y-102114757D01*
X184515714Y-102114757D02*
X184501428Y-102129042D01*
X184501428Y-102129042D02*
X184487142Y-102157614D01*
X164310000Y-97377614D02*
X164295714Y-97391900D01*
X164295714Y-97391900D02*
X164252857Y-97406185D01*
X164252857Y-97406185D02*
X164224285Y-97406185D01*
X164224285Y-97406185D02*
X164181428Y-97391900D01*
X164181428Y-97391900D02*
X164152857Y-97363328D01*
X164152857Y-97363328D02*
X164138571Y-97334757D01*
X164138571Y-97334757D02*
X164124285Y-97277614D01*
X164124285Y-97277614D02*
X164124285Y-97234757D01*
X164124285Y-97234757D02*
X164138571Y-97177614D01*
X164138571Y-97177614D02*
X164152857Y-97149042D01*
X164152857Y-97149042D02*
X164181428Y-97120471D01*
X164181428Y-97120471D02*
X164224285Y-97106185D01*
X164224285Y-97106185D02*
X164252857Y-97106185D01*
X164252857Y-97106185D02*
X164295714Y-97120471D01*
X164295714Y-97120471D02*
X164310000Y-97134757D01*
X164410000Y-97106185D02*
X164595714Y-97106185D01*
X164595714Y-97106185D02*
X164495714Y-97220471D01*
X164495714Y-97220471D02*
X164538571Y-97220471D01*
X164538571Y-97220471D02*
X164567143Y-97234757D01*
X164567143Y-97234757D02*
X164581428Y-97249042D01*
X164581428Y-97249042D02*
X164595714Y-97277614D01*
X164595714Y-97277614D02*
X164595714Y-97349042D01*
X164595714Y-97349042D02*
X164581428Y-97377614D01*
X164581428Y-97377614D02*
X164567143Y-97391900D01*
X164567143Y-97391900D02*
X164538571Y-97406185D01*
X164538571Y-97406185D02*
X164452857Y-97406185D01*
X164452857Y-97406185D02*
X164424285Y-97391900D01*
X164424285Y-97391900D02*
X164410000Y-97377614D01*
D13*
X152354819Y-103161904D02*
X153164342Y-103161904D01*
X153164342Y-103161904D02*
X153259580Y-103114285D01*
X153259580Y-103114285D02*
X153307200Y-103066666D01*
X153307200Y-103066666D02*
X153354819Y-102971428D01*
X153354819Y-102971428D02*
X153354819Y-102780952D01*
X153354819Y-102780952D02*
X153307200Y-102685714D01*
X153307200Y-102685714D02*
X153259580Y-102638095D01*
X153259580Y-102638095D02*
X153164342Y-102590476D01*
X153164342Y-102590476D02*
X152354819Y-102590476D01*
X153354819Y-101590476D02*
X153354819Y-102161904D01*
X153354819Y-101876190D02*
X152354819Y-101876190D01*
X152354819Y-101876190D02*
X152497676Y-101971428D01*
X152497676Y-101971428D02*
X152592914Y-102066666D01*
X152592914Y-102066666D02*
X152640533Y-102161904D01*
D12*
X179107614Y-92482856D02*
X179121900Y-92497142D01*
X179121900Y-92497142D02*
X179136185Y-92539999D01*
X179136185Y-92539999D02*
X179136185Y-92568571D01*
X179136185Y-92568571D02*
X179121900Y-92611428D01*
X179121900Y-92611428D02*
X179093328Y-92639999D01*
X179093328Y-92639999D02*
X179064757Y-92654285D01*
X179064757Y-92654285D02*
X179007614Y-92668571D01*
X179007614Y-92668571D02*
X178964757Y-92668571D01*
X178964757Y-92668571D02*
X178907614Y-92654285D01*
X178907614Y-92654285D02*
X178879042Y-92639999D01*
X178879042Y-92639999D02*
X178850471Y-92611428D01*
X178850471Y-92611428D02*
X178836185Y-92568571D01*
X178836185Y-92568571D02*
X178836185Y-92539999D01*
X178836185Y-92539999D02*
X178850471Y-92497142D01*
X178850471Y-92497142D02*
X178864757Y-92482856D01*
X178864757Y-92368571D02*
X178850471Y-92354285D01*
X178850471Y-92354285D02*
X178836185Y-92325714D01*
X178836185Y-92325714D02*
X178836185Y-92254285D01*
X178836185Y-92254285D02*
X178850471Y-92225714D01*
X178850471Y-92225714D02*
X178864757Y-92211428D01*
X178864757Y-92211428D02*
X178893328Y-92197142D01*
X178893328Y-92197142D02*
X178921900Y-92197142D01*
X178921900Y-92197142D02*
X178964757Y-92211428D01*
X178964757Y-92211428D02*
X179136185Y-92382856D01*
X179136185Y-92382856D02*
X179136185Y-92197142D01*
X178836185Y-91925714D02*
X178836185Y-92068571D01*
X178836185Y-92068571D02*
X178979042Y-92082857D01*
X178979042Y-92082857D02*
X178964757Y-92068571D01*
X178964757Y-92068571D02*
X178950471Y-92040000D01*
X178950471Y-92040000D02*
X178950471Y-91968571D01*
X178950471Y-91968571D02*
X178964757Y-91940000D01*
X178964757Y-91940000D02*
X178979042Y-91925714D01*
X178979042Y-91925714D02*
X179007614Y-91911428D01*
X179007614Y-91911428D02*
X179079042Y-91911428D01*
X179079042Y-91911428D02*
X179107614Y-91925714D01*
X179107614Y-91925714D02*
X179121900Y-91940000D01*
X179121900Y-91940000D02*
X179136185Y-91968571D01*
X179136185Y-91968571D02*
X179136185Y-92040000D01*
X179136185Y-92040000D02*
X179121900Y-92068571D01*
X179121900Y-92068571D02*
X179107614Y-92082857D01*
X176406185Y-103759999D02*
X176263328Y-103859999D01*
X176406185Y-103931428D02*
X176106185Y-103931428D01*
X176106185Y-103931428D02*
X176106185Y-103817142D01*
X176106185Y-103817142D02*
X176120471Y-103788571D01*
X176120471Y-103788571D02*
X176134757Y-103774285D01*
X176134757Y-103774285D02*
X176163328Y-103759999D01*
X176163328Y-103759999D02*
X176206185Y-103759999D01*
X176206185Y-103759999D02*
X176234757Y-103774285D01*
X176234757Y-103774285D02*
X176249042Y-103788571D01*
X176249042Y-103788571D02*
X176263328Y-103817142D01*
X176263328Y-103817142D02*
X176263328Y-103931428D01*
X176106185Y-103659999D02*
X176106185Y-103474285D01*
X176106185Y-103474285D02*
X176220471Y-103574285D01*
X176220471Y-103574285D02*
X176220471Y-103531428D01*
X176220471Y-103531428D02*
X176234757Y-103502857D01*
X176234757Y-103502857D02*
X176249042Y-103488571D01*
X176249042Y-103488571D02*
X176277614Y-103474285D01*
X176277614Y-103474285D02*
X176349042Y-103474285D01*
X176349042Y-103474285D02*
X176377614Y-103488571D01*
X176377614Y-103488571D02*
X176391900Y-103502857D01*
X176391900Y-103502857D02*
X176406185Y-103531428D01*
X176406185Y-103531428D02*
X176406185Y-103617142D01*
X176406185Y-103617142D02*
X176391900Y-103645714D01*
X176391900Y-103645714D02*
X176377614Y-103659999D01*
X145966185Y-101392856D02*
X145823328Y-101492856D01*
X145966185Y-101564285D02*
X145666185Y-101564285D01*
X145666185Y-101564285D02*
X145666185Y-101449999D01*
X145666185Y-101449999D02*
X145680471Y-101421428D01*
X145680471Y-101421428D02*
X145694757Y-101407142D01*
X145694757Y-101407142D02*
X145723328Y-101392856D01*
X145723328Y-101392856D02*
X145766185Y-101392856D01*
X145766185Y-101392856D02*
X145794757Y-101407142D01*
X145794757Y-101407142D02*
X145809042Y-101421428D01*
X145809042Y-101421428D02*
X145823328Y-101449999D01*
X145823328Y-101449999D02*
X145823328Y-101564285D01*
X145694757Y-101278571D02*
X145680471Y-101264285D01*
X145680471Y-101264285D02*
X145666185Y-101235714D01*
X145666185Y-101235714D02*
X145666185Y-101164285D01*
X145666185Y-101164285D02*
X145680471Y-101135714D01*
X145680471Y-101135714D02*
X145694757Y-101121428D01*
X145694757Y-101121428D02*
X145723328Y-101107142D01*
X145723328Y-101107142D02*
X145751900Y-101107142D01*
X145751900Y-101107142D02*
X145794757Y-101121428D01*
X145794757Y-101121428D02*
X145966185Y-101292856D01*
X145966185Y-101292856D02*
X145966185Y-101107142D01*
X145666185Y-100835714D02*
X145666185Y-100978571D01*
X145666185Y-100978571D02*
X145809042Y-100992857D01*
X145809042Y-100992857D02*
X145794757Y-100978571D01*
X145794757Y-100978571D02*
X145780471Y-100950000D01*
X145780471Y-100950000D02*
X145780471Y-100878571D01*
X145780471Y-100878571D02*
X145794757Y-100850000D01*
X145794757Y-100850000D02*
X145809042Y-100835714D01*
X145809042Y-100835714D02*
X145837614Y-100821428D01*
X145837614Y-100821428D02*
X145909042Y-100821428D01*
X145909042Y-100821428D02*
X145937614Y-100835714D01*
X145937614Y-100835714D02*
X145951900Y-100850000D01*
X145951900Y-100850000D02*
X145966185Y-100878571D01*
X145966185Y-100878571D02*
X145966185Y-100950000D01*
X145966185Y-100950000D02*
X145951900Y-100978571D01*
X145951900Y-100978571D02*
X145937614Y-100992857D01*
X153327143Y-115896185D02*
X153227143Y-115753328D01*
X153155714Y-115896185D02*
X153155714Y-115596185D01*
X153155714Y-115596185D02*
X153270000Y-115596185D01*
X153270000Y-115596185D02*
X153298571Y-115610471D01*
X153298571Y-115610471D02*
X153312857Y-115624757D01*
X153312857Y-115624757D02*
X153327143Y-115653328D01*
X153327143Y-115653328D02*
X153327143Y-115696185D01*
X153327143Y-115696185D02*
X153312857Y-115724757D01*
X153312857Y-115724757D02*
X153298571Y-115739042D01*
X153298571Y-115739042D02*
X153270000Y-115753328D01*
X153270000Y-115753328D02*
X153155714Y-115753328D01*
X153612857Y-115896185D02*
X153441428Y-115896185D01*
X153527143Y-115896185D02*
X153527143Y-115596185D01*
X153527143Y-115596185D02*
X153498571Y-115639042D01*
X153498571Y-115639042D02*
X153470000Y-115667614D01*
X153470000Y-115667614D02*
X153441428Y-115681900D01*
X153870000Y-115596185D02*
X153812857Y-115596185D01*
X153812857Y-115596185D02*
X153784285Y-115610471D01*
X153784285Y-115610471D02*
X153770000Y-115624757D01*
X153770000Y-115624757D02*
X153741428Y-115667614D01*
X153741428Y-115667614D02*
X153727142Y-115724757D01*
X153727142Y-115724757D02*
X153727142Y-115839042D01*
X153727142Y-115839042D02*
X153741428Y-115867614D01*
X153741428Y-115867614D02*
X153755714Y-115881900D01*
X153755714Y-115881900D02*
X153784285Y-115896185D01*
X153784285Y-115896185D02*
X153841428Y-115896185D01*
X153841428Y-115896185D02*
X153870000Y-115881900D01*
X153870000Y-115881900D02*
X153884285Y-115867614D01*
X153884285Y-115867614D02*
X153898571Y-115839042D01*
X153898571Y-115839042D02*
X153898571Y-115767614D01*
X153898571Y-115767614D02*
X153884285Y-115739042D01*
X153884285Y-115739042D02*
X153870000Y-115724757D01*
X153870000Y-115724757D02*
X153841428Y-115710471D01*
X153841428Y-115710471D02*
X153784285Y-115710471D01*
X153784285Y-115710471D02*
X153755714Y-115724757D01*
X153755714Y-115724757D02*
X153741428Y-115739042D01*
X153741428Y-115739042D02*
X153727142Y-115767614D01*
X180917614Y-103042856D02*
X180931900Y-103057142D01*
X180931900Y-103057142D02*
X180946185Y-103099999D01*
X180946185Y-103099999D02*
X180946185Y-103128571D01*
X180946185Y-103128571D02*
X180931900Y-103171428D01*
X180931900Y-103171428D02*
X180903328Y-103199999D01*
X180903328Y-103199999D02*
X180874757Y-103214285D01*
X180874757Y-103214285D02*
X180817614Y-103228571D01*
X180817614Y-103228571D02*
X180774757Y-103228571D01*
X180774757Y-103228571D02*
X180717614Y-103214285D01*
X180717614Y-103214285D02*
X180689042Y-103199999D01*
X180689042Y-103199999D02*
X180660471Y-103171428D01*
X180660471Y-103171428D02*
X180646185Y-103128571D01*
X180646185Y-103128571D02*
X180646185Y-103099999D01*
X180646185Y-103099999D02*
X180660471Y-103057142D01*
X180660471Y-103057142D02*
X180674757Y-103042856D01*
X180946185Y-102757142D02*
X180946185Y-102928571D01*
X180946185Y-102842856D02*
X180646185Y-102842856D01*
X180646185Y-102842856D02*
X180689042Y-102871428D01*
X180689042Y-102871428D02*
X180717614Y-102899999D01*
X180717614Y-102899999D02*
X180731900Y-102928571D01*
X180774757Y-102585714D02*
X180760471Y-102614285D01*
X180760471Y-102614285D02*
X180746185Y-102628571D01*
X180746185Y-102628571D02*
X180717614Y-102642857D01*
X180717614Y-102642857D02*
X180703328Y-102642857D01*
X180703328Y-102642857D02*
X180674757Y-102628571D01*
X180674757Y-102628571D02*
X180660471Y-102614285D01*
X180660471Y-102614285D02*
X180646185Y-102585714D01*
X180646185Y-102585714D02*
X180646185Y-102528571D01*
X180646185Y-102528571D02*
X180660471Y-102500000D01*
X180660471Y-102500000D02*
X180674757Y-102485714D01*
X180674757Y-102485714D02*
X180703328Y-102471428D01*
X180703328Y-102471428D02*
X180717614Y-102471428D01*
X180717614Y-102471428D02*
X180746185Y-102485714D01*
X180746185Y-102485714D02*
X180760471Y-102500000D01*
X180760471Y-102500000D02*
X180774757Y-102528571D01*
X180774757Y-102528571D02*
X180774757Y-102585714D01*
X180774757Y-102585714D02*
X180789042Y-102614285D01*
X180789042Y-102614285D02*
X180803328Y-102628571D01*
X180803328Y-102628571D02*
X180831900Y-102642857D01*
X180831900Y-102642857D02*
X180889042Y-102642857D01*
X180889042Y-102642857D02*
X180917614Y-102628571D01*
X180917614Y-102628571D02*
X180931900Y-102614285D01*
X180931900Y-102614285D02*
X180946185Y-102585714D01*
X180946185Y-102585714D02*
X180946185Y-102528571D01*
X180946185Y-102528571D02*
X180931900Y-102500000D01*
X180931900Y-102500000D02*
X180917614Y-102485714D01*
X180917614Y-102485714D02*
X180889042Y-102471428D01*
X180889042Y-102471428D02*
X180831900Y-102471428D01*
X180831900Y-102471428D02*
X180803328Y-102485714D01*
X180803328Y-102485714D02*
X180789042Y-102500000D01*
X180789042Y-102500000D02*
X180774757Y-102528571D01*
X186077614Y-114262856D02*
X186091900Y-114277142D01*
X186091900Y-114277142D02*
X186106185Y-114319999D01*
X186106185Y-114319999D02*
X186106185Y-114348571D01*
X186106185Y-114348571D02*
X186091900Y-114391428D01*
X186091900Y-114391428D02*
X186063328Y-114419999D01*
X186063328Y-114419999D02*
X186034757Y-114434285D01*
X186034757Y-114434285D02*
X185977614Y-114448571D01*
X185977614Y-114448571D02*
X185934757Y-114448571D01*
X185934757Y-114448571D02*
X185877614Y-114434285D01*
X185877614Y-114434285D02*
X185849042Y-114419999D01*
X185849042Y-114419999D02*
X185820471Y-114391428D01*
X185820471Y-114391428D02*
X185806185Y-114348571D01*
X185806185Y-114348571D02*
X185806185Y-114319999D01*
X185806185Y-114319999D02*
X185820471Y-114277142D01*
X185820471Y-114277142D02*
X185834757Y-114262856D01*
X186106185Y-113977142D02*
X186106185Y-114148571D01*
X186106185Y-114062856D02*
X185806185Y-114062856D01*
X185806185Y-114062856D02*
X185849042Y-114091428D01*
X185849042Y-114091428D02*
X185877614Y-114119999D01*
X185877614Y-114119999D02*
X185891900Y-114148571D01*
X185806185Y-113877142D02*
X185806185Y-113677142D01*
X185806185Y-113677142D02*
X186106185Y-113805714D01*
X144827143Y-98297614D02*
X144812857Y-98311900D01*
X144812857Y-98311900D02*
X144770000Y-98326185D01*
X144770000Y-98326185D02*
X144741428Y-98326185D01*
X144741428Y-98326185D02*
X144698571Y-98311900D01*
X144698571Y-98311900D02*
X144670000Y-98283328D01*
X144670000Y-98283328D02*
X144655714Y-98254757D01*
X144655714Y-98254757D02*
X144641428Y-98197614D01*
X144641428Y-98197614D02*
X144641428Y-98154757D01*
X144641428Y-98154757D02*
X144655714Y-98097614D01*
X144655714Y-98097614D02*
X144670000Y-98069042D01*
X144670000Y-98069042D02*
X144698571Y-98040471D01*
X144698571Y-98040471D02*
X144741428Y-98026185D01*
X144741428Y-98026185D02*
X144770000Y-98026185D01*
X144770000Y-98026185D02*
X144812857Y-98040471D01*
X144812857Y-98040471D02*
X144827143Y-98054757D01*
X144927143Y-98026185D02*
X145112857Y-98026185D01*
X145112857Y-98026185D02*
X145012857Y-98140471D01*
X145012857Y-98140471D02*
X145055714Y-98140471D01*
X145055714Y-98140471D02*
X145084286Y-98154757D01*
X145084286Y-98154757D02*
X145098571Y-98169042D01*
X145098571Y-98169042D02*
X145112857Y-98197614D01*
X145112857Y-98197614D02*
X145112857Y-98269042D01*
X145112857Y-98269042D02*
X145098571Y-98297614D01*
X145098571Y-98297614D02*
X145084286Y-98311900D01*
X145084286Y-98311900D02*
X145055714Y-98326185D01*
X145055714Y-98326185D02*
X144970000Y-98326185D01*
X144970000Y-98326185D02*
X144941428Y-98311900D01*
X144941428Y-98311900D02*
X144927143Y-98297614D01*
X145384285Y-98026185D02*
X145241428Y-98026185D01*
X145241428Y-98026185D02*
X145227142Y-98169042D01*
X145227142Y-98169042D02*
X145241428Y-98154757D01*
X145241428Y-98154757D02*
X145270000Y-98140471D01*
X145270000Y-98140471D02*
X145341428Y-98140471D01*
X145341428Y-98140471D02*
X145370000Y-98154757D01*
X145370000Y-98154757D02*
X145384285Y-98169042D01*
X145384285Y-98169042D02*
X145398571Y-98197614D01*
X145398571Y-98197614D02*
X145398571Y-98269042D01*
X145398571Y-98269042D02*
X145384285Y-98297614D01*
X145384285Y-98297614D02*
X145370000Y-98311900D01*
X145370000Y-98311900D02*
X145341428Y-98326185D01*
X145341428Y-98326185D02*
X145270000Y-98326185D01*
X145270000Y-98326185D02*
X145241428Y-98311900D01*
X145241428Y-98311900D02*
X145227142Y-98297614D01*
X183967143Y-86147614D02*
X183952857Y-86161900D01*
X183952857Y-86161900D02*
X183910000Y-86176185D01*
X183910000Y-86176185D02*
X183881428Y-86176185D01*
X183881428Y-86176185D02*
X183838571Y-86161900D01*
X183838571Y-86161900D02*
X183810000Y-86133328D01*
X183810000Y-86133328D02*
X183795714Y-86104757D01*
X183795714Y-86104757D02*
X183781428Y-86047614D01*
X183781428Y-86047614D02*
X183781428Y-86004757D01*
X183781428Y-86004757D02*
X183795714Y-85947614D01*
X183795714Y-85947614D02*
X183810000Y-85919042D01*
X183810000Y-85919042D02*
X183838571Y-85890471D01*
X183838571Y-85890471D02*
X183881428Y-85876185D01*
X183881428Y-85876185D02*
X183910000Y-85876185D01*
X183910000Y-85876185D02*
X183952857Y-85890471D01*
X183952857Y-85890471D02*
X183967143Y-85904757D01*
X184252857Y-86176185D02*
X184081428Y-86176185D01*
X184167143Y-86176185D02*
X184167143Y-85876185D01*
X184167143Y-85876185D02*
X184138571Y-85919042D01*
X184138571Y-85919042D02*
X184110000Y-85947614D01*
X184110000Y-85947614D02*
X184081428Y-85961900D01*
X184367142Y-85904757D02*
X184381428Y-85890471D01*
X184381428Y-85890471D02*
X184410000Y-85876185D01*
X184410000Y-85876185D02*
X184481428Y-85876185D01*
X184481428Y-85876185D02*
X184510000Y-85890471D01*
X184510000Y-85890471D02*
X184524285Y-85904757D01*
X184524285Y-85904757D02*
X184538571Y-85933328D01*
X184538571Y-85933328D02*
X184538571Y-85961900D01*
X184538571Y-85961900D02*
X184524285Y-86004757D01*
X184524285Y-86004757D02*
X184352857Y-86176185D01*
X184352857Y-86176185D02*
X184538571Y-86176185D01*
X158817614Y-109472856D02*
X158831900Y-109487142D01*
X158831900Y-109487142D02*
X158846185Y-109529999D01*
X158846185Y-109529999D02*
X158846185Y-109558571D01*
X158846185Y-109558571D02*
X158831900Y-109601428D01*
X158831900Y-109601428D02*
X158803328Y-109629999D01*
X158803328Y-109629999D02*
X158774757Y-109644285D01*
X158774757Y-109644285D02*
X158717614Y-109658571D01*
X158717614Y-109658571D02*
X158674757Y-109658571D01*
X158674757Y-109658571D02*
X158617614Y-109644285D01*
X158617614Y-109644285D02*
X158589042Y-109629999D01*
X158589042Y-109629999D02*
X158560471Y-109601428D01*
X158560471Y-109601428D02*
X158546185Y-109558571D01*
X158546185Y-109558571D02*
X158546185Y-109529999D01*
X158546185Y-109529999D02*
X158560471Y-109487142D01*
X158560471Y-109487142D02*
X158574757Y-109472856D01*
X158574757Y-109358571D02*
X158560471Y-109344285D01*
X158560471Y-109344285D02*
X158546185Y-109315714D01*
X158546185Y-109315714D02*
X158546185Y-109244285D01*
X158546185Y-109244285D02*
X158560471Y-109215714D01*
X158560471Y-109215714D02*
X158574757Y-109201428D01*
X158574757Y-109201428D02*
X158603328Y-109187142D01*
X158603328Y-109187142D02*
X158631900Y-109187142D01*
X158631900Y-109187142D02*
X158674757Y-109201428D01*
X158674757Y-109201428D02*
X158846185Y-109372856D01*
X158846185Y-109372856D02*
X158846185Y-109187142D01*
X158574757Y-109072857D02*
X158560471Y-109058571D01*
X158560471Y-109058571D02*
X158546185Y-109030000D01*
X158546185Y-109030000D02*
X158546185Y-108958571D01*
X158546185Y-108958571D02*
X158560471Y-108930000D01*
X158560471Y-108930000D02*
X158574757Y-108915714D01*
X158574757Y-108915714D02*
X158603328Y-108901428D01*
X158603328Y-108901428D02*
X158631900Y-108901428D01*
X158631900Y-108901428D02*
X158674757Y-108915714D01*
X158674757Y-108915714D02*
X158846185Y-109087142D01*
X158846185Y-109087142D02*
X158846185Y-108901428D01*
D13*
X141149819Y-90133333D02*
X141864104Y-90133333D01*
X141864104Y-90133333D02*
X142006961Y-90180952D01*
X142006961Y-90180952D02*
X142102200Y-90276190D01*
X142102200Y-90276190D02*
X142149819Y-90419047D01*
X142149819Y-90419047D02*
X142149819Y-90514285D01*
X141483152Y-89228571D02*
X142149819Y-89228571D01*
X141102200Y-89466666D02*
X141816485Y-89704761D01*
X141816485Y-89704761D02*
X141816485Y-89085714D01*
D12*
X149077614Y-97769999D02*
X149091900Y-97784285D01*
X149091900Y-97784285D02*
X149106185Y-97827142D01*
X149106185Y-97827142D02*
X149106185Y-97855714D01*
X149106185Y-97855714D02*
X149091900Y-97898571D01*
X149091900Y-97898571D02*
X149063328Y-97927142D01*
X149063328Y-97927142D02*
X149034757Y-97941428D01*
X149034757Y-97941428D02*
X148977614Y-97955714D01*
X148977614Y-97955714D02*
X148934757Y-97955714D01*
X148934757Y-97955714D02*
X148877614Y-97941428D01*
X148877614Y-97941428D02*
X148849042Y-97927142D01*
X148849042Y-97927142D02*
X148820471Y-97898571D01*
X148820471Y-97898571D02*
X148806185Y-97855714D01*
X148806185Y-97855714D02*
X148806185Y-97827142D01*
X148806185Y-97827142D02*
X148820471Y-97784285D01*
X148820471Y-97784285D02*
X148834757Y-97769999D01*
X148806185Y-97498571D02*
X148806185Y-97641428D01*
X148806185Y-97641428D02*
X148949042Y-97655714D01*
X148949042Y-97655714D02*
X148934757Y-97641428D01*
X148934757Y-97641428D02*
X148920471Y-97612857D01*
X148920471Y-97612857D02*
X148920471Y-97541428D01*
X148920471Y-97541428D02*
X148934757Y-97512857D01*
X148934757Y-97512857D02*
X148949042Y-97498571D01*
X148949042Y-97498571D02*
X148977614Y-97484285D01*
X148977614Y-97484285D02*
X149049042Y-97484285D01*
X149049042Y-97484285D02*
X149077614Y-97498571D01*
X149077614Y-97498571D02*
X149091900Y-97512857D01*
X149091900Y-97512857D02*
X149106185Y-97541428D01*
X149106185Y-97541428D02*
X149106185Y-97612857D01*
X149106185Y-97612857D02*
X149091900Y-97641428D01*
X149091900Y-97641428D02*
X149077614Y-97655714D01*
X164096185Y-92129999D02*
X164096185Y-92272856D01*
X164096185Y-92272856D02*
X163796185Y-92272856D01*
X163824757Y-92044285D02*
X163810471Y-92029999D01*
X163810471Y-92029999D02*
X163796185Y-92001428D01*
X163796185Y-92001428D02*
X163796185Y-91929999D01*
X163796185Y-91929999D02*
X163810471Y-91901428D01*
X163810471Y-91901428D02*
X163824757Y-91887142D01*
X163824757Y-91887142D02*
X163853328Y-91872856D01*
X163853328Y-91872856D02*
X163881900Y-91872856D01*
X163881900Y-91872856D02*
X163924757Y-91887142D01*
X163924757Y-91887142D02*
X164096185Y-92058570D01*
X164096185Y-92058570D02*
X164096185Y-91872856D01*
X170617143Y-102642614D02*
X170602857Y-102656900D01*
X170602857Y-102656900D02*
X170560000Y-102671185D01*
X170560000Y-102671185D02*
X170531428Y-102671185D01*
X170531428Y-102671185D02*
X170488571Y-102656900D01*
X170488571Y-102656900D02*
X170460000Y-102628328D01*
X170460000Y-102628328D02*
X170445714Y-102599757D01*
X170445714Y-102599757D02*
X170431428Y-102542614D01*
X170431428Y-102542614D02*
X170431428Y-102499757D01*
X170431428Y-102499757D02*
X170445714Y-102442614D01*
X170445714Y-102442614D02*
X170460000Y-102414042D01*
X170460000Y-102414042D02*
X170488571Y-102385471D01*
X170488571Y-102385471D02*
X170531428Y-102371185D01*
X170531428Y-102371185D02*
X170560000Y-102371185D01*
X170560000Y-102371185D02*
X170602857Y-102385471D01*
X170602857Y-102385471D02*
X170617143Y-102399757D01*
X170731428Y-102399757D02*
X170745714Y-102385471D01*
X170745714Y-102385471D02*
X170774286Y-102371185D01*
X170774286Y-102371185D02*
X170845714Y-102371185D01*
X170845714Y-102371185D02*
X170874286Y-102385471D01*
X170874286Y-102385471D02*
X170888571Y-102399757D01*
X170888571Y-102399757D02*
X170902857Y-102428328D01*
X170902857Y-102428328D02*
X170902857Y-102456900D01*
X170902857Y-102456900D02*
X170888571Y-102499757D01*
X170888571Y-102499757D02*
X170717143Y-102671185D01*
X170717143Y-102671185D02*
X170902857Y-102671185D01*
X171002857Y-102371185D02*
X171188571Y-102371185D01*
X171188571Y-102371185D02*
X171088571Y-102485471D01*
X171088571Y-102485471D02*
X171131428Y-102485471D01*
X171131428Y-102485471D02*
X171160000Y-102499757D01*
X171160000Y-102499757D02*
X171174285Y-102514042D01*
X171174285Y-102514042D02*
X171188571Y-102542614D01*
X171188571Y-102542614D02*
X171188571Y-102614042D01*
X171188571Y-102614042D02*
X171174285Y-102642614D01*
X171174285Y-102642614D02*
X171160000Y-102656900D01*
X171160000Y-102656900D02*
X171131428Y-102671185D01*
X171131428Y-102671185D02*
X171045714Y-102671185D01*
X171045714Y-102671185D02*
X171017142Y-102656900D01*
X171017142Y-102656900D02*
X171002857Y-102642614D01*
X175818572Y-106086185D02*
X175818572Y-105786185D01*
X175818572Y-105786185D02*
X175890001Y-105786185D01*
X175890001Y-105786185D02*
X175932858Y-105800471D01*
X175932858Y-105800471D02*
X175961429Y-105829042D01*
X175961429Y-105829042D02*
X175975715Y-105857614D01*
X175975715Y-105857614D02*
X175990001Y-105914757D01*
X175990001Y-105914757D02*
X175990001Y-105957614D01*
X175990001Y-105957614D02*
X175975715Y-106014757D01*
X175975715Y-106014757D02*
X175961429Y-106043328D01*
X175961429Y-106043328D02*
X175932858Y-106071900D01*
X175932858Y-106071900D02*
X175890001Y-106086185D01*
X175890001Y-106086185D02*
X175818572Y-106086185D01*
X176275715Y-106086185D02*
X176104286Y-106086185D01*
X176190001Y-106086185D02*
X176190001Y-105786185D01*
X176190001Y-105786185D02*
X176161429Y-105829042D01*
X176161429Y-105829042D02*
X176132858Y-105857614D01*
X176132858Y-105857614D02*
X176104286Y-105871900D01*
X176332858Y-106114757D02*
X176561429Y-106114757D01*
X176632857Y-106086185D02*
X176632857Y-105786185D01*
X176632857Y-105786185D02*
X176747143Y-105786185D01*
X176747143Y-105786185D02*
X176775714Y-105800471D01*
X176775714Y-105800471D02*
X176790000Y-105814757D01*
X176790000Y-105814757D02*
X176804286Y-105843328D01*
X176804286Y-105843328D02*
X176804286Y-105886185D01*
X176804286Y-105886185D02*
X176790000Y-105914757D01*
X176790000Y-105914757D02*
X176775714Y-105929042D01*
X176775714Y-105929042D02*
X176747143Y-105943328D01*
X176747143Y-105943328D02*
X176632857Y-105943328D01*
X176904286Y-105786185D02*
X176975714Y-106086185D01*
X176975714Y-106086185D02*
X177032857Y-105871900D01*
X177032857Y-105871900D02*
X177090000Y-106086185D01*
X177090000Y-106086185D02*
X177161429Y-105786185D01*
X177447143Y-106086185D02*
X177347143Y-105943328D01*
X177275714Y-106086185D02*
X177275714Y-105786185D01*
X177275714Y-105786185D02*
X177390000Y-105786185D01*
X177390000Y-105786185D02*
X177418571Y-105800471D01*
X177418571Y-105800471D02*
X177432857Y-105814757D01*
X177432857Y-105814757D02*
X177447143Y-105843328D01*
X177447143Y-105843328D02*
X177447143Y-105886185D01*
X177447143Y-105886185D02*
X177432857Y-105914757D01*
X177432857Y-105914757D02*
X177418571Y-105929042D01*
X177418571Y-105929042D02*
X177390000Y-105943328D01*
X177390000Y-105943328D02*
X177275714Y-105943328D01*
X177504286Y-106114757D02*
X177732857Y-106114757D01*
X177904285Y-105929042D02*
X177947142Y-105943328D01*
X177947142Y-105943328D02*
X177961428Y-105957614D01*
X177961428Y-105957614D02*
X177975714Y-105986185D01*
X177975714Y-105986185D02*
X177975714Y-106029042D01*
X177975714Y-106029042D02*
X177961428Y-106057614D01*
X177961428Y-106057614D02*
X177947142Y-106071900D01*
X177947142Y-106071900D02*
X177918571Y-106086185D01*
X177918571Y-106086185D02*
X177804285Y-106086185D01*
X177804285Y-106086185D02*
X177804285Y-105786185D01*
X177804285Y-105786185D02*
X177904285Y-105786185D01*
X177904285Y-105786185D02*
X177932857Y-105800471D01*
X177932857Y-105800471D02*
X177947142Y-105814757D01*
X177947142Y-105814757D02*
X177961428Y-105843328D01*
X177961428Y-105843328D02*
X177961428Y-105871900D01*
X177961428Y-105871900D02*
X177947142Y-105900471D01*
X177947142Y-105900471D02*
X177932857Y-105914757D01*
X177932857Y-105914757D02*
X177904285Y-105929042D01*
X177904285Y-105929042D02*
X177804285Y-105929042D01*
X178089999Y-106000471D02*
X178232857Y-106000471D01*
X178061428Y-106086185D02*
X178161428Y-105786185D01*
X178161428Y-105786185D02*
X178261428Y-106086185D01*
X178318571Y-105786185D02*
X178490000Y-105786185D01*
X178404285Y-106086185D02*
X178404285Y-105786185D01*
X178547142Y-105786185D02*
X178718571Y-105786185D01*
X178632856Y-106086185D02*
X178632856Y-105786185D01*
X178975713Y-106086185D02*
X178804284Y-106086185D01*
X178889999Y-106086185D02*
X178889999Y-105786185D01*
X178889999Y-105786185D02*
X178861427Y-105829042D01*
X178861427Y-105829042D02*
X178832856Y-105857614D01*
X178832856Y-105857614D02*
X178804284Y-105871900D01*
X135676185Y-118799999D02*
X135533328Y-118899999D01*
X135676185Y-118971428D02*
X135376185Y-118971428D01*
X135376185Y-118971428D02*
X135376185Y-118857142D01*
X135376185Y-118857142D02*
X135390471Y-118828571D01*
X135390471Y-118828571D02*
X135404757Y-118814285D01*
X135404757Y-118814285D02*
X135433328Y-118799999D01*
X135433328Y-118799999D02*
X135476185Y-118799999D01*
X135476185Y-118799999D02*
X135504757Y-118814285D01*
X135504757Y-118814285D02*
X135519042Y-118828571D01*
X135519042Y-118828571D02*
X135533328Y-118857142D01*
X135533328Y-118857142D02*
X135533328Y-118971428D01*
X135504757Y-118628571D02*
X135490471Y-118657142D01*
X135490471Y-118657142D02*
X135476185Y-118671428D01*
X135476185Y-118671428D02*
X135447614Y-118685714D01*
X135447614Y-118685714D02*
X135433328Y-118685714D01*
X135433328Y-118685714D02*
X135404757Y-118671428D01*
X135404757Y-118671428D02*
X135390471Y-118657142D01*
X135390471Y-118657142D02*
X135376185Y-118628571D01*
X135376185Y-118628571D02*
X135376185Y-118571428D01*
X135376185Y-118571428D02*
X135390471Y-118542857D01*
X135390471Y-118542857D02*
X135404757Y-118528571D01*
X135404757Y-118528571D02*
X135433328Y-118514285D01*
X135433328Y-118514285D02*
X135447614Y-118514285D01*
X135447614Y-118514285D02*
X135476185Y-118528571D01*
X135476185Y-118528571D02*
X135490471Y-118542857D01*
X135490471Y-118542857D02*
X135504757Y-118571428D01*
X135504757Y-118571428D02*
X135504757Y-118628571D01*
X135504757Y-118628571D02*
X135519042Y-118657142D01*
X135519042Y-118657142D02*
X135533328Y-118671428D01*
X135533328Y-118671428D02*
X135561900Y-118685714D01*
X135561900Y-118685714D02*
X135619042Y-118685714D01*
X135619042Y-118685714D02*
X135647614Y-118671428D01*
X135647614Y-118671428D02*
X135661900Y-118657142D01*
X135661900Y-118657142D02*
X135676185Y-118628571D01*
X135676185Y-118628571D02*
X135676185Y-118571428D01*
X135676185Y-118571428D02*
X135661900Y-118542857D01*
X135661900Y-118542857D02*
X135647614Y-118528571D01*
X135647614Y-118528571D02*
X135619042Y-118514285D01*
X135619042Y-118514285D02*
X135561900Y-118514285D01*
X135561900Y-118514285D02*
X135533328Y-118528571D01*
X135533328Y-118528571D02*
X135519042Y-118542857D01*
X135519042Y-118542857D02*
X135504757Y-118571428D01*
X161986185Y-105999999D02*
X161843328Y-106099999D01*
X161986185Y-106171428D02*
X161686185Y-106171428D01*
X161686185Y-106171428D02*
X161686185Y-106057142D01*
X161686185Y-106057142D02*
X161700471Y-106028571D01*
X161700471Y-106028571D02*
X161714757Y-106014285D01*
X161714757Y-106014285D02*
X161743328Y-105999999D01*
X161743328Y-105999999D02*
X161786185Y-105999999D01*
X161786185Y-105999999D02*
X161814757Y-106014285D01*
X161814757Y-106014285D02*
X161829042Y-106028571D01*
X161829042Y-106028571D02*
X161843328Y-106057142D01*
X161843328Y-106057142D02*
X161843328Y-106171428D01*
X161686185Y-105742857D02*
X161686185Y-105799999D01*
X161686185Y-105799999D02*
X161700471Y-105828571D01*
X161700471Y-105828571D02*
X161714757Y-105842857D01*
X161714757Y-105842857D02*
X161757614Y-105871428D01*
X161757614Y-105871428D02*
X161814757Y-105885714D01*
X161814757Y-105885714D02*
X161929042Y-105885714D01*
X161929042Y-105885714D02*
X161957614Y-105871428D01*
X161957614Y-105871428D02*
X161971900Y-105857142D01*
X161971900Y-105857142D02*
X161986185Y-105828571D01*
X161986185Y-105828571D02*
X161986185Y-105771428D01*
X161986185Y-105771428D02*
X161971900Y-105742857D01*
X161971900Y-105742857D02*
X161957614Y-105728571D01*
X161957614Y-105728571D02*
X161929042Y-105714285D01*
X161929042Y-105714285D02*
X161857614Y-105714285D01*
X161857614Y-105714285D02*
X161829042Y-105728571D01*
X161829042Y-105728571D02*
X161814757Y-105742857D01*
X161814757Y-105742857D02*
X161800471Y-105771428D01*
X161800471Y-105771428D02*
X161800471Y-105828571D01*
X161800471Y-105828571D02*
X161814757Y-105857142D01*
X161814757Y-105857142D02*
X161829042Y-105871428D01*
X161829042Y-105871428D02*
X161857614Y-105885714D01*
X174176185Y-103672499D02*
X174033328Y-103772499D01*
X174176185Y-103843928D02*
X173876185Y-103843928D01*
X173876185Y-103843928D02*
X173876185Y-103729642D01*
X173876185Y-103729642D02*
X173890471Y-103701071D01*
X173890471Y-103701071D02*
X173904757Y-103686785D01*
X173904757Y-103686785D02*
X173933328Y-103672499D01*
X173933328Y-103672499D02*
X173976185Y-103672499D01*
X173976185Y-103672499D02*
X174004757Y-103686785D01*
X174004757Y-103686785D02*
X174019042Y-103701071D01*
X174019042Y-103701071D02*
X174033328Y-103729642D01*
X174033328Y-103729642D02*
X174033328Y-103843928D01*
X173976185Y-103415357D02*
X174176185Y-103415357D01*
X173861900Y-103486785D02*
X174076185Y-103558214D01*
X174076185Y-103558214D02*
X174076185Y-103372499D01*
X151157143Y-115847614D02*
X151142857Y-115861900D01*
X151142857Y-115861900D02*
X151100000Y-115876185D01*
X151100000Y-115876185D02*
X151071428Y-115876185D01*
X151071428Y-115876185D02*
X151028571Y-115861900D01*
X151028571Y-115861900D02*
X151000000Y-115833328D01*
X151000000Y-115833328D02*
X150985714Y-115804757D01*
X150985714Y-115804757D02*
X150971428Y-115747614D01*
X150971428Y-115747614D02*
X150971428Y-115704757D01*
X150971428Y-115704757D02*
X150985714Y-115647614D01*
X150985714Y-115647614D02*
X151000000Y-115619042D01*
X151000000Y-115619042D02*
X151028571Y-115590471D01*
X151028571Y-115590471D02*
X151071428Y-115576185D01*
X151071428Y-115576185D02*
X151100000Y-115576185D01*
X151100000Y-115576185D02*
X151142857Y-115590471D01*
X151142857Y-115590471D02*
X151157143Y-115604757D01*
X151257143Y-115576185D02*
X151442857Y-115576185D01*
X151442857Y-115576185D02*
X151342857Y-115690471D01*
X151342857Y-115690471D02*
X151385714Y-115690471D01*
X151385714Y-115690471D02*
X151414286Y-115704757D01*
X151414286Y-115704757D02*
X151428571Y-115719042D01*
X151428571Y-115719042D02*
X151442857Y-115747614D01*
X151442857Y-115747614D02*
X151442857Y-115819042D01*
X151442857Y-115819042D02*
X151428571Y-115847614D01*
X151428571Y-115847614D02*
X151414286Y-115861900D01*
X151414286Y-115861900D02*
X151385714Y-115876185D01*
X151385714Y-115876185D02*
X151300000Y-115876185D01*
X151300000Y-115876185D02*
X151271428Y-115861900D01*
X151271428Y-115861900D02*
X151257143Y-115847614D01*
X151542857Y-115576185D02*
X151728571Y-115576185D01*
X151728571Y-115576185D02*
X151628571Y-115690471D01*
X151628571Y-115690471D02*
X151671428Y-115690471D01*
X151671428Y-115690471D02*
X151700000Y-115704757D01*
X151700000Y-115704757D02*
X151714285Y-115719042D01*
X151714285Y-115719042D02*
X151728571Y-115747614D01*
X151728571Y-115747614D02*
X151728571Y-115819042D01*
X151728571Y-115819042D02*
X151714285Y-115847614D01*
X151714285Y-115847614D02*
X151700000Y-115861900D01*
X151700000Y-115861900D02*
X151671428Y-115876185D01*
X151671428Y-115876185D02*
X151585714Y-115876185D01*
X151585714Y-115876185D02*
X151557142Y-115861900D01*
X151557142Y-115861900D02*
X151542857Y-115847614D01*
X135661185Y-117099999D02*
X135518328Y-117199999D01*
X135661185Y-117271428D02*
X135361185Y-117271428D01*
X135361185Y-117271428D02*
X135361185Y-117157142D01*
X135361185Y-117157142D02*
X135375471Y-117128571D01*
X135375471Y-117128571D02*
X135389757Y-117114285D01*
X135389757Y-117114285D02*
X135418328Y-117099999D01*
X135418328Y-117099999D02*
X135461185Y-117099999D01*
X135461185Y-117099999D02*
X135489757Y-117114285D01*
X135489757Y-117114285D02*
X135504042Y-117128571D01*
X135504042Y-117128571D02*
X135518328Y-117157142D01*
X135518328Y-117157142D02*
X135518328Y-117271428D01*
X135361185Y-116999999D02*
X135361185Y-116799999D01*
X135361185Y-116799999D02*
X135661185Y-116928571D01*
X178556185Y-103819999D02*
X178413328Y-103919999D01*
X178556185Y-103991428D02*
X178256185Y-103991428D01*
X178256185Y-103991428D02*
X178256185Y-103877142D01*
X178256185Y-103877142D02*
X178270471Y-103848571D01*
X178270471Y-103848571D02*
X178284757Y-103834285D01*
X178284757Y-103834285D02*
X178313328Y-103819999D01*
X178313328Y-103819999D02*
X178356185Y-103819999D01*
X178356185Y-103819999D02*
X178384757Y-103834285D01*
X178384757Y-103834285D02*
X178399042Y-103848571D01*
X178399042Y-103848571D02*
X178413328Y-103877142D01*
X178413328Y-103877142D02*
X178413328Y-103991428D01*
X178284757Y-103705714D02*
X178270471Y-103691428D01*
X178270471Y-103691428D02*
X178256185Y-103662857D01*
X178256185Y-103662857D02*
X178256185Y-103591428D01*
X178256185Y-103591428D02*
X178270471Y-103562857D01*
X178270471Y-103562857D02*
X178284757Y-103548571D01*
X178284757Y-103548571D02*
X178313328Y-103534285D01*
X178313328Y-103534285D02*
X178341900Y-103534285D01*
X178341900Y-103534285D02*
X178384757Y-103548571D01*
X178384757Y-103548571D02*
X178556185Y-103719999D01*
X178556185Y-103719999D02*
X178556185Y-103534285D01*
X173130114Y-97959999D02*
X173144400Y-97974285D01*
X173144400Y-97974285D02*
X173158685Y-98017142D01*
X173158685Y-98017142D02*
X173158685Y-98045714D01*
X173158685Y-98045714D02*
X173144400Y-98088571D01*
X173144400Y-98088571D02*
X173115828Y-98117142D01*
X173115828Y-98117142D02*
X173087257Y-98131428D01*
X173087257Y-98131428D02*
X173030114Y-98145714D01*
X173030114Y-98145714D02*
X172987257Y-98145714D01*
X172987257Y-98145714D02*
X172930114Y-98131428D01*
X172930114Y-98131428D02*
X172901542Y-98117142D01*
X172901542Y-98117142D02*
X172872971Y-98088571D01*
X172872971Y-98088571D02*
X172858685Y-98045714D01*
X172858685Y-98045714D02*
X172858685Y-98017142D01*
X172858685Y-98017142D02*
X172872971Y-97974285D01*
X172872971Y-97974285D02*
X172887257Y-97959999D01*
X172958685Y-97702857D02*
X173158685Y-97702857D01*
X172844400Y-97774285D02*
X173058685Y-97845714D01*
X173058685Y-97845714D02*
X173058685Y-97659999D01*
X158706185Y-114162856D02*
X158563328Y-114262856D01*
X158706185Y-114334285D02*
X158406185Y-114334285D01*
X158406185Y-114334285D02*
X158406185Y-114219999D01*
X158406185Y-114219999D02*
X158420471Y-114191428D01*
X158420471Y-114191428D02*
X158434757Y-114177142D01*
X158434757Y-114177142D02*
X158463328Y-114162856D01*
X158463328Y-114162856D02*
X158506185Y-114162856D01*
X158506185Y-114162856D02*
X158534757Y-114177142D01*
X158534757Y-114177142D02*
X158549042Y-114191428D01*
X158549042Y-114191428D02*
X158563328Y-114219999D01*
X158563328Y-114219999D02*
X158563328Y-114334285D01*
X158434757Y-114048571D02*
X158420471Y-114034285D01*
X158420471Y-114034285D02*
X158406185Y-114005714D01*
X158406185Y-114005714D02*
X158406185Y-113934285D01*
X158406185Y-113934285D02*
X158420471Y-113905714D01*
X158420471Y-113905714D02*
X158434757Y-113891428D01*
X158434757Y-113891428D02*
X158463328Y-113877142D01*
X158463328Y-113877142D02*
X158491900Y-113877142D01*
X158491900Y-113877142D02*
X158534757Y-113891428D01*
X158534757Y-113891428D02*
X158706185Y-114062856D01*
X158706185Y-114062856D02*
X158706185Y-113877142D01*
X158434757Y-113762857D02*
X158420471Y-113748571D01*
X158420471Y-113748571D02*
X158406185Y-113720000D01*
X158406185Y-113720000D02*
X158406185Y-113648571D01*
X158406185Y-113648571D02*
X158420471Y-113620000D01*
X158420471Y-113620000D02*
X158434757Y-113605714D01*
X158434757Y-113605714D02*
X158463328Y-113591428D01*
X158463328Y-113591428D02*
X158491900Y-113591428D01*
X158491900Y-113591428D02*
X158534757Y-113605714D01*
X158534757Y-113605714D02*
X158706185Y-113777142D01*
X158706185Y-113777142D02*
X158706185Y-113591428D01*
X143546185Y-100192856D02*
X143403328Y-100292856D01*
X143546185Y-100364285D02*
X143246185Y-100364285D01*
X143246185Y-100364285D02*
X143246185Y-100249999D01*
X143246185Y-100249999D02*
X143260471Y-100221428D01*
X143260471Y-100221428D02*
X143274757Y-100207142D01*
X143274757Y-100207142D02*
X143303328Y-100192856D01*
X143303328Y-100192856D02*
X143346185Y-100192856D01*
X143346185Y-100192856D02*
X143374757Y-100207142D01*
X143374757Y-100207142D02*
X143389042Y-100221428D01*
X143389042Y-100221428D02*
X143403328Y-100249999D01*
X143403328Y-100249999D02*
X143403328Y-100364285D01*
X143274757Y-100078571D02*
X143260471Y-100064285D01*
X143260471Y-100064285D02*
X143246185Y-100035714D01*
X143246185Y-100035714D02*
X143246185Y-99964285D01*
X143246185Y-99964285D02*
X143260471Y-99935714D01*
X143260471Y-99935714D02*
X143274757Y-99921428D01*
X143274757Y-99921428D02*
X143303328Y-99907142D01*
X143303328Y-99907142D02*
X143331900Y-99907142D01*
X143331900Y-99907142D02*
X143374757Y-99921428D01*
X143374757Y-99921428D02*
X143546185Y-100092856D01*
X143546185Y-100092856D02*
X143546185Y-99907142D01*
X143346185Y-99650000D02*
X143546185Y-99650000D01*
X143231900Y-99721428D02*
X143446185Y-99792857D01*
X143446185Y-99792857D02*
X143446185Y-99607142D01*
X157657614Y-111519999D02*
X157671900Y-111534285D01*
X157671900Y-111534285D02*
X157686185Y-111577142D01*
X157686185Y-111577142D02*
X157686185Y-111605714D01*
X157686185Y-111605714D02*
X157671900Y-111648571D01*
X157671900Y-111648571D02*
X157643328Y-111677142D01*
X157643328Y-111677142D02*
X157614757Y-111691428D01*
X157614757Y-111691428D02*
X157557614Y-111705714D01*
X157557614Y-111705714D02*
X157514757Y-111705714D01*
X157514757Y-111705714D02*
X157457614Y-111691428D01*
X157457614Y-111691428D02*
X157429042Y-111677142D01*
X157429042Y-111677142D02*
X157400471Y-111648571D01*
X157400471Y-111648571D02*
X157386185Y-111605714D01*
X157386185Y-111605714D02*
X157386185Y-111577142D01*
X157386185Y-111577142D02*
X157400471Y-111534285D01*
X157400471Y-111534285D02*
X157414757Y-111519999D01*
X157686185Y-111234285D02*
X157686185Y-111405714D01*
X157686185Y-111319999D02*
X157386185Y-111319999D01*
X157386185Y-111319999D02*
X157429042Y-111348571D01*
X157429042Y-111348571D02*
X157457614Y-111377142D01*
X157457614Y-111377142D02*
X157471900Y-111405714D01*
X159307614Y-102600356D02*
X159321900Y-102614642D01*
X159321900Y-102614642D02*
X159336185Y-102657499D01*
X159336185Y-102657499D02*
X159336185Y-102686071D01*
X159336185Y-102686071D02*
X159321900Y-102728928D01*
X159321900Y-102728928D02*
X159293328Y-102757499D01*
X159293328Y-102757499D02*
X159264757Y-102771785D01*
X159264757Y-102771785D02*
X159207614Y-102786071D01*
X159207614Y-102786071D02*
X159164757Y-102786071D01*
X159164757Y-102786071D02*
X159107614Y-102771785D01*
X159107614Y-102771785D02*
X159079042Y-102757499D01*
X159079042Y-102757499D02*
X159050471Y-102728928D01*
X159050471Y-102728928D02*
X159036185Y-102686071D01*
X159036185Y-102686071D02*
X159036185Y-102657499D01*
X159036185Y-102657499D02*
X159050471Y-102614642D01*
X159050471Y-102614642D02*
X159064757Y-102600356D01*
X159336185Y-102314642D02*
X159336185Y-102486071D01*
X159336185Y-102400356D02*
X159036185Y-102400356D01*
X159036185Y-102400356D02*
X159079042Y-102428928D01*
X159079042Y-102428928D02*
X159107614Y-102457499D01*
X159107614Y-102457499D02*
X159121900Y-102486071D01*
X159036185Y-102128928D02*
X159036185Y-102100357D01*
X159036185Y-102100357D02*
X159050471Y-102071785D01*
X159050471Y-102071785D02*
X159064757Y-102057500D01*
X159064757Y-102057500D02*
X159093328Y-102043214D01*
X159093328Y-102043214D02*
X159150471Y-102028928D01*
X159150471Y-102028928D02*
X159221900Y-102028928D01*
X159221900Y-102028928D02*
X159279042Y-102043214D01*
X159279042Y-102043214D02*
X159307614Y-102057500D01*
X159307614Y-102057500D02*
X159321900Y-102071785D01*
X159321900Y-102071785D02*
X159336185Y-102100357D01*
X159336185Y-102100357D02*
X159336185Y-102128928D01*
X159336185Y-102128928D02*
X159321900Y-102157500D01*
X159321900Y-102157500D02*
X159307614Y-102171785D01*
X159307614Y-102171785D02*
X159279042Y-102186071D01*
X159279042Y-102186071D02*
X159221900Y-102200357D01*
X159221900Y-102200357D02*
X159150471Y-102200357D01*
X159150471Y-102200357D02*
X159093328Y-102186071D01*
X159093328Y-102186071D02*
X159064757Y-102171785D01*
X159064757Y-102171785D02*
X159050471Y-102157500D01*
X159050471Y-102157500D02*
X159036185Y-102128928D01*
D13*
X139197200Y-101133332D02*
X139244819Y-100990475D01*
X139244819Y-100990475D02*
X139244819Y-100752380D01*
X139244819Y-100752380D02*
X139197200Y-100657142D01*
X139197200Y-100657142D02*
X139149580Y-100609523D01*
X139149580Y-100609523D02*
X139054342Y-100561904D01*
X139054342Y-100561904D02*
X138959104Y-100561904D01*
X138959104Y-100561904D02*
X138863866Y-100609523D01*
X138863866Y-100609523D02*
X138816247Y-100657142D01*
X138816247Y-100657142D02*
X138768628Y-100752380D01*
X138768628Y-100752380D02*
X138721009Y-100942856D01*
X138721009Y-100942856D02*
X138673390Y-101038094D01*
X138673390Y-101038094D02*
X138625771Y-101085713D01*
X138625771Y-101085713D02*
X138530533Y-101133332D01*
X138530533Y-101133332D02*
X138435295Y-101133332D01*
X138435295Y-101133332D02*
X138340057Y-101085713D01*
X138340057Y-101085713D02*
X138292438Y-101038094D01*
X138292438Y-101038094D02*
X138244819Y-100942856D01*
X138244819Y-100942856D02*
X138244819Y-100704761D01*
X138244819Y-100704761D02*
X138292438Y-100561904D01*
X138244819Y-100228570D02*
X139244819Y-99990475D01*
X139244819Y-99990475D02*
X138530533Y-99799999D01*
X138530533Y-99799999D02*
X139244819Y-99609523D01*
X139244819Y-99609523D02*
X138244819Y-99371428D01*
X138340057Y-99038094D02*
X138292438Y-98990475D01*
X138292438Y-98990475D02*
X138244819Y-98895237D01*
X138244819Y-98895237D02*
X138244819Y-98657142D01*
X138244819Y-98657142D02*
X138292438Y-98561904D01*
X138292438Y-98561904D02*
X138340057Y-98514285D01*
X138340057Y-98514285D02*
X138435295Y-98466666D01*
X138435295Y-98466666D02*
X138530533Y-98466666D01*
X138530533Y-98466666D02*
X138673390Y-98514285D01*
X138673390Y-98514285D02*
X139244819Y-99085713D01*
X139244819Y-99085713D02*
X139244819Y-98466666D01*
D12*
X147017143Y-93936185D02*
X146917143Y-93793328D01*
X146845714Y-93936185D02*
X146845714Y-93636185D01*
X146845714Y-93636185D02*
X146960000Y-93636185D01*
X146960000Y-93636185D02*
X146988571Y-93650471D01*
X146988571Y-93650471D02*
X147002857Y-93664757D01*
X147002857Y-93664757D02*
X147017143Y-93693328D01*
X147017143Y-93693328D02*
X147017143Y-93736185D01*
X147017143Y-93736185D02*
X147002857Y-93764757D01*
X147002857Y-93764757D02*
X146988571Y-93779042D01*
X146988571Y-93779042D02*
X146960000Y-93793328D01*
X146960000Y-93793328D02*
X146845714Y-93793328D01*
X147302857Y-93936185D02*
X147131428Y-93936185D01*
X147217143Y-93936185D02*
X147217143Y-93636185D01*
X147217143Y-93636185D02*
X147188571Y-93679042D01*
X147188571Y-93679042D02*
X147160000Y-93707614D01*
X147160000Y-93707614D02*
X147131428Y-93721900D01*
X147445714Y-93936185D02*
X147502857Y-93936185D01*
X147502857Y-93936185D02*
X147531428Y-93921900D01*
X147531428Y-93921900D02*
X147545714Y-93907614D01*
X147545714Y-93907614D02*
X147574285Y-93864757D01*
X147574285Y-93864757D02*
X147588571Y-93807614D01*
X147588571Y-93807614D02*
X147588571Y-93693328D01*
X147588571Y-93693328D02*
X147574285Y-93664757D01*
X147574285Y-93664757D02*
X147560000Y-93650471D01*
X147560000Y-93650471D02*
X147531428Y-93636185D01*
X147531428Y-93636185D02*
X147474285Y-93636185D01*
X147474285Y-93636185D02*
X147445714Y-93650471D01*
X147445714Y-93650471D02*
X147431428Y-93664757D01*
X147431428Y-93664757D02*
X147417142Y-93693328D01*
X147417142Y-93693328D02*
X147417142Y-93764757D01*
X147417142Y-93764757D02*
X147431428Y-93793328D01*
X147431428Y-93793328D02*
X147445714Y-93807614D01*
X147445714Y-93807614D02*
X147474285Y-93821900D01*
X147474285Y-93821900D02*
X147531428Y-93821900D01*
X147531428Y-93821900D02*
X147560000Y-93807614D01*
X147560000Y-93807614D02*
X147574285Y-93793328D01*
X147574285Y-93793328D02*
X147588571Y-93764757D01*
X176450892Y-89842614D02*
X176436606Y-89856900D01*
X176436606Y-89856900D02*
X176393749Y-89871185D01*
X176393749Y-89871185D02*
X176365177Y-89871185D01*
X176365177Y-89871185D02*
X176322320Y-89856900D01*
X176322320Y-89856900D02*
X176293749Y-89828328D01*
X176293749Y-89828328D02*
X176279463Y-89799757D01*
X176279463Y-89799757D02*
X176265177Y-89742614D01*
X176265177Y-89742614D02*
X176265177Y-89699757D01*
X176265177Y-89699757D02*
X176279463Y-89642614D01*
X176279463Y-89642614D02*
X176293749Y-89614042D01*
X176293749Y-89614042D02*
X176322320Y-89585471D01*
X176322320Y-89585471D02*
X176365177Y-89571185D01*
X176365177Y-89571185D02*
X176393749Y-89571185D01*
X176393749Y-89571185D02*
X176436606Y-89585471D01*
X176436606Y-89585471D02*
X176450892Y-89599757D01*
X176565177Y-89599757D02*
X176579463Y-89585471D01*
X176579463Y-89585471D02*
X176608035Y-89571185D01*
X176608035Y-89571185D02*
X176679463Y-89571185D01*
X176679463Y-89571185D02*
X176708035Y-89585471D01*
X176708035Y-89585471D02*
X176722320Y-89599757D01*
X176722320Y-89599757D02*
X176736606Y-89628328D01*
X176736606Y-89628328D02*
X176736606Y-89656900D01*
X176736606Y-89656900D02*
X176722320Y-89699757D01*
X176722320Y-89699757D02*
X176550892Y-89871185D01*
X176550892Y-89871185D02*
X176736606Y-89871185D01*
X176993749Y-89671185D02*
X176993749Y-89871185D01*
X176922320Y-89556900D02*
X176850891Y-89771185D01*
X176850891Y-89771185D02*
X177036606Y-89771185D01*
X174064286Y-105546185D02*
X174064286Y-105246185D01*
X174064286Y-105246185D02*
X174135715Y-105246185D01*
X174135715Y-105246185D02*
X174178572Y-105260471D01*
X174178572Y-105260471D02*
X174207143Y-105289042D01*
X174207143Y-105289042D02*
X174221429Y-105317614D01*
X174221429Y-105317614D02*
X174235715Y-105374757D01*
X174235715Y-105374757D02*
X174235715Y-105417614D01*
X174235715Y-105417614D02*
X174221429Y-105474757D01*
X174221429Y-105474757D02*
X174207143Y-105503328D01*
X174207143Y-105503328D02*
X174178572Y-105531900D01*
X174178572Y-105531900D02*
X174135715Y-105546185D01*
X174135715Y-105546185D02*
X174064286Y-105546185D01*
X174350000Y-105274757D02*
X174364286Y-105260471D01*
X174364286Y-105260471D02*
X174392858Y-105246185D01*
X174392858Y-105246185D02*
X174464286Y-105246185D01*
X174464286Y-105246185D02*
X174492858Y-105260471D01*
X174492858Y-105260471D02*
X174507143Y-105274757D01*
X174507143Y-105274757D02*
X174521429Y-105303328D01*
X174521429Y-105303328D02*
X174521429Y-105331900D01*
X174521429Y-105331900D02*
X174507143Y-105374757D01*
X174507143Y-105374757D02*
X174335715Y-105546185D01*
X174335715Y-105546185D02*
X174521429Y-105546185D01*
X174578572Y-105574757D02*
X174807143Y-105574757D01*
X174878571Y-105546185D02*
X174878571Y-105246185D01*
X174878571Y-105246185D02*
X174992857Y-105246185D01*
X174992857Y-105246185D02*
X175021428Y-105260471D01*
X175021428Y-105260471D02*
X175035714Y-105274757D01*
X175035714Y-105274757D02*
X175050000Y-105303328D01*
X175050000Y-105303328D02*
X175050000Y-105346185D01*
X175050000Y-105346185D02*
X175035714Y-105374757D01*
X175035714Y-105374757D02*
X175021428Y-105389042D01*
X175021428Y-105389042D02*
X174992857Y-105403328D01*
X174992857Y-105403328D02*
X174878571Y-105403328D01*
X175150000Y-105246185D02*
X175221428Y-105546185D01*
X175221428Y-105546185D02*
X175278571Y-105331900D01*
X175278571Y-105331900D02*
X175335714Y-105546185D01*
X175335714Y-105546185D02*
X175407143Y-105246185D01*
X175692857Y-105546185D02*
X175592857Y-105403328D01*
X175521428Y-105546185D02*
X175521428Y-105246185D01*
X175521428Y-105246185D02*
X175635714Y-105246185D01*
X175635714Y-105246185D02*
X175664285Y-105260471D01*
X175664285Y-105260471D02*
X175678571Y-105274757D01*
X175678571Y-105274757D02*
X175692857Y-105303328D01*
X175692857Y-105303328D02*
X175692857Y-105346185D01*
X175692857Y-105346185D02*
X175678571Y-105374757D01*
X175678571Y-105374757D02*
X175664285Y-105389042D01*
X175664285Y-105389042D02*
X175635714Y-105403328D01*
X175635714Y-105403328D02*
X175521428Y-105403328D01*
X175750000Y-105574757D02*
X175978571Y-105574757D01*
X176192856Y-105246185D02*
X176049999Y-105246185D01*
X176049999Y-105246185D02*
X176035713Y-105389042D01*
X176035713Y-105389042D02*
X176049999Y-105374757D01*
X176049999Y-105374757D02*
X176078571Y-105360471D01*
X176078571Y-105360471D02*
X176149999Y-105360471D01*
X176149999Y-105360471D02*
X176178571Y-105374757D01*
X176178571Y-105374757D02*
X176192856Y-105389042D01*
X176192856Y-105389042D02*
X176207142Y-105417614D01*
X176207142Y-105417614D02*
X176207142Y-105489042D01*
X176207142Y-105489042D02*
X176192856Y-105517614D01*
X176192856Y-105517614D02*
X176178571Y-105531900D01*
X176178571Y-105531900D02*
X176149999Y-105546185D01*
X176149999Y-105546185D02*
X176078571Y-105546185D01*
X176078571Y-105546185D02*
X176049999Y-105531900D01*
X176049999Y-105531900D02*
X176035713Y-105517614D01*
X176292856Y-105246185D02*
X176392856Y-105546185D01*
X176392856Y-105546185D02*
X176492856Y-105246185D01*
X176749999Y-105546185D02*
X176578570Y-105546185D01*
X176664285Y-105546185D02*
X176664285Y-105246185D01*
X176664285Y-105246185D02*
X176635713Y-105289042D01*
X176635713Y-105289042D02*
X176607142Y-105317614D01*
X176607142Y-105317614D02*
X176578570Y-105331900D01*
X148217143Y-90666185D02*
X148117143Y-90523328D01*
X148045714Y-90666185D02*
X148045714Y-90366185D01*
X148045714Y-90366185D02*
X148160000Y-90366185D01*
X148160000Y-90366185D02*
X148188571Y-90380471D01*
X148188571Y-90380471D02*
X148202857Y-90394757D01*
X148202857Y-90394757D02*
X148217143Y-90423328D01*
X148217143Y-90423328D02*
X148217143Y-90466185D01*
X148217143Y-90466185D02*
X148202857Y-90494757D01*
X148202857Y-90494757D02*
X148188571Y-90509042D01*
X148188571Y-90509042D02*
X148160000Y-90523328D01*
X148160000Y-90523328D02*
X148045714Y-90523328D01*
X148502857Y-90666185D02*
X148331428Y-90666185D01*
X148417143Y-90666185D02*
X148417143Y-90366185D01*
X148417143Y-90366185D02*
X148388571Y-90409042D01*
X148388571Y-90409042D02*
X148360000Y-90437614D01*
X148360000Y-90437614D02*
X148331428Y-90451900D01*
X148674285Y-90494757D02*
X148645714Y-90480471D01*
X148645714Y-90480471D02*
X148631428Y-90466185D01*
X148631428Y-90466185D02*
X148617142Y-90437614D01*
X148617142Y-90437614D02*
X148617142Y-90423328D01*
X148617142Y-90423328D02*
X148631428Y-90394757D01*
X148631428Y-90394757D02*
X148645714Y-90380471D01*
X148645714Y-90380471D02*
X148674285Y-90366185D01*
X148674285Y-90366185D02*
X148731428Y-90366185D01*
X148731428Y-90366185D02*
X148760000Y-90380471D01*
X148760000Y-90380471D02*
X148774285Y-90394757D01*
X148774285Y-90394757D02*
X148788571Y-90423328D01*
X148788571Y-90423328D02*
X148788571Y-90437614D01*
X148788571Y-90437614D02*
X148774285Y-90466185D01*
X148774285Y-90466185D02*
X148760000Y-90480471D01*
X148760000Y-90480471D02*
X148731428Y-90494757D01*
X148731428Y-90494757D02*
X148674285Y-90494757D01*
X148674285Y-90494757D02*
X148645714Y-90509042D01*
X148645714Y-90509042D02*
X148631428Y-90523328D01*
X148631428Y-90523328D02*
X148617142Y-90551900D01*
X148617142Y-90551900D02*
X148617142Y-90609042D01*
X148617142Y-90609042D02*
X148631428Y-90637614D01*
X148631428Y-90637614D02*
X148645714Y-90651900D01*
X148645714Y-90651900D02*
X148674285Y-90666185D01*
X148674285Y-90666185D02*
X148731428Y-90666185D01*
X148731428Y-90666185D02*
X148760000Y-90651900D01*
X148760000Y-90651900D02*
X148774285Y-90637614D01*
X148774285Y-90637614D02*
X148788571Y-90609042D01*
X148788571Y-90609042D02*
X148788571Y-90551900D01*
X148788571Y-90551900D02*
X148774285Y-90523328D01*
X148774285Y-90523328D02*
X148760000Y-90509042D01*
X148760000Y-90509042D02*
X148731428Y-90494757D01*
D14*
%TO.C,G\u002A\u002A\u002A*%
G36*
X152355084Y-89116137D02*
G01*
X152151001Y-89248595D01*
X151972964Y-89391007D01*
X151823854Y-89539853D01*
X151706556Y-89691613D01*
X151623951Y-89842768D01*
X151578921Y-89989797D01*
X151571144Y-90073404D01*
X151589709Y-90200103D01*
X151644841Y-90306880D01*
X151733229Y-90390602D01*
X151851560Y-90448136D01*
X151996521Y-90476348D01*
X151997277Y-90476408D01*
X152121257Y-90486145D01*
X152040548Y-90578376D01*
X151964304Y-90692068D01*
X151912510Y-90824860D01*
X151886234Y-90966391D01*
X151886546Y-91106297D01*
X151914516Y-91234220D01*
X151963069Y-91328945D01*
X152047870Y-91420635D01*
X152156969Y-91489256D01*
X152297458Y-91538827D01*
X152358586Y-91553097D01*
X152424713Y-91565706D01*
X152482073Y-91572402D01*
X152541621Y-91572881D01*
X152614313Y-91566840D01*
X152711105Y-91553974D01*
X152798035Y-91540902D01*
X152920159Y-91520379D01*
X153041276Y-91496933D01*
X153147478Y-91473438D01*
X153224856Y-91452770D01*
X153225511Y-91452565D01*
X153335257Y-91413051D01*
X153457485Y-91361057D01*
X153582002Y-91301745D01*
X153698617Y-91240280D01*
X153797138Y-91181825D01*
X153867373Y-91131542D01*
X153878233Y-91121885D01*
X153948302Y-91061479D01*
X154009981Y-91018788D01*
X154053447Y-91000494D01*
X154057053Y-91000255D01*
X154059861Y-91021078D01*
X154062384Y-91080291D01*
X154064548Y-91173018D01*
X154066284Y-91294380D01*
X154067519Y-91439497D01*
X154068182Y-91603491D01*
X154068231Y-91762905D01*
X154067169Y-92525554D01*
X153965463Y-92248854D01*
X153863756Y-91972155D01*
X153768879Y-91978412D01*
X153674002Y-91984668D01*
X153570890Y-92265928D01*
X153529468Y-92377840D01*
X153498845Y-92455504D01*
X153475194Y-92505395D01*
X153454691Y-92533992D01*
X153433509Y-92547769D01*
X153407822Y-92553204D01*
X153400733Y-92553969D01*
X153353881Y-92554218D01*
X153336014Y-92535421D01*
X153333688Y-92506321D01*
X153330804Y-92476466D01*
X153315523Y-92459429D01*
X153277903Y-92450737D01*
X153208003Y-92445913D01*
X153198467Y-92445453D01*
X153124700Y-92441078D01*
X153083680Y-92433098D01*
X153064928Y-92415850D01*
X153057970Y-92383672D01*
X153056466Y-92368697D01*
X153049686Y-92298382D01*
X153180869Y-92298382D01*
X153253283Y-92297264D01*
X153292545Y-92291133D01*
X153308762Y-92275821D01*
X153312046Y-92247158D01*
X153312053Y-92244293D01*
X153309304Y-92214316D01*
X153294285Y-92198132D01*
X153256833Y-92191506D01*
X153186790Y-92190206D01*
X153182240Y-92190204D01*
X153110296Y-92189059D01*
X153071454Y-92182801D01*
X153055552Y-92167196D01*
X153052430Y-92138012D01*
X153052427Y-92136116D01*
X153054893Y-92107040D01*
X153068808Y-92090845D01*
X153103949Y-92083771D01*
X153170089Y-92082058D01*
X153193058Y-92082027D01*
X153268655Y-92081079D01*
X153310761Y-92075727D01*
X153329153Y-92062211D01*
X153333607Y-92036773D01*
X153333688Y-92027939D01*
X153333688Y-91973850D01*
X153117334Y-91973850D01*
X152900979Y-91973850D01*
X152900979Y-92265928D01*
X152900979Y-92558007D01*
X152751196Y-92558007D01*
X152601412Y-92558007D01*
X152664654Y-92494765D01*
X152716779Y-92422080D01*
X152726873Y-92352866D01*
X152696163Y-92289726D01*
X152625882Y-92235263D01*
X152522359Y-92193568D01*
X152440401Y-92163803D01*
X152397047Y-92136196D01*
X152392928Y-92113622D01*
X152428675Y-92098957D01*
X152500724Y-92094980D01*
X152574946Y-92099557D01*
X152638124Y-92108678D01*
X152657581Y-92113730D01*
X152691476Y-92120305D01*
X152704457Y-92100997D01*
X152706261Y-92063932D01*
X152700766Y-92018592D01*
X152676118Y-91992955D01*
X152625128Y-91974988D01*
X152503602Y-91956279D01*
X152391984Y-91967394D01*
X152299828Y-92006467D01*
X152253719Y-92047375D01*
X152222507Y-92113653D01*
X152228034Y-92183485D01*
X152265409Y-92248626D01*
X152329742Y-92300827D01*
X152416141Y-92331842D01*
X152423133Y-92333046D01*
X152502999Y-92351150D01*
X152543949Y-92375109D01*
X152550228Y-92407721D01*
X152547826Y-92415193D01*
X152518264Y-92438255D01*
X152461732Y-92448665D01*
X152392677Y-92446298D01*
X152325547Y-92431029D01*
X152295187Y-92417376D01*
X152243088Y-92391373D01*
X152217372Y-92393588D01*
X152209087Y-92427269D01*
X152208646Y-92448754D01*
X152221729Y-92506472D01*
X152246508Y-92534638D01*
X152258427Y-92547209D01*
X152237257Y-92554324D01*
X152178453Y-92557175D01*
X152159966Y-92557349D01*
X152035562Y-92558007D01*
X152035562Y-92265928D01*
X152035562Y-91973850D01*
X151960786Y-91973850D01*
X151886010Y-91973850D01*
X151879653Y-92130707D01*
X151873296Y-92287564D01*
X151776368Y-92130707D01*
X151728582Y-92054739D01*
X151694537Y-92008380D01*
X151665409Y-91984320D01*
X151632373Y-91975247D01*
X151587058Y-91973850D01*
X151494676Y-91973850D01*
X151494676Y-92265928D01*
X151494676Y-92558007D01*
X151386499Y-92558007D01*
X151322297Y-92556253D01*
X151290268Y-92547304D01*
X151279347Y-92525625D01*
X151278322Y-92503918D01*
X151275573Y-92473942D01*
X151260554Y-92457757D01*
X151223103Y-92451131D01*
X151153059Y-92449831D01*
X151148509Y-92449830D01*
X151018697Y-92449830D01*
X151018697Y-92374106D01*
X151018697Y-92298382D01*
X151137692Y-92298382D01*
X151205842Y-92296977D01*
X151241328Y-92289557D01*
X151254737Y-92271306D01*
X151256686Y-92244293D01*
X151253598Y-92213315D01*
X151237272Y-92197185D01*
X151197120Y-92191090D01*
X151137692Y-92190204D01*
X151069541Y-92188800D01*
X151034055Y-92181379D01*
X151020646Y-92163129D01*
X151018697Y-92136116D01*
X151021445Y-92106139D01*
X151036465Y-92089955D01*
X151073916Y-92083329D01*
X151143959Y-92082028D01*
X151148509Y-92082027D01*
X151220453Y-92080882D01*
X151259296Y-92074624D01*
X151275197Y-92059019D01*
X151278319Y-92029834D01*
X151278322Y-92027939D01*
X151278322Y-91973850D01*
X151061967Y-91973850D01*
X150845613Y-91973850D01*
X150845613Y-92265928D01*
X150845613Y-92558007D01*
X150694165Y-92558007D01*
X150542717Y-92558007D01*
X150542717Y-90794719D01*
X150542717Y-89031431D01*
X151521377Y-89031431D01*
X152500037Y-89031431D01*
X152355084Y-89116137D01*
G37*
G36*
X151648011Y-92207091D02*
G01*
X151678638Y-92251163D01*
X151718904Y-92312539D01*
X151762467Y-92381337D01*
X151802982Y-92447678D01*
X151834107Y-92501678D01*
X151838224Y-92509327D01*
X151850708Y-92537051D01*
X151844766Y-92551549D01*
X151812125Y-92557106D01*
X151744513Y-92558007D01*
X151744245Y-92558007D01*
X151624489Y-92558007D01*
X151624489Y-92374106D01*
X151625453Y-92290995D01*
X151628027Y-92227435D01*
X151631731Y-92193358D01*
X151633367Y-92190204D01*
X151648011Y-92207091D01*
G37*
G36*
X153830455Y-92453133D02*
G01*
X153867062Y-92467135D01*
X153889477Y-92497976D01*
X153892273Y-92503918D01*
X153916917Y-92558007D01*
X153776751Y-92558007D01*
X153705268Y-92555210D01*
X153654768Y-92547896D01*
X153636584Y-92538141D01*
X153647080Y-92487008D01*
X153683411Y-92459273D01*
X153752841Y-92449950D01*
X153765239Y-92449830D01*
X153830455Y-92453133D01*
G37*
G36*
X153781444Y-92187031D02*
G01*
X153800254Y-92232608D01*
X153804013Y-92244293D01*
X153817291Y-92294165D01*
X153811052Y-92315261D01*
X153779146Y-92319955D01*
X153766397Y-92320017D01*
X153727091Y-92317494D01*
X153714993Y-92301674D01*
X153723955Y-92260180D01*
X153728781Y-92244293D01*
X153747452Y-92194878D01*
X153763900Y-92169476D01*
X153766397Y-92168569D01*
X153781444Y-92187031D01*
G37*
G36*
X154069293Y-89968393D02*
G01*
X154069293Y-90905354D01*
X153923254Y-90971839D01*
X153742034Y-91051422D01*
X153565714Y-91123377D01*
X153400771Y-91185405D01*
X153253684Y-91235209D01*
X153130932Y-91270492D01*
X153038993Y-91288956D01*
X153024856Y-91290430D01*
X152948142Y-91292464D01*
X152847938Y-91289511D01*
X152743655Y-91282219D01*
X152725085Y-91280408D01*
X152546664Y-91253653D01*
X152406939Y-91212722D01*
X152302999Y-91155331D01*
X152231938Y-91079200D01*
X152190847Y-90982048D01*
X152176816Y-90861592D01*
X152176778Y-90850299D01*
X152181206Y-90758725D01*
X152197138Y-90688946D01*
X152229901Y-90619926D01*
X152239138Y-90604032D01*
X152296356Y-90520457D01*
X152355511Y-90468517D01*
X152430601Y-90438290D01*
X152489906Y-90426324D01*
X152562099Y-90409328D01*
X152652198Y-90380739D01*
X152727896Y-90351900D01*
X152822072Y-90314330D01*
X152921582Y-90277461D01*
X152987521Y-90254971D01*
X153053884Y-90229044D01*
X153138215Y-90189398D01*
X153231891Y-90140921D01*
X153326290Y-90088501D01*
X153412788Y-90037025D01*
X153482762Y-89991381D01*
X153527589Y-89956456D01*
X153538931Y-89942431D01*
X153545800Y-89919399D01*
X153541654Y-89905426D01*
X153522207Y-89901589D01*
X153483170Y-89908967D01*
X153420259Y-89928637D01*
X153329185Y-89961677D01*
X153205662Y-90009165D01*
X153084881Y-90056593D01*
X152964127Y-90101372D01*
X152877237Y-90126518D01*
X152819949Y-90132861D01*
X152788002Y-90121229D01*
X152783294Y-90115321D01*
X152792622Y-90093771D01*
X152830246Y-90062260D01*
X152852332Y-90048258D01*
X152926304Y-90001644D01*
X152999011Y-89950407D01*
X153062241Y-89901061D01*
X153107784Y-89860118D01*
X153127431Y-89834089D01*
X153127130Y-89830290D01*
X153101072Y-89822064D01*
X153074285Y-89825615D01*
X153045611Y-89843428D01*
X153045196Y-89859380D01*
X153045300Y-89871475D01*
X153033543Y-89866095D01*
X153004945Y-89869546D01*
X152947604Y-89891331D01*
X152869754Y-89927308D01*
X152779630Y-89973336D01*
X152685464Y-90025275D01*
X152595490Y-90078983D01*
X152543995Y-90112315D01*
X152502663Y-90138430D01*
X152465013Y-90154905D01*
X152420114Y-90163517D01*
X152357033Y-90166044D01*
X152264837Y-90164263D01*
X152231021Y-90163191D01*
X152135091Y-90158186D01*
X152054935Y-90150517D01*
X152000663Y-90141355D01*
X151983295Y-90134496D01*
X151943170Y-90114451D01*
X151931736Y-90113203D01*
X151893100Y-90104384D01*
X151837468Y-90082715D01*
X151827886Y-90078284D01*
X151777632Y-90047794D01*
X151757255Y-90010228D01*
X151754301Y-89970545D01*
X151774118Y-89853153D01*
X151830815Y-89726483D01*
X151920263Y-89595061D01*
X152038335Y-89463417D01*
X152180901Y-89336078D01*
X152343834Y-89217573D01*
X152523003Y-89112428D01*
X152548787Y-89099214D01*
X152683391Y-89031431D01*
X153376342Y-89031431D01*
X154069293Y-89031431D01*
X154069293Y-89968393D01*
G37*
G36*
X151963444Y-91180551D02*
G01*
X151966033Y-91206227D01*
X151963444Y-91209398D01*
X151950582Y-91206428D01*
X151949020Y-91194974D01*
X151956936Y-91177166D01*
X151963444Y-91180551D01*
G37*
G36*
X151941808Y-91115644D02*
G01*
X151944398Y-91141321D01*
X151941808Y-91144492D01*
X151928946Y-91141522D01*
X151927385Y-91130068D01*
X151935301Y-91112260D01*
X151941808Y-91115644D01*
G37*
G36*
X153744761Y-91119250D02*
G01*
X153733944Y-91130068D01*
X153723126Y-91119250D01*
X153733944Y-91108433D01*
X153744761Y-91119250D01*
G37*
G36*
X153788032Y-91097615D02*
G01*
X153777215Y-91108433D01*
X153766397Y-91097615D01*
X153777215Y-91086797D01*
X153788032Y-91097615D01*
G37*
G36*
X154051388Y-90969496D02*
G01*
X154004807Y-90999119D01*
X153949819Y-91028202D01*
X153876582Y-91062645D01*
X153826441Y-91083257D01*
X153804998Y-91087961D01*
X153811471Y-91079513D01*
X153848300Y-91054978D01*
X153902926Y-91024130D01*
X153963807Y-90992728D01*
X154019399Y-90966530D01*
X154058160Y-90951294D01*
X154069293Y-90950890D01*
X154051388Y-90969496D01*
G37*
D15*
%TO.C,R11*%
X174230108Y-93595000D02*
X174537390Y-93595000D01*
X174230108Y-94355000D02*
X174537390Y-94355000D01*
%TO.C,R21*%
X149396359Y-114560000D02*
X149703641Y-114560000D01*
X149396359Y-115320000D02*
X149703641Y-115320000D01*
%TO.C,C9*%
X156890000Y-99412164D02*
X156890000Y-99627836D01*
X157610000Y-99412164D02*
X157610000Y-99627836D01*
%TO.C,C32*%
X145640000Y-95097836D02*
X145640000Y-94882164D01*
X146360000Y-95097836D02*
X146360000Y-94882164D01*
%TO.C,J7*%
X151570000Y-116640000D02*
X152990000Y-116640000D01*
X151570000Y-128360000D02*
X151570000Y-116640000D01*
X152990000Y-116640000D02*
X152990000Y-121140000D01*
X152990000Y-121140000D02*
X155380000Y-121140000D01*
X153830000Y-116950000D02*
X154430000Y-116950000D01*
X153880000Y-122250000D02*
X153880000Y-127750000D01*
X153880000Y-127750000D02*
X154380000Y-127750000D01*
X154130000Y-117550000D02*
X153830000Y-116950000D01*
X154380000Y-122250000D02*
X153880000Y-122250000D01*
X154380000Y-127750000D02*
X154380000Y-122250000D01*
X154430000Y-116950000D02*
X154130000Y-117550000D01*
X155380000Y-128360000D02*
X151570000Y-128360000D01*
X155380000Y-128360000D02*
X159190000Y-128360000D01*
X156380000Y-122250000D02*
X156380000Y-127750000D01*
X156380000Y-127750000D02*
X156880000Y-127750000D01*
X156880000Y-122250000D02*
X156380000Y-122250000D01*
X156880000Y-127750000D02*
X156880000Y-122250000D01*
X157770000Y-116640000D02*
X157770000Y-121140000D01*
X157770000Y-121140000D02*
X155380000Y-121140000D01*
X159190000Y-116640000D02*
X157770000Y-116640000D01*
X159190000Y-128360000D02*
X159190000Y-116640000D01*
%TO.C,R12*%
X170163641Y-89610000D02*
X169856359Y-89610000D01*
X170163641Y-90370000D02*
X169856359Y-90370000D01*
%TO.C,TP4*%
X180192500Y-112000000D02*
G75*
G02*
X178792500Y-112000000I-700000J0D01*
G01*
X178792500Y-112000000D02*
G75*
G02*
X180192500Y-112000000I700000J0D01*
G01*
%TO.C,PS1*%
X168350000Y-98190000D02*
X168350000Y-97390000D01*
X168350000Y-98190000D02*
X168350000Y-98990000D01*
X171470000Y-98190000D02*
X171470000Y-97390000D01*
X171470000Y-98190000D02*
X171470000Y-98990000D01*
X171750000Y-97130000D02*
X171420000Y-96890000D01*
X171750000Y-96650000D01*
X171750000Y-97130000D01*
G36*
X171750000Y-97130000D02*
G01*
X171420000Y-96890000D01*
X171750000Y-96650000D01*
X171750000Y-97130000D01*
G37*
%TO.C,C31*%
X157522164Y-114580000D02*
X157737836Y-114580000D01*
X157522164Y-115300000D02*
X157737836Y-115300000D01*
%TO.C,3V3*%
X169910000Y-101452500D02*
G75*
G02*
X168510000Y-101452500I-700000J0D01*
G01*
X168510000Y-101452500D02*
G75*
G02*
X169910000Y-101452500I700000J0D01*
G01*
%TO.C,C11*%
X158047836Y-100982500D02*
X157832164Y-100982500D01*
X158047836Y-101702500D02*
X157832164Y-101702500D01*
%TO.C,TP1*%
X180250000Y-90300000D02*
G75*
G02*
X178850000Y-90300000I-700000J0D01*
G01*
X178850000Y-90300000D02*
G75*
G02*
X180250000Y-90300000I700000J0D01*
G01*
%TO.C,S1*%
X183880000Y-115545000D02*
X177060000Y-115545000D01*
X177060000Y-128465000D01*
X183880000Y-128465000D01*
X183880000Y-115545000D01*
%TO.C,C27*%
X169892164Y-88600000D02*
X170107836Y-88600000D01*
X169892164Y-89320000D02*
X170107836Y-89320000D01*
%TO.C,TP3*%
X180192500Y-107000000D02*
G75*
G02*
X178792500Y-107000000I-700000J0D01*
G01*
X178792500Y-107000000D02*
G75*
G02*
X180192500Y-107000000I700000J0D01*
G01*
%TO.C,C13*%
X182867836Y-98380000D02*
X182652164Y-98380000D01*
X182867836Y-99100000D02*
X182652164Y-99100000D01*
%TO.C,D3_PWR_3V1*%
X172535000Y-100122500D02*
X172535000Y-102407500D01*
X172535000Y-102407500D02*
X174005000Y-102407500D01*
X174005000Y-102407500D02*
X174005000Y-100122500D01*
D13*
%TO.C,U3*%
X180667500Y-107425000D02*
X180667500Y-111575000D01*
X185817500Y-107425000D02*
X185817500Y-111575000D01*
D15*
X186147500Y-107240000D02*
X185817500Y-107000000D01*
X186147500Y-106760000D01*
X186147500Y-107240000D01*
G36*
X186147500Y-107240000D02*
G01*
X185817500Y-107000000D01*
X186147500Y-106760000D01*
X186147500Y-107240000D01*
G37*
%TO.C,C6*%
X147690000Y-106777836D02*
X147690000Y-106562164D01*
X148410000Y-106777836D02*
X148410000Y-106562164D01*
%TO.C,IC1*%
X173363749Y-90165000D02*
X172563749Y-90165000D01*
X173363749Y-90165000D02*
X174163749Y-90165000D01*
X173363749Y-93285000D02*
X172563749Y-93285000D01*
X173363749Y-93285000D02*
X174163749Y-93285000D01*
X174903749Y-93540000D02*
X174423749Y-93540000D01*
X174663749Y-93210000D01*
X174903749Y-93540000D01*
G36*
X174903749Y-93540000D02*
G01*
X174423749Y-93540000D01*
X174663749Y-93210000D01*
X174903749Y-93540000D01*
G37*
%TO.C,D3*%
X138040000Y-119615000D02*
X138040000Y-121085000D01*
X138040000Y-121085000D02*
X140325000Y-121085000D01*
X140325000Y-119615000D02*
X138040000Y-119615000D01*
%TO.C,C21*%
X165490000Y-100607836D02*
X165490000Y-100392164D01*
X166210000Y-100607836D02*
X166210000Y-100392164D01*
%TO.C,R20*%
X147401359Y-114560000D02*
X147708641Y-114560000D01*
X147401359Y-115320000D02*
X147708641Y-115320000D01*
%TO.C,R1*%
X156420000Y-109403641D02*
X156420000Y-109096359D01*
X157180000Y-109403641D02*
X157180000Y-109096359D01*
%TO.C,R17*%
X155406359Y-114560000D02*
X155713641Y-114560000D01*
X155406359Y-115320000D02*
X155713641Y-115320000D01*
%TO.C,R26*%
X145883641Y-83270000D02*
X145576359Y-83270000D01*
X145883641Y-84030000D02*
X145576359Y-84030000D01*
%TO.C,R9*%
X136901141Y-119970000D02*
X136593859Y-119970000D01*
X136901141Y-120730000D02*
X136593859Y-120730000D01*
%TO.C,C19*%
X182700000Y-103477836D02*
X182700000Y-103262164D01*
X183420000Y-103477836D02*
X183420000Y-103262164D01*
%TO.C,TP5*%
X161600000Y-107100000D02*
G75*
G02*
X160200000Y-107100000I-700000J0D01*
G01*
X160200000Y-107100000D02*
G75*
G02*
X161600000Y-107100000I700000J0D01*
G01*
D13*
%TO.C,U2*%
X180725000Y-90725000D02*
X180725000Y-94875000D01*
X185875000Y-90725000D02*
X185875000Y-94875000D01*
D15*
X186205000Y-90540000D02*
X185875000Y-90300000D01*
X186205000Y-90060000D01*
X186205000Y-90540000D01*
G36*
X186205000Y-90540000D02*
G01*
X185875000Y-90300000D01*
X186205000Y-90060000D01*
X186205000Y-90540000D01*
G37*
%TO.C,C20*%
X165540000Y-103442164D02*
X165540000Y-103657836D01*
X166260000Y-103442164D02*
X166260000Y-103657836D01*
%TO.C,C36*%
X159511252Y-92585000D02*
X158988748Y-92585000D01*
X159511252Y-94055000D02*
X158988748Y-94055000D01*
%TO.C,R23*%
X159716359Y-114590000D02*
X160023641Y-114590000D01*
X159716359Y-115350000D02*
X160023641Y-115350000D01*
%TO.C,C30*%
X168049085Y-91750000D02*
X167833413Y-91750000D01*
X168049085Y-92470000D02*
X167833413Y-92470000D01*
%TO.C,C16*%
X183950000Y-103267164D02*
X183950000Y-103482836D01*
X184670000Y-103267164D02*
X184670000Y-103482836D01*
%TO.C,C3*%
X164490580Y-97770000D02*
X164209420Y-97770000D01*
X164490580Y-98790000D02*
X164209420Y-98790000D01*
%TO.C,U1*%
X148990000Y-98790000D02*
X149465000Y-98790000D01*
X148990000Y-99265000D02*
X148990000Y-98790000D01*
X148990000Y-105535000D02*
X148990000Y-105710000D01*
X149465000Y-106010000D02*
X149230000Y-106010000D01*
X156210000Y-98790000D02*
X155735000Y-98790000D01*
X156210000Y-99265000D02*
X156210000Y-98790000D01*
X156210000Y-105535000D02*
X156210000Y-106010000D01*
X156210000Y-106010000D02*
X155735000Y-106010000D01*
X148990000Y-106010000D02*
X148660000Y-106250000D01*
X148660000Y-105770000D01*
X148990000Y-106010000D01*
G36*
X148990000Y-106010000D02*
G01*
X148660000Y-106250000D01*
X148660000Y-105770000D01*
X148990000Y-106010000D01*
G37*
%TO.C,C25*%
X177890000Y-92447836D02*
X177890000Y-92232164D01*
X178610000Y-92447836D02*
X178610000Y-92232164D01*
%TO.C,R3*%
X175090000Y-103466359D02*
X175090000Y-103773641D01*
X175850000Y-103466359D02*
X175850000Y-103773641D01*
%TO.C,R25*%
X144486359Y-100800000D02*
X144793641Y-100800000D01*
X144486359Y-101560000D02*
X144793641Y-101560000D01*
%TO.C,R16*%
X153396359Y-114560000D02*
X153703641Y-114560000D01*
X153396359Y-115320000D02*
X153703641Y-115320000D01*
%TO.C,C18*%
X181300000Y-102990580D02*
X181300000Y-102709420D01*
X182320000Y-102990580D02*
X182320000Y-102709420D01*
%TO.C,J8*%
X143050000Y-116670000D02*
X144470000Y-116670000D01*
X143050000Y-128390000D02*
X143050000Y-116670000D01*
X144470000Y-116670000D02*
X144470000Y-121170000D01*
X144470000Y-121170000D02*
X146860000Y-121170000D01*
X145310000Y-116980000D02*
X145910000Y-116980000D01*
X145360000Y-122280000D02*
X145360000Y-127780000D01*
X145360000Y-127780000D02*
X145860000Y-127780000D01*
X145610000Y-117580000D02*
X145310000Y-116980000D01*
X145860000Y-122280000D02*
X145360000Y-122280000D01*
X145860000Y-127780000D02*
X145860000Y-122280000D01*
X145910000Y-116980000D02*
X145610000Y-117580000D01*
X146860000Y-128390000D02*
X143050000Y-128390000D01*
X146860000Y-128390000D02*
X150670000Y-128390000D01*
X147860000Y-122280000D02*
X147860000Y-127780000D01*
X147860000Y-127780000D02*
X148360000Y-127780000D01*
X148360000Y-122280000D02*
X147860000Y-122280000D01*
X148360000Y-127780000D02*
X148360000Y-122280000D01*
X149250000Y-116670000D02*
X149250000Y-121170000D01*
X149250000Y-121170000D02*
X146860000Y-121170000D01*
X150670000Y-116670000D02*
X149250000Y-116670000D01*
X150670000Y-128390000D02*
X150670000Y-116670000D01*
%TO.C,C14*%
X181050000Y-86875580D02*
X181050000Y-86594420D01*
X182070000Y-86875580D02*
X182070000Y-86594420D01*
%TO.C,R13*%
X168084890Y-92790000D02*
X167777608Y-92790000D01*
X168084890Y-93550000D02*
X167777608Y-93550000D01*
%TO.C,C34*%
X161642164Y-114610000D02*
X161857836Y-114610000D01*
X161642164Y-115330000D02*
X161857836Y-115330000D01*
%TO.C,R10*%
X169830108Y-90665000D02*
X170137390Y-90665000D01*
X169830108Y-91425000D02*
X170137390Y-91425000D01*
%TO.C,C17*%
X184840000Y-114177836D02*
X184840000Y-113962164D01*
X185560000Y-114177836D02*
X185560000Y-113962164D01*
%TO.C,J5*%
X186845000Y-102240000D02*
X186845000Y-103660000D01*
X186845000Y-103660000D02*
X191345000Y-103660000D01*
X186845000Y-118440000D02*
X191345000Y-118440000D01*
X186845000Y-119860000D02*
X186845000Y-118440000D01*
X187155000Y-117000000D02*
X187755000Y-117300000D01*
X187155000Y-117600000D02*
X187155000Y-117000000D01*
X187755000Y-117300000D02*
X187155000Y-117600000D01*
X191345000Y-103660000D02*
X191345000Y-111050000D01*
X191345000Y-118440000D02*
X191345000Y-111050000D01*
X192455000Y-104550000D02*
X192455000Y-105050000D01*
X192455000Y-105050000D02*
X197955000Y-105050000D01*
X192455000Y-107050000D02*
X192455000Y-107550000D01*
X192455000Y-107550000D02*
X197955000Y-107550000D01*
X192455000Y-109550000D02*
X192455000Y-110050000D01*
X192455000Y-110050000D02*
X197955000Y-110050000D01*
X192455000Y-112050000D02*
X192455000Y-112550000D01*
X192455000Y-112550000D02*
X197955000Y-112550000D01*
X192455000Y-114550000D02*
X192455000Y-115050000D01*
X192455000Y-115050000D02*
X197955000Y-115050000D01*
X192455000Y-117050000D02*
X192455000Y-117550000D01*
X192455000Y-117550000D02*
X197955000Y-117550000D01*
X197955000Y-104550000D02*
X192455000Y-104550000D01*
X197955000Y-105050000D02*
X197955000Y-104550000D01*
X197955000Y-107050000D02*
X192455000Y-107050000D01*
X197955000Y-107550000D02*
X197955000Y-107050000D01*
X197955000Y-109550000D02*
X192455000Y-109550000D01*
X197955000Y-110050000D02*
X197955000Y-109550000D01*
X197955000Y-112050000D02*
X192455000Y-112050000D01*
X197955000Y-112550000D02*
X197955000Y-112050000D01*
X197955000Y-114550000D02*
X192455000Y-114550000D01*
X197955000Y-115050000D02*
X197955000Y-114550000D01*
X197955000Y-117050000D02*
X192455000Y-117050000D01*
X197955000Y-117550000D02*
X197955000Y-117050000D01*
X198565000Y-102240000D02*
X186845000Y-102240000D01*
X198565000Y-111050000D02*
X198565000Y-102240000D01*
X198565000Y-111050000D02*
X198565000Y-119860000D01*
X198565000Y-119860000D02*
X186845000Y-119860000D01*
%TO.C,J6*%
X148450000Y-75570000D02*
X148450000Y-87290000D01*
X148450000Y-87290000D02*
X149870000Y-87290000D01*
X149870000Y-82790000D02*
X156010000Y-82790000D01*
X149870000Y-87290000D02*
X149870000Y-82790000D01*
X150760000Y-76180000D02*
X150760000Y-81680000D01*
X150760000Y-81680000D02*
X151260000Y-81680000D01*
X151260000Y-76180000D02*
X150760000Y-76180000D01*
X151260000Y-81680000D02*
X151260000Y-76180000D01*
X153260000Y-76180000D02*
X153260000Y-81680000D01*
X153260000Y-81680000D02*
X153760000Y-81680000D01*
X153760000Y-76180000D02*
X153260000Y-76180000D01*
X153760000Y-81680000D02*
X153760000Y-76180000D01*
X155760000Y-76180000D02*
X155760000Y-81680000D01*
X155760000Y-81680000D02*
X156260000Y-81680000D01*
X156010000Y-75570000D02*
X148450000Y-75570000D01*
X156010000Y-75570000D02*
X163570000Y-75570000D01*
X156260000Y-76180000D02*
X155760000Y-76180000D01*
X156260000Y-81680000D02*
X156260000Y-76180000D01*
X158260000Y-76180000D02*
X158260000Y-81680000D01*
X158260000Y-81680000D02*
X158760000Y-81680000D01*
X158760000Y-76180000D02*
X158260000Y-76180000D01*
X158760000Y-81680000D02*
X158760000Y-76180000D01*
X160710000Y-86980000D02*
X161010000Y-86380000D01*
X160760000Y-76180000D02*
X160760000Y-81680000D01*
X160760000Y-81680000D02*
X161260000Y-81680000D01*
X161010000Y-86380000D02*
X161310000Y-86980000D01*
X161260000Y-76180000D02*
X160760000Y-76180000D01*
X161260000Y-81680000D02*
X161260000Y-76180000D01*
X161310000Y-86980000D02*
X160710000Y-86980000D01*
X162150000Y-82790000D02*
X156010000Y-82790000D01*
X162150000Y-87290000D02*
X162150000Y-82790000D01*
X163570000Y-75570000D02*
X163570000Y-87290000D01*
X163570000Y-87290000D02*
X162150000Y-87290000D01*
%TO.C,R14*%
X170117390Y-93815000D02*
X169810108Y-93815000D01*
X170117390Y-94575000D02*
X169810108Y-94575000D01*
%TO.C,D2*%
X138065000Y-118015000D02*
X138065000Y-119485000D01*
X138065000Y-119485000D02*
X140350000Y-119485000D01*
X140350000Y-118015000D02*
X138065000Y-118015000D01*
%TO.C,TP6*%
X166000000Y-107000000D02*
G75*
G02*
X164600000Y-107000000I-700000J0D01*
G01*
X164600000Y-107000000D02*
G75*
G02*
X166000000Y-107000000I700000J0D01*
G01*
%TO.C,TP7*%
X160610000Y-89050000D02*
G75*
G02*
X159210000Y-89050000I-700000J0D01*
G01*
X159210000Y-89050000D02*
G75*
G02*
X160610000Y-89050000I700000J0D01*
G01*
%TO.C,D1*%
X138040000Y-116415000D02*
X138040000Y-117885000D01*
X138040000Y-117885000D02*
X140325000Y-117885000D01*
X140325000Y-116415000D02*
X138040000Y-116415000D01*
%TO.C,C35*%
X144757836Y-98580000D02*
X144542164Y-98580000D01*
X144757836Y-99300000D02*
X144542164Y-99300000D01*
%TO.C,C12*%
X183700000Y-87152164D02*
X183700000Y-87367836D01*
X184420000Y-87152164D02*
X184420000Y-87367836D01*
%TO.C,C22*%
X157540000Y-109377836D02*
X157540000Y-109162164D01*
X158260000Y-109377836D02*
X158260000Y-109162164D01*
%TO.C,J4*%
X135685000Y-85940000D02*
X147405000Y-85940000D01*
X135685000Y-89750000D02*
X135685000Y-85940000D01*
X135685000Y-89750000D02*
X135685000Y-93560000D01*
X135685000Y-93560000D02*
X147405000Y-93560000D01*
X136295000Y-88250000D02*
X136295000Y-88750000D01*
X136295000Y-88750000D02*
X141795000Y-88750000D01*
X136295000Y-90750000D02*
X136295000Y-91250000D01*
X136295000Y-91250000D02*
X141795000Y-91250000D01*
X141795000Y-88250000D02*
X136295000Y-88250000D01*
X141795000Y-88750000D02*
X141795000Y-88250000D01*
X141795000Y-90750000D02*
X136295000Y-90750000D01*
X141795000Y-91250000D02*
X141795000Y-90750000D01*
X142905000Y-87360000D02*
X142905000Y-89750000D01*
X142905000Y-92140000D02*
X142905000Y-89750000D01*
X146495000Y-88500000D02*
X147095000Y-88200000D01*
X147095000Y-88200000D02*
X147095000Y-88800000D01*
X147095000Y-88800000D02*
X146495000Y-88500000D01*
X147405000Y-85940000D02*
X147405000Y-87360000D01*
X147405000Y-87360000D02*
X142905000Y-87360000D01*
X147405000Y-92140000D02*
X142905000Y-92140000D01*
X147405000Y-93560000D02*
X147405000Y-92140000D01*
%TO.C,J3*%
X186790000Y-83740000D02*
X186790000Y-85160000D01*
X186790000Y-85160000D02*
X191290000Y-85160000D01*
X186790000Y-99940000D02*
X191290000Y-99940000D01*
X186790000Y-101360000D02*
X186790000Y-99940000D01*
X187100000Y-98500000D02*
X187700000Y-98800000D01*
X187100000Y-99100000D02*
X187100000Y-98500000D01*
X187700000Y-98800000D02*
X187100000Y-99100000D01*
X191290000Y-85160000D02*
X191290000Y-92550000D01*
X191290000Y-99940000D02*
X191290000Y-92550000D01*
X192400000Y-86050000D02*
X192400000Y-86550000D01*
X192400000Y-86550000D02*
X197900000Y-86550000D01*
X192400000Y-88550000D02*
X192400000Y-89050000D01*
X192400000Y-89050000D02*
X197900000Y-89050000D01*
X192400000Y-91050000D02*
X192400000Y-91550000D01*
X192400000Y-91550000D02*
X197900000Y-91550000D01*
X192400000Y-93550000D02*
X192400000Y-94050000D01*
X192400000Y-94050000D02*
X197900000Y-94050000D01*
X192400000Y-96050000D02*
X192400000Y-96550000D01*
X192400000Y-96550000D02*
X197900000Y-96550000D01*
X192400000Y-98550000D02*
X192400000Y-99050000D01*
X192400000Y-99050000D02*
X197900000Y-99050000D01*
X197900000Y-86050000D02*
X192400000Y-86050000D01*
X197900000Y-86550000D02*
X197900000Y-86050000D01*
X197900000Y-88550000D02*
X192400000Y-88550000D01*
X197900000Y-89050000D02*
X197900000Y-88550000D01*
X197900000Y-91050000D02*
X192400000Y-91050000D01*
X197900000Y-91550000D02*
X197900000Y-91050000D01*
X197900000Y-93550000D02*
X192400000Y-93550000D01*
X197900000Y-94050000D02*
X197900000Y-93550000D01*
X197900000Y-96050000D02*
X192400000Y-96050000D01*
X197900000Y-96550000D02*
X197900000Y-96050000D01*
X197900000Y-98550000D02*
X192400000Y-98550000D01*
X197900000Y-99050000D02*
X197900000Y-98550000D01*
X198510000Y-83740000D02*
X186790000Y-83740000D01*
X198510000Y-92550000D02*
X198510000Y-83740000D01*
X198510000Y-92550000D02*
X198510000Y-101360000D01*
X198510000Y-101360000D02*
X186790000Y-101360000D01*
%TO.C,C5*%
X148862164Y-97330000D02*
X149077836Y-97330000D01*
X148862164Y-98050000D02*
X149077836Y-98050000D01*
%TO.C,C8*%
X157910000Y-99402164D02*
X157910000Y-99617836D01*
X158630000Y-99402164D02*
X158630000Y-99617836D01*
%TO.C,TP2*%
X180360000Y-95350000D02*
G75*
G02*
X178960000Y-95350000I-700000J0D01*
G01*
X178960000Y-95350000D02*
G75*
G02*
X180360000Y-95350000I700000J0D01*
G01*
%TO.C,R5*%
X163270000Y-105606359D02*
X163270000Y-105913641D01*
X164030000Y-105606359D02*
X164030000Y-105913641D01*
%TO.C,L2*%
X161200000Y-89220000D02*
X162900000Y-89220000D01*
X161200000Y-94940000D02*
X161200000Y-89220000D01*
X162900000Y-94940000D02*
X161200000Y-94940000D01*
X165020000Y-89220000D02*
X166720000Y-89220000D01*
X166720000Y-89220000D02*
X166720000Y-94940000D01*
X166720000Y-94940000D02*
X165020000Y-94940000D01*
%TO.C,C23*%
X170450000Y-101244664D02*
X170450000Y-101460336D01*
X171170000Y-101244664D02*
X171170000Y-101460336D01*
%TO.C,D1_PWR_BATT1*%
X176885000Y-100160000D02*
X176885000Y-102445000D01*
X176885000Y-102445000D02*
X178355000Y-102445000D01*
X178355000Y-102445000D02*
X178355000Y-100160000D01*
%TO.C,J9*%
X160080000Y-116670000D02*
X161500000Y-116670000D01*
X160080000Y-128390000D02*
X160080000Y-116670000D01*
X161500000Y-116670000D02*
X161500000Y-121170000D01*
X161500000Y-121170000D02*
X163890000Y-121170000D01*
X162340000Y-116980000D02*
X162940000Y-116980000D01*
X162390000Y-122280000D02*
X162390000Y-127780000D01*
X162390000Y-127780000D02*
X162890000Y-127780000D01*
X162640000Y-117580000D02*
X162340000Y-116980000D01*
X162890000Y-122280000D02*
X162390000Y-122280000D01*
X162890000Y-127780000D02*
X162890000Y-122280000D01*
X162940000Y-116980000D02*
X162640000Y-117580000D01*
X163890000Y-128390000D02*
X160080000Y-128390000D01*
X163890000Y-128390000D02*
X167700000Y-128390000D01*
X164890000Y-122280000D02*
X164890000Y-127780000D01*
X164890000Y-127780000D02*
X165390000Y-127780000D01*
X165390000Y-122280000D02*
X164890000Y-122280000D01*
X165390000Y-127780000D02*
X165390000Y-122280000D01*
X166280000Y-116670000D02*
X166280000Y-121170000D01*
X166280000Y-121170000D02*
X163890000Y-121170000D01*
X167700000Y-116670000D02*
X166280000Y-116670000D01*
X167700000Y-128390000D02*
X167700000Y-116670000D01*
%TO.C,R8*%
X136903641Y-118370000D02*
X136596359Y-118370000D01*
X136903641Y-119130000D02*
X136596359Y-119130000D01*
%TO.C,J1*%
X136410000Y-106660000D02*
X137685000Y-106660000D01*
X137685000Y-106595000D02*
X137685000Y-106660000D01*
X137685000Y-106595000D02*
X141315000Y-106595000D01*
X137685000Y-115640000D02*
X137685000Y-115705000D01*
X137685000Y-115705000D02*
X141315000Y-115705000D01*
X141315000Y-106595000D02*
X141315000Y-106660000D01*
X141315000Y-115640000D02*
X141315000Y-115705000D01*
%TO.C,R6*%
X162170000Y-105606359D02*
X162170000Y-105913641D01*
X162930000Y-105606359D02*
X162930000Y-105913641D01*
%TO.C,R4*%
X172890000Y-103468859D02*
X172890000Y-103776141D01*
X173650000Y-103468859D02*
X173650000Y-103776141D01*
%TO.C,U4*%
X162940000Y-99390000D02*
X161890000Y-99390000D01*
X162940000Y-104610000D02*
X161890000Y-104610000D01*
X164060000Y-99390000D02*
X165110000Y-99390000D01*
X164060000Y-104610000D02*
X164810000Y-104610000D01*
X165250000Y-104800000D02*
X164970000Y-104800000D01*
X165110000Y-104610000D01*
X165250000Y-104800000D01*
G36*
X165250000Y-104800000D02*
G01*
X164970000Y-104800000D01*
X165110000Y-104610000D01*
X165250000Y-104800000D01*
G37*
%TO.C,C33*%
X151422164Y-114580000D02*
X151637836Y-114580000D01*
X151422164Y-115300000D02*
X151637836Y-115300000D01*
%TO.C,R7*%
X136901141Y-116770000D02*
X136593859Y-116770000D01*
X136901141Y-117530000D02*
X136593859Y-117530000D01*
%TO.C,J2*%
X168610000Y-116640000D02*
X170030000Y-116640000D01*
X168610000Y-128360000D02*
X168610000Y-116640000D01*
X170030000Y-116640000D02*
X170030000Y-121140000D01*
X170030000Y-121140000D02*
X172420000Y-121140000D01*
X170870000Y-116950000D02*
X171470000Y-116950000D01*
X170920000Y-122250000D02*
X170920000Y-127750000D01*
X170920000Y-127750000D02*
X171420000Y-127750000D01*
X171170000Y-117550000D02*
X170870000Y-116950000D01*
X171420000Y-122250000D02*
X170920000Y-122250000D01*
X171420000Y-127750000D02*
X171420000Y-122250000D01*
X171470000Y-116950000D02*
X171170000Y-117550000D01*
X172420000Y-128360000D02*
X168610000Y-128360000D01*
X172420000Y-128360000D02*
X176230000Y-128360000D01*
X173420000Y-122250000D02*
X173420000Y-127750000D01*
X173420000Y-127750000D02*
X173920000Y-127750000D01*
X173920000Y-122250000D02*
X173420000Y-122250000D01*
X173920000Y-127750000D02*
X173920000Y-122250000D01*
X174810000Y-116640000D02*
X174810000Y-121140000D01*
X174810000Y-121140000D02*
X172420000Y-121140000D01*
X176230000Y-116640000D02*
X174810000Y-116640000D01*
X176230000Y-128360000D02*
X176230000Y-116640000D01*
%TO.C,R2*%
X177240000Y-103516359D02*
X177240000Y-103823641D01*
X178000000Y-103516359D02*
X178000000Y-103823641D01*
%TO.C,C4*%
X171850000Y-97802164D02*
X171850000Y-98017836D01*
X172570000Y-97802164D02*
X172570000Y-98017836D01*
%TO.C,C26*%
X170091585Y-91725000D02*
X169875913Y-91725000D01*
X170091585Y-92445000D02*
X169875913Y-92445000D01*
%TO.C,R22*%
X160033641Y-113590000D02*
X159726359Y-113590000D01*
X160033641Y-114350000D02*
X159726359Y-114350000D01*
%TO.C,R24*%
X144803641Y-99710000D02*
X144496359Y-99710000D01*
X144803641Y-100470000D02*
X144496359Y-100470000D01*
%TO.C,C37*%
X159521252Y-90535000D02*
X158998748Y-90535000D01*
X159521252Y-92005000D02*
X158998748Y-92005000D01*
%TO.C,C15*%
X182450000Y-87367836D02*
X182450000Y-87152164D01*
X183170000Y-87367836D02*
X183170000Y-87152164D01*
%TO.C,C1*%
X156440000Y-111292164D02*
X156440000Y-111507836D01*
X157160000Y-111292164D02*
X157160000Y-111507836D01*
%TO.C,C10*%
X158057836Y-102047500D02*
X157842164Y-102047500D01*
X158057836Y-102767500D02*
X157842164Y-102767500D01*
%TO.C,Y1*%
X152740000Y-112610000D02*
X156060000Y-112610000D01*
X156060000Y-112610000D02*
X156060000Y-108590000D01*
%TO.C,SW2*%
X135990000Y-103100000D02*
X135990000Y-96900000D01*
X135990000Y-103100000D02*
X136090000Y-103100000D01*
X136090000Y-96900000D02*
X135990000Y-96900000D01*
X137590000Y-96900000D02*
X140590000Y-96900000D01*
X137590000Y-103100000D02*
X140590000Y-103100000D01*
X142190000Y-96900000D02*
X142090000Y-96900000D01*
X142190000Y-103100000D02*
X142090000Y-103100000D01*
X142190000Y-103100000D02*
X142190000Y-96900000D01*
D14*
%TO.C,G\u002A\u002A\u002A*%
G36*
X173674458Y-114168573D02*
G01*
X173674458Y-114737055D01*
X173574828Y-114737055D01*
X173475197Y-114737055D01*
X173475197Y-114168573D01*
X173475197Y-113600092D01*
X173574828Y-113600092D01*
X173674458Y-113600092D01*
X173674458Y-114168573D01*
G37*
G36*
X169712668Y-113699722D02*
G01*
X169712668Y-113799353D01*
X169542710Y-113799353D01*
X169372751Y-113799353D01*
X169372751Y-114268204D01*
X169372751Y-114737055D01*
X169267260Y-114737055D01*
X169161768Y-114737055D01*
X169161768Y-114268204D01*
X169161768Y-113799353D01*
X168985949Y-113799353D01*
X168810130Y-113799353D01*
X168810130Y-113699722D01*
X168810130Y-113600092D01*
X169261399Y-113600092D01*
X169712668Y-113600092D01*
X169712668Y-113699722D01*
G37*
G36*
X172548646Y-109684382D02*
G01*
X172533505Y-109703191D01*
X172506507Y-109731656D01*
X172477892Y-109759591D01*
X172388986Y-109843962D01*
X172381066Y-109946996D01*
X172364127Y-110065093D01*
X172331747Y-110167858D01*
X172282305Y-110258893D01*
X172214180Y-110341801D01*
X172194775Y-110360980D01*
X172115347Y-110428254D01*
X172035720Y-110477464D01*
X171971876Y-110505134D01*
X171844798Y-110539348D01*
X171712664Y-110550709D01*
X171575404Y-110539218D01*
X171472129Y-110516457D01*
X171373768Y-110489366D01*
X171304527Y-110564918D01*
X171235286Y-110640470D01*
X171242793Y-110587724D01*
X171272359Y-110445513D01*
X171319147Y-110317231D01*
X171384451Y-110199603D01*
X171411917Y-110160352D01*
X171485309Y-110078635D01*
X171579879Y-110002649D01*
X171693812Y-109933560D01*
X171825291Y-109872536D01*
X171907685Y-109841707D01*
X171970731Y-109821545D01*
X172050993Y-109798241D01*
X172142700Y-109773263D01*
X172240083Y-109748081D01*
X172337373Y-109724165D01*
X172428800Y-109702984D01*
X172508595Y-109686007D01*
X172549216Y-109678321D01*
X172548646Y-109684382D01*
G37*
G36*
X172586796Y-113702653D02*
G01*
X172613393Y-113744603D01*
X172649447Y-113801414D01*
X172691834Y-113868164D01*
X172737429Y-113939934D01*
X172783109Y-114011803D01*
X172789629Y-114022057D01*
X172834139Y-114092200D01*
X172878117Y-114161748D01*
X172918682Y-114226129D01*
X172952953Y-114280769D01*
X172978050Y-114321095D01*
X172981574Y-114326811D01*
X173035649Y-114414720D01*
X173038731Y-114007406D01*
X173041813Y-113600092D01*
X173141292Y-113600092D01*
X173240771Y-113600092D01*
X173240771Y-114168573D01*
X173240771Y-114737055D01*
X173120628Y-114736571D01*
X173000485Y-114736087D01*
X172883273Y-114546912D01*
X172838347Y-114474838D01*
X172789905Y-114397854D01*
X172742286Y-114322808D01*
X172699827Y-114256547D01*
X172677507Y-114222131D01*
X172638585Y-114162153D01*
X172598247Y-114099365D01*
X172561282Y-114041255D01*
X172532709Y-113995685D01*
X172507211Y-113955758D01*
X172485947Y-113924771D01*
X172472058Y-113907197D01*
X172468884Y-113904838D01*
X172467128Y-113916117D01*
X172465515Y-113948196D01*
X172464095Y-113998431D01*
X172462916Y-114064179D01*
X172462026Y-114142798D01*
X172461474Y-114231644D01*
X172461307Y-114318013D01*
X172461307Y-114731195D01*
X172364606Y-114734599D01*
X172267906Y-114738003D01*
X172267906Y-114169047D01*
X172267906Y-113600092D01*
X172394870Y-113600092D01*
X172521834Y-113600092D01*
X172586796Y-113702653D01*
G37*
G36*
X169022351Y-109688337D02*
G01*
X169062383Y-109694901D01*
X169117702Y-109706104D01*
X169184677Y-109721066D01*
X169259676Y-109738907D01*
X169339067Y-109758746D01*
X169419218Y-109779702D01*
X169496497Y-109800896D01*
X169567272Y-109821445D01*
X169613037Y-109835628D01*
X169760825Y-109891869D01*
X169891853Y-109959996D01*
X170005034Y-110039122D01*
X170099276Y-110128357D01*
X170173493Y-110226813D01*
X170226595Y-110333604D01*
X170227895Y-110337048D01*
X170240374Y-110374096D01*
X170254137Y-110420822D01*
X170268010Y-110472382D01*
X170280824Y-110523933D01*
X170291405Y-110570632D01*
X170298583Y-110607635D01*
X170301186Y-110630099D01*
X170299877Y-110634609D01*
X170288866Y-110626868D01*
X170265705Y-110606209D01*
X170234631Y-110576479D01*
X170221285Y-110563258D01*
X170149934Y-110491907D01*
X170069026Y-110516972D01*
X169955676Y-110542185D01*
X169836545Y-110550853D01*
X169717412Y-110543394D01*
X169604058Y-110520228D01*
X169502263Y-110481771D01*
X169488896Y-110474999D01*
X169386613Y-110408682D01*
X169301489Y-110327045D01*
X169234667Y-110231880D01*
X169187288Y-110124985D01*
X169160493Y-110008152D01*
X169155348Y-109950591D01*
X169150497Y-109846775D01*
X169094596Y-109798527D01*
X169059358Y-109767295D01*
X169026996Y-109737254D01*
X169010175Y-109720672D01*
X168992706Y-109700568D01*
X168991450Y-109690911D01*
X169001239Y-109687295D01*
X169022351Y-109688337D01*
G37*
G36*
X171177494Y-111159136D02*
G01*
X171091160Y-111256324D01*
X170992867Y-111361408D01*
X170942071Y-111414074D01*
X170850869Y-111507844D01*
X170843799Y-111632980D01*
X170836729Y-111758116D01*
X171010208Y-111897189D01*
X171073860Y-111948066D01*
X171139811Y-112000522D01*
X171202536Y-112050178D01*
X171256505Y-112092655D01*
X171286800Y-112116303D01*
X171327609Y-112148633D01*
X171359974Y-112175523D01*
X171380345Y-112193939D01*
X171385532Y-112200724D01*
X171373495Y-112198523D01*
X171347115Y-112188226D01*
X171323444Y-112177429D01*
X171283388Y-112158731D01*
X171232378Y-112135613D01*
X171181016Y-112112877D01*
X171177827Y-112111487D01*
X171134511Y-112091909D01*
X171077012Y-112064900D01*
X171012042Y-112033662D01*
X170946311Y-112001396D01*
X170929451Y-111992996D01*
X170768984Y-111912774D01*
X170612977Y-111987076D01*
X170539760Y-112022011D01*
X170457114Y-112061547D01*
X170375388Y-112100728D01*
X170307586Y-112133319D01*
X170253301Y-112159139D01*
X170206538Y-112180771D01*
X170171342Y-112196391D01*
X170151758Y-112204174D01*
X170149349Y-112204710D01*
X170152067Y-112198073D01*
X170169149Y-112181920D01*
X170180698Y-112172476D01*
X170202210Y-112155482D01*
X170238548Y-112126731D01*
X170286168Y-112089029D01*
X170341525Y-112045182D01*
X170401075Y-111997997D01*
X170409263Y-111991507D01*
X170469950Y-111943490D01*
X170527747Y-111897905D01*
X170578886Y-111857714D01*
X170619602Y-111825876D01*
X170646127Y-111805350D01*
X170647941Y-111803967D01*
X170698258Y-111765712D01*
X170691060Y-111636778D01*
X170683862Y-111507844D01*
X170535005Y-111355468D01*
X170483989Y-111303086D01*
X170435739Y-111253256D01*
X170393851Y-111209711D01*
X170361920Y-111176187D01*
X170346001Y-111159136D01*
X170305854Y-111115182D01*
X170760637Y-111115182D01*
X171215419Y-111115182D01*
X171177494Y-111159136D01*
G37*
G36*
X167628248Y-113666495D02*
G01*
X167629861Y-113710290D01*
X167629442Y-113749363D01*
X167628060Y-113767120D01*
X167623621Y-113799353D01*
X167340710Y-113799526D01*
X167244413Y-113799794D01*
X167168700Y-113800835D01*
X167110714Y-113803205D01*
X167067599Y-113807457D01*
X167036498Y-113814146D01*
X167014553Y-113823827D01*
X166998908Y-113837054D01*
X166986705Y-113854381D01*
X166978377Y-113869844D01*
X166971672Y-113885251D01*
X166966652Y-113903765D01*
X166963134Y-113928617D01*
X166960938Y-113963039D01*
X166959883Y-114010263D01*
X166959789Y-114073519D01*
X166960475Y-114156038D01*
X166960795Y-114184146D01*
X166964029Y-114457587D01*
X167007812Y-114497690D01*
X167041231Y-114523951D01*
X167072346Y-114535803D01*
X167101582Y-114538130D01*
X167128628Y-114538360D01*
X167174612Y-114538803D01*
X167235029Y-114539413D01*
X167305377Y-114540144D01*
X167381151Y-114540952D01*
X167391209Y-114541061D01*
X167630848Y-114543654D01*
X167631495Y-114634495D01*
X167630913Y-114682148D01*
X167627812Y-114710698D01*
X167621415Y-114724417D01*
X167614560Y-114727484D01*
X167593451Y-114729124D01*
X167561359Y-114730023D01*
X167515946Y-114730167D01*
X167454874Y-114729541D01*
X167375807Y-114728128D01*
X167276406Y-114725913D01*
X167239479Y-114725022D01*
X167152215Y-114722598D01*
X167084994Y-114719938D01*
X167034417Y-114716730D01*
X166997084Y-114712661D01*
X166969596Y-114707418D01*
X166948554Y-114700687D01*
X166941332Y-114697578D01*
X166873200Y-114658557D01*
X166822714Y-114610690D01*
X166785569Y-114551275D01*
X166753046Y-114485048D01*
X166753046Y-114174434D01*
X166753289Y-114068843D01*
X166754378Y-113983744D01*
X166756856Y-113916190D01*
X166761267Y-113863232D01*
X166768153Y-113821922D01*
X166778056Y-113789311D01*
X166791521Y-113762453D01*
X166809088Y-113738398D01*
X166831302Y-113714198D01*
X166839262Y-113706161D01*
X166867525Y-113679167D01*
X166894496Y-113657593D01*
X166923220Y-113640782D01*
X166956740Y-113628077D01*
X166998099Y-113618819D01*
X167050341Y-113612353D01*
X167116510Y-113608021D01*
X167199647Y-113605165D01*
X167302799Y-113603128D01*
X167317455Y-113602895D01*
X167623996Y-113598103D01*
X167628248Y-113666495D01*
G37*
G36*
X170308900Y-113600515D02*
G01*
X170392274Y-113601708D01*
X170467255Y-113603556D01*
X170530030Y-113605941D01*
X170576788Y-113608749D01*
X170602863Y-113611695D01*
X170678932Y-113637208D01*
X170742252Y-113682365D01*
X170792515Y-113746940D01*
X170795698Y-113752468D01*
X170810573Y-113779751D01*
X170820698Y-113802964D01*
X170826968Y-113827520D01*
X170830279Y-113858835D01*
X170831529Y-113902321D01*
X170831613Y-113963394D01*
X170831596Y-113969312D01*
X170830572Y-114040194D01*
X170827678Y-114092175D01*
X170822451Y-114129753D01*
X170814427Y-114157427D01*
X170811517Y-114164228D01*
X170769305Y-114232531D01*
X170714713Y-114281049D01*
X170683338Y-114297699D01*
X170652977Y-114310982D01*
X170633342Y-114319707D01*
X170629785Y-114321372D01*
X170634158Y-114331417D01*
X170648333Y-114357248D01*
X170669927Y-114394625D01*
X170689440Y-114427490D01*
X170725151Y-114487253D01*
X170765164Y-114554579D01*
X170802387Y-114617527D01*
X170812374Y-114634494D01*
X170872649Y-114737055D01*
X170755815Y-114737055D01*
X170638981Y-114737055D01*
X170610973Y-114693100D01*
X170594080Y-114665684D01*
X170569079Y-114623993D01*
X170538787Y-114572843D01*
X170506018Y-114517050D01*
X170473591Y-114461428D01*
X170444320Y-114410795D01*
X170421024Y-114369966D01*
X170406518Y-114343755D01*
X170405315Y-114341462D01*
X170398431Y-114330491D01*
X170388400Y-114323075D01*
X170371018Y-114318522D01*
X170342079Y-114316137D01*
X170297377Y-114315225D01*
X170245574Y-114315089D01*
X170099470Y-114315089D01*
X170099470Y-114526072D01*
X170099470Y-114737055D01*
X169999839Y-114737055D01*
X169900208Y-114737055D01*
X169900208Y-114168573D01*
X169900208Y-114127549D01*
X170099470Y-114127549D01*
X170316896Y-114127549D01*
X170399344Y-114127133D01*
X170461661Y-114125729D01*
X170507144Y-114123107D01*
X170539091Y-114119033D01*
X170560801Y-114113276D01*
X170568556Y-114109846D01*
X170595977Y-114091777D01*
X170613454Y-114068275D01*
X170623009Y-114034099D01*
X170626664Y-113984005D01*
X170626927Y-113958546D01*
X170626127Y-113911796D01*
X170622392Y-113881049D01*
X170613722Y-113858883D01*
X170598116Y-113837876D01*
X170592750Y-113831772D01*
X170558572Y-113793493D01*
X170329021Y-113789866D01*
X170099470Y-113786239D01*
X170099470Y-113956894D01*
X170099470Y-114127549D01*
X169900208Y-114127549D01*
X169900208Y-113956894D01*
X169900208Y-113600092D01*
X170220944Y-113600092D01*
X170308900Y-113600515D01*
G37*
G36*
X174657083Y-113600304D02*
G01*
X174695092Y-113602009D01*
X174720193Y-113605851D01*
X174735020Y-113612366D01*
X174742206Y-113622088D01*
X174744384Y-113635553D01*
X174744190Y-113653295D01*
X174744025Y-113664559D01*
X174743695Y-113694886D01*
X174742873Y-113734633D01*
X174742560Y-113746608D01*
X174741094Y-113799353D01*
X174464472Y-113799353D01*
X174187850Y-113799353D01*
X174149183Y-113838020D01*
X174132113Y-113858154D01*
X174118911Y-113882250D01*
X174109209Y-113913228D01*
X174102638Y-113954011D01*
X174098830Y-114007521D01*
X174097416Y-114076680D01*
X174098027Y-114164411D01*
X174099342Y-114233040D01*
X174101589Y-114315138D01*
X174104778Y-114377306D01*
X174109794Y-114423054D01*
X174117523Y-114455896D01*
X174128850Y-114479342D01*
X174144661Y-114496905D01*
X174165841Y-114512097D01*
X174170430Y-114514934D01*
X174184292Y-114522329D01*
X174200596Y-114527936D01*
X174222599Y-114532000D01*
X174253555Y-114534766D01*
X174296722Y-114536478D01*
X174355355Y-114537381D01*
X174432711Y-114537717D01*
X174474435Y-114537750D01*
X174564808Y-114538065D01*
X174633958Y-114539059D01*
X174684100Y-114540853D01*
X174717447Y-114543567D01*
X174736214Y-114547324D01*
X174742613Y-114552245D01*
X174742640Y-114552445D01*
X174743630Y-114571105D01*
X174744702Y-114605529D01*
X174745571Y-114645468D01*
X174746955Y-114723839D01*
X174640192Y-114727517D01*
X174590968Y-114728399D01*
X174525215Y-114728420D01*
X174449827Y-114727636D01*
X174371700Y-114726104D01*
X174329578Y-114724950D01*
X174244989Y-114721790D01*
X174179724Y-114717499D01*
X174129669Y-114711070D01*
X174090705Y-114701495D01*
X174058717Y-114687767D01*
X174029586Y-114668879D01*
X173999668Y-114644236D01*
X173968224Y-114610102D01*
X173938984Y-114568005D01*
X173930192Y-114551930D01*
X173922278Y-114535125D01*
X173916072Y-114518614D01*
X173911365Y-114499427D01*
X173907952Y-114474592D01*
X173905625Y-114441141D01*
X173904175Y-114396102D01*
X173903397Y-114336505D01*
X173903082Y-114259381D01*
X173903023Y-114162713D01*
X173903096Y-114065121D01*
X173903443Y-113988056D01*
X173904259Y-113928604D01*
X173905738Y-113883849D01*
X173908074Y-113850876D01*
X173911462Y-113826770D01*
X173916096Y-113808616D01*
X173922171Y-113793499D01*
X173928456Y-113781151D01*
X173978201Y-113711640D01*
X174043822Y-113655459D01*
X174084703Y-113632269D01*
X174102470Y-113624567D01*
X174121452Y-113618539D01*
X174144821Y-113613920D01*
X174175750Y-113610444D01*
X174217409Y-113607847D01*
X174272970Y-113605865D01*
X174345606Y-113604232D01*
X174438488Y-113602683D01*
X174439272Y-113602671D01*
X174531806Y-113601171D01*
X174603532Y-113600203D01*
X174657083Y-113600304D01*
G37*
G36*
X168440641Y-113608550D02*
G01*
X168485792Y-113616703D01*
X168516972Y-113633675D01*
X168538748Y-113661898D01*
X168554943Y-113701516D01*
X168566008Y-113734175D01*
X168582840Y-113782684D01*
X168603265Y-113840832D01*
X168625115Y-113902411D01*
X168628076Y-113910705D01*
X168653514Y-113982127D01*
X168681293Y-114060476D01*
X168707866Y-114135723D01*
X168727643Y-114192016D01*
X168765268Y-114299034D01*
X168800180Y-114397424D01*
X168831446Y-114484604D01*
X168858134Y-114557996D01*
X168879311Y-114615020D01*
X168894045Y-114653098D01*
X168896618Y-114659368D01*
X168910258Y-114693837D01*
X168914485Y-114716221D01*
X168906239Y-114729128D01*
X168882460Y-114735167D01*
X168840088Y-114736947D01*
X168805487Y-114737055D01*
X168695352Y-114737055D01*
X168656653Y-114613982D01*
X168617954Y-114490908D01*
X168347137Y-114490908D01*
X168076321Y-114490908D01*
X168054675Y-114552445D01*
X168036958Y-114602293D01*
X168017610Y-114655989D01*
X168010493Y-114675518D01*
X167987956Y-114737055D01*
X167876192Y-114737055D01*
X167824525Y-114736694D01*
X167792357Y-114735090D01*
X167775751Y-114731462D01*
X167770769Y-114725028D01*
X167772825Y-114716543D01*
X167783489Y-114688877D01*
X167800713Y-114642235D01*
X167823370Y-114579787D01*
X167850333Y-114504704D01*
X167880476Y-114420155D01*
X167912670Y-114329312D01*
X167931249Y-114276601D01*
X168142017Y-114276601D01*
X168153104Y-114277692D01*
X168183827Y-114278633D01*
X168230381Y-114279359D01*
X168288959Y-114279808D01*
X168341279Y-114279925D01*
X168406670Y-114279591D01*
X168463045Y-114278665D01*
X168506599Y-114277262D01*
X168533527Y-114275496D01*
X168540541Y-114273919D01*
X168536846Y-114261571D01*
X168526508Y-114230387D01*
X168510645Y-114183652D01*
X168490374Y-114124650D01*
X168466814Y-114056667D01*
X168456747Y-114027772D01*
X168428922Y-113948558D01*
X168407328Y-113888845D01*
X168390711Y-113845917D01*
X168377817Y-113817059D01*
X168367391Y-113799558D01*
X168358179Y-113790697D01*
X168348928Y-113787763D01*
X168345807Y-113787632D01*
X168330379Y-113789388D01*
X168317868Y-113797154D01*
X168305989Y-113814675D01*
X168292460Y-113845697D01*
X168274997Y-113893968D01*
X168267213Y-113916566D01*
X168250549Y-113964839D01*
X168229128Y-114026327D01*
X168206046Y-114092156D01*
X168189568Y-114138876D01*
X168171283Y-114190814D01*
X168156256Y-114233987D01*
X168146000Y-114264017D01*
X168142024Y-114276524D01*
X168142017Y-114276601D01*
X167931249Y-114276601D01*
X167945790Y-114235344D01*
X167978708Y-114141422D01*
X168010296Y-114050716D01*
X168037485Y-113972048D01*
X168065407Y-113891343D01*
X168091384Y-113817105D01*
X168114295Y-113752472D01*
X168133019Y-113700581D01*
X168146435Y-113664568D01*
X168153421Y-113647570D01*
X168153461Y-113647496D01*
X168171945Y-113631127D01*
X168208441Y-113619166D01*
X168264477Y-113611333D01*
X168341583Y-113607350D01*
X168376952Y-113606785D01*
X168440641Y-113608550D01*
G37*
G36*
X171595591Y-113601794D02*
G01*
X171671924Y-113604399D01*
X171742190Y-113608267D01*
X171801924Y-113613294D01*
X171846664Y-113619371D01*
X171870235Y-113625569D01*
X171929149Y-113661158D01*
X171983484Y-113710978D01*
X172024099Y-113766582D01*
X172025380Y-113768940D01*
X172032870Y-113783848D01*
X172038743Y-113799257D01*
X172043195Y-113818084D01*
X172046423Y-113843249D01*
X172048623Y-113877669D01*
X172049990Y-113924263D01*
X172050722Y-113985949D01*
X172051013Y-114065644D01*
X172051062Y-114150991D01*
X172050791Y-114260285D01*
X172049639Y-114348931D01*
X172047098Y-114419720D01*
X172042660Y-114475444D01*
X172035817Y-114518895D01*
X172026062Y-114552864D01*
X172012885Y-114580143D01*
X171995780Y-114603524D01*
X171974238Y-114625797D01*
X171962729Y-114636413D01*
X171934312Y-114661105D01*
X171908061Y-114680283D01*
X171880498Y-114694693D01*
X171848145Y-114705082D01*
X171807523Y-114712197D01*
X171755156Y-114716785D01*
X171687565Y-114719593D01*
X171601272Y-114721367D01*
X171564629Y-114721901D01*
X171477022Y-114722918D01*
X171409235Y-114723106D01*
X171357654Y-114722259D01*
X171318668Y-114720173D01*
X171288660Y-114716642D01*
X171264019Y-114711462D01*
X171241130Y-114704428D01*
X171238169Y-114703393D01*
X171176835Y-114677342D01*
X171131537Y-114646139D01*
X171094876Y-114604132D01*
X171081291Y-114583550D01*
X171065245Y-114554883D01*
X171052617Y-114524365D01*
X171043053Y-114488924D01*
X171036199Y-114445490D01*
X171031702Y-114390991D01*
X171029210Y-114322355D01*
X171028369Y-114236513D01*
X171028744Y-114149150D01*
X171236434Y-114149150D01*
X171236785Y-114225039D01*
X171237765Y-114295068D01*
X171239265Y-114355072D01*
X171241173Y-114400888D01*
X171243381Y-114428352D01*
X171243900Y-114431541D01*
X171259657Y-114468672D01*
X171288088Y-114504826D01*
X171321918Y-114532080D01*
X171344955Y-114541627D01*
X171365175Y-114543351D01*
X171404285Y-114544640D01*
X171457732Y-114545417D01*
X171520966Y-114545606D01*
X171567365Y-114545359D01*
X171763501Y-114543654D01*
X171801790Y-114505356D01*
X171840079Y-114467058D01*
X171843396Y-114183021D01*
X171844572Y-114076248D01*
X171844136Y-113990593D01*
X171840272Y-113923731D01*
X171831168Y-113873338D01*
X171815010Y-113837090D01*
X171789986Y-113812663D01*
X171754282Y-113797732D01*
X171706085Y-113789973D01*
X171643581Y-113787063D01*
X171564958Y-113786677D01*
X171534207Y-113786707D01*
X171450732Y-113786936D01*
X171384520Y-113789175D01*
X171333574Y-113795860D01*
X171295893Y-113809422D01*
X171269478Y-113832297D01*
X171252331Y-113866916D01*
X171242451Y-113915714D01*
X171237839Y-113981125D01*
X171236497Y-114065581D01*
X171236434Y-114149150D01*
X171028744Y-114149150D01*
X171028825Y-114130392D01*
X171028849Y-114127549D01*
X171031311Y-113840378D01*
X171066475Y-113770050D01*
X171112776Y-113701906D01*
X171174699Y-113651195D01*
X171251952Y-113618132D01*
X171279156Y-113611460D01*
X171318866Y-113606147D01*
X171374828Y-113602630D01*
X171442579Y-113600803D01*
X171517654Y-113600560D01*
X171595591Y-113601794D01*
G37*
G36*
X168453201Y-107218367D02*
G01*
X168494884Y-107236139D01*
X168548784Y-107263306D01*
X168611397Y-107297862D01*
X168679216Y-107337800D01*
X168748737Y-107381114D01*
X168816453Y-107425796D01*
X168878859Y-107469841D01*
X168882842Y-107472778D01*
X168999114Y-107563054D01*
X169121221Y-107665598D01*
X169244338Y-107775902D01*
X169363642Y-107889459D01*
X169474308Y-108001763D01*
X169571513Y-108108308D01*
X169604269Y-108146769D01*
X169641853Y-108191112D01*
X169674457Y-108228071D01*
X169699032Y-108254302D01*
X169712531Y-108266458D01*
X169713731Y-108266912D01*
X169728608Y-108263589D01*
X169759883Y-108254751D01*
X169801648Y-108242089D01*
X169815842Y-108237640D01*
X169980489Y-108191191D01*
X170147999Y-108155514D01*
X170323394Y-108129847D01*
X170511695Y-108113426D01*
X170681085Y-108106280D01*
X170884806Y-108105047D01*
X171071057Y-108112348D01*
X171244420Y-108128758D01*
X171409476Y-108154856D01*
X171570807Y-108191217D01*
X171732995Y-108238420D01*
X171734530Y-108238914D01*
X171828243Y-108269119D01*
X171933113Y-108153733D01*
X172077978Y-107999809D01*
X172225061Y-107853997D01*
X172372317Y-107717974D01*
X172517700Y-107593418D01*
X172659165Y-107482005D01*
X172794668Y-107385412D01*
X172922162Y-107305316D01*
X173039603Y-107243393D01*
X173048322Y-107239357D01*
X173086148Y-107223601D01*
X173116383Y-107216534D01*
X173141258Y-107220265D01*
X173163009Y-107236908D01*
X173183869Y-107268573D01*
X173206070Y-107317372D01*
X173231847Y-107385417D01*
X173246590Y-107426794D01*
X173301762Y-107594331D01*
X173344202Y-107750315D01*
X173375065Y-107901570D01*
X173395507Y-108054921D01*
X173406684Y-108217191D01*
X173409766Y-108389985D01*
X173408141Y-108523355D01*
X173403313Y-108639299D01*
X173394413Y-108743722D01*
X173380573Y-108842525D01*
X173360923Y-108941609D01*
X173334596Y-109046877D01*
X173300723Y-109164230D01*
X173291238Y-109195290D01*
X173248987Y-109332482D01*
X173290627Y-109441437D01*
X173356768Y-109636157D01*
X173412110Y-109844167D01*
X173454404Y-110056924D01*
X173456934Y-110072506D01*
X173470311Y-110161234D01*
X173479920Y-110239158D01*
X173486324Y-110313799D01*
X173490088Y-110392678D01*
X173491773Y-110483315D01*
X173492018Y-110540839D01*
X173489345Y-110660442D01*
X173479957Y-110761293D01*
X173462110Y-110847551D01*
X173434060Y-110923373D01*
X173394062Y-110992917D01*
X173340373Y-111060341D01*
X173271249Y-111129804D01*
X173229050Y-111167739D01*
X173190920Y-111201713D01*
X173143776Y-111244649D01*
X173095543Y-111289300D01*
X173076298Y-111307359D01*
X173040730Y-111340665D01*
X172991945Y-111385999D01*
X172934036Y-111439579D01*
X172871091Y-111497622D01*
X172807203Y-111556344D01*
X172789791Y-111572311D01*
X172724237Y-111632541D01*
X172646726Y-111703994D01*
X172562430Y-111781886D01*
X172476523Y-111861436D01*
X172394175Y-111937861D01*
X172344758Y-111983827D01*
X172278035Y-112045799D01*
X172213900Y-112105064D01*
X172155219Y-112158997D01*
X172104856Y-112204976D01*
X172065674Y-112240376D01*
X172040539Y-112262574D01*
X172039341Y-112263599D01*
X171997001Y-112300419D01*
X171950298Y-112342129D01*
X171922128Y-112367889D01*
X171890254Y-112397206D01*
X171846645Y-112436986D01*
X171797013Y-112482032D01*
X171747071Y-112527148D01*
X171746498Y-112527664D01*
X171701835Y-112567940D01*
X171662490Y-112603497D01*
X171632255Y-112630902D01*
X171614922Y-112646721D01*
X171613385Y-112648149D01*
X171586732Y-112669490D01*
X171546286Y-112697807D01*
X171498771Y-112728734D01*
X171450912Y-112757907D01*
X171409433Y-112780961D01*
X171406392Y-112782512D01*
X171322182Y-112819830D01*
X171227547Y-112853257D01*
X171132516Y-112879615D01*
X171049960Y-112895357D01*
X171007376Y-112899288D01*
X170947586Y-112902443D01*
X170876025Y-112904769D01*
X170798127Y-112906214D01*
X170719326Y-112906725D01*
X170645055Y-112906251D01*
X170580749Y-112904739D01*
X170531841Y-112902137D01*
X170515575Y-112900504D01*
X170432984Y-112886796D01*
X170347329Y-112867307D01*
X170268879Y-112844547D01*
X170230748Y-112830846D01*
X170169335Y-112805124D01*
X170114129Y-112778305D01*
X170061629Y-112747923D01*
X170008330Y-112711512D01*
X169950728Y-112666603D01*
X169885320Y-112610732D01*
X169808603Y-112541430D01*
X169773247Y-112508730D01*
X169715654Y-112455400D01*
X169656919Y-112401357D01*
X169602037Y-112351174D01*
X169556002Y-112309422D01*
X169532961Y-112288767D01*
X169485077Y-112245751D01*
X169433439Y-112198691D01*
X169387598Y-112156306D01*
X169378612Y-112147884D01*
X169331252Y-112103754D01*
X169270772Y-112048030D01*
X169201561Y-111984710D01*
X169128006Y-111917787D01*
X169054497Y-111851257D01*
X168985421Y-111789117D01*
X168939541Y-111748130D01*
X168866711Y-111683296D01*
X168808616Y-111631497D01*
X168762454Y-111590207D01*
X168725426Y-111556901D01*
X168694733Y-111529055D01*
X168667572Y-111504143D01*
X168641146Y-111479640D01*
X168622353Y-111462099D01*
X168548438Y-111393021D01*
X168488667Y-111337277D01*
X168440095Y-111292151D01*
X168399778Y-111254927D01*
X168364772Y-111222889D01*
X168332132Y-111193321D01*
X168298915Y-111163508D01*
X168290588Y-111156066D01*
X168205412Y-111070958D01*
X168141149Y-110984920D01*
X168095516Y-110893622D01*
X168066231Y-110792732D01*
X168053405Y-110705977D01*
X168045115Y-110621846D01*
X168136758Y-110625297D01*
X168228400Y-110628749D01*
X168243776Y-110719980D01*
X168262822Y-110803116D01*
X168290702Y-110870903D01*
X168330699Y-110930766D01*
X168343824Y-110946331D01*
X168361883Y-110964902D01*
X168395061Y-110997034D01*
X168441053Y-111040600D01*
X168497553Y-111093477D01*
X168562258Y-111153540D01*
X168632862Y-111218665D01*
X168707060Y-111286728D01*
X168782548Y-111355604D01*
X168857021Y-111423168D01*
X168928174Y-111487297D01*
X168993702Y-111545866D01*
X169009392Y-111559795D01*
X169094052Y-111635231D01*
X169188774Y-111720304D01*
X169286495Y-111808641D01*
X169380151Y-111893871D01*
X169407518Y-111918906D01*
X169447722Y-111955492D01*
X169488786Y-111992469D01*
X169519267Y-112019575D01*
X169560966Y-112056643D01*
X169614732Y-112105002D01*
X169676027Y-112160515D01*
X169740314Y-112219046D01*
X169803055Y-112276458D01*
X169859712Y-112328615D01*
X169905750Y-112371381D01*
X169923651Y-112388218D01*
X169997015Y-112456433D01*
X170058242Y-112510219D01*
X170111029Y-112552431D01*
X170159074Y-112585924D01*
X170206076Y-112613554D01*
X170234043Y-112627884D01*
X170289525Y-112653954D01*
X170339258Y-112674157D01*
X170387709Y-112689331D01*
X170439344Y-112700315D01*
X170498630Y-112707949D01*
X170570033Y-112713072D01*
X170658019Y-112716523D01*
X170713463Y-112717974D01*
X170839190Y-112719368D01*
X170945669Y-112716634D01*
X171036851Y-112709009D01*
X171116689Y-112695728D01*
X171189133Y-112676029D01*
X171258135Y-112649146D01*
X171327647Y-112614317D01*
X171367405Y-112591570D01*
X171400506Y-112569161D01*
X171446492Y-112534241D01*
X171501159Y-112490346D01*
X171560301Y-112441013D01*
X171619715Y-112389777D01*
X171675196Y-112340174D01*
X171722541Y-112295742D01*
X171741471Y-112276954D01*
X171758466Y-112260945D01*
X171787994Y-112234348D01*
X171824812Y-112201861D01*
X171841086Y-112187678D01*
X171886519Y-112147935D01*
X171933735Y-112106146D01*
X171973900Y-112070140D01*
X171980719Y-112063949D01*
X172032261Y-112016880D01*
X172093746Y-111960541D01*
X172162285Y-111897598D01*
X172234989Y-111830715D01*
X172308968Y-111762556D01*
X172381334Y-111695785D01*
X172449198Y-111633068D01*
X172509671Y-111577069D01*
X172559863Y-111530452D01*
X172596886Y-111495881D01*
X172607892Y-111485521D01*
X172655262Y-111440979D01*
X172706063Y-111393591D01*
X172751760Y-111351307D01*
X172766389Y-111337886D01*
X172867073Y-111245783D01*
X172951922Y-111167936D01*
X173022442Y-111102821D01*
X173080134Y-111048914D01*
X173126503Y-111004692D01*
X173163052Y-110968631D01*
X173191283Y-110939208D01*
X173212701Y-110914899D01*
X173228808Y-110894181D01*
X173241109Y-110875530D01*
X173251106Y-110857421D01*
X173260302Y-110838333D01*
X173261187Y-110836416D01*
X173284028Y-110767123D01*
X173298506Y-110679053D01*
X173305018Y-110575174D01*
X173303960Y-110458453D01*
X173295728Y-110331858D01*
X173280719Y-110198356D01*
X173259330Y-110060915D01*
X173231957Y-109922503D01*
X173198997Y-109786087D01*
X173160845Y-109654636D01*
X173117899Y-109531115D01*
X173072224Y-109422092D01*
X173051984Y-109376932D01*
X173040981Y-109346992D01*
X173037981Y-109326514D01*
X173041755Y-109309742D01*
X173046162Y-109300228D01*
X173062178Y-109263235D01*
X173081959Y-109209267D01*
X173103681Y-109144118D01*
X173125519Y-109073579D01*
X173145649Y-109003443D01*
X173162244Y-108939502D01*
X173168808Y-108910919D01*
X173194494Y-108761276D01*
X173210488Y-108599176D01*
X173216960Y-108429812D01*
X173214083Y-108258377D01*
X173202028Y-108090062D01*
X173180967Y-107930061D01*
X173151071Y-107783566D01*
X173128884Y-107704053D01*
X173104449Y-107629980D01*
X173082032Y-107569516D01*
X173062666Y-107525100D01*
X173047386Y-107499167D01*
X173039423Y-107493308D01*
X173021303Y-107500365D01*
X172988030Y-107520077D01*
X172942600Y-107550260D01*
X172888006Y-107588727D01*
X172827242Y-107633292D01*
X172763303Y-107681771D01*
X172699183Y-107731977D01*
X172637875Y-107781724D01*
X172596101Y-107816938D01*
X172512575Y-107895149D01*
X172423486Y-107989959D01*
X172332722Y-108096512D01*
X172244168Y-108209952D01*
X172161710Y-108325422D01*
X172089234Y-108438068D01*
X172062486Y-108483756D01*
X172044220Y-108515943D01*
X172031312Y-108538543D01*
X172027225Y-108545554D01*
X172016157Y-108543019D01*
X171988025Y-108533617D01*
X171947609Y-108519000D01*
X171917521Y-108507676D01*
X171727823Y-108443107D01*
X171522894Y-108387763D01*
X171309725Y-108343401D01*
X171183688Y-108323199D01*
X171139615Y-108318801D01*
X171076904Y-108315092D01*
X171000092Y-108312114D01*
X170913718Y-108309908D01*
X170822319Y-108308518D01*
X170730433Y-108307984D01*
X170642598Y-108308349D01*
X170563352Y-108309654D01*
X170497233Y-108311942D01*
X170448779Y-108315255D01*
X170439387Y-108316321D01*
X170319440Y-108332365D01*
X170222349Y-108346621D01*
X170148343Y-108359054D01*
X170134634Y-108361648D01*
X170066949Y-108376651D01*
X169984258Y-108397832D01*
X169893520Y-108423184D01*
X169801696Y-108450700D01*
X169715746Y-108478371D01*
X169650351Y-108501311D01*
X169600039Y-108519808D01*
X169558464Y-108534868D01*
X169530135Y-108544873D01*
X169519624Y-108548223D01*
X169512356Y-108538841D01*
X169495456Y-108513280D01*
X169471425Y-108475421D01*
X169442766Y-108429142D01*
X169442115Y-108428080D01*
X169325025Y-108251292D01*
X169199002Y-108087975D01*
X169067020Y-107941775D01*
X168968367Y-107847725D01*
X168910978Y-107798595D01*
X168848143Y-107747972D01*
X168782625Y-107697758D01*
X168717189Y-107649854D01*
X168654597Y-107606162D01*
X168597615Y-107568583D01*
X168549004Y-107539019D01*
X168511530Y-107519372D01*
X168487956Y-107511543D01*
X168481883Y-107513000D01*
X168471451Y-107531552D01*
X168456252Y-107567357D01*
X168438147Y-107615184D01*
X168419002Y-107669801D01*
X168400678Y-107725977D01*
X168385041Y-107778480D01*
X168378254Y-107803922D01*
X168345173Y-107966921D01*
X168323511Y-108143853D01*
X168313430Y-108328090D01*
X168315091Y-108513002D01*
X168328657Y-108691959D01*
X168352666Y-108850139D01*
X168370651Y-108938073D01*
X168387724Y-109011140D01*
X168406191Y-109077695D01*
X168428355Y-109146091D01*
X168454376Y-109218866D01*
X168496298Y-109332749D01*
X168454751Y-109435710D01*
X168418205Y-109533719D01*
X168381139Y-109646461D01*
X168346111Y-109765429D01*
X168315679Y-109882117D01*
X168300387Y-109948915D01*
X168286363Y-110015187D01*
X168276087Y-110066724D01*
X168268131Y-110111654D01*
X168261066Y-110158106D01*
X168253466Y-110214208D01*
X168252521Y-110221434D01*
X168244489Y-110282971D01*
X168482664Y-110282971D01*
X168720839Y-110282971D01*
X169038437Y-110599189D01*
X169356036Y-110915407D01*
X169414209Y-110908539D01*
X169492059Y-110909638D01*
X169560598Y-110930708D01*
X169617265Y-110969486D01*
X169659503Y-111023709D01*
X169684753Y-111091114D01*
X169690999Y-111153290D01*
X169680160Y-111219252D01*
X169651274Y-111275355D01*
X169608149Y-111320222D01*
X169554592Y-111352473D01*
X169494412Y-111370730D01*
X169431417Y-111373613D01*
X169369415Y-111359744D01*
X169312214Y-111327743D01*
X169283282Y-111300932D01*
X169246533Y-111246756D01*
X169225088Y-111185375D01*
X169221816Y-111141344D01*
X169372751Y-111141344D01*
X169379505Y-111172352D01*
X169390436Y-111193821D01*
X169406504Y-111211040D01*
X169429800Y-111222036D01*
X169468276Y-111230504D01*
X169469984Y-111230798D01*
X169483743Y-111224372D01*
X169505102Y-111206544D01*
X169508078Y-111203624D01*
X169528067Y-111175057D01*
X169536832Y-111145547D01*
X169536849Y-111144485D01*
X169527518Y-111112850D01*
X169504443Y-111082570D01*
X169475004Y-111061548D01*
X169454800Y-111056575D01*
X169425894Y-111066388D01*
X169397561Y-111090463D01*
X169377589Y-111120758D01*
X169372751Y-111141344D01*
X169221816Y-111141344D01*
X169220501Y-111123639D01*
X169231769Y-111074157D01*
X169232384Y-111065785D01*
X169227428Y-111053553D01*
X169215420Y-111035801D01*
X169194882Y-111010866D01*
X169164336Y-110977087D01*
X169122303Y-110932804D01*
X169067303Y-110876355D01*
X168997857Y-110806079D01*
X168952653Y-110760613D01*
X168663790Y-110470512D01*
X168356018Y-110470512D01*
X168048247Y-110470512D01*
X168048247Y-110425662D01*
X168049965Y-110379915D01*
X168054650Y-110317621D01*
X168061602Y-110245385D01*
X168070119Y-110169814D01*
X168079500Y-110097515D01*
X168089042Y-110035092D01*
X168090778Y-110025103D01*
X168120369Y-109873860D01*
X168153816Y-109734257D01*
X168193906Y-109595758D01*
X168243425Y-109447830D01*
X168243631Y-109447247D01*
X168284222Y-109332382D01*
X168242488Y-109206961D01*
X168182142Y-108990282D01*
X168141386Y-108763906D01*
X168120256Y-108531071D01*
X168118791Y-108295013D01*
X168137027Y-108058969D01*
X168175002Y-107826176D01*
X168224332Y-107628103D01*
X168262707Y-107504378D01*
X168299370Y-107401866D01*
X168334124Y-107320973D01*
X168366768Y-107262108D01*
X168397105Y-107225676D01*
X168424935Y-107212086D01*
X168427242Y-107211997D01*
X168453201Y-107218367D01*
G37*
D15*
%TO.C,C7*%
X149140000Y-107687836D02*
X149140000Y-107472164D01*
X149860000Y-107687836D02*
X149860000Y-107472164D01*
%TO.C,R19*%
X146730000Y-94856359D02*
X146730000Y-95163641D01*
X147490000Y-94856359D02*
X147490000Y-95163641D01*
%TO.C,C24*%
X175908749Y-91946252D02*
X175908749Y-91423748D01*
X177378749Y-91946252D02*
X177378749Y-91423748D01*
%TO.C,D2_PWR_5V1*%
X174735000Y-100110000D02*
X174735000Y-102395000D01*
X174735000Y-102395000D02*
X176205000Y-102395000D01*
X176205000Y-102395000D02*
X176205000Y-100110000D01*
%TO.C,C2*%
X151690000Y-109892164D02*
X151690000Y-110107836D01*
X152410000Y-109892164D02*
X152410000Y-110107836D01*
%TO.C,J11*%
X164650000Y-75520000D02*
X164650000Y-87240000D01*
X164650000Y-87240000D02*
X166070000Y-87240000D01*
X166070000Y-82740000D02*
X172210000Y-82740000D01*
X166070000Y-87240000D02*
X166070000Y-82740000D01*
X166960000Y-76130000D02*
X166960000Y-81630000D01*
X166960000Y-81630000D02*
X167460000Y-81630000D01*
X167460000Y-76130000D02*
X166960000Y-76130000D01*
X167460000Y-81630000D02*
X167460000Y-76130000D01*
X169460000Y-76130000D02*
X169460000Y-81630000D01*
X169460000Y-81630000D02*
X169960000Y-81630000D01*
X169960000Y-76130000D02*
X169460000Y-76130000D01*
X169960000Y-81630000D02*
X169960000Y-76130000D01*
X171960000Y-76130000D02*
X171960000Y-81630000D01*
X171960000Y-81630000D02*
X172460000Y-81630000D01*
X172210000Y-75520000D02*
X164650000Y-75520000D01*
X172210000Y-75520000D02*
X179770000Y-75520000D01*
X172460000Y-76130000D02*
X171960000Y-76130000D01*
X172460000Y-81630000D02*
X172460000Y-76130000D01*
X174460000Y-76130000D02*
X174460000Y-81630000D01*
X174460000Y-81630000D02*
X174960000Y-81630000D01*
X174960000Y-76130000D02*
X174460000Y-76130000D01*
X174960000Y-81630000D02*
X174960000Y-76130000D01*
X176910000Y-86930000D02*
X177210000Y-86330000D01*
X176960000Y-76130000D02*
X176960000Y-81630000D01*
X176960000Y-81630000D02*
X177460000Y-81630000D01*
X177210000Y-86330000D02*
X177510000Y-86930000D01*
X177460000Y-76130000D02*
X176960000Y-76130000D01*
X177460000Y-81630000D02*
X177460000Y-76130000D01*
X177510000Y-86930000D02*
X176910000Y-86930000D01*
X178350000Y-82740000D02*
X172210000Y-82740000D01*
X178350000Y-87240000D02*
X178350000Y-82740000D01*
X179770000Y-75520000D02*
X179770000Y-87240000D01*
X179770000Y-87240000D02*
X178350000Y-87240000D01*
%TO.C,R15*%
X169820108Y-92765000D02*
X170127390Y-92765000D01*
X169820108Y-93525000D02*
X170127390Y-93525000D01*
%TO.C,R18*%
X148030000Y-91883641D02*
X148030000Y-91576359D01*
X148790000Y-91883641D02*
X148790000Y-91576359D01*
%TD*%
M02*
